<?xml version="1.0" encoding="utf-8"?>
<!-- Generator: Adobe Illustrator 26.4.1, SVG Export Plug-In . SVG Version: 6.00 Build 0)  -->
<svg version="1.1" id="Layer_1" xmlns="http://www.w3.org/2000/svg" xmlns:xlink="http://www.w3.org/1999/xlink" x="0px" y="0px"
	 viewBox="0 0 50 50" style="enable-background:new 0 0 50 50;" xml:space="preserve">
<style type="text/css">
	.st0{fill:#282E72;}
	.st1{fill:#DAE343;}
</style>
<circle class="st0" cx="24.7" cy="7.9" r="5.1"/>
<g>
	<g id="XMLID_00000183228215511229737900000004930798761956538510_">
		<g>
			<path class="st1" d="M43,17.5c0.2,0.1,0.2,0.4,0,0.5c-0.7,0.4-1.5,1.2-2,2.8c-0.1,0.3-0.4,0.3-0.5,0c-0.4-1.6-1.2-2.4-1.9-2.8
				c-0.2-0.1-0.2-0.4,0-0.5c0.7-0.4,1.5-1.3,2-2.8c0.1-0.3,0.4-0.3,0.5,0C41.4,16.3,42.3,17.1,43,17.5z"/>
			<path class="st0" d="M38.1,7.9c0.1,0.7,0,1.5-0.4,2.1l-6.6,10.3v9.5c0,0.1,0,0.1,0,0.2c0,0.1,0,0.1,0,0.1l1.5,13.4c0,0,0,0,0,0
				c0.1,0.9-0.2,1.8-0.8,2.5c-0.6,0.7-1.4,1.1-2.3,1.2c-0.1,0-0.2,0-0.3,0c-0.8,0-1.5-0.3-2.2-0.8c-0.7-0.6-1.1-1.4-1.2-2.3
				l-1.2-10.3l-1.2,10.3c-0.2,1.8-1.6,3.1-3.4,3.1c-0.1,0-0.2,0-0.3,0c-1.9-0.2-3.2-1.8-3.1-3.7c0,0,0,0,0,0L18.3,30
				c0,0,0-0.1,0-0.1c0,0,0-0.1,0-0.2v-9.5L11.6,9.9c-0.4-0.6-0.5-1.3-0.4-2.1c0.2-0.7,0.6-1.3,1.2-1.7c0.6-0.4,1.3-0.5,2.1-0.4
				c0.7,0.2,1.3,0.6,1.7,1.2l4.6,7.1h7.7L33.1,7c0.4-0.6,1-1,1.7-1.2c0.7-0.2,1.4,0,2.1,0.4C37.5,6.5,38,7.1,38.1,7.9z M36.4,9
				c0.2-0.2,0.2-0.5,0.1-0.8c-0.1-0.3-0.2-0.5-0.5-0.7c-0.2-0.2-0.5-0.2-0.8-0.2c-0.3,0.1-0.5,0.2-0.7,0.5l-4.8,7.5
				c-0.2,0.2-0.4,0.4-0.7,0.4c0,0,0,0,0,0h-8.5c0,0,0,0,0,0c-0.3,0-0.6-0.1-0.7-0.4l-4.8-7.5c-0.2-0.2-0.4-0.4-0.7-0.5
				s-0.6,0-0.8,0.2c-0.2,0.2-0.4,0.4-0.5,0.7c-0.1,0.3,0,0.6,0.2,0.8l6.8,10.5c0.1,0.1,0.1,0.3,0.1,0.4v9.7c0,0,0,0,0,0.1
				c0,0,0,0.1,0,0.1c0,0.2,0,0.3,0,0.3c0,0,0,0,0,0l-1.5,13.4c0,0.5,0.1,0.9,0.4,1.3c0.3,0.4,0.7,0.6,1.2,0.6c1,0.1,1.8-0.6,1.9-1.6
				v0l1.4-12.1c0.1-0.7,0.7-1.3,1.4-1.3c0.7,0,1.4,0.5,1.4,1.3L27.5,44v0c0,0.5,0.3,0.9,0.6,1.2c0.4,0.3,0.8,0.4,1.3,0.4
				c0.5,0,0.9-0.3,1.2-0.6c0.3-0.4,0.4-0.8,0.4-1.3l-1.6-13.4c0-0.1,0-0.1,0-0.3c0,0,0-0.1,0-0.1c0,0,0,0,0-0.1V20
				c0-0.2,0-0.3,0.1-0.4L36.4,9z"/>
			<path class="st1" d="M37.4,25.8c0.1,0.1,0.1,0.3,0,0.4c-0.5,0.3-1,0.8-1.3,1.8c0,0.2-0.3,0.2-0.3,0c-0.3-1-0.8-1.6-1.3-1.8
				c-0.1-0.1-0.1-0.3,0-0.4c0.5-0.3,1-0.8,1.3-1.9c0-0.2,0.3-0.2,0.3,0C36.4,25,37,25.6,37.4,25.8z"/>
			<path class="st1" d="M36.5,8.2c0.1,0.3,0,0.6-0.1,0.8l-6.8,10.5c-0.1,0.1-0.1,0.3-0.1,0.4v9.7c0,0,0,0,0,0.1c0,0,0,0.1,0,0.1
				c0,0.2,0,0.3,0,0.3L31,43.6c0,0.5-0.1,0.9-0.4,1.3c-0.3,0.4-0.7,0.6-1.2,0.6c-0.5,0-0.9-0.1-1.3-0.4c-0.4-0.3-0.6-0.7-0.6-1.2v0
				l-1.4-12.1c-0.1-0.7-0.7-1.3-1.4-1.3c-0.7,0-1.3,0.5-1.4,1.3L21.9,44v0c-0.1,1-1,1.7-1.9,1.6c-0.5,0-0.9-0.3-1.2-0.6
				c-0.3-0.4-0.4-0.8-0.4-1.3l1.5-13.4c0,0,0,0,0,0c0,0,0,0,0-0.3c0,0,0-0.1,0-0.1c0,0,0,0,0-0.1V20c0-0.2,0-0.3-0.1-0.4L13,9
				c-0.2-0.2-0.2-0.5-0.2-0.8c0.1-0.3,0.2-0.5,0.5-0.7c0.2-0.2,0.5-0.2,0.8-0.2s0.5,0.2,0.7,0.5l4.8,7.5c0.2,0.2,0.4,0.4,0.7,0.4
				c0,0,0,0,0,0h8.5c0,0,0,0,0,0c0.3,0,0.6-0.1,0.7-0.4l4.8-7.5c0.1-0.2,0.4-0.4,0.7-0.5c0.3-0.1,0.6,0,0.8,0.2
				C36.3,7.7,36.4,7.9,36.5,8.2z"/>
			<circle class="st1" cx="24.7" cy="7.9" r="3.5"/>
			<path class="st1" d="M11.1,18.3c0.2,0.1,0.2,0.4,0,0.5c-0.7,0.4-1.4,1.1-1.8,2.6c-0.1,0.2-0.4,0.3-0.4,0
				c-0.4-1.4-1.1-2.2-1.8-2.6c-0.2-0.1-0.2-0.4,0-0.5c0.6-0.4,1.4-1.2,1.8-2.6c0.1-0.2,0.4-0.2,0.4,0C9.6,17.1,10.4,17.9,11.1,18.3z
				"/>
		</g>
		<g>
		</g>
	</g>
</g>
</svg>
