<?xml version="1.0" encoding="utf-8"?>
<!-- Generator: Adobe Illustrator 26.5.0, SVG Export Plug-In . SVG Version: 6.00 Build 0)  -->
<svg version="1.1" id="Layer_1" xmlns="http://www.w3.org/2000/svg" xmlns:xlink="http://www.w3.org/1999/xlink" x="0px" y="0px"
	 viewBox="0 0 400 400" style="enable-background:new 0 0 400 400;" xml:space="preserve">
<style type="text/css">
	.st0{fill:#00ABE1;}
</style>
<path class="st0" d="M368.4,124.7L221.9,33.5c-13.4-8.4-30.5-8.4-43.9,0L31.6,124.7c-11.1,6.9-17.9,18.9-17.9,31.8V335
	c0,20.9,17.4,37.8,38.8,37.8h294.9c21.4,0,38.8-16.9,38.8-37.8V156.6C386.3,143.7,379.5,131.7,368.4,124.7z M152.3,275.5L61.6,346
	c-2.3,1.8-5,2.7-7.7,2.7c-3.8,0-7.5-1.7-10-4.9c-4.3-5.5-3.3-13.4,2.2-17.7l90.7-70.6c5.5-4.3,13.4-3.3,17.7,2.2
	C158.8,263.3,157.8,271.2,152.3,275.5z M188,245.9L73.1,164.5c-12.7-9-6.2-28.6,9.5-28.6h234.7c15.7,0,22.3,19.6,9.5,28.6L212,245.9
	C204.8,250.9,195.2,250.9,188,245.9z M356.1,343.8c-2.5,3.2-6.2,4.9-10,4.9c-2.7,0-5.4-0.9-7.7-2.7l-90.7-70.6
	c-5.5-4.3-6.5-12.2-2.2-17.7c4.3-5.5,12.2-6.5,17.7-2.2l90.7,70.6C359.4,330.4,360.4,338.3,356.1,343.8z M245.4,159.7h-80.6
	c-8.4,0-15.1,6.8-15.1,15.1c0,8.3,6.8,15.1,15.1,15.1h80.6c8.4,0,15.1-6.8,15.1-15.1C260.5,166.5,253.7,159.7,245.4,159.7z"/>
</svg>
