<?xml version="1.0" encoding="utf-8"?>
<!-- Generator: Adobe Illustrator 26.4.1, SVG Export Plug-In . SVG Version: 6.00 Build 0)  -->
<svg version="1.1" id="Layer_1" xmlns="http://www.w3.org/2000/svg" xmlns:xlink="http://www.w3.org/1999/xlink" x="0px" y="0px"
	 viewBox="0 0 300 300" style="enable-background:new 0 0 300 300;" xml:space="preserve">
<style type="text/css">
	.st0{fill:#474747;}
	.st1{fill:#FFFFFF;}
</style>
<g>
	<g>
		<g>
			<g>
				<g>
					<g>
						<path class="st0" d="M75.4,66.2c8-7.5,17.5-6.4,27.4-6.4c12.8,0,25.5,0,38.3,0c22.2,0,44.4-0.3,66.6,0
							c14,0.2,22.4,11,22.4,24.3c0,8.1,0,16.2,0,24.3c0,28.2,0,56.3,0,84.5c0,16.9,0.5,33.9,0,50.9c-0.4,12.2-9.8,21.4-21.9,21.8
							c-1.9,0.1-3.9,0-5.8,0c-11.2,0-22.5,0-33.7,0c-24.8,0-49.6,0-74.4,0c-3.7,0-7.2,0-10.8-1.3c-9-3.2-14.3-11.6-14.5-20.9
							c-0.1-6.2,0-12.4,0-18.6c0-47.4-0.4-94.8,0-142.1C69,76.3,70.9,70.9,75.4,66.2c3.6-3.8-2.1-9.5-5.7-5.7
							c-8,8.4-8.8,18-8.8,28.7c0,10.8,0,21.6,0,32.4c0,29.9,0,59.9,0,89.8c0,9.4,0,18.9,0,28.3c0,13.4,5.1,25.9,18.3,31.5
							c8.3,3.5,18.2,2.4,27,2.4c14,0,28,0,41.9,0c14.3,0,28.5,0,42.8,0c7.9,0,17,1,24.7-0.9c15.2-3.8,22.7-17.4,22.7-32
							c0-9,0-17.9,0-26.9c0-29.9,0-59.7,0-89.6c0-11.2,0-22.4,0-33.6c0-9.3,0.3-18.2-5.6-26.3c-5.8-8-14.8-12.4-24.6-12.6
							c-2.6-0.1-5.1,0-7.7,0c-12.5,0-25,0-37.5,0c-23.8,0-47.7-0.3-71.5,0c-8.3,0.1-15.7,3.1-21.7,8.8C65.9,64,71.6,69.8,75.4,66.2z
							"/>
					</g>
				</g>
			</g>
		</g>
	</g>
	<g>
		<path class="st1" d="M128.5,44.8c2.9-9.1,11.5-15.5,21-15.5c9.6,0,18.2,6.3,21,15.5h8.8v8.3v0.8v17.5h-59.7V53.9v-0.8v-8.3H128.5z
			"/>
		<g>
			<g>
				<path class="st0" d="M132.4,45.9c5.7-16.2,28.6-16.2,34.3,0c0.6,1.7,2,3,3.9,3c2.9,0,5.9,0,8.8,0c-1.3-1.3-2.7-2.7-4-4
					c0,8.9,0,17.7,0,26.6c1.3-1.3,2.7-2.7,4-4c-19.9,0-39.8,0-59.7,0c1.3,1.3,2.7,2.7,4,4c0-8.9,0-17.7,0-26.6c-1.3,1.3-2.7,2.7-4,4
					c2.9,0,5.9,0,8.8,0c5.2,0,5.2-8.1,0-8.1c-2.9,0-5.9,0-8.8,0c-2.2,0-4,1.9-4,4c0,8.9,0,17.7,0,26.6c0,2.2,1.9,4,4,4
					c19.9,0,39.8,0,59.7,0c2.2,0,4-1.9,4-4c0-8.9,0-17.7,0-26.6c0-2.2-1.9-4-4-4c-2.9,0-5.9,0-8.8,0c1.3,1,2.6,2,3.9,3
					c-3.7-10.7-13.4-18.5-24.9-18.4c-11.6,0-21.2,7.7-24.9,18.4C122.9,48.7,130.7,50.8,132.4,45.9z"/>
			</g>
		</g>
	</g>
	<g>
		<g>
			<g>
				<g>
					<g>
						<path class="st0" d="M187.4,139c7.6,0,15.3,0,22.9,0c2.2,0,4-1.9,4-4c0-7.6,0-15.3,0-22.9c0-2.2-1.9-4-4-4
							c-7.6,0-15.3,0-22.9,0c-2.2,0-4,1.9-4,4c0,7.6,0,15.3,0,22.9c0,5.2,8.1,5.2,8.1,0c0-7.6,0-15.3,0-22.9c-1.3,1.3-2.7,2.7-4,4
							c7.6,0,15.3,0,22.9,0c-1.3-1.3-2.7-2.7-4-4c0,7.6,0,15.3,0,22.9c1.3-1.3,2.7-2.7,4-4c-7.6,0-15.3,0-22.9,0
							C182.2,131,182.2,139,187.4,139z"/>
					</g>
				</g>
			</g>
		</g>
	</g>
	<g>
		<g>
			<g>
				<g>
					<g>
						<path class="st0" d="M187.4,227.3c7.6,0,15.3,0,22.9,0c2.2,0,4-1.9,4-4c0-7.6,0-15.3,0-22.9c0-2.2-1.9-4-4-4
							c-7.6,0-15.3,0-22.9,0c-2.2,0-4,1.9-4,4c0,7.6,0,15.3,0,22.9c0,5.2,8.1,5.2,8.1,0c0-7.6,0-15.3,0-22.9c-1.3,1.3-2.7,2.7-4,4
							c7.6,0,15.3,0,22.9,0c-1.3-1.3-2.7-2.7-4-4c0,7.6,0,15.3,0,22.9c1.3-1.3,2.7-2.7,4-4c-7.6,0-15.3,0-22.9,0
							C182.2,219.2,182.2,227.3,187.4,227.3z"/>
					</g>
				</g>
			</g>
		</g>
	</g>
	<g>
		<g>
			<g>
				<g>
					<g>
						<path class="st0" d="M187.4,183.2c7.6,0,15.3,0,22.9,0c2.2,0,4-1.9,4-4c0-7.6,0-15.3,0-22.9c0-2.2-1.9-4-4-4
							c-7.6,0-15.3,0-22.9,0c-2.2,0-4,1.9-4,4c0,7.6,0,15.3,0,22.9c0,5.2,8.1,5.2,8.1,0c0-7.6,0-15.3,0-22.9c-1.3,1.3-2.7,2.7-4,4
							c7.6,0,15.3,0,22.9,0c-1.3-1.3-2.7-2.7-4-4c0,7.6,0,15.3,0,22.9c1.3-1.3,2.7-2.7,4-4c-7.6,0-15.3,0-22.9,0
							C182.2,175.1,182.2,183.2,187.4,183.2z"/>
					</g>
				</g>
			</g>
		</g>
	</g>
	<g>
		<path class="st1" d="M146.8,46.5c0,1.5,1.2,2.7,2.7,2.7c1.5,0,2.7-1.2,2.7-2.7c0-1.5-1.2-2.7-2.7-2.7
			C148,43.8,146.8,45,146.8,46.5z"/>
		<g>
			<g>
				<path class="st0" d="M142.8,46.5c0.2,3.7,2.9,6.8,6.8,6.8c3.7,0,6.7-3.1,6.8-6.8c0.1-3.6-3-6.6-6.6-6.7
					C145.8,39.6,143,42.8,142.8,46.5c-0.1,2.1,1.9,4.1,4,4c2.3-0.1,3.9-1.8,4-4c0,0.3-0.2,0.7,0,0.2c0,0.3-0.2,0.5-0.3,0.6
					c-0.2,0.2-0.2,0.2-0.1,0.1c0.2-0.2-0.4,0.2-0.5,0.3c-0.3,0.1-0.3,0.1,0,0c-0.2,0-0.3,0.1-0.5,0.1c-0.3,0-0.7-0.2-0.2,0
					c-0.2-0.1-1-0.6-0.7-0.4c0.2,0.2-0.2-0.4-0.3-0.5c-0.1-0.3-0.1-0.3-0.1-0.1c0.1,0.3,0.1,0.2,0-0.4c0-0.3,0.2-0.7,0-0.2
					c0.1-0.3,0.2-0.6,0.5-0.8c-0.4,0.5,0.2-0.1,0.4-0.2c0.3-0.1,0.3-0.1,0.1-0.1c-0.2,0.1-0.2,0.1,0.1,0c0.2,0,1.1,0.2,0.5,0
					c0.3,0.1,0.6,0.2,0.8,0.5c-0.5-0.4,0.1,0.2,0.2,0.4c0.1,0.3,0.1,0.3,0.1,0.1c-0.1-0.3-0.1-0.2,0,0.4c-0.1-2.1-1.8-4.1-4-4
					C144.7,42.6,142.7,44.2,142.8,46.5z"/>
			</g>
		</g>
	</g>
	<g>
		<g>
			<path class="st0" d="M165.6,119.5c-23.3,0-46.6,0-69.9,0c-5.2,0-5.2,8.1,0,8.1c23.3,0,46.6,0,69.9,0
				C170.8,127.6,170.8,119.5,165.6,119.5L165.6,119.5z"/>
		</g>
	</g>
	<g>
		<g>
			<path class="st0" d="M165.6,162.8c-23.3,0-46.6,0-69.9,0c-5.2,0-5.2,8.1,0,8.1c23.3,0,46.6,0,69.9,0
				C170.8,170.9,170.8,162.8,165.6,162.8L165.6,162.8z"/>
		</g>
	</g>
	<g>
		<g>
			<path class="st0" d="M165.6,208.3c-23.3,0-46.6,0-69.9,0c-5.2,0-5.2,8.1,0,8.1c23.3,0,46.6,0,69.9,0
				C170.8,216.4,170.8,208.3,165.6,208.3L165.6,208.3z"/>
		</g>
	</g>
</g>
</svg>
