<?xml version="1.0" encoding="utf-8"?>
<!-- Generator: Adobe Illustrator 26.4.1, SVG Export Plug-In . SVG Version: 6.00 Build 0)  -->
<svg version="1.1" id="Layer_1" xmlns="http://www.w3.org/2000/svg" xmlns:xlink="http://www.w3.org/1999/xlink" x="0px" y="0px"
	 viewBox="0 0 300 300" style="enable-background:new 0 0 300 300;" xml:space="preserve">
<style type="text/css">
	.st0{fill:#484848;}
</style>
<g>
	<g>
		<g>
			<path class="st0" d="M72.8,244c-0.9,0-1.9-0.3-2.7-1c-1.8-1.5-2.1-4.2-0.6-6l43.1-52.2H52.4c-9.6,0-17.4-7.8-17.4-17.4
				c0-9.6,7.8-17.4,17.4-17.4h22c2.3,0,4.2,1.9,4.2,4.2c0,2.3-1.9,4.2-4.2,4.2h-22c-4.9,0-8.9,4-8.9,8.9c0,4.9,4,8.9,8.9,8.9h69.2
				c1.6,0,3.1,0.9,3.8,2.4c0.7,1.5,0.5,3.2-0.6,4.5l-48.8,59.1C75.2,243.4,74,244,72.8,244z"/>
			<path class="st0" d="M129.2,223.3c-0.8,0-1.7-0.2-2.4-0.8c-1.9-1.3-2.4-4-1.1-5.9l25.6-37c1.3-2,2-4.4,2-6.8
				c0-7.9-6.5-14.4-14.4-14.4h-25c-2.3,0-4.2-1.9-4.2-4.2c0-2.3,1.9-4.2,4.2-4.2h25c12.6,0,22.9,10.3,22.9,22.9c0,4-1.2,8-3.3,11.4
				c0,0-0.1,0.1-0.1,0.1l-25.7,37C131.9,222.6,130.6,223.3,129.2,223.3z"/>
			<path class="st0" d="M23.7,247.5c-2.2,0-4.1-1.7-4.2-3.9c-0.2-2.3,1.6-4.4,3.9-4.5l103.5-7.8c2.3-0.2,4.4,1.6,4.5,3.9
				c0.2,2.3-1.6,4.4-3.9,4.5L24,247.5C23.9,247.5,23.8,247.5,23.7,247.5z"/>
			<path class="st0" d="M126.6,279.8H23.7c-2.3,0-4.2-1.9-4.2-4.2c0-2.3,1.9-4.2,4.2-4.2h102.9c2.3,0,4.2,1.9,4.2,4.2
				C130.8,277.9,128.9,279.8,126.6,279.8z"/>
			<path class="st0" d="M210.4,247.5c-0.7,0-1.4-0.2-2-0.5l-5.4-2.9c-4.7-2.5-22.6-4.4-30.1-4.4c-2.3,0-4.2-1.9-4.2-4.2
				c0-2.3,1.9-4.2,4.2-4.2c5.1,0,26.6,1.4,34.1,5.4l5.4,2.9c2.1,1.1,2.8,3.7,1.7,5.7C213.4,246.7,211.9,247.5,210.4,247.5z"/>
			<path class="st0" d="M221.7,286.3h-82.3c-5.1,0-9.7-2.6-12.4-6.9c-2.7-4.3-3-9.6-0.7-14.2l20.3-41.6c2.6-5.4,8.2-8.8,14.1-8.8
				c5.4,0,10.4,2.7,13.3,7.3c2.9,4.6,3.3,10.2,1,15.1L162,265c-1,2.1-3.5,3-5.6,2c-2.1-1-3-3.5-2-5.6l13-27.7c1.1-2.3,0.9-4.9-0.4-7
				c-1.4-2.1-3.6-3.4-6.1-3.4c-2.8,0-5.3,1.6-6.5,4.1L133.9,269c-1,2-0.8,4.1,0.3,6c1.2,1.9,3.1,2.9,5.3,2.9h82.3
				c2.3,0,4.2,1.9,4.2,4.2C226,284.4,224.1,286.3,221.7,286.3z"/>
		</g>
		<path class="st0" d="M104.8,180.1c-3.8,0-7.7-1.3-10.8-4l-38.1-32.8c-8.8-7.5-10.3-20.7-3.4-30.1l32-43.6
			C89.6,62.5,98,58.2,106.7,58l16.7-0.4c2.3,0,4.3,1.8,4.3,4.1c0.1,2.3-1.8,4.3-4.1,4.3l-16.7,0.4c-6.2,0.2-12,3.2-15.7,8.2
			l-32,43.6c-4.2,5.8-3.3,14,2.1,18.6l38.1,32.8c3.3,2.8,8.2,2.6,11.2-0.6c1.5-1.6,2.3-3.8,2.2-6c-0.1-2.2-1.1-4.3-2.9-5.7
			l-32.1-27.1c-1.7-1.5-2-4.1-0.6-5.9l20.5-26.1c1.4-1.8,4.1-2.2,5.9-0.7c1.8,1.4,2.2,4.1,0.7,5.9l-18,22.9l29,24.5
			c3.5,3,5.6,7.1,5.8,11.7c0.3,4.6-1.3,8.9-4.4,12.3C113.6,178.3,109.2,180.1,104.8,180.1z"/>
		<path class="st0" d="M168.6,207.9c-0.2,0-0.3,0-0.5,0c-2.3-0.3-4-2.4-3.7-4.7L175,109c0.6-5.6-0.4-11.2-2.9-16.2L162,78.5
			c-1.3-1.9-0.9-4.6,1-5.9c1.9-1.3,4.6-0.9,5.9,1l10.3,14.6c0.1,0.2,0.2,0.3,0.3,0.5c3.4,6.6,4.8,13.9,4,21.3l-10.7,94.2
			C172.5,206.3,170.7,207.9,168.6,207.9z"/>
		<path class="st0" d="M149.8,144.5c-0.2,0-0.4,0-0.5,0c-2.3-0.3-4-2.4-3.7-4.7l2.9-23.4c0.3-2.3,2.4-4,4.7-3.7
			c2.3,0.3,4,2.4,3.7,4.7l-2.9,23.4C153.7,142.9,151.9,144.5,149.8,144.5z"/>
	</g>
	<g>
		<g>
			<g>
				<g>
					<path class="st0" d="M238.4,288.2c-13.1,0-28.1-2.1-31.5-13.7c-0.7-2.2,0.6-4.6,2.9-5.3c2.2-0.7,4.6,0.6,5.3,2.9
						c2.6,9.1,26.2,7.7,35,7.2c2-0.1,3.6-0.2,4.9-0.2c3.8,0,6.6-0.9,8.3-2.7c2.2-2.3,2.2-5.4,2.2-5.4c0-1.4,0.6-2.7,1.7-3.5
						c7.2-5.5,4.7-14.2,4.6-14.6c-0.1-0.2-0.1-0.3-0.1-0.5c-1.7-9.4-0.9-19.2-0.2-24.7c-6.1-0.2-10.9,1.3-14.4,4.6c-3,2.8-4,6-4,6
						c-0.5,1.8-2.1,3.1-4,3.1l-24.4,0.7c-9.5,1.4-11.5,6.6-11.5,10.8c0,2.3-1.9,4.2-4.2,4.2s-4.2-1.9-4.2-4.2
						c0-10.4,7.1-17.6,19.1-19.2c0.1,0,0.3,0,0.4,0l21.9-0.6c3.4-7.1,12.8-16.2,31-13.3c1.1,0.2,2.2,0.8,2.8,1.8
						c0.7,1,0.9,2.1,0.7,3.3c0,0.1-2.7,13.7-0.5,25.9c0.6,2.1,3.3,13.8-6.1,22.3c-0.3,2.4-1.3,6.1-4.4,9.3
						c-3.4,3.5-8.2,5.3-14.4,5.4c-1,0-2.6,0.1-4.4,0.2C247,288,242.8,288.2,238.4,288.2z"/>
				</g>
			</g>
		</g>
		<path class="st0" d="M246.9,259c-2.2,0-4.1-1.7-4.2-3.9c-0.3-4.6,0.2-14.7,1.5-18.7c0.7-2.2,3.1-3.4,5.4-2.7
			c2.2,0.7,3.4,3.1,2.7,5.4c-0.7,2.1-1.4,10.6-1.1,15.4c0.2,2.3-1.6,4.4-3.9,4.5C247.1,259,247,259,246.9,259z"/>
	</g>
	<g>
		<g>
			<g>
				<g>
					<g>
						<path class="st0" d="M148.4,88.4c-0.3,0-0.6,0-0.9,0c-2.3-0.1-4.2-2-4.1-4.3c0.1-2.3,2-4.2,4.3-4.1c8,0.2,12.1-2.5,13.8-8.9
							c1.5-5.9,7.3-22,7.6-22.7c0.8-2.2,3.2-3.3,5.4-2.5c2.2,0.8,3.3,3.2,2.5,5.4c-0.1,0.2-5.9,16.4-7.3,21.9
							C166.4,85.7,156.5,88.4,148.4,88.4z"/>
					</g>
				</g>
			</g>
		</g>
		<path class="st0" d="M134.5,85c-0.9,0-1.7-0.3-2.5-0.8l-0.5-0.3c-6.9-5-14.8-10.7-11.5-23.5c1.5-5.8,2.5-11.5,3.3-16.5
			c0.7-3.8,1.3-7.4,2-10.7c1.4-5.9,4.2-10.2,8.3-12.7c3-1.9,6.1-2.3,8.3-2.3c2.5-3.6,6.3-5.9,10.8-6.3c4.7-0.4,9.7,1.2,12.9,4
			c2.2-0.2,4.5,0,6.6,0.5c5,1.3,9.2,4.5,11.8,8.9c2.6,4.5,3.4,9.7,2.1,14.7c-2.7,10.3-13.3,16.6-23.6,13.9
			c-6.4-1.7-11.5-6.5-13.6-12.8c-0.7-2.2,0.5-4.6,2.7-5.3c2.2-0.7,4.6,0.5,5.3,2.7c1.2,3.6,4,6.3,7.6,7.2c5.8,1.5,11.8-2,13.3-7.8
			c1.5-5.8-2-11.8-7.8-13.3c-1.6-0.4-3.6-0.4-5.2-0.1c-1.7,0.4-3.4-0.3-4.4-1.7c-0.8-1.2-3.8-2.8-7.1-2.5c-2.5,0.2-4.3,1.5-5.4,4
			c-0.8,1.9-2.8,2.9-4.9,2.4l0,0c0,0-2-0.4-4.1,0.4c-2.7,1-4.6,3.8-5.6,8.1c-0.7,3-1.3,6.5-1.9,10.2c-0.9,5.2-1.9,11.1-3.5,17.2
			c-1.8,6.9,1.2,9.5,8.2,14.5l0.5,0.3c1.9,1.4,2.3,4,1,5.9C137.1,84.4,135.8,85,134.5,85z"/>
		<path class="st0" d="M147.3,51.9c-1,0-2-0.1-3-0.4c-4.5-1.2-7.8-4.7-8.7-9.2c-0.5-2.3,1-4.5,3.3-5c2.3-0.5,4.5,1,5,3.3
			c0.3,1.3,1.2,2.3,2.5,2.7c1.6,0.4,3.3-0.4,4-1.9c1-2.1,3.5-3,5.6-2c2.1,1,3,3.5,2,5.6C156.1,49.3,151.8,51.9,147.3,51.9z"/>
	</g>
	<path class="st0" d="M179.5,261.1h-18.2c-2.3,0-4.2-1.9-4.2-4.2c0-2.3,1.9-4.2,4.2-4.2h18.2c2.3,0,4.2,1.9,4.2,4.2
		C183.7,259.2,181.8,261.1,179.5,261.1z"/>
</g>
</svg>
