<?xml version="1.0" encoding="utf-8"?>
<!-- Generator: Adobe Illustrator 26.4.1, SVG Export Plug-In . SVG Version: 6.00 Build 0)  -->
<svg version="1.1" id="Layer_1" xmlns="http://www.w3.org/2000/svg" xmlns:xlink="http://www.w3.org/1999/xlink" x="0px" y="0px"
	 viewBox="0 0 300 300" style="enable-background:new 0 0 300 300;" xml:space="preserve">
<style type="text/css">
	.st0{fill:#474747;}
</style>
<g id="g1774" transform="matrix(4.0000036,0,0,4.0000036,-256.00089,-1367.9993)">
	<g id="path1752">
		<path class="st0" d="M127.7,414.4H75.3c-4.8,0-8.7-3.9-8.7-8.7s3.9-8.7,8.7-8.7h52.4c4.8,0,8.7,3.9,8.7,8.7
			S132.5,414.4,127.7,414.4z M75.3,399.2c-3.6,0-6.6,2.9-6.6,6.6s2.9,6.6,6.6,6.6h52.4c3.6,0,6.6-2.9,6.6-6.6s-2.9-6.6-6.6-6.6H75.3
			z"/>
	</g>
	<g id="path1754">
		<path class="st0" d="M127.7,410.1H75.3c-2.4,0-4.4-2-4.4-4.4c0-2.4,2-4.4,4.4-4.4h52.4c2.4,0,4.4,2,4.4,4.4
			C132.1,408.1,130.1,410.1,127.7,410.1z M75.3,403.5c-1.2,0-2.2,1-2.2,2.2c0,1.2,1,2.2,2.2,2.2h52.4c1.2,0,2.2-1,2.2-2.2
			c0-1.2-1-2.2-2.2-2.2H75.3z"/>
	</g>
	<g id="g1768" transform="matrix(0.72748386,0,0,0.72868803,118.8751,65.386185)">
		<g id="path1756">
			<path class="st0" d="M-29.2,453.8c-0.5,0-1.1-0.1-1.6-0.3c-2.1-0.8-3.2-3.2-2.4-5.3l2.4-11.6l-9.5-10c-0.6-0.6-0.5-1.5,0.1-2.1
				c0.6-0.6,1.6-0.5,2.1,0.1l10,10.5c0.3,0.4,0.5,0.9,0.4,1.3l-2.6,12.5c0,0.1,0,0.2-0.1,0.2c-0.2,0.6,0.1,1.3,0.7,1.6
				c0.3,0.1,0.6,0.1,0.9,0c0.3-0.1,0.5-0.4,0.6-0.6l4.9-14.9l-8.5-13.2c-0.4-0.7-0.2-1.6,0.4-2.1c0.7-0.4,1.6-0.2,2.1,0.4l8.9,13.8
				c0.2,0.4,0.3,0.9,0.2,1.3l-5.1,15.6c0,0,0,0.1,0,0.1c-0.4,1.1-1.2,1.9-2.3,2.3C-28.1,453.7-28.7,453.8-29.2,453.8z"/>
		</g>
		<g id="path1758">
			<path class="st0" d="M-48.9,438.1c-0.1,0-0.3,0-0.4-0.1l-15.1-4.1c-0.1,0-0.1,0-0.2-0.1c-2.2-0.9-3.2-3.4-2.3-5.5
				c0.4-1,1.3-1.9,2.3-2.3c1-0.4,2-0.4,3-0.1l10.9,1.4l8-9.4c0.5-0.6,1.5-0.7,2.1-0.2c0.6,0.5,0.7,1.5,0.2,2.1l-8.5,10
				c-0.3,0.4-0.8,0.6-1.3,0.5L-62,429c-0.1,0-0.3-0.1-0.4-0.1c-0.3-0.1-0.6-0.1-0.9,0c-0.3,0.1-0.5,0.4-0.7,0.7
				c-0.3,0.6,0,1.3,0.6,1.6l14.3,3.9l11.2-7.4c0.7-0.5,1.6-0.3,2.1,0.4s0.3,1.6-0.4,2.1l-11.8,7.8C-48.3,438-48.6,438.1-48.9,438.1z
				"/>
		</g>
		<g id="path1760">
			<path class="st0" d="M-30.5,422.7c-0.2,0-0.3,0-0.5-0.1c-0.8-0.3-1.2-1.1-0.9-1.9l3.9-11.4c0.3-0.8,1.1-1.2,1.9-0.9
				c0.8,0.3,1.2,1.1,0.9,1.9l-0.8,2.2l6.4,4.6l11.2,0.6c0.4,0,0.5-0.4,0.5-0.5c0.1-0.4-0.3-0.7-0.9-0.9l-9.4-1.7
				c-0.4-0.1-0.8-0.3-1-0.7l-7.6-13.1c-0.4-0.7-0.2-1.6,0.5-2c0.7-0.4,1.6-0.2,2.1,0.5l7.3,12.5l8.8,1.6c0,0,0.1,0,0.1,0
				c2.5,0.7,3.3,2.6,3.1,4.2c-0.2,1.8-1.7,3.1-3.5,3.1c0,0-0.1,0-0.1,0l-11.7-0.6c-0.3,0-0.6-0.1-0.8-0.3l-6-4.3l-2.1,6.3
				C-29.3,422.3-29.9,422.7-30.5,422.7z"/>
		</g>
		<g id="path1762">
			<path class="st0" d="M-51.2,421.9c-0.2,0-0.3,0-0.5,0c-1.8-0.2-3-1.7-3-3.5c0,0,0,0,0,0l0.4-11.2c0-0.5,0.3-1,0.8-1.3l16.4-8.3
				c0.7-0.4,1.6-0.1,2,0.7c0.4,0.7,0.1,1.6-0.7,2l-15.6,7.9l-0.3,10.3c0,0.2,0,0.4,0.4,0.5c0.1,0,0.3,0,0.3-0.1l2.2-8.3
				c0.1-0.5,0.6-0.9,1.1-1.1l13.1-3.3c0.8-0.2,1.6,0.3,1.8,1.1c0.2,0.8-0.3,1.6-1.1,1.8l-12.2,3.1l-2,7.5
				C-48.5,420.9-49.8,421.9-51.2,421.9z"/>
		</g>
		<g id="path1764">
			<path class="st0" d="M-41.4,420.5c-0.1,0-0.2,0-0.3,0c-0.8-0.1-1.4-0.9-1.2-1.7l1.7-9.2c0.2-0.8,0.9-1.4,1.7-1.2
				c0.8,0.1,1.4,0.9,1.2,1.7l-1.7,9.2C-40.1,420-40.7,420.5-41.4,420.5z"/>
		</g>
		<g id="path1766">
			<path class="st0" d="M-29.9,399.2c-4.4,0-8.1-3.6-8.1-8.1c0-4.4,3.6-8.1,8.1-8.1s8.1,3.6,8.1,8.1
				C-21.8,395.6-25.4,399.2-29.9,399.2z M-29.9,386.1c-2.8,0-5.1,2.3-5.1,5.1c0,2.8,2.3,5.1,5.1,5.1s5.1-2.3,5.1-5.1
				C-24.8,388.4-27.1,386.1-29.9,386.1z"/>
		</g>
	</g>
	<g id="path1770">
		<path class="st0" d="M131,395.9c-0.6,0-1.1-0.5-1.1-1.1v-23.5l-7.3-6.2c-0.5-0.4-0.5-1.1-0.1-1.5c0.4-0.5,1.1-0.5,1.5-0.1l7.6,6.6
			c0.2,0.2,0.4,0.5,0.4,0.8v24C132.1,395.4,131.6,395.9,131,395.9z"/>
	</g>
	<g id="path1772">
		<path class="st0" d="M117.9,372.9c-0.2,0-0.4-0.1-0.6-0.2c-0.5-0.3-0.7-1-0.4-1.5l9.8-16.4c0.3-0.5,1-0.7,1.5-0.4
			c0.5,0.3,0.7,1,0.4,1.5l-9.8,16.4C118.6,372.8,118.3,372.9,117.9,372.9z"/>
	</g>
</g>
</svg>
