<?xml version="1.0" encoding="utf-8"?>
<!-- Generator: Adobe Illustrator 26.4.1, SVG Export Plug-In . SVG Version: 6.00 Build 0)  -->
<svg version="1.1" id="Layer_1" xmlns="http://www.w3.org/2000/svg" xmlns:xlink="http://www.w3.org/1999/xlink" x="0px" y="0px"
	 viewBox="0 0 300 300" style="enable-background:new 0 0 300 300;" xml:space="preserve">
<style type="text/css">
	.st0{fill:#474747;}
</style>
<g>
	<g>
		<g>
			<path class="st0" d="M149.5,184.6c-36.2,0-65.7-27.3-65.7-60.8c0-50.6,57-109.2,59.4-111.7c3.3-3.4,9.2-3.4,12.5,0
				c2.4,2.5,59.4,61.1,59.4,111.7C215.2,157.4,185.7,184.6,149.5,184.6z M149.5,31.3c-14.3,16.2-48.1,58.2-48.1,92.6
				c0,23.8,21.6,43.2,48.1,43.2s48.1-19.4,48.1-43.2C197.7,89.5,163.8,47.5,149.5,31.3z"/>
		</g>
	</g>
	<g>
		<g>
			<path class="st0" d="M158.3,149.6c-3.6,0-7-2.2-8.2-5.8c-1.6-4.6,0.8-9.6,5.3-11.2c9.2-3.3,10.6-7.5,11.1-8.9
				c3.2-9.5-7.2-25.4-10.6-30.6c-2.6-4-1.5-9.5,2.5-12.1c4.1-2.6,9.5-1.5,12.1,2.5c8.6,13.2,17.8,30.3,12.6,45.8
				c-3.1,9.1-10.4,15.7-21.8,19.8C160.2,149.5,159.3,149.6,158.3,149.6z"/>
		</g>
	</g>
	<g>
		<g>
			<path class="st0" d="M237,237.2c-15,0-22.9-9.4-28.6-16.3c-5.5-6.6-8.6-10-15.2-10c-6.5,0-9.7,3.4-15.2,10
				c-5.7,6.9-13.6,16.3-28.6,16.3c-15,0-22.9-9.4-28.6-16.3c-5.5-6.6-8.6-10-15.1-10c-6.5,0-9.7,3.4-15.2,10
				c-5.7,6.9-13.6,16.3-28.6,16.3c-15,0-22.9-9.4-28.6-16.3c-5.5-6.6-8.6-10-15.1-10c-4.8,0-8.8-3.9-8.8-8.8c0-4.8,3.9-8.8,8.8-8.8
				c15,0,22.9,9.4,28.6,16.3c5.5,6.6,8.6,10,15.1,10s9.7-3.4,15.1-10c5.7-6.9,13.6-16.3,28.6-16.3c15,0,22.9,9.4,28.6,16.3
				c5.5,6.6,8.6,10,15.1,10c6.5,0,9.7-3.4,15.2-10c5.7-6.9,13.6-16.3,28.6-16.3c15,0,22.9,9.4,28.6,16.3c5.5,6.6,8.6,10,15.2,10
				c6.5,0,9.7-3.4,15.2-10c5.7-6.9,13.6-16.3,28.6-16.3c4.8,0,8.8,3.9,8.8,8.8c0,4.8-3.9,8.8-8.8,8.8c-6.5,0-9.7,3.4-15.2,10
				C259.9,227.8,252.1,237.2,237,237.2z"/>
		</g>
	</g>
	<g>
		<g>
			<path class="st0" d="M237,289.7c-15,0-22.9-9.4-28.6-16.3c-5.5-6.6-8.6-10-15.2-10c-6.5,0-9.7,3.4-15.2,10
				c-5.7,6.9-13.6,16.3-28.6,16.3c-15,0-22.9-9.4-28.6-16.3c-5.5-6.6-8.6-10-15.1-10c-6.5,0-9.7,3.4-15.2,10
				c-5.7,6.9-13.6,16.3-28.6,16.3c-15,0-22.9-9.4-28.6-16.3c-5.5-6.6-8.6-10-15.1-10c-4.8,0-8.8-3.9-8.8-8.8c0-4.8,3.9-8.8,8.8-8.8
				c15,0,22.9,9.4,28.6,16.3c5.5,6.6,8.6,10,15.1,10s9.7-3.4,15.1-10c5.7-6.9,13.6-16.3,28.6-16.3c15,0,22.9,9.4,28.6,16.3
				c5.5,6.6,8.6,10,15.1,10c6.5,0,9.7-3.4,15.2-10c5.7-6.9,13.6-16.3,28.6-16.3c15,0,22.9,9.4,28.6,16.3c5.5,6.6,8.6,10,15.2,10
				c6.5,0,9.7-3.4,15.2-10c5.7-6.9,13.6-16.3,28.6-16.3c4.8,0,8.8,3.9,8.8,8.8c0,4.8-3.9,8.8-8.8,8.8c-6.5,0-9.7,3.4-15.2,10
				C259.9,280.3,252.1,289.7,237,289.7z"/>
		</g>
	</g>
</g>
</svg>
