<?xml version="1.0" encoding="utf-8"?>
<!-- Generator: Adobe Illustrator 26.5.0, SVG Export Plug-In . SVG Version: 6.00 Build 0)  -->
<svg version="1.1" id="Layer_1" xmlns="http://www.w3.org/2000/svg" xmlns:xlink="http://www.w3.org/1999/xlink" x="0px" y="0px"
	 viewBox="0 0 400 400" style="enable-background:new 0 0 400 400;" xml:space="preserve">
<style type="text/css">
	.st0{fill:#00ABE1;}
</style>
<path class="st0" d="M103.3,185.5H88.8c-8,0-14.5,6.5-14.5,14.5c0,8,6.5,14.5,14.5,14.5h14.5c8,0,14.5-6.5,14.5-14.5
	C117.8,192,111.3,185.5,103.3,185.5z M200,117.8c8,0,14.5-6.5,14.5-14.5V88.8c0-8-6.5-14.5-14.5-14.5s-14.5,6.5-14.5,14.5v14.5
	C185.5,111.3,192,117.8,200,117.8z M200,282.2c-8,0-14.5,6.5-14.5,14.5v14.5c0,8,6.5,14.5,14.5,14.5s14.5-6.5,14.5-14.5v-14.5
	C214.5,288.7,208,282.2,200,282.2z M283.8,139.9c5.7-5.7,5.7-14.8,0-20.5c-5.7-5.7-14.8-5.7-20.5,0l-57.1,57.1c-2-0.4-4-0.7-6.1-0.7
	c-3.1,0-6,0.6-8.7,1.5L147,133c-5.7-5.7-14.8-5.7-20.5,0c-5.7,5.7-5.7,14.8,0,20.5l45.2,45.2c-0.4,2-0.7,4-0.7,6.1c0,16,13,29,29,29
	s29-13,29-29c0-3.1-0.6-6-1.5-8.7L283.8,139.9z M200,11.4C95.9,11.4,11.4,95.9,11.4,200c0,104.1,84.4,188.6,188.6,188.6
	c104.1,0,188.6-84.4,188.6-188.6C388.6,95.9,304.1,11.4,200,11.4z M200,340.2c-77.3,0-140.2-62.9-140.2-140.2
	c0-77.3,62.9-140.2,140.2-140.2c77.3,0,140.2,62.9,140.2,140.2C340.2,277.3,277.3,340.2,200,340.2z M311.2,185.5h-14.5
	c-8,0-14.5,6.5-14.5,14.5c0,8,6.5,14.5,14.5,14.5h14.5c8,0,14.5-6.5,14.5-14.5C325.7,192,319.2,185.5,311.2,185.5z"/>
</svg>
