<?xml version="1.0" encoding="utf-8"?>
<!-- Generator: Adobe Illustrator 26.4.1, SVG Export Plug-In . SVG Version: 6.00 Build 0)  -->
<svg version="1.1" id="Layer_1" xmlns="http://www.w3.org/2000/svg" xmlns:xlink="http://www.w3.org/1999/xlink" x="0px" y="0px"
	 viewBox="0 0 50 50" style="enable-background:new 0 0 50 50;" xml:space="preserve">
<style type="text/css">
	.st0{fill:none;}
	.st1{fill:#DAE343;}
	.st2{fill:#3C3C3C;}
</style>
<g>
	<g>
		<path class="st0" d="M21.5,32.2c0.2,2.2,0.4,2.6,1.6,2.5c1.7-0.1,3.4-0.3,5.1-0.5c0.9-0.1,1.7-0.2,2.6-0.3c0,0,0.1-0.1,0.1-0.1
			c-0.1-0.7-0.1-1.4-0.1-2.1c0-0.3,0.1-0.6,0.4-0.8c0.5-0.3,1-0.4,1.7-0.3c0.2,0,0.3,0,0.4,0c0.3,0,0.6,0.1,0.9,0
			c0.3-0.1,0.5-0.5,0.5-0.8c0-0.3-0.1-0.8-0.4-0.9h0c-0.4-0.1-0.9,0-1.4,0.1c-0.5,0.1-0.9,0.2-1.4,0.2c-0.5,0-0.9-0.4-0.9-0.8
			c0-0.3,0-0.7,0-1c0-0.1,0-0.1-0.1-0.1l-5.8-0.1c-0.2,0-0.5,0-0.7,0c-0.3,0-0.7,0-1,0c-0.6,0-1.1,0.1-1.4,0.4
			c-0.6,0.6-0.4,1.8-0.3,3.2C21.4,31.2,21.4,31.7,21.5,32.2z M22.6,29.3c0-0.5,0.4-0.8,0.9-0.8c0.5,0,0.8,0.4,0.8,0.9
			c-0.1,0.8,0,1.5,0.2,2.3c0.1,0.5-0.2,0.9-0.6,1c-0.1,0-0.1,0-0.2,0c-0.4,0-0.7-0.3-0.8-0.7C22.6,31.2,22.5,30.3,22.6,29.3z"/>
		<path class="st0" d="M22.7,22.5c1.7,0.2,3.4,0.3,5.2,0.3c0.9,0,1.7,0.1,2.6,0.1c0,0,0.1,0,0.1-0.1c0-0.7,0.1-1.4,0.2-2.1
			c0-0.3,0.2-0.6,0.5-0.7c0.5-0.2,1.1-0.2,1.8,0c0.1,0,0.3,0.1,0.4,0.1c0.3,0.1,0.6,0.2,0.9,0.2c0.3,0,0.6-0.4,0.6-0.7
			c0.1-0.3,0-0.8-0.3-0.9c-0.4-0.2-0.9-0.1-1.4-0.1c-0.5,0-0.9,0.1-1.4,0c-0.5-0.1-0.8-0.5-0.7-1c0-0.3,0.1-0.6,0.2-1
			c0-0.1,0-0.1-0.1-0.1l-5.7-1.1c-0.2,0-0.5-0.1-0.7-0.2c-0.5-0.1-1.1-0.3-1.6-0.3c-0.3,0-0.6,0.1-0.8,0.2c-0.7,0.5-0.7,1.7-0.7,3.1
			c0,0.5,0,1-0.1,1.4C21.4,21.9,21.6,22.4,22.7,22.5z M23.1,17.1c0.1-0.5,0.6-0.7,1-0.6c0.5,0.1,0.7,0.6,0.6,1
			c-0.2,0.7-0.2,1.5-0.2,2.3c0,0.5-0.3,0.9-0.8,0.9c0,0,0,0-0.1,0c-0.4,0-0.8-0.3-0.8-0.8C22.8,18.9,22.9,18,23.1,17.1z"/>
		<path class="st0" d="M35.5,41.2c0.3-0.1,0.4-0.5,0.4-0.9c0-0.3-0.2-0.7-0.5-0.8c0,0,0,0,0,0c-0.4-0.1-0.9,0.1-1.4,0.3
			c-0.4,0.2-0.9,0.3-1.4,0.4c-0.5,0.1-0.9-0.2-1-0.7c-0.1-0.3-0.1-0.6-0.1-1c0,0-0.1-0.1-0.1-0.1c0,0,0,0,0,0l-5.8,0.8
			c-0.2,0-0.5,0.1-0.7,0.1c-0.9,0.1-1.9,0.2-2.3,0.7c-0.5,0.7-0.2,1.8,0.2,3.2c0.1,0.4,0.3,0.9,0.4,1.4c0.5,2.1,0.8,2.5,1.9,2.3
			c1.7-0.3,3.4-0.8,5-1.3c0.8-0.2,1.7-0.5,2.5-0.7c0,0,0.1-0.1,0.1-0.1c-0.2-0.7-0.3-1.4-0.5-2.1c-0.1-0.3,0.1-0.6,0.3-0.8
			c0.4-0.3,1-0.5,1.7-0.6c0.2,0,0.3,0,0.4,0C34.9,41.3,35.2,41.3,35.5,41.2z M25.5,44.8c-0.1,0-0.2,0.1-0.3,0.1
			c-0.3,0-0.7-0.2-0.8-0.5c-0.3-0.9-0.6-1.8-0.6-2.7c0-0.5,0.3-0.9,0.8-0.9c0.5,0,0.9,0.3,0.9,0.8c0.1,0.8,0.2,1.5,0.5,2.2
			C26.2,44.2,26,44.7,25.5,44.8z"/>
		<path class="st0" d="M24.5,10.4c1.6,0.4,3.4,0.8,5.1,1.1c0.8,0.2,1.7,0.3,2.6,0.5c0,0,0.1,0,0.1-0.1c0.1-0.7,0.3-1.4,0.5-2.1
			c0.1-0.3,0.3-0.6,0.6-0.6c0.5-0.1,1.1,0,1.7,0.2c0.1,0.1,0.3,0.1,0.4,0.2c0.3,0.1,0.6,0.3,0.9,0.3c0.4,0,0.6-0.3,0.7-0.6
			c0.1-0.3,0.1-0.8-0.1-0.9c-0.3-0.2-0.8-0.3-1.4-0.3c-0.5,0-0.9-0.1-1.4-0.2c-0.4-0.1-0.7-0.6-0.6-1.1c0.1-0.3,0.2-0.6,0.3-0.9
			c0,0,0-0.1-0.1-0.1l-5.5-1.9c-0.2-0.1-0.5-0.2-0.7-0.3C27,3.3,26.3,3,25.8,3c-0.2,0-0.4,0-0.5,0.1c-0.7,0.4-0.9,1.6-1.2,2.9
			C24,6.5,23.9,7,23.8,7.5C23.3,9.6,23.4,10.1,24.5,10.4z M25.1,7.8c0.1-0.9,0.3-1.9,0.6-2.7c0.2-0.4,0.7-0.7,1.1-0.5
			c0.4,0.2,0.7,0.7,0.5,1.1c-0.3,0.7-0.5,1.5-0.5,2.2c0,0.4-0.4,0.8-0.8,0.8c0,0,0,0-0.1,0C25.4,8.7,25,8.3,25.1,7.8z"/>
		<path class="st1" d="M15.6,25.8c0.5,0,0.8-0.4,0.9-0.8c0-0.5-0.4-0.9-0.8-0.9L12,23.9c-0.5,0-0.9,0.4-0.9,0.8
			c0,0.5,0.4,0.9,0.8,0.9L15.6,25.8C15.6,25.8,15.6,25.8,15.6,25.8z"/>
		<path class="st1" d="M14.8,17.6c-0.3-0.3-0.9-0.4-1.2,0c-0.3,0.3-0.4,0.9,0,1.2l2.5,2.7c0.2,0.2,0.4,0.3,0.6,0.3
			c0.2,0,0.4-0.1,0.6-0.2c0.3-0.3,0.4-0.9,0-1.2L14.8,17.6z"/>
		<path class="st1" d="M15.9,28.4l-2.7,2.5c-0.3,0.3-0.4,0.9,0,1.2c0.2,0.2,0.4,0.3,0.6,0.3c0.2,0,0.4-0.1,0.6-0.2l2.7-2.5
			c0.3-0.3,0.4-0.9,0-1.2C16.8,28.1,16.2,28.1,15.9,28.4z"/>
		<path class="st2" d="M34.6,43c0.4,0,0.9,0,1.4-0.2c1-0.4,1.6-1.4,1.5-2.6c-0.1-1.2-0.9-2.1-2-2.3h0c-0.8-0.1-1.6,0.2-2.3,0.4
			c-0.1,0-0.1,0-0.2,0.1c-0.1-1-1-1.6-2-1.5l-5.8,0.8c-0.2,0-0.4,0-0.7,0.1c-1.1,0.1-2.7,0.2-3.5,1.4c-1,1.3-0.5,3,0,4.7
			c0.1,0.4,0.3,0.9,0.4,1.3c0.3,1.4,0.9,3.6,3.1,3.6c0.2,0,0.5,0,0.8-0.1c1.7-0.3,3.5-0.8,5.1-1.3c0.8-0.2,1.7-0.5,2.5-0.7
			c0.9-0.2,1.5-1.2,1.3-2.2c-0.1-0.4-0.2-0.9-0.3-1.3c0.1,0,0.2,0,0.3,0C34.4,43,34.5,43,34.6,43z M32.5,41.9
			c-0.3,0.2-0.4,0.5-0.3,0.8c0.1,0.7,0.3,1.4,0.5,2.1c0,0.1,0,0.1-0.1,0.1c-0.8,0.2-1.7,0.5-2.5,0.7c-1.6,0.5-3.3,0.9-5,1.3
			c-1.1,0.2-1.4-0.2-1.9-2.3c-0.1-0.5-0.2-0.9-0.4-1.4c-0.4-1.3-0.7-2.5-0.2-3.2c0.4-0.5,1.4-0.6,2.3-0.7c0.3,0,0.5,0,0.7-0.1
			l5.8-0.8c0,0,0,0,0,0c0,0,0.1,0,0.1,0.1c0,0.3,0.1,0.6,0.1,1c0.1,0.5,0.5,0.8,1,0.7c0.5-0.1,0.9-0.3,1.4-0.4
			c0.5-0.2,1-0.4,1.4-0.3c0,0,0,0,0,0c0.3,0,0.5,0.4,0.5,0.8c0,0.3,0,0.7-0.4,0.9c-0.2,0.1-0.6,0.1-0.9,0.1c-0.1,0-0.3,0-0.4,0
			C33.4,41.4,32.9,41.6,32.5,41.9z"/>
		<path class="st2" d="M25.5,41.5c0-0.5-0.4-0.8-0.9-0.8c-0.5,0-0.8,0.4-0.8,0.9c0.1,0.9,0.3,1.8,0.6,2.7c0.1,0.3,0.5,0.5,0.8,0.5
			c0.1,0,0.2,0,0.3-0.1c0.4-0.2,0.6-0.7,0.5-1.1C25.7,43,25.5,42.3,25.5,41.5z"/>
		<path class="st2" d="M19.8,32.3c0.1,1.6,0.3,4.1,3.1,4.1c0.1,0,0.1,0,0.2,0c1.8-0.1,3.5-0.3,5.3-0.5c0.8-0.1,1.7-0.2,2.6-0.3
			c1-0.1,1.7-1,1.6-1.9c0-0.4-0.1-0.9-0.1-1.4c0.1,0,0.2,0,0.3,0c0.1,0,0.3,0,0.4,0c0.4,0.1,0.9,0.1,1.4,0c1.1-0.2,1.8-1.2,1.9-2.4
			c0.1-1.2-0.6-2.3-1.6-2.6c-0.8-0.3-1.6-0.1-2.3,0.1c-0.1,0-0.1,0-0.2,0c0-1-0.8-1.8-1.8-1.8l-5.8-0.1c-0.2,0-0.4,0-0.7,0
			c-1.1-0.1-2.7-0.2-3.7,0.8c-1.2,1.2-1,2.9-0.7,4.6C19.7,31.4,19.7,31.9,19.8,32.3z M21.6,27.6c0.3-0.3,0.8-0.4,1.4-0.4
			c0.3,0,0.7,0,1,0c0.3,0,0.5,0,0.7,0l5.8,0.1c0,0,0.1,0,0.1,0.1c0,0.3,0,0.7,0,1c0,0.5,0.4,0.8,0.9,0.8c0.5,0,1-0.1,1.4-0.2
			c0.5-0.1,1-0.2,1.4-0.1h0c0.3,0.1,0.4,0.5,0.4,0.9c0,0.3-0.2,0.7-0.5,0.8c-0.3,0.1-0.6,0-0.9,0c-0.1,0-0.3,0-0.4,0
			c-0.7-0.1-1.3,0-1.7,0.3c-0.3,0.2-0.4,0.5-0.4,0.8c0,0.7,0.1,1.4,0.1,2.1c0,0.1,0,0.1-0.1,0.1c-0.9,0.1-1.8,0.2-2.6,0.3
			c-1.7,0.2-3.4,0.4-5.1,0.5c-1.1,0-1.4-0.4-1.6-2.5c0-0.5-0.1-1-0.2-1.4C21.1,29.4,21,28.2,21.6,27.6z"/>
		<path class="st2" d="M23.6,32.8c0.1,0,0.1,0,0.2,0c0.5-0.1,0.7-0.6,0.6-1c-0.2-0.7-0.2-1.5-0.2-2.3c0-0.5-0.3-0.9-0.8-0.9
			c-0.5,0-0.9,0.3-0.9,0.8c-0.1,0.9,0,1.9,0.2,2.8C22.9,32.5,23.2,32.8,23.6,32.8z"/>
		<path class="st2" d="M22.5,24.2c1.8,0.2,3.6,0.3,5.3,0.3c0.9,0,1.7,0.1,2.6,0.1c0,0,0.1,0,0.1,0c0.9,0,1.7-0.7,1.8-1.7
			c0-0.4,0.1-0.9,0.1-1.4c0.1,0,0.2,0,0.3,0.1c0.1,0,0.2,0.1,0.4,0.1c0.4,0.1,0.9,0.3,1.4,0.2c1.1,0,2-0.9,2.2-2.1
			c0.3-1.2-0.2-2.3-1.2-2.8c-0.8-0.4-1.6-0.3-2.3-0.3c-0.1,0-0.1,0-0.2,0c0.2-1-0.5-1.9-1.4-2.1l-5.7-1.1c-0.2,0-0.4-0.1-0.6-0.1
			c-1.1-0.3-2.6-0.6-3.8,0.2c-1.4,1-1.4,2.7-1.5,4.4c0,0.4,0,0.9-0.1,1.3C19.8,21.2,19.6,23.9,22.5,24.2z M21.6,19.7
			c0-0.5,0.1-1,0.1-1.4c0-1.4,0.1-2.6,0.7-3.1c0.2-0.2,0.5-0.2,0.8-0.2c0.5,0,1.1,0.1,1.6,0.3c0.3,0.1,0.5,0.1,0.7,0.2l5.7,1.1
			c0,0,0.1,0.1,0.1,0.1c-0.1,0.3-0.1,0.6-0.2,1c-0.1,0.5,0.2,0.9,0.7,1c0.5,0.1,1,0,1.4,0c0.5,0,1.1-0.1,1.4,0.1
			c0.3,0.1,0.3,0.6,0.3,0.9c-0.1,0.3-0.3,0.7-0.6,0.7c-0.3,0-0.6-0.1-0.9-0.2c-0.1,0-0.3-0.1-0.4-0.1c-0.7-0.2-1.2-0.2-1.8,0
			c-0.3,0.1-0.5,0.4-0.5,0.7c-0.1,0.7-0.1,1.4-0.2,2.1c0,0.1-0.1,0.1-0.1,0.1c-0.9,0-1.8-0.1-2.6-0.1c-1.7-0.1-3.5-0.1-5.2-0.3
			C21.6,22.4,21.4,21.9,21.6,19.7z"/>
		<path class="st2" d="M23.8,20.7C23.8,20.7,23.8,20.7,23.8,20.7c0.5,0,0.9-0.4,0.9-0.9c-0.1-0.8,0-1.5,0.2-2.3
			c0.1-0.5-0.2-0.9-0.6-1c-0.5-0.1-0.9,0.2-1,0.6c-0.2,0.9-0.3,1.8-0.2,2.8C22.9,20.3,23.3,20.7,23.8,20.7z"/>
		<path class="st2" d="M24.1,12c1.7,0.5,3.5,0.8,5.2,1.1c0.8,0.2,1.7,0.3,2.5,0.5c0.1,0,0.2,0,0.4,0c0.8,0,1.6-0.6,1.8-1.4
			c0.1-0.4,0.2-0.9,0.3-1.3c0.1,0,0.2,0.1,0.3,0.1c0.1,0,0.2,0.1,0.3,0.2c0.4,0.2,0.8,0.4,1.4,0.4c1.1,0.1,2.1-0.6,2.5-1.7
			c0.4-1.1,0.1-2.3-0.8-2.9c-0.7-0.5-1.5-0.6-2.2-0.6c-0.1,0-0.1,0-0.2,0c0.3-0.9-0.2-1.9-1.1-2.2l-5.5-1.9C28.7,2.1,28.5,2,28.2,2
			c-1.1-0.4-2.5-1-3.8-0.3c-1.5,0.8-1.8,2.5-2.1,4.2c-0.1,0.4-0.2,0.9-0.3,1.3C21.8,8.7,21.2,11.3,24.1,12z M23.8,7.5
			C23.9,7,24,6.5,24,6.1c0.2-1.4,0.5-2.6,1.2-2.9C25.4,3.1,25.6,3,25.8,3c0.6,0,1.2,0.3,1.9,0.5c0.2,0.1,0.5,0.2,0.7,0.3l5.5,1.9
			c0,0,0.1,0.1,0.1,0.1c-0.1,0.3-0.2,0.6-0.3,0.9c-0.1,0.4,0.1,0.9,0.6,1.1c0.5,0.1,1,0.2,1.4,0.2c0.5,0,1.1,0.1,1.4,0.3
			c0.3,0.2,0.2,0.6,0.1,0.9c-0.1,0.3-0.4,0.6-0.7,0.6c-0.3,0-0.5-0.2-0.9-0.3c-0.1-0.1-0.3-0.1-0.4-0.2c-0.6-0.3-1.2-0.3-1.7-0.2
			c-0.3,0.1-0.6,0.3-0.6,0.6c-0.2,0.7-0.3,1.4-0.5,2.1c0,0.1-0.1,0.1-0.1,0.1c-0.9-0.2-1.7-0.3-2.6-0.5c-1.7-0.3-3.4-0.6-5.1-1.1
			C23.4,10.1,23.3,9.6,23.8,7.5z"/>
		<path class="st2" d="M25.8,8.7C25.9,8.7,25.9,8.7,25.8,8.7c0.5,0,0.9-0.3,0.9-0.8c0.1-0.8,0.2-1.5,0.5-2.2c0.2-0.4,0-0.9-0.5-1.1
			c-0.4-0.2-0.9,0-1.1,0.5c-0.3,0.9-0.6,1.8-0.6,2.7C25,8.3,25.4,8.7,25.8,8.7z"/>
	</g>
</g>
</svg>
