<?xml version="1.0" encoding="utf-8"?>
<!-- Generator: Adobe Illustrator 26.5.0, SVG Export Plug-In . SVG Version: 6.00 Build 0)  -->
<svg version="1.1" id="Layer_1" xmlns="http://www.w3.org/2000/svg" xmlns:xlink="http://www.w3.org/1999/xlink" x="0px" y="0px"
	 viewBox="0 0 658.8 367" style="enable-background:new 0 0 658.8 367;" xml:space="preserve">
<style type="text/css">
	.st0{fill:#A6A8AB;}
</style>
<g>
	<path class="st0" d="M640,217.8h2.3c0.2,0,1,0,1.4-0.2c0.2-0.1,0.7-0.5,0.7-1.4c0-1.7-1.5-1.7-2.1-1.7H640V217.8z M638.6,213.2h3.8
		c0.5,0,1.6,0,2.4,0.5c0.8,0.5,1.2,1.3,1.2,2.1c0,0.7-0.3,1.4-0.7,1.9c-0.5,0.5-0.9,0.6-1.2,0.7c1,0.3,1.4,0.7,1.6,2.1
		c0.1,1.2,0.3,2.2,0.6,3.3h-1.5c-0.2-0.7-0.4-2-0.5-2.8c-0.2-1.5-0.5-2-2.3-2H640v4.8h-1.4V213.2z"/>
	<path class="st0" d="M642.4,209.3c-5.1,0-9.2,4.2-9.2,9.3c0,5.1,4.1,9.3,9.2,9.3c5,0,9.2-4.2,9.2-9.3
		C651.5,213.4,647.4,209.3,642.4,209.3 M650.8,218.6c0,4.7-3.8,8.5-8.4,8.5c-4.6,0-8.4-3.8-8.4-8.5c0-4.7,3.8-8.5,8.4-8.5
		C647,210,650.8,213.8,650.8,218.6"/>
	<path class="st0" d="M289.2,227.9h-54.2v-69.6c0-8.7-0.4-16.2-1.2-23l16.5-1.3l1.9,1.9v79.6l37-0.9V227.9z"/>
	<path class="st0" d="M321.2,219.1c4,0,8.2-1.9,11.1-4.6v-18.2c-10.9,0.9-19.8,5.4-19.8,13.9C312.4,215.1,315.5,219.1,321.2,219.1
		 M351.6,227.9l-14.1,1.3c-1.6-2.7-2.8-6.1-3.6-9.3h-0.4c-3.6,5-11.1,9.3-20,9.3c-10.6,0-17.6-6.1-17.6-16.2
		c0-15.3,16.1-21.8,36.3-22.6V184c0-7.8-4-12-12.5-12c-6.7,0-14.1,2.3-20.2,5.9l-0.9-13.2c6.2-2.6,16.1-5.2,25.3-5.2
		c16.6,0,25.1,8.1,25.1,22.2c0,9.4-0.4,19.8-0.4,27.7C348.6,215.8,349.6,222.1,351.6,227.9"/>
	<path class="st0" d="M401.2,229.2c-8.4,0-19.2-1.7-25.1-5l1.2-14.7c7,4.2,17.7,6.2,24.1,6.2c9.5,0,14.8-4.3,14.8-11.3
		c0-9.7-9.9-13.9-19.7-18.9c-9.9-5.1-20-11.3-20-25.5c0-16.7,13.9-26.3,33.5-26.3c7.9,0,16.4,1.6,21.5,3.8l-2.1,14.9
		c-6.3-3.6-13.7-5.3-19.6-5.3c-10.1,0-15.6,4.4-15.6,11.4c0,9.3,10.1,13.2,19.7,18.2c9.7,5,20,11.6,20,26.3
		C433.9,220,420.5,229.2,401.2,229.2"/>
	<path class="st0" d="M464.8,219.1c4,0,8.2-1.9,11.1-4.6v-18.2c-10.9,0.9-19.8,5.4-19.8,13.9C456,215.1,459.1,219.1,464.8,219.1
		 M495.2,227.9l-14.1,1.3c-1.6-2.7-2.8-6.1-3.6-9.3h-0.4c-3.6,5-11.1,9.3-20,9.3c-10.6,0-17.6-6.1-17.6-16.2
		c0-15.3,16.1-21.8,36.3-22.6V184c0-7.8-4-12-12.5-12c-6.7,0-14.1,2.3-20.2,5.9l-0.9-13.2c6.2-2.6,16.1-5.2,25.3-5.2
		c16.6,0,25.1,8.1,25.1,22.2c0,9.4-0.4,19.8-0.4,27.7C492.2,215.8,493.2,222.1,495.2,227.9"/>
	<path class="st0" d="M506.8,227.9v-77.7c0-7.9-0.5-14.5-1.6-22.4l16.5-2l1.9,1.9v100.2H506.8z"/>
	<path class="st0" d="M539.6,227.9v-77.7c0-7.9-0.5-14.5-1.6-22.4l16.5-2l1.9,1.9v100.2H539.6z"/>
	<path class="st0" d="M586.1,189.9l23.3-0.9c0.1-1.5,0.1-2.8,0.1-4.8c0-8.3-3.4-14.5-10.1-14.5C592,169.6,586.6,177.1,586.1,189.9
		 M623.9,196.1h-37.7c1.3,14.5,9,21,20.1,21c6.3,0,12.1-2.2,16.6-4.8l1.1,11.2c-4,2.7-11.8,5.8-22.1,5.8
		c-19.8,0-33.1-12.1-33.1-33.9c0-22.3,14.1-35.8,31.5-35.8c16,0,25.8,11.2,25.8,27.2c0,2.2,0,5-0.1,7.4L623.9,196.1z"/>
	<path class="st0" d="M236.5,81.2l6.2-0.4l0.6,0.6v21.8c0,4.9,2.6,7.5,6.6,7.5c3.9,0,6.5-2.6,6.5-7.5V88.4c0-2.9-0.1-4.9-0.5-7.2
		l6.5-0.4v22.9c0,7.9-5.8,11.9-12.9,11.9c-7.1,0-12.5-4-12.5-11.9V89.6C237,86.6,236.9,84.1,236.5,81.2"/>
	<path class="st0" d="M281.5,115V98.9c0-2.9-0.3-5.1-1-7.7l5.7-1.1c0.4,1.1,0.8,2.4,1.1,3.6c2.4-2.3,5.2-3.6,8-3.6
		c4.2,0,6.7,2.7,6.7,7.5V115h-6.2V98.8c0-3-1.2-4.4-3.6-4.4c-1.5,0-3.1,0.6-4.6,1.8V115H281.5z"/>
	<path class="st0" d="M321.2,99c0-2.9-0.1-5.3-0.6-8.2l6-0.7l0.7,0.7V115h-6.1V99z M324,86.2c-2.2,0-3.5-1.6-3.5-3.5
		c0-2.3,1.9-4.2,4.3-4.2c2,0,3.4,1.4,3.4,3.5C328.1,84.3,326.4,86.2,324,86.2"/>
	<path class="st0" d="M358,115.1h-6.6l-7.9-24.5l6.4-0.5l3.3,12.3c1.2,3.7,1.8,6,2.1,8.3h0.1c0.4-2.4,1-4.7,2.2-8.3l3.3-12.3
		l4.7,0.4l0.4,0.7L358,115.1z"/>
	<path class="st0" d="M386,101.2l8.5-0.3c0-0.5,0-1,0-1.8c0-3.1-1.2-5.3-3.7-5.3C388.2,93.8,386.2,96.5,386,101.2 M399.8,103.4
		h-13.8c0.5,5.3,3.3,7.7,7.3,7.7c2.3,0,4.4-0.8,6.1-1.8l0.4,4.1c-1.5,1-4.3,2.1-8.1,2.1c-7.2,0-12.1-4.4-12.1-12.4
		c0-8.2,5.1-13.1,11.5-13.1c5.8,0,9.4,4.1,9.4,9.9c0,0.8,0,1.8,0,2.7L399.8,103.4z"/>
	<path class="st0" d="M418.3,115V98.9c0-2.9-0.3-5.1-1-7.7l5.7-1.1c0.6,1.6,1.1,3.4,1.3,5.1c1.8-3,3.9-5.1,6.5-5.1
		c1,0,1.9,0.3,2.4,0.7l-0.6,5.8c-0.8-0.2-1.7-0.4-2.7-0.4c-1.7,0-3.9,0.6-5.5,2V115H418.3z"/>
	<path class="st0" d="M464,96.2c-2.3-1.2-4.7-2-6.6-2c-2.4,0-3.9,1.1-3.9,2.7c0,4.4,11.7,3.8,11.7,11.4c0,4.4-3.8,7.2-9.8,7.2
		c-2.8,0-6-0.6-8-1.8l0.4-4.7c2.6,1.5,5.7,2.3,7.7,2.3c2.4,0,3.7-1.1,3.7-2.6c0-4.4-11.7-3.8-11.7-11.4c0-4.4,3.9-7.3,9.8-7.3
		c2.3,0,4.7,0.4,7,1.4L464,96.2z"/>
	<path class="st0" d="M482.5,99c0-2.9-0.1-5.3-0.6-8.2l6-0.7l0.7,0.7V115h-6.1V99z M485.3,86.2c-2.2,0-3.5-1.6-3.5-3.5
		c0-2.3,1.9-4.2,4.3-4.2c2,0,3.4,1.4,3.4,3.5C489.4,84.3,487.7,86.2,485.3,86.2"/>
	<path class="st0" d="M518.6,111.8c1.6,0,2.8-0.7,3.6-1.6V93.7c-0.8-0.2-1.7-0.2-2.4-0.2c-4.3,0-6.9,3.2-6.9,9.3
		C512.9,108.3,515,111.8,518.6,111.8 M527.6,77.8l0.7,0.7v29.9c0,2.2,0.4,4.6,1.1,6.6l-5.3,0.5c-0.4-0.8-0.8-1.9-1.3-3.3h-0.1
		c-1.5,2-3.7,3.3-6.7,3.3c-5.6,0-9.4-4.5-9.4-11.9c0-8.7,5.3-13.5,12.5-13.5c1.1,0,2.2,0.1,3.1,0.3v-3.7c0-2.9-0.1-5.4-0.5-8.2
		L527.6,77.8z"/>
	<path class="st0" d="M555.1,111.8c1.5,0,3-0.7,4.1-1.7v-6.6c-4,0.3-7.2,2-7.2,5.1C551.9,110.4,553,111.8,555.1,111.8 M566.2,115
		l-5.1,0.5c-0.6-1-1-2.2-1.3-3.4h-0.1c-1.3,1.8-4.1,3.4-7.3,3.4c-3.9,0-6.4-2.2-6.4-5.9c0-5.6,5.9-8,13.3-8.3V99
		c0-2.9-1.5-4.4-4.5-4.4c-2.4,0-5.1,0.8-7.4,2.2l-0.3-4.8c2.3-0.9,5.9-1.9,9.3-1.9c6.1,0,9.2,3,9.2,8.1c0,3.4-0.1,7.2-0.1,10.1
		C565.1,110.6,565.5,112.9,566.2,115"/>
	<path class="st0" d="M594.2,111.8c1.6,0,2.8-0.7,3.6-1.6V93.7c-0.8-0.2-1.7-0.2-2.4-0.2c-4.3,0-6.9,3.2-6.9,9.3
		C588.6,108.3,590.7,111.8,594.2,111.8 M603.3,77.8l0.7,0.7v29.9c0,2.2,0.4,4.6,1.1,6.6l-5.3,0.5c-0.4-0.8-0.8-1.9-1.3-3.3h-0.1
		c-1.5,2-3.7,3.3-6.7,3.3c-5.6,0-9.4-4.5-9.4-11.9c0-8.7,5.3-13.5,12.5-13.5c1.1,0,2.2,0.1,3.1,0.3v-3.7c0-2.9-0.1-5.4-0.5-8.2
		L603.3,77.8z"/>
	<path class="st0" d="M270.6,250.7l4.1,38h-7l-1.5-14.1c-0.7-5.8-1.2-11.9-1.5-17h-0.1c-1.1,5.7-2.6,11.3-4.1,17l-3.9,14.1h-7.9
		l-3.9-14.1c-1.9-6.8-3.2-11.7-4.1-17h-0.1c-0.4,6.1-1,11.8-1.5,17l-1.5,14.1h-5.9l4.2-38.3l9.2-0.4l4.6,15.6
		c1.2,4.3,2.7,10.9,3.5,16.5h0.2c1.2-7.9,2.3-12.2,3.5-16.5l4.5-15.2l8.5-0.4L270.6,250.7z"/>
	<path class="st0" d="M288.6,273l9.6-0.4c0.1-0.6,0.1-1.2,0.1-2c0-3.4-1.4-6-4.1-6C291,264.6,288.8,267.7,288.6,273 M299.2,248
		c-2.3,3.6-5.3,6.5-8.8,9.1l-2.5-0.6c1.9-3.3,3.6-6.8,4.7-10.2l6.2,0.6L299.2,248z M304.2,275.6h-15.5c0.6,6,3.7,8.7,8.3,8.7
		c2.6,0,5-0.9,6.9-2l0.4,4.6c-1.7,1.1-4.9,2.4-9.1,2.4c-8.2,0-13.7-5-13.7-14c0-9.2,5.8-14.8,13-14.8c6.6,0,10.6,4.6,10.6,11.2
		c0,0.9,0,2.1-0.1,3.1L304.2,275.6z"/>
	<polygon class="st0" points="321.7,278.1 316.1,288.7 310.5,288.7 310.2,287.9 318.2,274.9 310.2,261.2 317.2,260.5 323.4,271.9 
		329.1,260.5 334.6,260.9 335,261.7 326.9,274.9 335,288.7 327.6,288.7 	"/>
	<path class="st0" d="M341.8,270.5c0-3.3-0.2-6-0.7-9.2l6.8-0.8l0.8,0.8v27.4h-6.9V270.5z M344.9,256.1c-2.4,0-4-1.8-4-4
		c0-2.6,2.2-4.7,4.8-4.7c2.2,0,3.8,1.6,3.8,3.9C349.6,253.9,347.7,256.1,344.9,256.1"/>
	<path class="st0" d="M378,267.9c-2-1.4-4.3-2.3-6.5-2.3c-4.1,0-6.8,3.2-6.8,8.8c0,6.1,2.9,9.8,7.8,9.8c2.3,0,4.3-0.8,6.2-1.9
		l0.4,4.6c-2,1.3-4.8,2.3-8.3,2.3c-7.9-0.1-13.3-5.3-13.3-14.1c0-9,5.7-14.7,13.7-14.7c3.3,0,6.1,0.8,8.3,2.1L378,267.9z"/>
	<path class="st0" d="M397.3,285.1c3.7,0,5.6-3.8,5.6-10c0-6.4-1.7-10.4-5.6-10.4c-3.5,0-5.6,3.3-5.6,10.1
		C391.7,281,393.4,285.1,397.3,285.1 M396.9,289.2c-7.1,0-12.4-5.1-12.4-14c0-9.4,5.9-14.8,13.1-14.8c7.4,0,12.4,5.4,12.4,14.2
		C410.1,284.3,404,289.2,396.9,289.2"/>
	<polygon class="st0" points="178.6,248.5 193.8,221.9 163.5,221.9 123.2,151 108.1,177.6 148.4,248.5 	"/>
	<polygon class="st0" points="123.2,80.2 92.9,80.2 108.1,106.7 67.7,177.6 98,177.6 138.3,106.7 	"/>
	<polygon class="st0" points="7.2,213 22.3,239.6 37.4,213 118.2,213 103,186.5 22.3,186.5 	"/>
	<polygon class="st0" points="198.8,213 214,186.5 183.7,186.5 143.4,115.6 128.3,142.2 168.6,213 	"/>
	<polygon class="st0" points="82.9,80.2 52.6,80.2 67.7,106.7 27.4,177.6 57.6,177.6 98,106.7 	"/>
	<polygon class="st0" points="27.4,248.5 42.5,275 57.6,248.5 138.3,248.5 123.2,221.9 42.5,221.9 	"/>
</g>
</svg>
