<?xml version="1.0" encoding="utf-8"?>
<!-- Generator: Adobe Illustrator 26.5.0, SVG Export Plug-In . SVG Version: 6.00 Build 0)  -->
<svg version="1.1" id="Layer_1" xmlns="http://www.w3.org/2000/svg" xmlns:xlink="http://www.w3.org/1999/xlink" x="0px" y="0px"
	 viewBox="0 0 658.8 367" style="enable-background:new 0 0 658.8 367;" xml:space="preserve">
<style type="text/css">
	.st0{fill:#A6A8AB;}
	.st1{fill-rule:evenodd;clip-rule:evenodd;fill:#A6A8AB;}
</style>
<g>
	<polygon class="st0" points="11.2,179.5 41.9,179.5 62.9,162.6 98.1,162.6 107.9,140.4 90.6,140.4 117.9,118.5 136,79 	"/>
	<polygon class="st0" points="223,100.9 249.8,79.4 149.4,79.4 104.1,179.2 104.2,179.2 104.3,196.5 130.3,175.5 146.7,140.1 
		174.6,140.1 202.2,117.7 156.5,117.9 164.2,100.9 	"/>
	<g>
		<g>
			<g>
				<path class="st0" d="M191,37c0,13.7-11.1,24.9-24.9,24.9c-13.7,0-24.9-11.1-24.9-24.9c0-13.7,11.1-24.9,24.9-24.9
					C179.9,12.1,191,23.3,191,37z"/>
			</g>
		</g>
	</g>
	<polygon class="st0" points="69.1,224.5 69.2,255.2 84.1,255.2 123.8,223.4 63.8,356.3 101.6,326.2 167.9,179.4 145.2,179.4 
		90.3,224.1 90.3,179.4 69.4,179.4 8.9,273.1 	"/>
	<polygon class="st0" points="627.1,308.9 487,308.9 503.9,295.2 643.7,295.4 	"/>
	<polygon class="st0" points="440.6,308.9 300.5,308.9 317.4,295.2 457.2,295.4 	"/>
	<path class="st1" d="M211.3,313.5c0-0.1,0.3-0.2,0-0.2c0.2-0.2,0.1-0.7,0.4-0.9c0-0.1-0.2,0-0.3-0.1c0.1-0.1,0.4-0.6,0-0.5
		c0.3-0.7,0.4-1.6,0.9-2.1c0.3,0.6-0.4,1.3-0.6,1.9c0.1,0.2,0.2,0.5,0,0.6c0,0.1,0.2,0,0.3,0.1c-0.1,0.2-0.2,0.5-0.3,0.8
		c0.1,0.1,0.4,0.1,0.2,0.3c0.2,0,0.2-0.2,0.5-0.1c-0.2,0.2-0.4,0.4-0.8,0.5C211.7,313.3,211.6,313.5,211.3,313.5z"/>
	<path class="st1" d="M206.7,311.2c0.2,0.1,0.3,0.2,0.4,0.3C206.9,311.8,206.5,311.5,206.7,311.2z"/>
	<path class="st1" d="M211.3,313.9c0.1-0.2,0.4-0.3,0.7-0.3C211.9,313.8,211.5,314,211.3,313.9z"/>
	<path class="st1" d="M211.7,314.1c0.1-0.3,0.5-0.3,0.8-0.4C212.4,314,212,314,211.7,314.1z"/>
	<path class="st1" d="M212.8,313.9c0,0.2-0.5,0.2-0.7,0.1C212.2,313.8,212.6,314,212.8,313.9z"/>
	<path class="st1" d="M213.4,314.2c-0.1,0.2-0.5,0.2-0.7,0.1C212.8,314.1,213.3,314.1,213.4,314.2z"/>
	<path class="st1" d="M214,314.5c-0.1,0.3-0.5,0.3-0.7,0.2C213.4,314.4,213.8,314.5,214,314.5z"/>
	<path class="st1" d="M222.9,314.6c0.1,0,0.1,0,0.2,0c-0.1,0.3,0.2,0.2,0.1,0.4C223,315,222.8,314.8,222.9,314.6z"/>
	<path class="st1" d="M214.8,314.7c-0.1,0.3-0.5,0.2-0.9,0.3C214,314.6,214.5,314.7,214.8,314.7z"/>
	<path class="st1" d="M222.1,314.9c0.2,0,0.2,0.1,0.5,0.1C222.6,315.2,222,315.2,222.1,314.9z"/>
	<path class="st1" d="M228.8,314.9c0.1-0.2,0.5,0,0.7-0.1C229.4,315.1,228.9,315,228.8,314.9z"/>
	<path class="st1" d="M214.6,315.1c0.4-0.3,1.2-0.1,0.5,0C214.9,315.1,214.9,315.1,214.6,315.1z"/>
	<path class="st1" d="M221.3,315.1c0.2-0.1,0.2,0.1,0.5,0.1c-0.4,0.3-1,0.4-1.5,0.7c0-0.2-0.2-0.2-0.1-0.5c0.3-0.2,0.3,0.3,0.6,0.1
		c0.1,0-0.1-0.2,0.1-0.3C221.1,315.2,221.3,315.4,221.3,315.1z"/>
	<path class="st1" d="M216.1,315.2c-0.2,0.1-0.5,0.1-0.8,0.1C215.5,315.2,215.8,315.2,216.1,315.2z"/>
	<path class="st1" d="M229.6,315.4c-0.2,0-0.4,0-0.6,0C229,315.2,229.7,315.2,229.6,315.4z"/>
	<path class="st1" d="M216.7,315.6c-0.1,0.3-0.7,0-0.9,0.2C215.9,315.5,216.4,315.7,216.7,315.6z"/>
	<path class="st1" d="M217.2,315.7c-0.1,0.3-0.6,0.3-0.9,0.3C216.5,315.8,216.9,315.8,217.2,315.7z"/>
	<path class="st1" d="M218.9,316.1c-0.2,0.2-0.9,0.4-1.2,0.4c0.4-0.2,0.9-0.3,1.1-0.7c0.2,0,0.3,0.1,0.5,0.2
		c0.1-0.1,0.1-0.2,0.2-0.3c0.2,0,0.4,0.1,0.4,0.3c-0.5,0-1,0.5-1.6,0.5C218.5,316.4,218.9,316.5,218.9,316.1z"/>
	<path class="st1" d="M211.6,315.8c-0.1,0.3-0.4,0.4-0.7,0.5C210.9,316,211.2,315.8,211.6,315.8z"/>
	<path class="st1" d="M211.8,315.9c0,0.2-0.1,0.4-0.4,0.3C211.5,316,211.6,315.9,211.8,315.9z"/>
	<path class="st1" d="M217.7,315.9c-0.2,0.2-0.5,0.2-0.9,0.3C217,316,217.3,315.9,217.7,315.9z"/>
	<path class="st1" d="M230,315.9c0,0.2-0.3,0.1-0.5,0.1C229.6,315.9,229.8,315.9,230,315.9z"/>
	<path class="st1" d="M218.3,316c-0.2,0.2-0.5,0.3-0.9,0.5C217.6,316.2,217.9,316.1,218.3,316z"/>
	<path class="st1" d="M212.6,316.2c0,0.2-0.1,0.3-0.4,0.3C212.3,316.3,212.4,316.3,212.6,316.2z"/>
	<path class="st1" d="M219.8,316.4c-0.2,0.3-0.5,0.4-0.8,0.5C219,316.7,219.5,316.5,219.8,316.4z"/>
	<path class="st1" d="M219.2,316.5c-0.1,0.2-0.4,0.2-0.6,0.3C218.5,316.7,219,316.5,219.2,316.5z"/>
	<path class="st1" d="M230.7,316.6c-0.1,0.2-0.6,0.2-0.7,0.1C230.2,316.5,230.5,316.6,230.7,316.6z"/>
	<path class="st1" d="M213.4,316.7c0,0.2-0.2,0.3-0.3,0.2C213.2,316.8,213.2,316.7,213.4,316.7z"/>
	<path class="st1" d="M214.2,317c0,0.1-0.1,0.1-0.1,0.2C213.8,317.2,214,316.8,214.2,317z"/>
	<path class="st1" d="M231,317.2c-0.2,0-0.5,0.2-0.5-0.1C230.7,317.1,231,316.8,231,317.2z"/>
	<path class="st1" d="M214.8,317.2c0,0.2,0,0.3-0.2,0.3c0-0.1-0.1-0.1-0.1-0.2C214.6,317.2,214.6,317.2,214.8,317.2z"/>
	<path class="st1" d="M215.5,317.2c0.1,0,0.1,0,0.2,0C215.7,317.7,215.2,317.6,215.5,317.2z"/>
	<path class="st1" d="M216.3,317.4c0,0.1,0,0.1-0.1,0.1c0,0.1,0.1,0,0.1,0.1c-0.1,0.1-0.3,0.1-0.4,0.1
		C216,317.6,216.1,317.4,216.3,317.4z"/>
	<path class="st1" d="M231.6,317.4c-0.1,0.2-0.4,0.1-0.6,0.2C231.1,317.4,231.3,317.4,231.6,317.4z"/>
	<path class="st1" d="M216.5,317.9c-0.1,0.2,0,0.2,0.1,0.3c-0.1,0.2-0.3,0.2-0.5,0.1C216.2,318,216.2,317.9,216.5,317.9z"/>
	<path class="st1" d="M232.2,318.2c-0.3-0.1-0.6,0.1-0.7,0C231.5,318,232.2,317.8,232.2,318.2z"/>
	<path class="st1" d="M217.5,318.1c0.4,0.3,0,1,0.2,1.6c-0.1,0-0.2,0-0.3,0c0.1-0.5-0.3-0.6-0.3-1c0-0.1-0.3,0.1-0.4-0.1
		c-0.1-0.2,0.1-0.2,0.1-0.3c0.1,0,0.2,0.1,0.1,0.3c0.2,0,0.3-0.1,0.5-0.1C217.3,318.3,217.4,318.2,217.5,318.1z"/>
	<path class="st1" d="M232.7,318.6c-0.1,0.2-0.7,0.1-0.8,0.1C232,318.5,232.5,318.6,232.7,318.6z"/>
	<path class="st1" d="M232.4,319.3c0.2,0,0.4,0,0.7,0C233.1,319.6,232.3,319.6,232.4,319.3z"/>
	<path class="st1" d="M233.5,320c0,0.2-0.8,0.2-0.7,0C232.9,320,233.3,319.8,233.5,320z"/>
	<path class="st1" d="M204.8,320.4c0.2,0.3-0.9,0.5-1.3,0.7C203.8,320.7,204.4,320.7,204.8,320.4z"/>
	<path class="st1" d="M234.2,320.4c-0.2,0.3-0.8,0.2-1.2,0.3C233.2,320.5,233.8,320.6,234.2,320.4z"/>
	<path class="st1" d="M234.6,320.9c0,0.3-0.7,0.2-0.8,0.2C233.9,320.9,234.3,321,234.6,320.9z"/>
	<path class="st1" d="M205,321.5c-0.2,0.3-0.9,0.1-1.3,0.2C203.8,321.3,204.8,321.5,205,321.5z"/>
	<path class="st1" d="M234,321.9c0.3-0.3,0.7-0.3,1.1-0.5C234.9,321.7,234.4,321.7,234,321.9z"/>
	<path class="st1" d="M234.8,321.7c0.3,0-0.2,0.2-0.2,0.4c0.4,0,0.4-0.3,0.8-0.3c-0.2,0.2-0.6,0.4-1.1,0.4
		C234.4,321.9,234.6,321.8,234.8,321.7z"/>
	<path class="st1" d="M206.8,321.9c0.1,0,0.1,0.1,0,0.1c-0.8,0.2-1.5,0.5-2.4,0.6C205,322.3,206,322.2,206.8,321.9z"/>
	<path class="st1" d="M235.4,321.9c0.6,0.6,2,0.5,2.5,1.2c0.1-0.1,0-0.6,0.3-0.5c0,0.2,0,0.4,0,0.6c0.3,0,0.1-0.4,0.5-0.3
		c0,0.2,0,0.3,0,0.5c0.4,0,0.2-0.7,0.7-0.7c0,0.2-0.1,0.5,0.1,0.7c0.4-0.1,0.3-0.6,0.8-0.7c0,0.3-0.1,0.8,0.3,0.5
		c0,0.4-0.1,0.6-0.5,0.6c0-0.2-0.1-0.3-0.1-0.5c-0.2-0.1-0.3,0.4-0.7,0.3c-0.1-0.1-0.1-0.2-0.1-0.3c-0.2,0-0.3,0.2-0.5,0.3
		c-0.3-0.2-0.3-0.1-0.7-0.1c0.1-0.2-0.1-0.2-0.1-0.3c-0.6,0-0.8-0.4-1.4-0.4c0-0.1,0.1-0.1,0.1-0.1c-0.4-0.2-1-0.2-1.4-0.5
		C235.3,322.1,235.4,322,235.4,321.9z"/>
	<path class="st1" d="M206.4,322.8c-0.6,0.3-1.4,0.5-2.1,0.7C204.9,323.2,205.6,323,206.4,322.8z"/>
	<path class="st1" d="M206.6,323.6c-0.5,0.3-1.2,0.3-1.8,0.5C205.3,323.8,206,323.7,206.6,323.6z"/>
	<path class="st1" d="M233.7,324.1c-0.2,0.4-0.2,0.8-0.7,0.9C233.3,324.8,233.2,324.1,233.7,324.1z"/>
	<path class="st1" d="M202.2,324.4c-0.8,0.9-2.5,0.9-3.8,1.3c0.9-0.7,2.7-0.5,3.6-1.3C202.1,324.4,202.1,324.4,202.2,324.4z"/>
	<path class="st1" d="M206.6,324.9c-0.7,0-1.3,0.2-2,0.3C205.1,324.9,206.2,324.7,206.6,324.9z"/>
	<path class="st1" d="M233.2,325.1c-0.2,0.2-0.2,0.4-0.5,0.4C232.8,325.3,232.9,325.1,233.2,325.1z"/>
	<path class="st1" d="M218,325.2c0.4,0.2,0.3,0,0.7,0.2c0,0.2-0.3,0.2-0.2,0.6c-0.1,0-0.1,0-0.1,0.1
		C218.2,325.9,218,325.6,218,325.2z"/>
	<path class="st1" d="M201.9,325.5c-0.7,0.5-2.2,0.7-3.2,0.8C199.8,326,201,325.9,201.9,325.5z"/>
	<path class="st1" d="M217.5,325.6c0.5,0,0.4,0.7,0.7,0.9c0,0.2-0.1,0.3-0.3,0.3C217.9,326.4,217.6,326.1,217.5,325.6z"/>
	<path class="st1" d="M232.9,325.6c-0.1,0.2-0.2,0.4-0.5,0.3C232.5,325.8,232.7,325.6,232.9,325.6z"/>
	<path class="st1" d="M232.7,326c-0.1,0.2-0.2,0.4-0.5,0.4C232.3,326.2,232.4,326,232.7,326z"/>
	<path class="st1" d="M217.3,326.1c0.3,0.1,0.4,0.6,0.6,0.9C217.3,327,217.2,326.4,217.3,326.1z"/>
	<path class="st1" d="M232.3,326.5c-0.1,0.2-0.2,0.4-0.5,0.4c0.1,0.3-0.2,0.4-0.5,0.5c0.1-0.3,0.6-0.2,0.4-0.6
		C232,326.8,231.9,326.5,232.3,326.5z"/>
	<path class="st1" d="M202,326.6c0,0,0.1,0,0.1,0c-1.1,0.7-2.8,0.8-4,1.3C199.1,327.2,200.8,327.2,202,326.6z"/>
	<path class="st1" d="M216.7,326.7c0.4,0.1,0.5,0.5,0.6,0.9C216.9,327.5,216.7,326.9,216.7,326.7z"/>
	<path class="st1" d="M216.5,327.3c0.1,0.1,0.3,0.4,0.2,0.5c-0.3,0-0.3-0.3-0.4-0.4C216.3,327.3,216.5,327.4,216.5,327.3z"/>
	<path class="st1" d="M215.9,327.4c0.4,0.1,0.5,0.5,0.5,0.9C216.1,328.2,216,327.6,215.9,327.4z"/>
	<path class="st1" d="M230.8,328.1c0.2-0.2,0.4-0.4,0.7-0.5C231.4,327.8,231.2,328,230.8,328.1z"/>
	<path class="st1" d="M202.7,327.9c-1.2,0.5-2.9,0.9-4.2,1.1C199.7,328.5,201.4,328.2,202.7,327.9z"/>
	<path class="st1" d="M215.5,328c0.3-0.1,0.3,0.2,0.5,0.3C215.8,328.6,215.5,328.2,215.5,328z"/>
	<path class="st1" d="M231.2,328.1c-0.2,0.3-0.5,0.5-0.9,0.5C230.6,328.4,230.8,328.1,231.2,328.1z"/>
	<path class="st1" d="M214.9,328.5c0.2,0,0.3,0.1,0.3,0.3c-0.1,0-0.1,0-0.1,0.1C214.9,328.8,214.8,328.8,214.9,328.5
		C214.9,328.6,214.9,328.6,214.9,328.5z"/>
	<path class="st1" d="M230.6,328.7c0.1,0.2-0.4,0.3-0.7,0.4C230.1,328.9,230.4,328.8,230.6,328.7z"/>
	<path class="st1" d="M214.1,329.1c0.3,0,0.4,0.1,0.4,0.3C214.2,329.5,214.1,329.3,214.1,329.1z"/>
	<path class="st1" d="M230.2,329.3c-0.2,0-0.4,0.1-0.5,0.1c0.2,0.2,0.4-0.2,0.7-0.1c-0.2,0.3-0.7,0.3-1.1,0.5c0-0.2,0.3-0.1,0.1-0.4
		C229.6,329.3,230,328.9,230.2,329.3z"/>
	<path class="st1" d="M210.3,329.5c-0.6,0.4-1.4,0.5-2.2,0.7C208.8,329.8,209.6,329.7,210.3,329.5z"/>
	<path class="st1" d="M213.6,329.7c0.2,0,0.5,0.2,0.3,0.3C213.8,330.1,213.5,329.9,213.6,329.7z"/>
	<path class="st1" d="M230.4,329.7c-0.2,0.2-0.8,0.3-1.1,0.3C229.6,329.7,230,329.7,230.4,329.7z"/>
	<path class="st1" d="M229.6,330.1c-0.1,0.3-0.5,0.3-0.8,0.4C228.8,330.2,229.4,330.1,229.6,330.1z"/>
	<path class="st1" d="M202.7,330.1c-1,0.6-2.2,0.9-3.4,1.2C200.4,330.9,201.6,330.5,202.7,330.1z"/>
	<path class="st1" d="M212.9,330.1c0.3,0,0.4,0.2,0.3,0.4C213,330.5,212.8,330.2,212.9,330.1z"/>
	<path class="st1" d="M213,330.5c-0.1,0.3-0.5,0-0.5-0.2C212.8,330.1,212.9,330.5,213,330.5z"/>
	<path class="st1" d="M229.8,330.5c-0.2,0.2-0.5,0.3-0.9,0.4C229,330.6,229.5,330.4,229.8,330.5z"/>
	<path class="st1" d="M230,330.8c-0.1,0.3-0.7,0.5-0.9,0.4C229.3,331,229.6,330.9,230,330.8z"/>
	<path class="st1" d="M230.2,331.4c-0.1,0.2-0.5,0.3-0.8,0.3C229.5,331.5,229.8,331.5,230.2,331.4z"/>
	<path class="st1" d="M198.9,332.7c0.9-0.6,2.3-0.6,3.3-1.1c0.1,0,0.1,0,0.1,0.1C201.2,332,200,332.4,198.9,332.7z"/>
	<path class="st1" d="M230.2,332c-0.1,0.2-0.4,0.2-0.7,0.3C229.5,332,230,331.9,230.2,332z"/>
	<path class="st1" d="M230.2,332.6c-0.1,0.3-0.4,0.4-0.7,0.4C229.6,332.8,229.8,332.7,230.2,332.6z"/>
	<path class="st1" d="M201.9,332.8c-0.8,0.5-1.9,0.6-2.8,0.9C199.9,333.3,201,333.1,201.9,332.8z"/>
	<path class="st1" d="M230.3,333.4c-0.2,0.2-0.5,0.3-0.8,0.3C229.7,333.5,230,333.4,230.3,333.4z"/>
	<path class="st1" d="M214.1,333.4c-0.2,0.4-1.1,0.5-1.6,0.4C212.9,333.6,213.6,333.6,214.1,333.4z"/>
	<path class="st1" d="M214.6,333.9c-0.5,0.2-1.3,0.5-1.7,0.5C213.4,334.2,213.9,333.9,214.6,333.9z"/>
	<path class="st1" d="M230.5,333.9c-0.2,0.2-0.5,0.3-0.9,0.4C229.7,334,230.1,334,230.5,333.9z"/>
	<path class="st1" d="M212.7,334c0,0.4-0.2,0.6-0.3,0.9c0.1,0.2,0.1-0.2,0.3-0.1c0,0.2-0.2,0.4,0.1,0.3c-0.1,0.2-0.2,0.3-0.5,0.3
		c0-0.3,0.2-0.4-0.1-0.3C212.3,334.6,212.3,334.1,212.7,334z"/>
	<path class="st1" d="M215.1,334.7c-0.5,0.4-1.5,0.8-2.1,0.9C213.7,335.2,214.4,334.9,215.1,334.7z"/>
	<path class="st1" d="M212.5,336.2c0.1-0.6,0.4-1,0.9-1.2c-0.1,0.3-0.8,0.7-0.5,1C212.9,336.1,212.7,336.2,212.5,336.2z"/>
	<path class="st1" d="M215.4,335.7c-0.6,0.3-1.4,0.7-2,0.8C214.1,336.2,214.7,335.8,215.4,335.7z"/>
	<path class="st1" d="M230.9,335.8c-0.2,0.2-0.5,0.2-0.9,0.3C230.2,335.9,230.5,335.8,230.9,335.8z"/>
	<path class="st1" d="M213.3,335.9c-0.2,0.3-0.6,0.5-0.5,0.9c-0.1,0-0.2,0-0.3,0C212.6,336.3,212.9,336,213.3,335.9z"/>
	<path class="st1" d="M214,340.5c0.1,0.2,0.2-0.2,0.4-0.1c-0.2,0.3-0.3,0.8-0.3,1.1c-0.5,0.1-0.2-0.6-0.1-0.7
		c-0.1-0.2-0.2,0.2-0.3,0c0.1-0.4,0.3-0.6,0.4-0.9c-0.1-0.1-0.5,0.2-0.7,0.2c-0.1-0.3,0.3-0.8,0.4-1.1c-0.1-0.1-0.3,0.2-0.5,0.2
		c0.1-0.4,0.4-0.9,0.5-1.3c-0.3,0-0.3,0.3-0.7,0.3c0.2-0.5,0.3-1.2,0.9-1.4c0,0.2-0.2,0.4-0.3,0.6c0.6-0.1,1.1-0.7,1.8-0.8
		c-0.6,0.5-1.6,0.6-2.1,1.3c0.3,0,0.3-0.3,0.7-0.3c0,0.2-0.1,0.3-0.1,0.5c0.6,0,1.2-0.5,1.9-0.7c-0.5,0.7-1.9,0.5-2.2,1.5
		c0.3,0,0.3-0.3,0.5-0.3c0,0.3-0.2,0.3-0.1,0.5c0.7-0.2,1.3-0.6,2-0.8c-0.6,0.7-2.2,0.5-2.4,1.7c0.4,0,0.5-0.3,0.9-0.3
		C214.3,339.9,214.1,340.2,214,340.5z"/>
	<path class="st1" d="M213.4,336.6c-0.4,0.5,0.1,0.7-0.5,0.8C212.9,337,213,336.7,213.4,336.6z"/>
	<path class="st1" d="M231.5,338.3c-0.1,0.2-0.7,0.3-0.9,0.3C230.8,338.4,231.2,338.4,231.5,338.3z"/>
	<path class="st1" d="M216.5,338.7c0.1,0.2-0.5,0.3-0.9,0.5c-0.4,0.2-0.8,0.5-1.1,0.5C215.1,339.2,215.8,339,216.5,338.7z"/>
	<path class="st1" d="M231.9,338.8c0,0.3-0.8,0.3-0.8,0.1C231.4,338.8,231.5,338.8,231.9,338.8z"/>
	<path class="st1" d="M217.2,339c-0.8,0.5-1.6,0.9-2.4,1.3C215.5,339.7,216.3,339.3,217.2,339z"/>
	<path class="st1" d="M232.5,339.3c-0.3,0.1-0.3-0.1-0.6-0.1C232,339,232.6,339,232.5,339.3z"/>
	<path class="st1" d="M232.7,339.4c1.3,0.1,2.4,0.9,4,0.9C235.1,340.5,233.8,339.8,232.7,339.4z"/>
	<path class="st1" d="M200.3,339.6c0,0.4-0.7,0.1-1.1,0.2C199.4,339.5,200,339.7,200.3,339.6z"/>
	<path class="st1" d="M217.2,339.8c-0.8,0.6-1.8,1-2.8,1.4C215.3,340.7,216.2,340.2,217.2,339.8z"/>
	<path class="st1" d="M215.3,342c0.2,0.1,0.5-0.3,0.7-0.4c0.2,0,0.1,0.1,0.1,0.1c0.9-0.2,1.8-0.5,2.6-0.9c-0.7,0.7-2.4,0.5-3,1.4
		c0.1,0.1,0.3-0.2,0.6-0.2c0,0.3-0.3,0.3-0.5,0.3c1.4,0.8,2.6-0.8,4-0.9c-1,0.5-1.9,0.9-3,1.3c1.2,0.6,2.4,1.1,3.7,1.6
		c0.2,0,0-0.5,0.2-0.5c0.3-0.1,0.1,0.3,0.1,0.5c0.3-0.1,0-0.4,0.1-0.5c0.8-0.1,1.1-0.6,1.9-0.7c-0.4,0.4-0.9,0.6-1.4,0.8
		c0,0.2,0,0.4,0,0.6c0.2-0.1,0.1-0.6,0.4-0.7c0.2,0,0.1,0.4,0.2,0.5c0.2-0.2,0.3-0.6,0.5-0.7c0.2,0.1,0.1,0.5,0.5,0.4
		c-0.1,0.2-0.6,0.3-0.6,0c-0.2,0.2-0.2,0.6-0.5,0.7c-0.2,0-0.2-0.1-0.2-0.3c-0.3,0-0.2,0.4-0.6,0.3c0-0.2-0.1-0.2-0.1-0.4
		c-0.3,0.1,0.1,0.2-0.1,0.3c-2.1-0.6-3.8-1.6-5.8-2.3c0-0.1,0.2-0.1,0.3-0.2c0-0.1-0.3,0.1-0.4,0.1c-0.2-0.1-0.1-0.1-0.1-0.3
		c-0.2,0.1-0.4,0.3-0.7,0.3c0.3-0.4-0.4-0.5-0.2-0.9c0.3,0,0.2,0.3,0.4,0.3c0.1-0.1,0.1-0.3,0.3-0.3c0.1,0.2-0.2,0.3-0.2,0.5
		c0.4-0.1,0.5-0.4,0.9-0.5c0-0.1-0.2-0.1-0.1-0.3c1.1-0.4,2.2-1.2,3.4-1.4c-1,0.5-2,1-3,1.5C215.9,341.6,215.6,341.8,215.3,342z"/>
	<path class="st1" d="M201.1,340c-0.2,0.4-1,0.2-1.5,0.3C199.8,339.9,200.6,340.1,201.1,340z"/>
	<path class="st1" d="M201.5,340.7c-0.3,0.3-1.3,0-1.7,0.2C200,340.7,201,340.8,201.5,340.7z"/>
	<path class="st1" d="M240.1,341.2c-0.7,0.1-1.3,0.2-2,0.3C238.5,341.3,239.7,341.1,240.1,341.2z"/>
	<path class="st1" d="M202.3,341.4c-0.6,0.1-1.4,0.3-2,0.2C200.8,341.4,201.8,341.1,202.3,341.4z"/>
	<path class="st1" d="M240.6,341.7c-0.8,0.2-1.4,0.5-2.2,0.5C239,342,240.1,341.6,240.6,341.7z"/>
	<path class="st1" d="M202.7,341.7c-0.4,0.4-1.3,0.2-1.8,0.5C201.2,341.7,202.1,341.8,202.7,341.7z"/>
	<path class="st1" d="M237.7,341.8c-0.1,0.2-0.3,0.4-0.5,0.4C237.2,342,237.4,341.8,237.7,341.8z"/>
	<path class="st1" d="M220.6,341.9c-0.7,0.5-1.4,1-2.3,1.3C219,342.6,219.7,342.2,220.6,341.9z"/>
	<path class="st1" d="M237.5,342.3c-0.1,0.3-0.4,0.7-0.8,0.5C237,342.6,237.1,342.3,237.5,342.3z"/>
	<path class="st1" d="M239.8,342.3c-0.6,0.4-1.4,0.6-2.1,0.9C238.3,342.8,239.1,342.6,239.8,342.3z"/>
	<path class="st1" d="M203.1,342.5c-0.5,0.3-1.2,0.2-1.9,0.3C201.7,342.5,202.5,342.6,203.1,342.5z"/>
	<path class="st1" d="M221.1,342.5c-0.4,0.5-1.1,0.8-1.8,1C219.8,343,220.4,342.7,221.1,342.5z"/>
	<path class="st1" d="M222,342.7c-0.7,0.4-1.3,0.8-2.2,1.1C220.6,343.4,221.2,343,222,342.7z"/>
	<path class="st1" d="M224,342.9c0.2,0.1,0.1,0.1,0.2,0.3c-0.3,0.1-0.5,0.1-0.8,0.2C223.5,343.2,223.8,343.1,224,342.9z"/>
	<path class="st1" d="M239.5,342.9c-0.8,0.5-1.8,1.1-2.7,1.2C237.6,343.7,238.5,343.3,239.5,342.9z"/>
	<path class="st1" d="M203.5,343.1c0.1,0,0.2,0.1,0.1,0.1c-0.6,0.2-1.2,0.4-2,0.4C202.2,343.3,203,343.4,203.5,343.1z"/>
	<path class="st1" d="M237.3,343.1c-0.1,0.1-0.1,0.3-0.4,0.3C237,343.3,237,343.1,237.3,343.1z"/>
	<path class="st1" d="M239.2,343.5c-0.8,0.7-1.8,1-2.8,1.4c0-0.3,0.6-0.6,0.7-0.3C237.8,344.3,238.4,343.9,239.2,343.5z"/>
	<path class="st1" d="M203.9,343.8c-0.4,0.4-1.4,0.4-1.9,0.5C202.5,344,203.2,343.9,203.9,343.8z"/>
	<path class="st1" d="M205,344.3c-0.7,0.4-1.8,0.5-2.7,0.7c0.3-0.3,0.9-0.3,1.3-0.4C204.1,344.5,204.6,344.3,205,344.3z"/>
	<path class="st1" d="M205.2,344.9c-0.5,0.4-1.3,0.5-2.1,0.7C203.8,345.4,204.6,345.2,205.2,344.9z"/>
	<path class="st1" d="M210.7,345.1c-0.7,0.6-1.8,0.7-2.7,1.1C208.6,345.6,209.7,345.5,210.7,345.1z"/>
	<path class="st1" d="M206.8,345.7c0.1,0,0.1,0,0.2,0c0,0.1,0,0.2,0,0.3c0.1-0.1,0-0.4,0.3-0.3c-0.1,0.3,0.2,0.3,0.4,0.3
		c-0.4,0.2-0.7,0.3-1.1,0.1C206.7,346,206.9,346,206.8,345.7z"/>
	<path class="st1" d="M211.3,345.7c-0.6,0.5-1.6,0.5-2.3,0.9C209.5,346.1,210.5,346,211.3,345.7z"/>
	<path class="st1" d="M212,345.9c-0.7,0.4-1.5,0.7-2.4,0.9C210.3,346.5,211.1,346.2,212,345.9z"/>
	<path class="st1" d="M208,346.2c-0.1,0.3-0.5,0.3-0.8,0.3C207.4,346.3,207.8,346.4,208,346.2z"/>
	<path class="st1" d="M212.5,346.5c-0.9,0.4-2,0.7-3,1.1C210.3,347,211.5,346.6,212.5,346.5z"/>
	<path class="st1" d="M208.1,348.4c1.9-0.4,3.7-0.9,5.1-1.8c0.1,0,0.1,0,0.1,0.1C211.9,347.5,210.3,348.2,208.1,348.4z"/>
	<path class="st1" d="M214.8,346.8c0.1,0,0.1,0.1,0.1,0.2c-1.2,0.3-2.2,1.2-3.4,1.2C212.6,347.8,213.7,347.3,214.8,346.8z"/>
	<path class="st1" d="M208.3,346.9c0.1,0.2-0.6,0.2-0.9,0.3C207.5,346.9,208.1,347.1,208.3,346.9z"/>
	<path class="st1" d="M209.5,347.3c-0.4,0.4-1.2,0.3-1.8,0.5C208.1,347.4,208.9,347.5,209.5,347.3z"/>
	<path class="st1" d="M215.2,347.5c0,0.2-0.4,0.3-0.5,0.4c-0.8,0.4-1.6,0.7-2.5,1c-1,0.3-1.9,1-3,1c1-0.5,2.4-0.7,3.2-1.3
		C213.6,348.7,214.3,347.8,215.2,347.5C215.2,347.5,215.2,347.5,215.2,347.5z"/>
	<path class="st1" d="M218.1,348.3c-1.1,0.6-2.5,1.3-3.8,1.5C215.5,349.3,216.9,348.6,218.1,348.3z"/>
	<path class="st1" d="M211.3,348.4c-0.6,0.4-1.4,0.5-2.1,0.7C209.7,348.7,210.5,348.6,211.3,348.4z"/>
	<path class="st1" d="M216,349.9c-1.3,0.2-2.4,1.1-3.9,1.3c1.3-0.5,2.6-1,3.9-1.5C216.2,349.7,216.1,349.7,216,349.9
		c1.2-0.4,2.1-1,3.2-1.3c-1.1,0.6-2.2,1.1-3.6,1.4C215.7,349.9,215.9,349.9,216,349.9z"/>
	<path class="st1" d="M215.1,349.1c-1.2,0.7-2.7,1-4.2,1.5C212.3,349.9,213.8,349.6,215.1,349.1z"/>
	<path class="st1" d="M217.7,350.3c-0.2-0.2-0.4,0.2-0.7,0.1c1-0.5,2.2-0.9,3.4-1.3c-0.6,0.5-1.5,0.6-2.3,0.9c-0.1,0,0,0.1,0,0.2
		c-1.1,0.5-2.2,1.4-3.6,1.5C215.6,351.3,216.7,350.8,217.7,350.3z"/>
	<path class="st1" d="M220.8,349.6c-0.9,0.6-2,1.6-3.4,1.3c0.2-0.2,0.5,0,0.7-0.1C219.1,350.7,219.8,349.8,220.8,349.6z"/>
	<path class="st1" d="M222.2,350c-2.2,0.9-4.7,1.5-7.2,2.1c1.5-0.4,2.9-0.8,4.3-1.4c-0.2,0.2-0.5,0.2-0.7,0.3
		C219.7,350.9,220.9,350.2,222.2,350z"/>
	<path class="st1" d="M216.8,350.3c-1.1,0.5-2.2,1-3.7,1.2C214.4,351.2,215.6,350.8,216.8,350.3z"/>
	<path class="st1" d="M221.4,351.5c0.5,0.1,1-0.4,1.6-0.5c-1.6,0.7-3.4,1.2-5.1,1.9c1.2-0.8,2.9-1.1,4.1-1.9c-2,0.3-3.3,1.8-5.6,2
		c1.3-0.4,2.6-0.8,3.6-1.5c-0.1,0-0.1,0-0.1,0.1c0-0.2,0.4-0.2,0.7-0.3c0.8-0.2,1.8-0.7,2.5-0.8
		C222.3,350.6,222.1,351.2,221.4,351.5z"/>
	<path class="st1" d="M198.4,350.5c-0.1,0.2-0.4,0.2-0.7,0.2C197.9,350.5,198.2,350.5,198.4,350.5z"/>
	<path class="st1" d="M202.8,350.7c-0.4,0.4-1.3,0.2-1.8,0.4C201.3,350.6,202.2,350.8,202.8,350.7z"/>
	<path class="st1" d="M204.5,350.8c-0.4,0.4-1.7,0.4-2.3,0.4C202.8,350.9,203.8,351,204.5,350.8z"/>
	<path class="st1" d="M206.5,351.1c-0.7,0.2-1.5,0.5-2,0.5c-0.2,0-0.9,0-0.5-0.1C204.7,351.4,205.8,351.3,206.5,351.1z"/>
	<path class="st1" d="M224.9,351.3c-0.5,0.6-1,1-2,1.1C223.7,352.2,224.2,351.7,224.9,351.3z"/>
	<path class="st1" d="M225.7,351.5c-0.4,0.4-0.9,0.6-1.6,0.8C224.6,352,225.1,351.6,225.7,351.5z"/>
	<path class="st1" d="M203.1,352.1c0.1,0.6-0.7,0.8-1,0.5C202,352,202.7,351.8,203.1,352.1z"/>
	<path class="st1" d="M200.3,352.2c-0.1,0.5-1,0.5-1.5,0.3C198.8,352,199.8,352.2,200.3,352.2z"/>
	<path class="st1" d="M247.4,352.8c-0.4,0.7-1.5,0.7-2.2,1.1c-0.7,0.5-1.6,1.2-2.5,1.3c0.7-0.6,2.1-0.7,2.2-1.7
		c-0.6-0.1-1.5,1.2-2,0.3c0.6-0.5,1.3-0.9,2.3-1c0.1,0.1,0.2,0.1,0.1,0.3C245.9,353,246.7,352.4,247.4,352.8z"/>
	<path class="st1" d="M247.6,353.9c-0.5,0.4-1.2,0.7-1.9,1C246.3,354.5,246.9,354.1,247.6,353.9z"/>
	<path class="st1" d="M248.9,353.9c-0.2,0.2-0.3,0.5-0.7,0.5C248.3,354.2,248.5,353.9,248.9,353.9z"/>
	<path class="st1" d="M250,354.2c0,0.1-0.1,0.1-0.1,0.1c0,0.1,0.1,0.1,0.1,0.2c-0.2,0-0.3,0-0.3-0.1
		C249.7,354.3,249.8,354.1,250,354.2z"/>
	<path class="st1" d="M213.9,354.6c-0.4,0.3-1,0.3-1.6,0.4c-0.6,0.1-1.1,0.3-1.5,0.3C211.5,354.7,212.8,354.7,213.9,354.6z"/>
	<path class="st1" d="M236.8,350.5c0.4-0.2,1-0.6,1.5-0.5c-0.1,0.4-0.3,0.6-0.6,0.9c0.6,0,1.5-0.8,2.2-0.4c-0.4,0.6-1.5,0.5-1.8,1.2
		c0.5-0.1,0.8-0.5,1.4-0.6c-0.3,0.2-0.6,0.4-1,0.5c0,0.2,0.2,0.2,0.1,0.5c0.9-0.2,2.4-0.8,3.2-0.3c-0.2,0.8-1.6,0.6-2,1.2
		c0.3,0,0.9-0.3,1.1,0.1c0.7-0.4,1.4-0.8,2.2-1.1c-0.2,0.6-0.7,0.8-1.1,1.3c0.6-0.3,1.1-0.7,1.9-0.8c-0.7,1.4-3.3,2.2-5,2.8
		c-0.3-0.1,0.4-0.4,0.5-0.5c-0.1-0.1-0.4,0.2-0.7,0.2c1.1-0.7,2.4-1.3,3.3-2.3c-1.3,0.5-2,1.5-3.3,1.9c0.1-0.2,0.4-0.3,0.6-0.5
		c0-0.1-0.2,0-0.2-0.2c-0.5,0.1-0.7,0.6-0.9,1c0.1,0.2,0.2-0.1,0.4-0.1c-0.1,0.2-0.6,0.3-0.7,0.3c0.2-0.4,0.5-0.7,0.7-1.1
		c-1.1,0.5-1.8,1.3-3,1.7c0.4-0.5,0.9-0.8,1.4-1.3c-1,0.5-1.8,1.1-2.8,1.5c-0.3-0.1,0.2-0.4,0.3-0.5c-0.4,0.2-0.8,0.5-1.3,0.7
		c0.1-0.3,0.4-0.3,0.5-0.6c-0.6,0.4-1.7,0.6-2.2,0.6c0.2-0.6,0.9-0.8,1.3-1.2c-0.9,0-1.7,0.7-2.6,1c-0.3-0.3,0.5-0.5,0.8-0.7
		c-0.5,0.1-1,0.6-1.6,0.7c0.2-0.5,0.8-0.5,1-0.9c-0.9,0.1-1.1,0.8-2,0.9c0.2-0.4,0.7-0.6,0.9-0.9c-0.7,0.4-1.3,0.8-2.1,1.1
		c0-0.5,0.9-0.6,1.1-1.1c-1,0.5-2.1,1.2-3.3,1.3c0.1-0.5,0.5-0.7,0.8-1c-0.8,0.3-1.6,0.7-2.5,0.9c-0.2-0.2,0.3-0.3,0.3-0.5
		c-1,0.1-1.6,0.5-2.6,0.6c0-0.2,0.2-0.2,0.2-0.3c-0.3,0-0.5,0.3-0.9,0.3c0.6-0.4,1.4-0.6,2.1-0.9c-1.3,0.3-3.1,0.8-5,0.8
		c0.7-0.4,1.9-0.1,2.8-0.4c0.6-0.2,0.9-0.5,1.4-0.6c-2.1,0.1-4.7,0.2-6.7,0.7c0.7-0.6,2.4-0.3,3.3-0.7c-0.5-0.1-1.4,0-2.1,0.1
		c0.5-0.3,1.3-0.2,2-0.3c-2.1-0.2-3.6,0.9-5.7,0.9c1-0.3,2.1-0.4,3.1-0.7c-0.2-0.1-0.5-0.1-0.8-0.1c0.1-0.2,0.5-0.1,0.7-0.2
		c-2-0.4-4.2-0.2-6.1,0.1c0-0.5-1.4,0.2-1.6-0.3c1,0,1.9-0.2,2.8-0.3c-1.2-0.6-2.3,0.4-3.6,0.4c0.7-0.3,1.6-0.4,2.2-0.7
		c-1.2-0.4-2.6,0.2-3.6,0.6c0.6-0.5,1.4-0.8,2.6-0.8c-1-0.4-2.5,0.2-3.6,0.3c0.2-0.3,0.9-0.2,1.2-0.5c-0.5-0.2-1.2,0.1-1.9,0
		c0.6-0.3,1.8,0,2.4-0.3c-0.6,0-1.9,0.2-2.6,0.1c0.5-0.4,1.2-0.1,1.7-0.3c0.6-0.1,1-0.7,1.7-0.6c-0.8-0.6-1.7,0.7-2.3,0
		c-0.5,0.1-0.9,0.3-1.4,0.4c0.7-0.5,1.8-0.6,2.6-1.1c-0.5-0.1-1.2,0.3-1.8,0.3c1.4-0.5,2.5-0.7,4-0.5c-0.1-0.2-0.6-0.7-1-0.5
		c-1.3-1.1-2.7-2.2-3.8-3.7c-0.8-1.1-2.2-1.9-2.3-3.2c-1.3-2-2.5-4.2-3.6-6.4c0.1-1.2-0.6-2.6-0.7-4.2c-0.3-5.5,0.5-9.7,2.1-13.2
		c0.3-0.6,0.7-1.2,1-1.8c2.1-3.9,5.9-7.4,9.8-9.3c0.1,0,0-0.1,0-0.2c2.9-1.2,5.6-2.5,9.4-2.7c1.1,0,2.3,0,3.6,0
		c-0.1,0.2,0.1,0.2,0.3,0.3c0.3,0-0.1-0.2,0.2-0.2c4.6,0.8,8.7,2.1,11.4,4.8c0.2,0,0.2,0.1,0.4,0.1c0,0.1-0.1,0.1-0.1,0.1
		c1.7,1.3,3.3,2.5,4.6,4.2c1.3,1.7,1.9,3.8,3.1,5.6c0,0.2-0.1,0.1-0.1,0.3c0.9,2,1.5,4.2,1.7,6.8c0.1,1.4,0.4,3.1,0.1,4.6
		c-0.6,4.1-1.8,7.9-3.8,10.5c-0.8,1-1.6,2.1-2.6,2.9c-0.7,0.5-1.3,1-1.9,1.6c0.2-0.1,0.2,0.1,0.1,0.1c0,0.2,0.1-0.1,0.3,0
		c0,0.4-0.6,0.4-0.3,0.7c-0.9,0.4-1.1,1.1-2,1.4c0.4,0.3,0.6-0.1,1.1-0.1c0,0.3-0.4,0.2-0.4,0.4c0.5-0.1,0.8-0.3,1.4-0.4
		c-0.4,0.4-0.9,0.5-1.5,0.7c1,0,1.7-0.8,2.9-0.8C237.4,350.2,236.8,350.4,236.8,350.5z M217.5,306.8c-0.5,0.1,0.2,0.1,0.5,0.1
		c0.3,0,0.7-0.1,1.1-0.2C218.5,306.7,217.8,306.7,217.5,306.8z M221.1,306.7c-0.2,0-0.6-0.1-0.7,0.1
		C220.6,306.7,221,306.8,221.1,306.7z M211.1,309c0.9-0.1,1,0.2,1.1,0.6c-0.8,0.6-0.9,2.1-1.3,3.2c-0.1,0.2,0.2,0.1,0.1,0.3
		c-0.4,0.1-0.2,0.8-0.3,1.2c2.1,1.4,5.1,1.8,7.4,3c0.2-0.1,0.3,0,0.5,0c1.6-1.2,4.3-1.7,6.7-1.9c0.4,0,1.1,0.1,1.3-0.3
		c-0.1,0-0.2,0-0.2-0.1c0.2-0.1,0.6-0.3,0.5-0.4c-0.3,0-0.6,0.4-1,0.1c-0.2,0.4-1,0.2-1.3,0.1c-0.4,0.4-0.7,0.2-1.2,0.3
		c0-0.2-0.2-0.5,0-0.5c0.3,0.2,0.4-0.1,0.6,0.2c0.2-0.4,0.5,0,0.7-0.4c0.1,0,0.1,0.4,0.3,0.2c0.2,0-0.1-0.4,0.2-0.3
		c0.3-0.1,0,0.3,0.2,0.3c0.1-0.2,0-0.5,0.2-0.5c0.2,0-0.1,0.5,0.1,0.6c0.1-0.2,0.1-0.5,0.5-0.5c0,0.2,0,0.4,0.1,0.5
		c0.1-0.2,0.1-0.5,0.5-0.5c-0.1,0.3,0.1,0.3,0.3,0.4c0.4-1.5,0.6-3.3,1-4.8c-1.4-0.4-2.6-1.3-4-1.4c0-0.1,0.1-0.1,0.1-0.1
		c-1-0.3-1.9-0.7-2.9-0.9c0-0.1,0-0.1,0.1-0.2c-4-0.2-6.4,1.6-9.4,2.2c1.7-0.6,3.8-1.5,5.6-2c0.3-0.1,0.8,0,0.7-0.2
		C215.7,307.3,213.4,308.2,211.1,309z M222.9,307c-0.5,0.1-0.9-0.2-1.3,0C222.1,307.1,222.5,307.4,222.9,307z M215,307.5
		c0.5-0.1,1.1-0.2,1.5-0.4C215.9,307.1,215.1,307.2,215,307.5z M222.6,307.3c0.4,0.2,1.2,0,1.3-0.2
		C223.6,307.2,222.9,307,222.6,307.3z M223.3,307.5c0.5,0.2,1-0.1,1.4-0.3C224.1,307.2,223.7,307.4,223.3,307.5z M214.5,307.4
		c-0.6,0.1-1.9,0.7-2.4,1.1c0.8-0.2,1.9-0.6,2.4-0.9c-0.2,0-0.5,0.2-0.6,0.1C214.2,307.5,214.8,307.3,214.5,307.4z M223.9,307.7
		c0.5,0.3,0.8-0.2,1.3-0.3C224.6,307.4,224.2,307.5,223.9,307.7z M224.5,307.9c0.5,0.1,0.9-0.2,1.4-0.3
		C225.4,307.3,224.8,307.7,224.5,307.9z M224.9,308.1c0.5,0.1,1.1-0.2,1.6-0.4C226,307.6,225.3,307.8,224.9,308.1z M225.4,308.2
		c0.5,0.3,1.2-0.1,1.6-0.4C226.5,307.7,225.9,308,225.4,308.2z M226.1,308.5c0.5,0.3,1.1-0.3,1.6-0.5
		C227.1,307.9,226.6,308.4,226.1,308.5z M226.5,308.7c0.6,0.2,1.3-0.1,1.8-0.5C227.6,307.9,227,308.5,226.5,308.7z M229.3,309.7
		c0.3-0.2,0.6-0.4,1-0.5c0,0.2-0.2,0.2-0.2,0.3c0.2,0.4,0.8,0,1.1,0.1c-0.1,0.1-0.2,0.2-0.2,0.3c0.3,0,0.3-0.1,0.6-0.1
		c-0.7-0.8-1.9-1.3-3.1-1.6c-0.3,0.3-0.7,0.4-0.9,0.7c0.5,0,0.6-0.3,1.1-0.3c0,0.2-0.3,0.1-0.2,0.4c0.3-0.1,0.6-0.3,1-0.3
		c-0.1,0.2-0.4,0.3-0.5,0.5c0.3,0,0.7-0.3,0.9-0.2C229.8,309.4,229.2,309.5,229.3,309.7z M228.8,309c-0.2,0.1-0.5,0.2-0.9,0.2
		c0-0.1,0-0.1,0.1-0.2c-0.2,0-0.4,0-0.5,0.1c0.3,0.1,0.9,0.3,1.1,0.3C228.4,309.3,229,309.1,228.8,309z M228.9,309.6
		c0.2,0,0.5-0.2,0.4-0.3C229.2,309.4,228.9,309.4,228.9,309.6z M229.4,309.8c0.2,0.1,0.4-0.2,0.3-0.3
		C229.7,309.7,229.4,309.6,229.4,309.8z M210.8,310.2c0.3-0.1,0.6-0.2,0.8-0.4C211.2,309.7,210.9,309.9,210.8,310.2z M232.5,310.2
		c-0.2-0.1-0.4-0.4-0.5-0.3C232.2,309.9,232.3,310.3,232.5,310.2z M241.1,320.3c-0.1-0.9-0.8-2-1.3-2.8c-1.7-2.4-4.2-4.4-6.1-6.2
		c-1.6-0.4-3.1-1-4.6-1.5c0,0.1-0.1,0.1-0.1,0.2c0,0.1-0.1,0.1-0.1,0.2c0.1,0,0.4-0.1,0.5,0.1c-0.1,0.1-0.4,0.1-0.6,0.1
		c-0.1,1.7-0.9,2.7-0.8,4.6c1.7,2.1,3.7,3.8,5.2,6.1c0,0.2,0.3,0.1,0.3,0.2c-0.1,0.5,0.2,0.7,0.3,1.1c2.3,0.7,4.6,1.4,6.7,2.3
		C240.9,323.4,241.3,321.9,241.1,320.3z M230,310c0.3,0,0.3,0.2,0.6,0.1c0-0.2,0.1-0.1,0.1-0.3C230.4,309.9,230.2,309.9,230,310z
		 M210.8,310.5c0.3-0.2,0.7-0.2,0.9-0.5C211.4,310.1,210.9,310.1,210.8,310.5z M231.7,310.2c0.2,0,0.3,0.3,0.4,0.1
		C231.9,310.2,231.7,309.9,231.7,310.2z M230.9,310.3c0.2,0,0.4,0.1,0.6,0.2C231.5,310.2,231.1,310.1,230.9,310.3z M207.6,310.6
		c0.1,0,0.3,0,0.3,0.1c0,0.1-0.2,0.1-0.3,0.2c-0.1-0.1-0.2-0.1-0.2-0.3c-0.2,0-0.2,0.1-0.3,0.2c0.4,0.3,0.8,0.1,1.1-0.2
		c-0.2,0.1-0.3,0-0.3-0.2c0.2,0,0.6,0,0.4-0.2C208,310.3,207.7,310.4,207.6,310.6z M210.8,310.8c0.1-0.2,0.7-0.1,0.7-0.5
		C211.2,310.5,210.7,310.6,210.8,310.8z M207.9,311.2c0.3,0.1,0.8-0.1,1.1-0.3c0.3-0.1,0.9-0.4,0.7-0.5
		C209.3,310.8,208.4,310.8,207.9,311.2z M231.9,310.6c0.3,0,0.6,0.3,0.7,0.1C232.4,310.7,232,310.3,231.9,310.6z M206.4,312.6
		c0.4-0.2,0.7-0.6,1.3-0.7c-0.5,0.7-1.6,0.7-1.9,1.5c0.9-0.2,1.3-0.9,2-1.2c0.1-0.1-0.1-0.2,0.1-0.3c0.9-0.3,1.8-0.6,2.4-1.1
		C208.9,311.3,207,311.6,206.4,312.6z M211.2,310.8C210.3,311.1,211,311.3,211.2,310.8L211.2,310.8z M206.2,311.5
		c0,0.2,0.2,0.4,0.4,0.5c-0.3,0.4-0.5-0.2-0.7-0.3c-0.1,0.2-0.3,0.2-0.4,0.4c0.1,0.1,0.3,0.3,0.5,0.3c0,0.1-0.1,0.2-0.2,0.2
		c-0.2-0.1-0.4-0.2-0.4-0.4c-0.2,0-0.3,0.2-0.5,0.3c0,0.3,0.5,0.3,0.3,0.6c-0.4,0-0.3-0.3-0.6-0.3c-0.1,0.1-0.3,0.2-0.4,0.4
		c0.2,0,0.4,0.1,0.5,0.3c-0.3,0-0.4-0.2-0.6-0.3c-0.1,0.2-0.3,0.3-0.4,0.5c0.4,0,0.3,0.4,0.7,0.4c0.9-0.9,2.1-1.9,3.2-2.8
		c-0.3,0.1-0.4-0.2-0.7-0.3C206.7,311.2,206.4,311.3,206.2,311.5z M210.5,311.5c0.2-0.1,0.6-0.2,0.7-0.5
		C210.9,311.1,210.6,311.2,210.5,311.5z M207.6,312.8c0.4-0.3,1.5-1,1.3-0.7c0.4-0.3,0.9-0.6,1.3-0.9c-1.9,0.5-3.5,1.7-4.5,2.8
		C206.2,314,206.9,313.3,207.6,312.8z M210.5,311.8c0.2-0.1,0.7-0.2,0.5-0.5C210.8,311.5,210.5,311.5,210.5,311.8z M206.3,314.3
		c0.9-0.4,1.6-1.2,2.4-1.5c-0.2,0.3-0.5,0.4-0.7,0.6c0.7-0.2,1.2-0.5,1.7-0.9c-0.2,0-0.4,0-0.4-0.1c0.3-0.2,0.7-0.2,0.7-0.6
		c-0.3-0.1-0.9,0.2-0.7,0.3c-0.9,0.5-1.9,0.8-2.6,1.5c0.1,0,0.2-0.1,0.2,0C206.9,313.8,206.2,314.3,206.3,314.3z M210.4,312.1
		c0.2-0.1,0.5-0.1,0.6-0.3C210.8,311.9,210.5,311.9,210.4,312.1z M210.3,312.4c0.2,0,0.7-0.3,0.5-0.3
		C210.7,312.2,210.4,312.2,210.3,312.4z M210.3,312.7c0.2-0.1,0.5,0,0.5-0.3C210.7,312.5,210.4,312.5,210.3,312.7z M210.2,313.1
		c0.4,0,0.6-0.1,0.6-0.4C210.5,312.8,210.2,312.8,210.2,313.1z M207.8,314.5c0.3,0,0.3-0.3,0.7-0.3c0,0.1-0.1,0.1-0.1,0.2
		c0.6-0.1,1.1-0.2,1.4-0.6c-0.4,0-0.1-0.3-0.2-0.5c0.1-0.1,0.3-0.1,0.3-0.3C208.7,312.9,208.4,314.1,207.8,314.5z M238.7,315.7
		c-0.8-0.9-2-2.1-2.7-2.6C236.9,314,237.9,315,238.7,315.7z M207.6,314.3c0.3-0.4,1-0.7,1.1-1.1
		C208.4,313.6,207.5,313.9,207.6,314.3z M210.2,313.5c0.1-0.2,0.5,0,0.5-0.3C210.5,313.3,210,313.2,210.2,313.5z M210.1,313.7
		c0.1,0.1,0.3-0.2,0.5,0c0-0.1,0.1-0.1,0.1-0.3C210.5,313.6,210.1,313.5,210.1,313.7z M203.7,315c0.2,0.6-1.1,1-1.1,1.5
		c1.1-1.1,2-2,3.3-3C204.9,313.8,204.2,314.3,203.7,315z M205.4,314.7c0.5-0.3,1.1-0.7,1.3-1.1C206.3,314,205.7,314.2,205.4,314.7z
		 M202.1,315.4c0.4,0,0.4,0.3,0.8,0.3c0.1-0.1,0.3-0.1,0.3-0.3c-0.3,0-0.4-0.2-0.5-0.5c0.4-0.1,0.3,0.3,0.7,0.3
		c0.1-0.1,0.2-0.1,0.3-0.3c-0.4,0-0.1-0.2-0.1-0.3c-0.1-0.1-0.2-0.2-0.3-0.3c0.1,0,0.1,0,0.2-0.1c0.2,0,0.2,0.3,0.4,0.3
		c0.1-0.2,0.3-0.1,0.3-0.3c-0.3,0-0.3-0.4-0.5-0.5C203.1,314.4,202.5,314.8,202.1,315.4z M206.4,314.5c0.2-0.2,0.6-0.2,0.7-0.5
		C206.8,314.1,206.3,314.4,206.4,314.5z M206.2,314.9c0.4,0.3,0.8-0.4,1.1-0.7C206.9,314.4,206.4,314.5,206.2,314.9z M204.5,315.6
		c0.1,0.1-0.3,0.1-0.3,0c0.7-0.3,0.9-0.8,1.3-1.3c-0.6,0-1,0.3-1.3,0.8c0.3,0,0.1-0.3,0.5-0.2c-0.3,0.8-1.6,1.1-1.8,1.9
		C203.5,316.4,204.3,316,204.5,315.6z M204.3,316c-0.4,0.3-1,0.5-0.9,1c0.8-0.7,1.9-1.5,2.3-2.4C205.2,315.1,204.8,315.6,204.3,316z
		 M215.3,316.5c-0.7-0.3-1.5-0.7-2.3-1c-0.8-0.3-1.6-0.8-2.3-0.7C212.1,315.3,214,316,215.3,316.5z M227,315.2c0.1,0,0.2,0,0.3,0
		c-0.1-0.2,0.3-0.5,0-0.5C227.3,314.9,227.1,315,227,315.2z M213.7,330.9c0.4-0.3,1.5-1.5,1.5-1c0.6-0.6,1.3-1.1,2.1-1.8
		c0.6-0.5,1.7-1.3,1.8-2c0.2-0.8-0.3-2-0.5-3c-0.3-1.5-0.4-3.1-0.4-4.7c-0.2,0.1-0.1-0.2-0.1-0.3c-2-1.2-4.7-2.2-7.3-3
		c-2.9,1.2-5.6,3.1-7.9,5.2c0.3,0.2,0.1,0.7,0.1,1c-0.1,2.1,0.5,3.8,0.3,5.9c0.6,0.5,0.5,1.7,0.7,2.6c2.2,1.2,4.7,2,7.1,2.9
		C212.1,332,212.8,331.7,213.7,330.9z M203.3,316.2c0.3-0.4,1-0.7,1.1-1.1C204.1,315.5,203.3,315.8,203.3,316.2z M205,315.9
		c0.2-0.3,0.7-0.3,0.8-0.7C205.5,315.1,205.1,315.8,205,315.9z M223.9,315.6c0.1,0.3,0.1,0.7,0.5,0.8c0.2-0.2-0.3-0.6,0.1-0.6
		c0.2,0.1,0.1,0.6,0.4,0.5c0.2-0.1-0.3-0.5,0.1-0.7c0.2,0.1,0.1,0.5,0.3,0.6c0.2-0.2-0.2-0.5,0.2-0.5c0.2,0.1,0.1,0.4,0.3,0.5
		c0-0.2-0.4-0.8,0.1-0.7c0.1,0.3,0,0.7,0.3,0.7c0-0.2-0.2-0.4-0.2-0.7c0.1,0,0.1-0.1,0.2-0.1c0.2,0.1,0.1,0.9,0.5,0.6
		c-0.2-0.2,0-0.5,0-0.7C225.7,315.4,224.9,315.6,223.9,315.6z M227.7,316c-0.1-0.1-0.5-0.4-0.3-0.6c-0.2,0-0.5-0.1-0.5,0.1
		C227.3,315.4,227.4,316.1,227.7,316z M201.7,315.9c-0.2,0.2-0.4,0.4-0.5,0.7c0.4,0-0.2,0.4,0.1,0.5c0.3-0.2,0.5-1.1,0.9-0.7
		c0.1-0.3,0.5-0.3,0.5-0.6c-0.4,0-0.6-0.7-0.9-0.1c0.2,0.2,0.5,0.1,0.6,0.4C202.1,316.3,202,315.9,201.7,315.9z M228.6,316.3
		c-0.1-0.3-0.4-0.6-0.7-0.9C228,315.8,228.3,316.3,228.6,316.3z M222.5,316c0.2,0.2,0,0.8,0.4,0.8c0.1-0.3-0.2-0.5,0-0.6
		c0.1,0,0.1,0,0.2,0c0,0.2,0,0.7,0.3,0.5c0.2-0.1-0.3-0.5,0-0.7c0.4,0,0,0.7,0.5,0.5c0.1-0.2-0.2-0.5-0.3-0.9
		C223.3,315.8,222.8,315.8,222.5,316z M222.4,316C222.4,316,222.5,315.9,222.4,316c-1.2,0.2-2.3,0.7-3.3,1.2c0.1,0.2,0,0.6,0.1,0.7
		c0.1-0.3,0.1-0.7,0.5-0.7c0.1,0.2,0,0.6,0.3,0.7c0-0.4,0-0.9,0.3-1c0,0.4,0.1,0.5,0.1,0.9c0.4,0,0.1-0.4,0.1-0.7
		c0.5,0.1,0.2-0.7,0.7-0.7c0.1,0.2,0,0.6,0.1,0.9c0.1,0.1,0.3-0.1,0.5,0.1c-0.1-0.3-0.1-0.5-0.2-0.8c0.1,0,0.1-0.1,0.3-0.1
		c0,0.3,0.1,0.5,0.1,0.7c0.2,0.1,0.2-0.1,0.3-0.1c0.1-0.4-0.4-0.9,0-1.1c0.2,0.3,0.1,0.9,0.5,0.9C222.5,316.8,222.4,316.4,222.4,316
		z M204,316.8c0.2,0.3,0.5-0.1,0.5-0.4c0.3,0,0.5-0.1,0.7-0.3C204.6,316,204.4,316.5,204,316.8z M202.5,316.9
		c0.1-0.2,0.7-0.7,0.6-0.7C202.9,316.5,202.4,316.6,202.5,316.9z M226.2,316.6c0.3,0,0.2-0.3,0-0.3
		C226.1,316.4,226.2,316.4,226.2,316.6z M215.5,316.3c0.8,0.5,1.6,0.9,2.6,1.1C217.6,316.7,216.3,316.7,215.5,316.3z M225.5,316.6
		c-0.1,0-0.1,0.1-0.1,0.1c-0.3,0.1-0.1-0.2-0.4-0.1c-0.2,0,0.2,0.2-0.1,0.3c-0.2,0-0.2-0.2-0.3-0.2c-0.8,0.6-3,0.7-3.6,1.5
		c1.7-0.5,3.7-0.7,5-1.6c-0.1,0-0.2-0.4-0.3-0.1c0.2,0,0,0.3-0.1,0.2c-0.1,0-0.3-0.3-0.2-0.1C225.4,316.6,225.4,316.6,225.5,316.6z
		 M227.8,316.9c-0.4-0.4-0.6,0-1,0.1c0.1-0.2,0.5-0.1,0.4-0.5c-1.3,0.9-3.5,0.9-4.8,1.8c1.6-0.1,3.2-0.5,4.4-0.9
		c0.4-0.1,1-0.1,1.2-0.5c-0.9-0.2-1.8,0.4-2.5,0.4C226.2,317.1,226.9,317,227.8,316.9z M200.9,317.6c0,0.2-0.4,0.7-0.3,0.7
		c0.3-0.4,1-0.9,1-1.5C201.4,317,201.3,317.5,200.9,317.6z M200.3,318.8c0.1,0,0.3,0,0.3,0.1c0.6-0.6,1.5-1.1,1.5-2
		c-0.5,0.7-0.8,1.6-1.7,1.9C200.7,318.3,200.4,318.4,200.3,318.8z M225.1,317.2c0.5-0.1,1-0.1,1.3-0.4
		C225.9,316.9,225.3,316.9,225.1,317.2z M203.1,318c0.1-0.4,0.8-0.6,0.7-1.1C203.6,317.2,203,317.6,203.1,318z M201.5,319
		c0.1,0.1,0.2-0.1,0.3-0.1C201.7,318.7,201.6,318.9,201.5,319z M203,317c-0.5,0.7-1.2,1.3-1.8,2C202,318.6,202.8,317.7,203,317z
		 M201.8,318.1c0.2-0.3,0.6-0.6,0.5-0.9C202.2,317.5,201.8,317.8,201.8,318.1z M218.7,318.1c0-0.1,0.1-0.1,0.2-0.1
		c0-0.2,0-0.6-0.2-0.7C218.6,317.6,218.5,317.9,218.7,318.1z M220.8,317.9c0-0.2,0.3-0.4,0.1-0.5C221,317.6,220.6,317.7,220.8,317.9
		z M203,318.8c0.5,0,0.1-0.9,0.5-1c0,0.1,0,0.3,0.1,0.3c0.1-0.3,0.6-0.3,0.4-0.7C203.5,317.6,202.7,318.1,203,318.8z M227.2,317.8
		c0.5,0.1,0.7-0.1,0.9-0.3C227.8,317.6,227.4,317.6,227.2,317.8z M227.9,318c0.4,0.1,0.5-0.1,0.8-0.2
		C228.6,317.2,228,317.7,227.9,318z M221.3,318.4c0.7,0.2,1.7-0.5,1.8-0.5C222.5,318,221.7,318,221.3,318.4z M228.3,318.1
		c0.1,0.1,0.5,0,0.7-0.1C228.8,317.7,228.5,317.9,228.3,318.1z M203.7,318.4c0.3-0.1,0.4-0.3,0.6-0.5
		C204,318,203.8,318.2,203.7,318.4z M225.3,319c0.7-0.4,1.5-0.6,2.1-1.1c-2.5-0.1-4,1.4-6.1,1.7c0,0.3,0,0.8,0.2,0.9
		c1.6-0.5,3.1-1.5,4.5-2C225.8,318.7,225.3,318.9,225.3,319z M226.8,318.7c0.3-0.2,1.1-0.2,1.1-0.5
		C227.6,318.4,226.9,318.4,226.8,318.7z M227.8,318.2C227.8,318.2,227.8,318.1,227.8,318.2c-1.5,0.5-3.4,1.3-4.8,2.2
		c1.4-0.4,2.6-1,3.8-1.7c-0.1,0-0.4,0.2-0.5,0C226.8,318.6,227.3,318.3,227.8,318.2z M218.9,318.2c-0.2,0-0.4,0.3-0.2,0.5
		c0.2-0.3,0.7-0.2,0.9-0.5C219.2,318.1,219,318.5,218.9,318.2z M227.6,319c0.4-0.3,1.1-0.4,1.4-0.8C228.3,318,227.8,318.8,227.6,319
		z M202.1,318.8c0.2-0.1,0.5-0.4,0.3-0.6C202.3,318.5,201.9,318.5,202.1,318.8z M221.3,319.1c0.1,0.1,0.4,0,0.2,0.3
		c1.1-0.2,2.2-0.7,2.9-1.1C223.5,318.6,221.7,318.2,221.3,319.1z M227.4,319.3c0.6-0.3,1.2-0.6,2.1-0.5c0-0.2-0.2-0.3-0.3-0.5
		C228.7,318.6,227.7,319,227.4,319.3z M222.7,320.8c-0.4,0-0.8-0.1-1.2,0.1c0,0.4,0.1,0.6,0.1,1c2.3-0.9,4.8-1.9,6.3-3.5
		C226.4,319.3,224.9,320.7,222.7,320.8z M218.7,319.1c0.2-0.3,0.8-0.2,0.9-0.7C219.2,318.5,218.4,318.6,218.7,319.1z M203.3,319.1
		c0.2-0.1,0.4-0.2,0.5-0.3C203.5,318.8,203.4,318.9,203.3,319.1z M202.7,319.1c0-0.1,0-0.2-0.1-0.3
		C202.4,319,202.2,319.3,202.7,319.1z M218.5,319.5c0.5-0.1,0.9-0.4,1.1-0.7C219.1,318.9,218.5,319.2,218.5,319.5z M229.4,319.1
		c0.1,0,0.3,0,0.4,0c0-0.2-0.1-0.2-0.2-0.3C229.5,319,229.4,319,229.4,319.1z M199.7,319.3c0.2-0.1,0.5-0.1,0.7-0.3
		c-0.3-0.1-0.3,0-0.5,0.1c0-0.1,0-0.2,0.1-0.3C199.7,318.9,199.6,319.3,199.7,319.3z M222.8,320.6c1.7,0,2.9-1,3.8-1.6
		C225.5,319.6,224.2,320.1,222.8,320.6z M227.1,319.6c-1.4,0.7-2.7,1.4-3.9,2.1c1.7-0.5,3.4-1.2,5-1.7c0.5-0.2,1.2-0.2,1.5-0.7
		c-1.1-0.2-1.9,0.8-2.8,0.8c0.7-0.3,1.6-0.6,2.2-1.1C228.3,318.9,227.8,319.2,227.1,319.6z M218.5,319.9c0.5-0.2,1.2-0.4,1.2-0.9
		C219.5,319.5,218.8,319.4,218.5,319.9z M203.5,319.7c-0.1,0-0.3,0.3-0.1,0.1c0.1-0.3,0.7-0.5,0.7-0.7
		C203.8,319.3,203.6,319.5,203.5,319.7z M201.9,319.5c0.2,0,0.4,0,0.4-0.1C202.1,319.2,201.9,319.3,201.9,319.5z M218.6,320.3
		c0.4-0.1,0.7-0.3,1.1-0.5c0-0.1,0.1-0.4-0.1-0.4C219.3,319.9,218.6,319.7,218.6,320.3z M199.2,320.3c0.2-0.1,0.5-0.5,0.3-0.7
		C199.4,319.8,199.3,320,199.2,320.3z M198.6,321.1c-0.5,1.4-1,3-1.5,4.4c-0.2,3.8-0.7,9.4,1.1,12.2c-0.4,0,0,0.3-0.1,0.5
		c0.7-0.1,1.4-0.2,2.1-0.4c0-0.3,0.1-0.6,0.2-0.9c-0.5,0-0.9,0.4-1.3,0.3c0.5-0.2,1.2-0.1,1.3-0.7c-0.6,0.1-1.2,0.6-1.7,0.6
		c0.5-0.6,2.1-0.4,2-1.4c-0.7,0.3-1.6,0.7-2.3,0.7c0.8-0.6,2.7-0.4,2.6-1.7c-0.8,0.3-1.9,0.6-2.7,0.7c0.8-0.4,1.9-0.5,2.8-0.9
		c0.1-0.2,0.2-0.5,0.3-0.8c-0.7,0.2-1.7,0.8-2.4,0.6c0.9-0.2,1.8-0.4,2.5-0.9c0.5-1.3,1.1-2.5,1.7-3.7c-0.1-0.3-0.2-0.5-0.2-0.9
		c-0.9,0.2-2,0.5-2.8,0.6c0.8-0.3,1.8-0.4,2.8-0.7c-0.3-1.6-0.3-3.6-0.7-5.2c-0.4,0.2-1,0.2-1.5,0.3c-0.5,0.1-1,0.4-1.4,0.3
		c0.8-0.5,2.1-0.4,3-0.8c0-0.3-0.1-0.6-0.1-0.9c-0.9,0.4-2.3,0.7-3.2,0.9c0.8-0.6,2.4-0.5,3.2-1.1c-0.1,0,0-0.3-0.1-0.4
		c-0.8,0.2-2,0.4-2.6,0.7c0.3-0.6,1.5-0.4,2-0.7c-0.6,0-1.4,0.1-1.6-0.2c0.3-0.6,1.3-0.4,1.8-0.9c-0.3-0.2-1,0-1.3-0.2
		c0.3-0.4,1.2-0.1,1.6-0.4c-0.8-0.2-1.6-0.4-2.3-0.7c-0.6,0.6-0.5,2-1.5,2.4c0.2-0.3,0.6-0.8,0.5-1.1
		C198.9,321.2,198.8,321,198.6,321.1z M223.2,320.1c0.2-0.1,0.5-0.3,0.4-0.4c-0.5,0.4-1.3,0.5-1.7,0.9
		C222.5,320.6,222.8,320.4,223.2,320.1z M228.6,320.5c-0.5,0.2-1.1,0.4-1.3,0.7c1.2-0.1,2.8-0.2,3.4-1.1c-0.9,0-1.7,1-2.6,0.9
		c0.7-0.3,2.1-0.6,1.9-1.3C229.6,320,229.1,320.3,228.6,320.5z M230.2,320.1c0.2,0,0.1-0.1,0.3-0.1c0-0.2-0.1-0.3-0.2-0.3
		C230.3,319.9,230.2,320,230.2,320.1z M227.6,320.5c0.2,0,0.4-0.1,0.5-0.2c-1.2,0.4-2.4,0.8-3.6,1.3c2.1-0.1,3.9-0.8,5-1.7
		C228.9,320.1,228.2,320.5,227.6,320.5z M218.7,320.7c0.3-0.2,0.8-0.3,1-0.7C219.4,320.1,218.6,320.2,218.7,320.7z M231.3,320.4
		c-0.1-0.1-0.1-0.4-0.3-0.4C230.9,320.3,231.2,320.5,231.3,320.4z M218.7,320.9c0,0.2,0.1,0.4,0.1,0.7c0.4,0,1-0.3,0.8-0.7
		c-0.1,0.2-0.5,0.5-0.7,0.3c0.4-0.2,0.8-0.3,0.9-0.7C219.3,320.3,219,320.8,218.7,320.9z M201.6,320.7c0.3,0,0.7,0,0.7,0.3
		c-0.4,0.5-1.5,0.3-1.8,0.9c0.6,0,1.4-0.1,1.8,0.1c0-0.4,0.1-0.7,0.1-1.1c0.2-0.1,0.3,0.1,0.3-0.3
		C202.5,320.4,201.7,320.6,201.6,320.7z M221.5,320.8c0.1-0.1,0.3-0.1,0.3-0.3C221.7,320.6,221.2,320.6,221.5,320.8z M229.2,321.5
		c0.4,0.1,0.1,0.2,0.2,0.4c0.3-0.2,0.6-0.4,0.9-0.7c0.3-0.2,0.8-0.5,0.7-0.7C230.2,320.8,229.7,321.1,229.2,321.5z M228.6,321.4
		c0.4,0,0.6-0.2,0.7-0.3C229.1,321.2,228.7,321.1,228.6,321.4z M223.4,321.5c0.1-0.1,0.4-0.2,0.5-0.3
		C223.7,321.2,223.3,321.3,223.4,321.5z M230.5,321.7c0.2-0.1,0.5-0.2,0.6-0.5C230.7,321.3,230.7,321.5,230.5,321.7z M218.8,321.7
		c0,0.2,0,0.3,0.1,0.4c0.3,0,0.5-0.2,0.7-0.3c0-0.2,0-0.3,0-0.5C219.3,321.4,219.1,321.6,218.8,321.7z M225.3,322.3
		c0.7-0.5,1.7-0.3,2.4-0.9C226.6,321.3,225.6,321.8,225.3,322.3z M225.3,321.7c0.3,0.1,0.6-0.1,0.9-0.3
		C225.8,321.5,225.4,321.4,225.3,321.7z M226.1,322.2c0.1,0.2-0.3,0.3-0.1,0.4c0.3-0.2,0.5-0.5,0.9-0.5c-0.1,0.1-0.1,0.2-0.1,0.3
		c0.6-0.4,1.3-0.4,1.9-0.9C227.6,321.4,226.9,322,226.1,322.2z M233.1,321.9c0.1-0.2,0.1-0.4-0.1-0.5
		C233,321.6,232.9,321.9,233.1,321.9z M224.1,321.7c0,0.3-0.1,0.5-0.1,0.7c0.3-0.3,0.7-0.6,1.1-0.9
		C224.7,321.6,224.4,321.7,224.1,321.7z M227.6,322.9c0.3-0.7,1.3-0.5,1.4-1.3C228.3,321.8,227.7,322.4,227.6,322.9z M221.9,322
		c0.3,0.1,0.6-0.2,0.5-0.3C222.3,321.9,222,321.8,221.9,322z M231.3,322.1c0.1-0.1,0.5-0.2,0.3-0.3
		C231.6,321.8,231.1,321.9,231.3,322.1z M224.5,322.2c0.3,0,0.4-0.2,0.5-0.4C224.8,321.9,224.7,322,224.5,322.2z M222.5,323
		c0.5-0.2,0.9-0.8,0.9-1.1C223.1,322.3,222.6,322.7,222.5,323z M218.9,322.8c0.2-0.1,0.7,0,0.7-0.4c-0.2,0-0.5,0.4-0.7,0.1
		c0.2-0.2,0.7-0.1,0.7-0.5c-0.3,0-0.4,0.2-0.7,0.2C218.8,322.5,218.9,322.5,218.9,322.8z M230.6,322.3c0.2-0.1,0.4,0,0.4-0.3
		C230.8,322,230.7,322.1,230.6,322.3z M221.9,323.2c0.4-0.2,0.8-0.8,0.9-1.1C222.3,322.3,221.6,322.4,221.9,323.2z M223.3,322.7
		c0.2-0.1,0.5-0.5,0.4-0.7C223.6,322.3,223.2,322.5,223.3,322.7z M228.9,322.5c0.3,0,0.5-0.2,0.6-0.5
		C229.2,322.1,229.1,322.3,228.9,322.5z M226.6,323.3c0.3-0.4,0.7-0.7,1-1.1C227.2,322.4,226.7,323,226.6,323.3z M224.6,323.3
		c0.5-0.2,0.8-0.5,1-0.9C225.2,322.6,224.7,323,224.6,323.3z M229.6,323.3c0.3-0.2,0.8-0.6,0.8-0.9
		C230.1,322.7,229.5,323,229.6,323.3z M231.5,323.4c0.3-0.3,1-0.6,1.1-0.9C232.1,322.7,231.8,323,231.5,323.4z M228,323.8
		c0.5,0,0.6-0.5,0.8-0.9c0.1-0.1,0.5-0.3,0.2-0.3C228.4,322.9,228.2,323.3,228,323.8z M225.5,323.7c0.3-0.3,0.8-0.7,0.8-1
		C226,322.9,225.5,323.4,225.5,323.7z M219,322.9c0,0.1,0,0.2,0,0.3c0.3,0,0.5-0.1,0.6-0.4C219.4,322.8,219.3,323,219,322.9z
		 M223.5,323.8c0.3-0.3,0.8-0.7,0.9-1C223.9,323,223.5,323.5,223.5,323.8z M226.1,323.4c0.3,0,0.6-0.6,0.5-0.5
		C226.4,323.1,226.3,323.2,226.1,323.4z M227.9,323.3c0.2-0.1,0.3-0.3,0.5-0.5C228.1,322.8,227.8,323.4,227.9,323.3z M233.1,323.9
		c-0.3,0.6-0.5,1.2-0.9,1.7c-1.1,1.6-2.1,3.2-3.6,4.3c0.5,1.6,0.6,3.5,1.2,5c0.2-0.1,0.4-0.3,0.7-0.3c-0.1,0.3-0.7,0.2-0.8,0.5
		c0,0,0.1,0.1,0.1,0.1c0.3,0.2,1-0.3,1.1,0c-0.3,0.1-0.6,0.2-1.1,0.2c0.1,0.4,0.1,0.9,0.3,1.2c0.3-0.1,0.5-0.2,0.8-0.3
		c-0.2,0.2-0.5,0.3-0.9,0.3c0,0.4,0.3,0.1,0.3,0.5c0.3,0.1,0.5-0.3,0.8-0.1c-0.1,0.2-0.5,0.2-0.7,0.3c0,0.2,0,0.3,0,0.5
		c0.4,0.1,0.7-0.4,0.9-0.1c-0.2,0.2-0.5,0.3-0.8,0.3c0,0.4,0.1,0.7,0.1,1.1c1.8,0.6,3.8,1,5.4,1.8c-1.4-0.3-3.1-1-4.2-1.2
		c1.4,0.5,2.7,1.1,4.2,1.5c0-0.1-0.1-0.3,0.1-0.3c0.2,0,0.4-0.1,0.7,0c2.1-1.7,3.7-4.3,4.6-7.1c0.1,0.1-0.3,0.1-0.3,0
		c0.9-2.8,0.1-6.4-1-8.5c-2.2-0.5-4-1.6-6.3-1.8c-0.1,0.3,0,0.6-0.4,0.6c-0.1-0.1,0.1-0.7,0.1-0.8c0.3,0.1,0.2-0.2,0.5-0.2
		c0.8,0.2,1.6,0.7,2.4,0.7c-1-0.3-1.7-0.8-2.8-0.9C233.7,323.3,233.2,323.6,233.1,323.9z M225.1,323.6c0.1-0.2,0.7-0.5,0.5-0.7
		C225.5,323.2,225,323.4,225.1,323.6z M230.7,323.4c0.1-0.1,0.3-0.2,0.4-0.4C230.9,323,230.5,323.2,230.7,323.4z M227,324
		c0.2-0.3,0.7-0.6,0.7-0.9C227.4,323.4,226.9,323.7,227,324z M219,323.3c0,0.2,0.1,0.2,0.1,0.4c0.2,0,0.2-0.1,0.5-0.1
		c-0.1-0.1,0-0.4-0.2-0.4C219.4,323.4,219.1,323.3,219,323.3z M222.2,324.2c0.1-0.3,0.6-0.6,0.5-0.9
		C222.7,323.6,222.1,323.9,222.2,324.2z M224.1,323.8c0.3-0.1,0.5-0.2,0.7-0.5C224.6,323.5,224.3,323.6,224.1,323.8z M228.7,323.8
		c0.1-0.1,0.2-0.2,0.3-0.4C228.8,323.4,228.6,323.7,228.7,323.8z M222,323.5c0,0.2,0,0.3,0.1,0.3c0.1-0.1,0.2-0.3,0.3-0.4
		C222.2,323.4,222.2,323.6,222,323.5z M225.9,324c0.2-0.1,0.6-0.3,0.5-0.5C226.3,323.7,225.7,323.8,225.9,324z M237.4,323.7
		c-0.2-0.1-0.7-0.2-0.6-0.1c0.9,0.4,2.1,0.9,3,1.1C239.1,324.4,238.1,323.9,237.4,323.7z M219.2,323.8c-0.1,0.3,0.2,0.3,0.5,0.3
		c0-0.2,0-0.4-0.2-0.4C219.4,323.8,219.3,323.8,219.2,323.8z M226.3,324.2c0.1,0,0.1,0.1,0.3,0.1c0-0.2,0.4-0.5,0.3-0.6
		C226.6,323.9,226.4,324,226.3,324.2z M229.8,324.3c0.2-0.1,0.6-0.3,0.5-0.5C230.2,324,229.8,324,229.8,324.3z M225.1,324.4
		c0.1-0.2,0.4-0.3,0.3-0.5C225.4,324.1,224.9,324.2,225.1,324.4z M224.6,324.4c0-0.2,0.4-0.1,0.4-0.3
		C224.8,324.1,224.4,324.2,224.6,324.4z M221,324.7c-0.1-0.2-0.1-0.5-0.2-0.6C220.8,324.3,221,324.8,221,324.7z M203.1,325.9
		c-0.1-0.5-0.1-1.4-0.2-1.6C202.9,324.9,202.9,325.5,203.1,325.9z M219.2,324.2c0,0.3,0.1,0.5,0.1,0.8c0.3-0.2,0.9,0.1,0.9-0.5
		c-0.2-0.2-0.7,0.3-0.8-0.1c0.2-0.1,0.6-0.1,0.7-0.3C219.9,324.1,219.7,324.3,219.2,324.2z M219.6,325.1c0,0.2,0.1,0.1,0.1,0.3
		c0.3,0,0.4-0.1,0.7-0.1c0.1-0.2-0.1-0.2-0.1-0.3C220,324.9,219.9,325.1,219.6,325.1z M230.9,325.8c0.1-0.2,0.6-0.4,0.5-0.7
		C231.3,325.3,230.9,325.6,230.9,325.8z M219.6,325.7c0,0,0,0.1,0,0.1c0.4,0,0.7-0.1,0.7-0.4C220.1,325.5,219.7,325.5,219.6,325.7z
		 M219.6,326c0,0.2,0,0.2,0.1,0.3c0.2-0.3,0.6,0,0.9-0.3c0-0.1-0.1-0.1-0.1-0.3C220.1,325.8,220,326.1,219.6,326z M230.4,326.3
		c0.2-0.1,0.4-0.2,0.5-0.3C230.7,326.1,230.6,326.2,230.4,326.3z M221.8,327.5c0.2-0.1,0.4-0.2,0.5-0.5c-0.4,0-0.6,0.6-0.9,0.2
		c0.4-0.1,0.6-0.3,0.7-0.5c-0.4,0-0.7,0.4-1,0.2c0.1-0.1,0.6-0.2,0.4-0.3c-0.2,0.2-0.7,0.5-1.1,0.3c0.2-0.3,0.6,0.1,0.7-0.3
		c-0.3-0.2-0.7,0.5-1.1,0.2c0.1-0.1,0.1-0.2,0.2-0.3c0.3,0.1,0.5,0,0.7-0.2c-0.2-0.4-0.6,0.2-1.1,0.1c0,0.2-0.1,0.3-0.1,0.5
		C220.4,327.1,221.1,327.4,221.8,327.5z M229.4,328.3c0.4-0.5,1-1.2,1.1-1.7C230,327,229.6,327.9,229.4,328.3z M230.3,327.9
		c0.1-0.3,0.6-0.6,0.5-0.9C230.6,327.2,230.3,327.7,230.3,327.9z M219.8,327.1c-0.2,0.3-0.7,0.4-0.9,0.6c-0.6,0.4-0.9,1-1.5,1.4
		c-0.6,0.4-1.3,0.5-2,1c-0.2,0.2-0.3,0.5-0.5,0.7c-0.4,0.4-1.1,0.9-1.8,1.4c-0.6,0.5-1.5,1.1-1.6,1.6c-0.1,0.5,0.3,1.2,0.4,1.7
		c0.1,0.4,0,0.8,0.1,1.3c0.2,2.1,1.2,4,1.1,5.6c2.1,1.2,4.5,2.2,6.9,3c0.8,0.3,1.6,0.7,2.5,0.6c0.2-0.1-0.3-0.2-0.3-0.4
		c2.1-1.3,4.1-2.9,5.9-4.6c0.5-0.5,1.6-1.3,1.7-1.8c0.1-0.5-0.3-1.7-0.5-2.3c-0.4-2.6-0.6-5-1.4-7
		C225.2,328.9,222.5,328.1,219.8,327.1z M222,327.7c0.4,0,0.6-0.3,0.8-0.5C222.4,327.2,222.2,327.4,222,327.7z M222.4,327.7
		c0.3,0.1,0.6-0.2,0.8-0.4C222.8,327.2,222.6,327.6,222.4,327.7z M218.1,327.8c-0.5,0.4,0.6-0.1,0.7-0.5
		C218.6,327.6,218.3,327.6,218.1,327.8z M218,327.8c0.1-0.1,0.2-0.2,0.2-0.3C217.7,327.8,217.5,328.2,218,327.8z M222.8,327.9
		c0.4,0.2,0.7-0.1,0.9-0.4C223.3,327.4,223,327.6,222.8,327.9z M223.3,328.1c0.3,0.2,0.7-0.2,0.9-0.4
		C223.8,327.5,223.6,327.9,223.3,328.1z M223.9,328.3c0.4,0.2,0.9,0.1,1.1-0.3C224.6,327.7,224.1,327.9,223.9,328.3z M229.1,329.1
		c0.3-0.4,0.9-0.8,0.9-1.3C229.8,328.3,229.1,328.7,229.1,329.1z M224.6,328.5c0.2,0.1,0.6-0.1,0.7-0.3
		C225,328,224.9,328.4,224.6,328.5z M226.1,328.3c0.2,0,0.4,0.2,0.5-0.1C226.4,328.2,226.2,328.1,226.1,328.3z M224.9,328.6
		c0.3,0.2,0.7,0,0.8-0.3C225.4,328.2,225.2,328.5,224.9,328.6z M226.6,328.5c0.2,0,0.5,0.2,0.5-0.1
		C227,328.4,226.6,328.2,226.6,328.5z M225.5,328.8c0.3,0.1,0.6-0.1,0.8-0.3C226,328.3,225.7,328.6,225.5,328.8z M227.3,328.7
		c0.1,0.1,0.4,0.1,0.3-0.1c-0.1,0-0.1,0-0.2-0.1C227.4,328.6,227.3,328.6,227.3,328.7z M225.9,328.9c0.4,0.2,0.8,0.1,1-0.2
		C226.5,328.5,226.3,328.8,225.9,328.9z M226.6,329.1c0.3,0.2,0.6-0.1,0.8-0.3C227.1,328.7,226.9,329,226.6,329.1z M216.7,329.2
		c0.2-0.1,0.6-0.2,0.5-0.3C217.1,329,216.8,329,216.7,329.2z M227.2,329.3c0.4,0,0.5,0.2,0.9,0.1c0-0.1,0.2-0.3,0.1-0.3
		c0,0.2-0.4,0.1-0.5,0.2c0-0.1,0.1-0.3-0.1-0.3C227.5,329.2,227.2,329.1,227.2,329.3z M204.4,330.3c-0.1-0.1-0.2-0.2-0.4-0.3
		C204,330.3,204.4,330.4,204.4,330.3z M209,331.9c-1.4-0.4-2.8-1.1-4.1-1.5C206.1,331.1,207.7,331.6,209,331.9z M209.3,332.3
		c-1.4-0.4-2.9-1.1-4.3-1.5c-0.1,0,0,0.1,0.1,0.1c1.3,0.6,2.9,1.2,4.2,1.7c0.4,0.2,0.9,0.4,1.3,0.4
		C210.5,332.4,209.7,332.4,209.3,332.3z M214,331.2c0.1-0.1,0.5-0.2,0.3-0.4C214.2,331,213.8,331.1,214,331.2z M206.6,331.8
		c0-0.2-0.4-0.3-0.5-0.2C206.3,331.6,206.4,331.8,206.6,331.8z M204.5,332.1c0.3-0.1,0.7-0.2,1.1-0.3
		C205.3,331.5,204.6,331.8,204.5,332.1z M206.8,332c0.4,0.1,0.6,0.5,1.1,0.3c0.1,0.3,1.3,0.7,1.6,0.5
		C208.5,332.7,207.6,331.8,206.8,332z M205,332.4c0.3-0.2,0.6-0.2,0.8-0.5C205.5,331.8,204.9,332.2,205,332.4z M211.9,332.8
		c0.4-0.2,1-0.6,1.1-0.9C212.7,332.2,212.2,332.5,211.9,332.8z M205.2,332.6c0.5,0,0.9-0.3,1.3-0.4
		C206.1,332,205.6,332.4,205.2,332.6z M204.3,332.6c0.3,0,0.6-0.3,0.5-0.5C204.5,332.3,204.3,332.4,204.3,332.6z M243,336.1
		c-0.7,1.7-0.8,4.1-2.2,5.2c1-2.1,1.9-4.5,2.4-7.1c0.1,0,0.1-0.1,0.3-0.1c0-0.6,0.1-0.8,0.1-1.2c0.1-1.5-0.1,1-0.5,0.9
		c-0.2-0.1,0.2-0.5,0-0.6c0,0.4-0.6,0.4-0.6,0.5c0.5-0.1,0.5,0.1,0.3,0.3c-0.4,0-1,0.1-1.3-0.1c-0.8,3.2-2.7,5.3-4.8,7.2
		c0.4,0.2,0.8-0.1,1.1-0.3c-0.1,0-0.2,0-0.2-0.1c0.3-0.4,1.4-0.5,1.3-1.1c-0.2,0.2-0.3,0.4-0.6,0.5c1.2-1.5,2.3-3.3,3.2-5.2
		c0.2,0,0.4-0.3,0.7-0.1c-0.1,0.2-0.3,0.1-0.3,0.3c0.1,0,0.4-0.2,0.5,0c-0.3,0.3-0.9,0.6-0.9,0.9c0-0.2,0.2,0,0.2,0.1
		c-0.3,0.2-0.5,0.5-0.8,0.7c-0.1,0.2,0.2,0.1,0.1,0.3c-0.4,0.3-0.8,0.8-1,1.3c0.1,0.1,0.3,0.1,0.3,0.2c-0.4,0.4-0.9,0.6-1.1,1.3
		c0,0.2,0.3,0,0.3,0.1c-0.2,0.3-0.9,0-0.9,0.5c0,0.2,0.3,0,0.2,0.3c-0.4,0-0.9,0.1-1.1,0.5c0.1,0,0.2,0,0.2,0.1
		c-0.2,0-0.2,0.1-0.5,0.1c-0.2,0.1,0.1,0.3-0.1,0.3c-0.4-0.1-0.1-0.3-0.6-0.3c0.1,1.9-0.8,3.2-1.1,4.6c0.2-0.3,0.6-0.4,0.9-0.7
		c-0.1,0-0.1,0-0.1-0.1c0.9-0.2,1.6-0.9,2.3-1.1c-0.3,0.7-1.7,0.9-1.9,1.3c0.4,0,0.4-0.4,0.9-0.3c-0.5,0.6-1.4,0.7-1.9,1.3
		c0.6-0.1,0.9-0.6,1.6-0.7c-0.3,0.5-1.3,0.7-1.4,1.2c0.4-0.2,0.8-0.5,1.2-0.6c1-1,2-2.2,2.7-3.4c0.2-0.4,0.4-1,0.9-1.1
		c-0.5,0.8-1.1,1.6-1.5,2.4C241.2,342.3,242.3,339.2,243,336.1z M205.7,332.7c0.2-0.1,0.5,0,0.6-0.3
		C206.1,332.5,205.6,332.6,205.7,332.7z M208.5,333.2c0.1-0.1,0.3-0.1,0.5-0.1c-0.1-0.3-0.6-0.2-0.9-0.4c-0.1,0.3-0.5,0.3-0.7,0.6
		c0.6,0.3,0.8-0.5,1.3-0.3C208.6,333.1,208.3,333.2,208.5,333.2z M207.6,335.3c1.6,0,2.7-0.4,3.1-1.9c-0.4-0.1-0.7-0.3-1.1-0.4
		c0.1,0.3,0.6,0.2,0.8,0.5c-0.3,0.1-0.9-0.2-1,0.3c0.2,0,0.5-0.2,0.5,0.1c0.1,0,0.4-0.2,0.5,0c-0.3,0.4-0.9,0.5-1.3,0.8
		c0.1,0,0.2,0.1,0.2,0.1c-0.3,0.1-0.9,0.3-1.2,0.3c0.4-0.4,1.1-0.6,1.5-0.9C208.8,334.2,207.9,334.7,207.6,335.3z M201.9,334.3
		c0.1,0,0.2,0,0.3-0.1c0-0.1,0-0.3-0.2-0.3C202,334.1,201.8,334.1,201.9,334.3z M201.5,334.9c0.4,0.1,0.5-0.2,0.5-0.5
		C201.6,334.4,201.6,334.7,201.5,334.9z M209.3,335.7c0.4-0.3,0.7-0.2,1-0.5c0-0.2-0.2,0.1-0.3,0.1c-0.1-0.2,0.2-0.4-0.1-0.3
		C209.6,335.1,209.4,335.3,209.3,335.7z M201.2,335.6c0.1,0,0.3,0,0.4,0c0.1-0.2,0.2-0.3,0.2-0.5C201.3,335,201.4,335.4,201.2,335.6
		z M201.9,335.6c0.2-0.1,0.4-0.2,0.5-0.4c-0.3,0.1-0.3,0.1-0.4-0.1C202.1,335.2,201.8,335.5,201.9,335.6z M202.9,335.4
		c0.2,0,0.3,0,0.3-0.2C203,335.2,202.9,335.2,202.9,335.4z M210.5,335.9c0,0.2-0.3,0.3-0.4,0.1c0.1-0.1,0.3-0.2,0.3-0.4
		c-0.1,0-0.1-0.1-0.1-0.2c-0.3,0.1-0.5,0.2-0.5,0.5c0.1,0,0.2,0,0.2,0.1c-0.1,0.1-0.3,0.4-0.1,0.5
		C210,336.2,210.6,336.1,210.5,335.9z M208.4,336.1c0-0.1,0.2,0,0.3-0.1c0-0.2,0.1-0.3,0.1-0.4C208.6,335.6,208.3,335.9,208.4,336.1
		z M201.7,336.1c0,0,0.1,0,0.1,0c0,0,0.1,0,0.1-0.1c-0.1-0.1,0.1-0.2,0.1-0.3c0,0-0.1,0-0.1,0C201.8,335.8,201.7,335.9,201.7,336.1z
		 M201,336.1c0.1,0,0.3,0,0.4,0c0.1-0.1,0.1-0.2,0.1-0.4C201.1,335.7,201,335.8,201,336.1z M203.3,336.1c0.1-0.2,0.6-0.1,0.7-0.4
		C203.7,335.8,203.1,335.9,203.3,336.1z M209.1,336.2c0-0.2,0.2-0.2,0.2-0.4C209.1,335.8,209,336.1,209.1,336.2z M211,336
		c-0.2,0-0.6,0.2-0.5,0.4C210.5,336.2,211.1,336.2,211,336z M201.9,336.8c0.2-0.2,0.6-0.5,0.5-0.7
		C202.1,336.2,202.1,336.6,201.9,336.8z M202.3,336.7c0.2,0.1,0.3-0.1,0.5-0.1c0-0.3-0.3,0.1-0.3-0.2c0-0.1,0.3-0.3,0.2-0.4
		C202.6,336.3,202.4,336.5,202.3,336.7z M201.4,336.8c0.4,0.1,0.3-0.4,0.5-0.6c-0.1,0-0.2,0-0.3,0
		C201.6,336.4,201.5,336.6,201.4,336.8z M208.1,336.7c0.3,0.2,0.3-0.3,0.7-0.2c0-0.1,0-0.2-0.1-0.3
		C208.6,336.4,208.3,336.4,208.1,336.7z M200.8,336.7c0.3-0.1,0.5-0.1,0.5-0.5C201,336.3,200.8,336.4,200.8,336.7z M209.7,337.3
		c0.5-0.4,1.2-0.2,1.4-0.9c0-0.1-0.1-0.1-0.1-0.1C210.5,336.6,209.9,336.8,209.7,337.3z M209.5,336.9c0.2-0.1,0.3-0.2,0.4-0.4
		C209.6,336.5,209.6,336.8,209.5,336.9z M201.7,337.6c0.6,0,0.6-0.5,0.9-0.8C202,336.7,202,337.2,201.7,337.6z M202.7,337.1
		c0.2,0,0.1-0.2,0.3-0.1c0-0.1-0.1-0.2-0.1-0.2C202.9,337,202.7,337,202.7,337.1z M200.6,337.8c0.2,0.1,0.3-0.1,0.5-0.1
		c0-0.3,0.1-0.5,0.1-0.8c-0.2,0-0.3,0-0.4-0.1C200.7,337.2,200.6,337.4,200.6,337.8z M201.3,337.4c0-0.2,0.1-0.3,0.2-0.5
		C201.3,336.9,201.3,337.3,201.3,337.4z M203.1,337.3c0-0.1,0.3,0,0.3-0.2C203.3,336.9,203,337.2,203.1,337.3z M210.6,338
		c0.3-0.3,0.7-0.4,0.7-0.9c-0.5,0-1,0.6-1,0.7c0.2-0.3,0.5-0.2,0.7-0.1C210.9,337.7,210.6,337.7,210.6,338z M202.5,338
		c0.1,0,0.3-0.2,0.3,0c-0.4,0.1-0.6,0.3-0.7,0.6c0.5,0,0.9-0.4,0.8-0.9c0.2-0.2,0.4-0.3,0.7-0.5C202.9,337.3,202.7,337.6,202.5,338z
		 M202.1,338.1c0-0.2,0.5-0.4,0.3-0.6C202.3,337.6,202.1,338,202.1,338.1z M209.5,338c0.3,0,0.3-0.3,0.4-0.5
		C209.6,337.5,209.5,337.7,209.5,338z M201.5,338.2c0.4,0,0.4-0.3,0.5-0.6C201.6,337.6,201.5,337.9,201.5,338.2z M199.5,340.8
		c0.4,0.3,0.7,0.7,0.7,1.4c2.2,3,4.2,6.5,7.6,8.1c-0.5-0.6-0.8-1.3-1.5-1.7c0.1,0,0.1-0.1,0.1-0.2c-0.2,0-0.4,0-0.6,0
		c0.1-0.3,0.4-0.3,0.5-0.5c-0.2,0-0.5,0-0.5-0.3c0.3-0.1,0.3,0.2,0.6,0.1c-0.2-0.5-0.3-1-0.5-1.5c-0.2,0.3-0.8,0.2-0.9,0.5
		c0.4,0,0.5-0.2,0.9-0.2c-0.2,0.3-0.4,0.6-0.9,0.7c0-0.2,0.5-0.4,0.2-0.4c-0.1,0.1-0.6,0.2-0.7,0.1c0-0.2,0.3-0.1,0.3-0.3
		c-0.1,0-0.4,0.1-0.5-0.1c0.2-0.4,0.7-0.5,1-0.9c-0.7,0.1-1.5,0.5-2.2,0.4c0.8-0.2,1.8-0.5,2.6-0.5c-0.3,0.4-0.9,0.5-1.1,0.9
		c0.6,0.1,0.8-0.3,1.3-0.4c0-0.4,0.1-0.7,0.1-1.1c-0.2,0-0.2,0.1-0.3-0.1c0.1-0.1,0.2-0.1,0.3-0.2c-1.8-1.3-3.2-3.2-4.8-4.8
		c-0.2-0.8-0.8-1-0.8-1.8c0.3-0.1,0.1,0.2,0.4,0.1c0-0.2,0-0.3,0-0.5c-0.9,0.2-1.6,0.6-2.7,0.6C198.5,339.4,199.1,340,199.5,340.8z
		 M210.7,338.1c0,0.2-0.3,0.6-0.1,0.7c0.2-0.4,0.6-0.5,0.7-1C211,337.8,211,338.1,210.7,338.1z M202.2,339.2c0.7-0.2,1-0.8,1.5-1.2
		c-0.3,0-0.8,0.2-0.7,0.4c0.1-0.1,0.3-0.2,0.3,0C202.7,338.4,202.4,338.8,202.2,339.2z M205.6,338.3c0.1-0.1,0.4,0,0.5-0.3
		C205.9,338.1,205.4,338.2,205.6,338.3z M209.2,339.4c0.6-0.1,1-1,0.9-1.3C209.8,338.6,209.7,339,209.2,339.4z M204.4,338.5
		c0.2,0,0.3-0.1,0.4-0.3C204.6,338.3,204.4,338.3,204.4,338.5z M201.3,338.8c0.3,0.1,0.2-0.3,0.4-0.5c-0.1,0-0.2,0-0.3,0
		C201.4,338.4,201.4,338.6,201.3,338.8z M210,339c0.3,0.1,0.4-0.7,0.3-0.6C210.2,338.7,210.1,338.8,210,339z M202.9,339
		c0.4,0,0.7-0.2,0.9-0.5C203.2,338.3,203.1,338.8,202.9,339z M211.1,339c0.1-0.2,0.3-0.3,0.4-0.5c-0.1,0-0.1-0.1-0.3-0.1
		C211.3,338.7,211,338.9,211.1,339z M201.7,339.3c0.3,0,0.3-0.4,0.5-0.6C201.9,338.7,201.8,339,201.7,339.3z M239.9,338.7
		C239.4,339,239.7,339.3,239.9,338.7L239.9,338.7z M210.8,339.7c0.5,0.2,1-0.2,1-0.8C211.4,338.9,211,339.4,210.8,339.7z
		 M201.1,339.1c0.1,0,0.1,0.1,0.1,0.1c-0.1-0.2,0.2-0.1,0.2-0.3C201.3,338.9,201.2,339,201.1,339.1z M204.7,339.1
		c0.1,0.1,0.3-0.1,0.5-0.2C204.9,338.9,204.8,338.9,204.7,339.1z M203.9,339.6c0.3,0,0.7-0.5,0.5-0.7
		C204.1,339.2,204,339.4,203.9,339.6z M203.1,339.8c0.5,0,0.8-0.4,0.7-0.7c-0.1,0.2-0.2-0.1-0.3-0.1
		C203.5,339.3,203.2,339.5,203.1,339.8z M202.3,340c0.2,0,0.2-0.1,0.5-0.1c0.1-0.3,0.3-0.5,0.5-0.8
		C202.7,339.1,202.4,339.4,202.3,340z M205,339.6c0.2,0,0.4-0.1,0.5-0.3C205.3,339.3,205,339.3,205,339.6z M209.7,339.6
		c0.3,0,0.3,0.1,0.5,0c0-0.1,0-0.3,0-0.4C209.9,339.3,209.7,339.4,209.7,339.6z M201.9,340c0.3-0.1,0.2-0.5,0.4-0.7
		C202,339.3,202.1,339.7,201.9,340z M230.6,339.4c0.4,0,0.8,0.4,1.1,0.3C231.3,339.6,230.9,339.3,230.6,339.4z M201.7,339.8
		c-0.1-0.2,0.2-0.4-0.1-0.4C201.6,339.6,201.5,339.8,201.7,339.8z M229.8,339.6c0.3-0.1,0.3,0.2,0.5,0.2c0-0.1,0-0.2,0-0.3
		C230.1,339.4,229.8,339.4,229.8,339.6z M230.5,339.9c0.1,0,0.1,0.1,0.3,0.1c0-0.1,0-0.3,0.1-0.3c-0.1,0-0.1-0.1-0.2-0.1
		C230.6,339.7,230.5,339.8,230.5,339.9z M204.2,339.8c-0.1,0.2-0.5,0.4-0.3,0.6c0.4-0.1,0.9-0.5,0.9-0.7
		C204.7,339.8,204.3,339.7,204.2,339.8z M231,340c0.2,0,0.3,0,0.3-0.2c-0.2,0-0.2,0-0.3-0.1C231,339.8,231,339.9,231,340z
		 M203.2,340.4c0.5,0,0.5-0.4,0.7-0.7C203.5,339.8,203.4,340.2,203.2,340.4z M210.5,340.7c0.5-0.3,1.4-0.3,1.3-1
		C211.4,340.3,210.9,340.2,210.5,340.7z M229.8,340.3c0.4,0,0.4-0.5,0-0.5C229.8,339.9,229.8,340.1,229.8,340.3z M202.9,340.5
		c0.1-0.3,0.4-0.4,0.5-0.7c-0.2,0-0.2,0.1-0.4,0.1C202.9,340.2,202.8,340.4,202.9,340.5z M229.6,340.3c0-0.1,0.1-0.4-0.1-0.5
		C229.3,340,229.3,340.2,229.6,340.3z M203.3,340.6c-0.3,0-0.1,0.3-0.4,0.3c0-0.3-0.2-0.2-0.5-0.3c0-0.2,0.4,0,0.4-0.1
		c-0.3,0,0-0.5-0.1-0.5c-0.3,0.2-0.6,0.2-0.8,0.2c0.7,0.9,1.4,1.7,2.2,2.4c-0.1-0.3,0.4-0.7,0.1-0.7c-0.2,0-0.1,0.4-0.5,0.3
		c0.3-0.4-0.4-0.2-0.4-0.5c0-0.2,0.1-0.3,0.1-0.5c-0.3-0.1-0.3,0.1-0.5,0.1C202.8,341.1,203.2,340.9,203.3,340.6z M232.1,340
		c-0.2,0-0.3-0.1-0.5-0.1C231.6,340.2,232.1,340.3,232.1,340z M205.9,340.5c0.1-0.2,0.4-0.2,0.5-0.4
		C206.1,340.1,205.8,340.4,205.9,340.5z M203.9,341c0.3,0,0.4-0.1,0.7-0.1c0-0.3,0.5-0.6,0.2-0.7C204.4,340.3,204.2,340.7,203.9,341
		z M228.8,340.5c0.2,0,0.2,0.2,0.3,0.2c0.1-0.2-0.1-0.3,0-0.5C229,340.2,228.9,340.4,228.8,340.5z M232.5,340.5
		c0.1-0.1,0.4,0,0.3-0.2c-0.1,0-0.2,0-0.3-0.1C232.6,340.3,232.5,340.3,232.5,340.5z M203.3,341.1c0.5,0.1,0.8-0.6,0.7-0.7
		C203.6,340.5,203.3,340.7,203.3,341.1z M211.3,341.2c0.2-0.3,0.6-0.6,0.6-0.8C211.8,340.7,211.3,341,211.3,341.2z M233.1,340.8
		c0.2,0,0.3-0.1,0.4-0.3c-0.2,0-0.2-0.2-0.4-0.1C233.1,340.6,233,340.7,233.1,340.8z M205.8,340.8c0.2,0,0.4-0.1,0.5-0.2
		C206.1,340.6,206,340.7,205.8,340.8z M228.4,341c0.3-0.1,0.3,0.2,0.5,0.3c0-0.2,0.3-0.1,0.3-0.3c-0.2-0.1-0.2-0.3-0.5-0.3
		C228.6,340.8,228.4,340.7,228.4,341z M237.9,340.9c0.2,0,0.1-0.1,0.3-0.1c0-0.1,0-0.2-0.1-0.2C238.2,340.7,238,340.7,237.9,340.9z
		 M233.8,341c0.2,0,0.3-0.1,0.3-0.3c-0.2,0.1-0.2-0.1-0.3-0.1C233.8,340.9,233.7,340.9,233.8,341z M234.8,341
		c-0.2,0-0.2-0.1-0.4-0.1C234.3,341.3,234.8,341.1,234.8,341z M204.3,341.7c0.4,0,0.4-0.4,0.6-0.7
		C204.5,341.1,204.4,341.4,204.3,341.7z M203.7,341.5c0.4-0.3-0.1,0.4,0.2,0.3c0.1-0.2,0.5-0.5,0.4-0.7
		C204.2,341.2,203.5,341.2,203.7,341.5z M234.9,341.1c-0.1,0.2,0.4,0.2,0.4,0.1C235.2,341.2,235,341,234.9,341.1z M228.4,341.6
		c0.1-0.1,0.3-0.4,0-0.5C228.3,341.2,228.2,341.6,228.4,341.6z M227.6,341.6c0.2,0,0.2,0.2,0.4,0.2c0-0.2,0.1-0.5-0.1-0.6
		C227.9,341.4,227.7,341.4,227.6,341.6z M211,341.6c0-0.1,0.6-0.1,0.3-0.3C211.2,341.4,210.8,341.4,211,341.6z M211.8,341.9
		c0.1-0.1,0.5-0.4,0.3-0.6C211.9,341.6,211.8,341.8,211.8,341.9z M236.2,341.4c-0.2,0-0.2-0.1-0.5-0.1
		C235.7,341.6,236.1,341.6,236.2,341.4z M206.2,342.1c0.1-0.2,0.5-0.5,0.4-0.6C206.5,341.7,206,341.9,206.2,342.1z M205.1,342.3
		c0.4,0,0.4-0.3,0.5-0.6C205.2,341.6,205.2,342,205.1,342.3z M204.6,341.8c-0.1,0.2-0.2,0.4-0.3,0.6c0.2,0,0.2-0.1,0.5-0.1
		c0-0.3,0.2-0.3,0.3-0.6C204.9,341.7,204.9,341.8,204.6,341.8z M227.3,342.6c0.2-0.1,0.2-0.6,0.1-0.8
		C227.1,342.1,226.6,342.5,227.3,342.6z M205.3,343c0.2-0.1,0.5-0.5,0.3-0.7C205.5,342.5,205.4,342.8,205.3,343z M205.8,343
		c0-0.2,0.3-0.6,0.2-0.7C206,342.5,205.7,342.8,205.8,343z M204.5,342.9c0.1-0.2,0.2-0.3,0.2-0.5c-0.3,0-0.4,0.2-0.6,0.3
		c0.4,0.3,0.6,0.8,1.1,1c0-0.1,0.2-0.3,0.1-0.4c-0.1,0.1-0.2,0.1-0.3,0.1c0.1-0.3,0.1-0.3-0.1-0.4c0.3,0.1,0.4-0.4,0.4-0.5
		C205,342.8,204.8,343.1,204.5,342.9z M222.4,346.6c-3.3-1.3-6.7-2.6-9.9-4c-1.6,1-3.8,1.9-6.1,2.4c-0.2,2.1,0.8,3.6,1.5,5.1
		c0.6,0.1,1,0.7,1.7,1c0.6,0.3,1.3,0.5,2,0.8c1.1,0.4,3.1,1.3,4.4,1.3c1.6,0,3.2-0.5,5.2-0.3c1.1-0.6,2-1.5,3.2-2
		C223.5,349.7,223.1,348,222.4,346.6z M226.2,343c0.1,0,0.1,0.2,0.3,0.1c-0.1-0.2,0.2-0.4,0-0.5C226.4,342.8,226.2,342.8,226.2,343z
		 M226.8,343.1c0-0.2,0.2-0.1,0.3-0.3c-0.2,0,0-0.3-0.3-0.2C226.9,342.8,226.6,343,226.8,343.1z M206,343.6c0.3,0,0.3-0.3,0.4-0.5
		c-0.1,0-0.1-0.1-0.2-0.1C206.2,343.3,206,343.3,206,343.6z M205.5,343.7c0.1-0.2,0.3-0.4,0.4-0.7
		C205.6,343,205.4,343.6,205.5,343.7z M226,343.8c0.1-0.2,0.4-0.2,0.4-0.5c-0.2,0.1-0.2-0.2-0.4-0.1
		C226.1,343.5,225.8,343.7,226,343.8z M225.3,343.5c0.2,0,0.2,0.2,0.3,0.3c0.1-0.2,0-0.4,0.1-0.5
		C225.6,343.3,225.5,343.4,225.3,343.5z M224.5,344.1c0.2,0,0.2,0.2,0.5,0.2c-0.1-0.3,0.2-0.5,0-0.6
		C224.9,343.9,224.6,343.9,224.5,344.1z M225.3,344.3c0.1-0.1,0.2-0.1,0.3-0.3c-0.2,0.1-0.1-0.1-0.3-0.1
		C225.3,343.9,225.2,344.2,225.3,344.3z M207.3,344.6c0.2-0.2,0.7-0.2,0.9-0.4C207.9,344.4,207.1,344.5,207.3,344.6z M223.4,345
		c0.2,0,0.2,0.3,0.4,0.3c0-0.4,0.2-1,0.5-0.6c0-0.1,0.1-0.5-0.1-0.4C224,344.6,223.6,344.8,223.4,345z M206.1,344.6
		c0.1,0,0.2,0.1,0.3,0.1c0.1-0.1,0.1-0.2,0.1-0.3C206.4,344.5,206.1,344.4,206.1,344.6z M224.5,344.7c0.2,0,0.3-0.1,0.3-0.2
		c-0.2,0.1-0.1-0.1-0.3-0.1C224.6,344.5,224.6,344.6,224.5,344.7z M202,345.6c-0.2-0.2-0.4-0.8-0.7-0.7
		C201.5,345.1,201.8,345.7,202,345.6z M222.6,345.5c0.1,0,0.1,0.3,0.3,0.3c0-0.1,0.1-0.1,0.1-0.1c-0.1-0.2,0.1-0.5,0-0.5
		C222.9,345.4,222.7,345.4,222.6,345.5z M237.7,346.1c0.2-0.1,0.7-0.7,0.7-0.7C238.1,345.6,237.6,346.1,237.7,346.1z M234.4,348.2
		c0.3-0.4,0.8-0.6,1.2-1c-0.1,0-0.2,0-0.3-0.1c0-0.2,0.4-0.4,0.3-0.5C235,346.7,234.7,347.7,234.4,348.2z M235.8,347.6
		c0.3-0.2,0.9-0.6,0.9-0.9C236.4,347,236,347.2,235.8,347.6z M205,348.8c-0.5-0.4-1.1-1.1-1.6-1.3C203.9,348,204.5,348.4,205,348.8z
		 M234.4,348.6c0.3-0.2,0.9-0.6,1-0.8C235.1,348.1,234.7,348.3,234.4,348.6z M206.1,348.4c0.2,0,0.5,0,0.6-0.2c-0.2,0,0-0.3-0.2-0.2
		C206.4,348.1,206.2,348.1,206.1,348.4z M206.6,348.5c0,0.2,0.2,0.2,0.3,0.3c0-0.2-0.1-0.4-0.2-0.5
		C206.7,348.4,206.6,348.5,206.6,348.5z M229.2,350.3c-0.2,0-0.2,0.3-0.4,0.3c-0.3,0.1,0-0.3-0.3-0.2c-1.2,0.5-2.6,0.1-3.7,0.6
		c-0.4,0.2-0.7,0.6-1.1,0.8c-0.8,0.5-1.5,0.8-2.2,1.1c0.5,0.1,1,0.1,1.5,0.1c1.9-0.2,3.9-1,5.8-1.7c1.9-0.6,3.9-1.3,5.1-2.4
		c0-0.1,0-0.2-0.1-0.1C232.5,349.3,230.8,350.2,229.2,350.3z M234.1,349.8c0.2-0.2,0.8-0.4,0.7-0.7
		C234.6,349.4,234,349.5,234.1,349.8z M235.6,351.7c1.1-0.1,2.1-0.8,2.2-1.6c-0.5,0.3-1,0.7-1.5,1c0.2,0,0.5-0.3,0.7-0.1
		C236.6,351.3,235.9,351.6,235.6,351.7z M235.5,350.8c0.4,0.2,1-0.3,1.3-0.5C236.3,350.4,235.8,350.5,235.5,350.8z M232.5,350.7
		c0.3,0,0.8-0.4,0.7-0.3C232.9,350.5,232.6,350.6,232.5,350.7z M235.8,351.1c0.3-0.1,0.9-0.5,0.9-0.5
		C236.3,350.7,235.7,351.1,235.8,351.1z M228.8,351.5c0.3,0,0.6-0.1,0.7-0.3C229.3,351.3,229,351.4,228.8,351.5z M235.2,351.5
		c0.2-0.1,0.5-0.1,0.7-0.3C235.6,351.3,235.3,351.3,235.2,351.5z M232.3,351.7c0.8-0.4-0.5,0.1-0.9,0.3c-0.1,0.1-0.6,0.1-0.2,0.1
		c0.4-0.1,0.1-0.1,0.7-0.1C232,351.8,232.2,351.8,232.3,351.7z M235,351.8c0.3-0.3-0.4,0.1-0.7,0.1c0,0.1-0.2,0.1-0.3,0.2
		C234.4,352,234.7,351.8,235,351.8z M208.8,352.2c0.1-0.2,0.4-0.1,0.5-0.3c-0.2,0.1-0.2-0.1-0.4-0.1
		C209,352.1,208.6,352.1,208.8,352.2z M230.3,352.1c0.1-0.1,0.8-0.3,0.4-0.2c-0.4,0.1-0.7,0.2-1.2,0.5
		C229.8,352.4,230.1,352.2,230.3,352.1z M226.6,352.3c-0.2,0-1,0.2-0.6,0.3c0.4-0.2,0.9-0.3,1.4-0.5
		C228.2,351.7,226.8,352.1,226.6,352.3z M240.1,352.4c0.2,0.1,0.6,0,0.7-0.1C240.6,352.3,240.2,352.2,240.1,352.4z M225.8,352.9
		c0.6-0.2,1.3-0.4,1.9-0.6C227,352.5,226.3,352.6,225.8,352.9z M235.4,352.5c-0.3,0-1.4,0.3-1.8,0.4c-0.6,0.2,0.5,0,0.9,0
		C234.8,352.7,235.8,352.5,235.4,352.5z M227.6,352.7c0.3,0,0.5,0,0.6-0.2C228,352.6,227.8,352.6,227.6,352.7z M236.8,353
		c0.2-0.2,0.8-0.1,0.9-0.4C237.6,352.6,236.8,352.8,236.8,353z M206.4,353.4c0.8-0.1,1.5,0.1,1.9-0.4
		C207.7,352.9,206.8,353.1,206.4,353.4z M216.9,353.2c0.3,0.3,0.9,0.1,1.6,0.1c0.7,0,2.2,0.1,2.2-0.3
		C219.6,353.1,218,352.9,216.9,353.2z M219.6,353.4c0.3,0,0.5,0,0.7-0.1C220,353.3,219.8,353.3,219.6,353.4z M222.2,353.4
		c-0.2,0-0.7,0.1-0.5,0.1c0.7,0,1.6,0,2.2-0.2C223.4,353.4,222.6,353.3,222.2,353.4z M239.4,355c0.5-0.1,1.5-0.8,2-1.3
		C240.7,354.1,240.1,354.5,239.4,355z M233.3,354.4c0.7,0.1,1.9-0.1,2.6-0.5C235.1,354.2,234.1,354.2,233.3,354.4z M241.4,354
		c-0.4,0.2-1,0.6-1.1,0.8c0.5-0.2,1-0.5,1.5-0.7C241.6,354.1,241.6,353.9,241.4,354z M231.4,354.4c0.3-0.1,0.9,0,1.2-0.2
		C232.4,354,231.6,354.1,231.4,354.4z M209.7,354.5c0.7-0.1,1.5-0.1,2-0.3C210.9,354.1,210.3,354.3,209.7,354.5z M236.2,355.4
		c0.7-0.4,1.3-0.8,1.9-1.3C237.2,354.2,236.5,355,236.2,355.4z M232.3,354.6c0.3-0.1,0.7,0,0.9-0.2
		C233,354.4,232.3,354.5,232.3,354.6z M220.5,354.6c0.8,0.1,1.7-0.1,2,0c0,0.1-0.3,0.1-0.1,0.2c0.1-0.1,0.4,0,0.5-0.1
		c-0.1-0.2,0.1-0.2,0.1-0.3C222.3,354.6,221.1,354.3,220.5,354.6z M227.8,354.6c0.4,0,0.8,0,1-0.2
		C228.4,354.5,228,354.5,227.8,354.6z M234.1,355.6c0.5-0.4,1.2-0.6,1.7-1.1C234.9,354.5,234.4,355.2,234.1,355.6z M234.7,355.6
		c0.6-0.4,1.3-0.7,1.8-1.1C235.6,354.5,235,355.2,234.7,355.6z M216,354.8c0.3,0,1.1,0,0.3-0.1c-0.3,0-1-0.1-1.3,0.1
		C215.4,354.9,215.7,354.8,216,354.8z M225.8,354.6c-0.5,0.4-1.4,0.7-1.7,1c0.8-0.3,1.6-0.6,2.3-1
		C226.2,354.6,226,354.6,225.8,354.6z M217.9,354.9c0.4,0,0.8-0.1,1.1-0.2C218.5,354.7,218.2,354.8,217.9,354.9z M220.8,354.8
		c-0.2-0.2-1.5,0-1.7,0.1C219.8,354.9,220.2,354.7,220.8,354.8z M223.2,355.6c0.7-0.2,1.5-0.5,2.1-0.9
		C224.3,354.7,223.8,355.2,223.2,355.6z M228.3,355.3c0.3-0.2,0.6-0.4,0.9-0.6C228.8,354.8,228.3,355.1,228.3,355.3z M232.2,355.7
		c0.6-0.4,1.3-0.7,1.9-1C233.2,354.7,232.5,355.3,232.2,355.7z M218.2,355.1c1.1-0.2,2.7,0,3.8-0.3
		C220.8,354.9,219.2,354.8,218.2,355.1z M221.4,356c1-0.3,1.8-0.7,2.6-1.2C222.9,355,222.1,355.5,221.4,356z M232,356
		c0.9-0.1,1.6-0.5,2.2-1c0-0.1,0.1-0.1-0.1-0.1C233.4,355.2,232.7,355.6,232,356z M221.6,355.3c0.2-0.2,0.6-0.1,0.7-0.3
		C222,354.9,221.5,355.1,221.6,355.3z M225.3,356c0.8-0.3,1.7-0.6,2.4-1.1C226.6,355,225.4,355.3,225.3,356z M230.9,355.4
		c0.3-0.2,0.6-0.3,0.9-0.5C231.4,354.9,231,355.3,230.9,355.4z"/>
	<path class="st1" d="M216.9,347.8c-2.1,0.7-3.8,1.7-6.2,2.2C212.8,349.2,214.8,348.4,216.9,347.8z"/>
	<path class="st1" d="M223.8,351c-0.8,0.6-1.8,1.1-2.8,1.5c0-0.3,0.3-0.2,0.5-0.4c-0.4,0-1,0.5-1.7,0.5
		C221.4,352.1,222.5,351.2,223.8,351z"/>
	<path class="st0" d="M128.9,335.4h-12.9l-7,16c-0.7,1.6-2.5,2.9-4.2,2.9c-1.6,0-2.3-1.3-1.6-2.9l17.5-39.8c1-2.3,3.7-4.2,6-4.2
		h14.5c9.3,0,11.7,6.4,8.4,14C146.3,329,138.1,335.4,128.9,335.4z M138.3,312.6h-12.2l-7.8,17.7h12.2c5.5,0,10.9-3.6,13.1-8.8
		C145.9,316.2,143.8,312.6,138.3,312.6z"/>
	<path class="st0" d="M172.5,334.9l3.3,15.1c0.1,0.5,0,1-0.2,1.5c-0.6,1.4-2.4,2.8-4.1,2.8c-0.9,0-1.6-0.4-1.7-1.3l-3.6-17.6h-9.3
		l-7,16c-0.7,1.6-2.5,2.9-4.2,2.9c-1.6,0-2.3-1.3-1.6-2.9l17.5-39.8c1-2.3,3.7-4.2,6-4.2h14.5c8.5,0,12.2,5.4,8.4,14
		C186.9,329.8,179.1,334.4,172.5,334.9z M167,312.6l-7.8,17.8h12.2c5.5,0,10.9-3.7,13.2-8.9c2.3-5.2,0.1-8.8-5.4-8.8H167z"/>
	<path class="st0" d="M332.8,98.9c-1.6,0-3-0.9-3.6-2.4l-2.2-5.8h-19l-2.2,5.8c-0.6,1.5-2.1,2.4-3.6,2.4c-2.4,0-4-1.9-4-4
		c0-0.4,0.1-0.9,0.3-1.4l13-33.1c0.9-2.4,3.2-3.9,5.8-3.9c2.7-0.1,5.2,1.4,6.2,3.9l13.1,33.1c0.1,0.4,0.3,0.9,0.3,1.4
		C336.8,96.8,335.3,98.9,332.8,98.9z M317.5,64.3L310.1,84h14.8L317.5,64.3z"/>
	<path class="st0" d="M353.2,99.2c-4.1,0-9.4-1.2-11.8-3.9c-0.4-0.4-0.6-1-0.6-1.6c0-1.6,1.4-2.8,2.9-2.8c0.5,0,1.1,0.1,1.5,0.4
		c2.3,1.6,5.4,2.7,8.3,2.7c3.9,0,5.9-1.7,5.9-4c0-5.9-18.2-1.6-18.2-13.2c0-4.9,4.3-9.2,12-9.2c4.1,0,8.6,1.2,10.7,3.6
		c0.4,0.4,0.6,0.9,0.6,1.5c0,1.4-1.2,2.6-2.7,2.6c-0.4,0-0.9-0.1-1.4-0.4c-1.9-1.3-4.5-2.1-7.2-2.1c-3.4,0-5.5,1.6-5.5,3.7
		c0,5.3,18.2,1.3,18.2,13.3C365.8,95.1,361.3,99.2,353.2,99.2z"/>
	<path class="st0" d="M386,99.2c-9.7,0-15.6-7.2-15.6-15.9c0-8.6,5.9-15.8,15.6-15.8c9.7,0,15.6,7.2,15.6,15.8
		C401.5,92.1,395.7,99.2,386,99.2z M386,73.5c-5.6,0-8.6,4.6-8.6,9.9c0,5.3,3.1,9.9,8.6,9.9c5.5,0,8.6-4.6,8.6-9.9
		C394.5,78.1,391.5,73.5,386,73.5z"/>
	<path class="st0" d="M431.5,95.9c-2.2,2-5.3,3.4-9.7,3.4c-9.2,0-15.6-6.7-15.6-15.9c0-9.1,6.4-15.8,15.6-15.8
		c4.6,0,8.5,1.6,10.2,4.1c0.3,0.4,0.4,0.9,0.4,1.4c0,1.7-1.6,2.9-3.1,2.9c-0.7,0-1.4-0.2-1.9-0.6c-1.6-1.2-3.3-1.7-5.2-1.7
		c-5.4,0-9.1,4.1-9.1,9.9c0,5.8,3.6,9.9,9.1,9.9c2,0,3.7-0.6,5.2-1.8c0.6-0.4,1.2-0.6,1.9-0.6c1.6,0,3.2,1.2,3.2,2.9
		C432.5,94.6,432.2,95.4,431.5,95.9z"/>
	<path class="st0" d="M446.6,60.5c0,2.3-1.9,4.1-4.1,4.1c-2.2,0-4.1-1.8-4.1-4.1c0-2.2,1.9-4.1,4.1-4.1
		C444.7,56.5,446.6,58.3,446.6,60.5z M442.5,98.9c-1.9,0-3.3-1.5-3.3-3.3V71.2c0-1.7,1.4-3.2,3.4-3.2c1.7,0,3.2,1.5,3.2,3.2v24.4
		C445.8,97.4,444.3,98.9,442.5,98.9z"/>
	<path class="st0" d="M476,98.9h-0.4c-0.9,0-3-0.8-3-3.1v-0.6c-2.2,2.6-5.7,4-9.7,4c-4.9,0-10.6-3.3-10.6-10c0-6.9,5.6-9.8,10.6-9.8
		c4,0,7.6,1.3,9.7,3.9v-4.6c0-3.4-2.9-5.6-7-5.6c-2.6,0-5,0.7-7.2,2.3c-0.4,0.2-0.9,0.4-1.4,0.4c-1.2,0-2.6-1-2.6-2.6
		c0-0.5,0.2-1.1,0.5-1.4c2.4-3,7.9-4.2,11.7-4.2c6.7,0,12.6,2.8,12.6,10.9v17.1C479.3,97.4,477.8,98.9,476,98.9z M472.6,87.1
		c-1.5-2-4.2-3-7.1-3c-3.6,0-6.3,2-6.3,5.3c0,3.2,2.7,5.2,6.3,5.2c2.9,0,5.6-1,7.1-3.1V87.1z"/>
	<path class="st0" d="M511.2,95.9c-2.2,2-5.3,3.4-9.7,3.4c-9.2,0-15.6-6.7-15.6-15.9c0-9.1,6.4-15.8,15.6-15.8
		c4.6,0,8.5,1.6,10.2,4.1c0.3,0.4,0.4,0.9,0.4,1.4c0,1.7-1.6,2.9-3.1,2.9c-0.7,0-1.4-0.2-1.9-0.6c-1.6-1.2-3.3-1.7-5.2-1.7
		c-5.4,0-9.1,4.1-9.1,9.9c0,5.8,3.6,9.9,9.1,9.9c2,0,3.7-0.6,5.2-1.8c0.6-0.4,1.3-0.6,1.9-0.6c1.6,0,3.2,1.2,3.2,2.9
		C512.2,94.6,511.9,95.4,511.2,95.9z"/>
	<path class="st0" d="M526.3,60.5c0,2.3-1.9,4.1-4.1,4.1c-2.2,0-4.1-1.8-4.1-4.1c0-2.2,1.9-4.1,4.1-4.1
		C524.4,56.5,526.3,58.3,526.3,60.5z M522.2,98.9c-1.9,0-3.3-1.5-3.3-3.3V71.2c0-1.7,1.4-3.2,3.4-3.2c1.7,0,3.2,1.5,3.2,3.2v24.4
		C525.5,97.4,524,98.9,522.2,98.9z"/>
	<path class="st0" d="M547.6,99.2c-9.7,0-15.6-7.2-15.6-15.9c0-8.6,5.9-15.8,15.6-15.8c9.7,0,15.6,7.2,15.6,15.8
		C563.2,92.1,557.3,99.2,547.6,99.2z M547.6,73.5c-5.6,0-8.6,4.6-8.6,9.9c0,5.3,3.1,9.9,8.6,9.9c5.5,0,8.6-4.6,8.6-9.9
		C556.2,78.1,553.1,73.5,547.6,73.5z M555.3,58l-6.6,5.7c-0.4,0.3-0.7,0.4-1.1,0.4c-0.9,0-1.7-0.7-1.7-1.7c0-0.4,0.1-0.9,0.4-1.2
		l6.1-6.2c0.4-0.4,0.9-0.6,1.4-0.6c1.1,0,2.2,0.9,2.2,2.1C555.9,57,555.7,57.6,555.3,58z"/>
	<path class="st0" d="M593.4,98.9c-1.9,0-3.3-1.5-3.3-3.3V79.7c0-4.6-2.4-6.2-6.1-6.2c-3.3,0-6.2,1.9-7.6,4v18.1
		c0,1.8-1.5,3.3-3.4,3.3c-1.9,0-3.3-1.5-3.3-3.3V71.2c0-1.7,1.4-3.2,3.4-3.2c1.7,0,3.2,1.5,3.2,3.2v1.2c2-2.4,5.8-4.9,10.6-4.9
		c6.5,0,9.7,3.6,9.7,9.7v18.3C596.8,97.4,595.3,98.9,593.4,98.9z"/>
	<path class="st0" d="M340.6,173.8c-2.1,0-3.7-1.7-3.7-3.7v-27.9l-12.3,30.2c-0.3,0.8-1.1,1.3-2.1,1.3c-0.8,0-1.6-0.6-1.9-1.3
		l-12.2-30.2v27.9c0,2-1.7,3.7-3.8,3.7c-2,0-3.6-1.7-3.6-3.7v-33.8c0-2.6,2.1-4.7,4.7-4.7c3.2-0.2,6,0.7,7.2,3.5l9.8,24.2l9.9-24.2
		c0.9-2.1,2.9-3.5,5.3-3.5c3.4-0.4,6.6,1.3,6.6,4.7v33.8C344.4,172.1,342.7,173.8,340.6,173.8z"/>
	<path class="st0" d="M378,160.5h-19.9c0.4,4.5,3.9,8.3,9.5,8.3c2.2,0,4.7-0.7,6.7-2c0.4-0.3,0.9-0.4,1.4-0.4c1.4,0,2.8,1.1,2.8,2.7
		c0,3.4-7.7,5-11.6,5c-9.1,0-15.8-6.3-15.8-15.9c0-8.7,6.4-15.8,15.3-15.8c7.1,0,12.2,4.2,14.1,10.7c0.4,1.2,0.8,2.7,0.8,4
		C381.2,159,379.8,160.5,378,160.5z M366.4,147.9c-5.5,0-8.1,4.4-8.4,8h16.7C374.7,152.4,372.3,147.9,366.4,147.9z"/>
	<path class="st0" d="M408.7,173.8c-1,0-1.9-0.4-2.5-1.2l-7.1-10.1l-7.2,10.1c-0.6,0.9-1.5,1.2-2.4,1.2c-1.7,0-3.1-1.4-3.1-3.1
		c0-0.6,0.2-1.2,0.6-1.7l7.9-11.1l-7.3-10.2c-0.4-0.6-0.6-1.1-0.6-1.7c0-1.5,1.2-3.1,3.1-3.1c1,0,1.9,0.4,2.6,1.3l6.4,9.1l6.2-9.1
		c0.6-0.9,1.6-1.4,2.6-1.4c1.7,0,3.1,1.4,3.1,3c0,0.6-0.2,1.2-0.6,1.7l-7.3,10.2l8,11.1c0.4,0.5,0.5,1.1,0.5,1.7
		C411.7,172.3,410.5,173.8,408.7,173.8z"/>
	<path class="st0" d="M426.3,135.5c0,2.3-1.9,4.1-4.1,4.1c-2.2,0-4.1-1.8-4.1-4.1c0-2.2,1.9-4.1,4.1-4.1
		C424.4,131.4,426.3,133.2,426.3,135.5z M422.2,173.8c-1.9,0-3.3-1.5-3.3-3.3v-24.4c0-1.7,1.4-3.2,3.4-3.2c1.7,0,3.2,1.5,3.2,3.2
		v24.4C425.5,172.3,424,173.8,422.2,173.8z"/>
	<path class="st0" d="M457.4,170.8c-2.2,2-5.3,3.4-9.7,3.4c-9.2,0-15.6-6.7-15.6-15.9c0-9.1,6.4-15.8,15.6-15.8
		c4.6,0,8.5,1.6,10.2,4.1c0.3,0.4,0.4,0.9,0.4,1.4c0,1.7-1.6,2.9-3.1,2.9c-0.7,0-1.4-0.2-1.9-0.6c-1.6-1.2-3.3-1.7-5.2-1.7
		c-5.4,0-9.1,4.1-9.1,9.9c0,5.8,3.6,9.9,9.1,9.9c2,0,3.7-0.6,5.2-1.8c0.6-0.4,1.2-0.6,1.9-0.6c1.6,0,3.2,1.2,3.2,2.9
		C458.4,169.5,458.1,170.3,457.4,170.8z"/>
	<path class="st0" d="M486.7,173.8h-0.4c-0.9,0-3-0.8-3-3.1v-0.6c-2.2,2.6-5.7,4-9.7,4c-4.9,0-10.6-3.3-10.6-10
		c0-6.9,5.6-9.8,10.6-9.8c4,0,7.6,1.3,9.7,3.9v-4.6c0-3.4-2.9-5.6-7-5.6c-2.6,0-5,0.7-7.2,2.3c-0.4,0.2-0.9,0.4-1.4,0.4
		c-1.2,0-2.6-1-2.6-2.6c0-0.5,0.2-1.1,0.5-1.4c2.4-3,7.9-4.2,11.7-4.2c6.7,0,12.6,2.8,12.6,10.9v17.1
		C490,172.3,488.6,173.8,486.7,173.8z M483.4,162c-1.5-2-4.2-3-7.1-3c-3.6,0-6.3,2-6.3,5.3c0,3.2,2.7,5.2,6.3,5.2
		c2.9,0,5.6-1,7.1-3.1V162z"/>
	<path class="st0" d="M522.2,173.8c-1.9,0-3.3-1.5-3.3-3.3v-15.9c0-4.6-2.4-6.2-6.1-6.2c-3.3,0-6.2,1.9-7.6,4v18
		c0,1.8-1.5,3.3-3.4,3.3c-1.9,0-3.3-1.5-3.3-3.3v-24.4c0-1.7,1.4-3.2,3.4-3.2c1.7,0,3.2,1.5,3.2,3.2v1.2c2-2.4,5.8-4.9,10.6-4.9
		c6.5,0,9.7,3.6,9.7,9.7v18.3C525.6,172.3,524.1,173.8,522.2,173.8z"/>
	<path class="st0" d="M555.8,173.8h-0.4c-0.9,0-3-0.8-3-3.1v-0.6c-2.2,2.6-5.7,4-9.7,4c-4.9,0-10.6-3.3-10.6-10
		c0-6.9,5.6-9.8,10.6-9.8c4,0,7.6,1.3,9.7,3.9v-4.6c0-3.4-2.9-5.6-7-5.6c-2.6,0-5,0.7-7.2,2.3c-0.4,0.2-0.9,0.4-1.4,0.4
		c-1.2,0-2.6-1-2.6-2.6c0-0.5,0.2-1.1,0.5-1.4c2.4-3,7.9-4.2,11.7-4.2c6.7,0,12.6,2.8,12.6,10.9v17.1
		C559.1,172.3,557.6,173.8,555.8,173.8z M552.4,162c-1.5-2-4.2-3-7.1-3c-3.6,0-6.3,2-6.3,5.3c0,3.2,2.8,5.2,6.3,5.2
		c2.9,0,5.6-1,7.1-3.1V162z"/>
	<path class="st0" d="M608.1,173.8c-1.9,0-3.3-1.5-3.3-3.3v-1.2c-2.4,3.1-5.8,4.9-9.7,4.9c-7.7,0-13.4-5.9-13.4-15.8
		c0-9.7,5.6-15.9,13.4-15.9c3.7,0,7.2,1.7,9.7,4.9v-12.7c0-1.8,1.4-3.3,3.4-3.3c1.7,0,3.2,1.5,3.2,3.3v35.8
		C611.5,172.3,610,173.8,608.1,173.8z M604.8,152.5c-1.5-2.2-4.6-4-7.7-4c-5.1,0-8.4,4.1-8.4,9.9c0,5.7,3.3,9.9,8.4,9.9
		c3.1,0,6.2-1.8,7.7-3.9V152.5z"/>
	<path class="st0" d="M645,160.5h-19.9c0.4,4.5,3.9,8.3,9.5,8.3c2.2,0,4.7-0.7,6.7-2c0.4-0.3,0.9-0.4,1.4-0.4c1.4,0,2.8,1.1,2.8,2.7
		c0,3.4-7.7,5-11.6,5c-9.1,0-15.8-6.3-15.8-15.9c0-8.7,6.4-15.8,15.3-15.8c7.1,0,12.2,4.2,14.1,10.7c0.4,1.2,0.8,2.7,0.8,4
		C648.2,159,646.8,160.5,645,160.5z M633.4,147.9c-5.5,0-8.1,4.4-8.4,8h16.7C641.6,152.4,639.3,147.9,633.4,147.9z"/>
	<path class="st0" d="M326.7,213.3h-18.4v10.6h17.9c1.7,0,3.2,1.4,3.2,3.3c0,1.8-1.4,3.2-3.2,3.2h-17.9v14.6c0,2-1.7,3.7-3.8,3.7
		c-2,0-3.6-1.7-3.6-3.7v-33.8c0-2.4,2-4.5,4.5-4.5h21.3c1.8,0,3.2,1.4,3.2,3.3C329.9,211.9,328.5,213.3,326.7,213.3z"/>
	<path class="st0" d="M359.6,248.8c-1.9,0-3.3-1.5-3.3-3.3v-1.1c-2.2,2.4-5.9,4.7-10.7,4.7c-6.5,0-9.7-3.4-9.7-9.6v-18.5
		c0-1.7,1.4-3.2,3.4-3.2c1.7,0,3.2,1.5,3.2,3.2v16.1c0,4.6,2.4,6.1,6,6.1c3.3,0,6.1-1.9,7.7-3.9v-18.2c0-1.7,1.4-3.2,3.4-3.2
		c1.7,0,3.2,1.5,3.2,3.2v24.4C362.9,247.3,361.4,248.8,359.6,248.8z"/>
	<path class="st0" d="M380.5,249.1c-5.1,0-7.8-2.7-7.8-7.8v-17.2h-2.5c-1.6,0-2.9-1.3-2.9-3c0-1.6,1.3-2.9,2.9-2.9h2.5v-5.3
		c0-1.8,1.5-3.3,3.4-3.3c1.8,0,3.2,1.5,3.2,3.3v5.3h3.7c1.6,0,2.8,1.3,2.8,3c0,1.6-1.2,2.9-2.8,2.9h-3.7v15.6c0,2.3,1.3,3.6,2.9,3.6
		c0.4,0,1-0.2,1.4-0.2c1.8,0,2.9,1.3,2.9,2.9C386.6,247.9,384.7,249.1,380.5,249.1z"/>
	<path class="st0" d="M407.7,249.1c-3.9,0-7.3-1.8-9.6-4.9v1.2c0,1.8-1.5,3.3-3.4,3.3c-1.9,0-3.3-1.5-3.3-3.3v-35.8
		c0-1.7,1.4-3.2,3.4-3.2c1.7,0,3.2,1.5,3.2,3.2v12.7c2.4-3.1,5.9-4.9,9.6-4.9c7.7,0,13.4,6.1,13.4,15.9
		C421.1,243.3,415.5,249.1,407.7,249.1z M405.7,223.4c-3,0-6.2,1.8-7.6,4.1v11.8c1.4,2.2,4.6,3.9,7.6,3.9c5.2,0,8.5-4.1,8.5-9.9
		C414.2,227.5,410.9,223.4,405.7,223.4z"/>
	<path class="st0" d="M441.5,249.1c-9.7,0-15.6-7.2-15.6-15.9c0-8.6,5.9-15.8,15.6-15.8c9.7,0,15.6,7.2,15.6,15.8
		C457,242,451.1,249.1,441.5,249.1z M441.5,223.4c-5.6,0-8.6,4.6-8.6,9.9c0,5.3,3.1,9.9,8.6,9.9c5.5,0,8.6-4.6,8.6-9.9
		C450,228,447,223.4,441.5,223.4z"/>
	<path class="st0" d="M466.9,248.8c-1.9,0-3.3-1.5-3.3-3.3v-35.8c0-1.7,1.4-3.2,3.4-3.2c1.8,0,3.2,1.5,3.2,3.2v35.8
		C470.3,247.3,468.8,248.8,466.9,248.8z"/>
	<path class="st0" d="M486.1,210.4c0,2.3-1.9,4.1-4.1,4.1c-2.2,0-4.1-1.8-4.1-4.1c0-2.2,1.9-4.1,4.1-4.1
		C484.2,206.4,486.1,208.2,486.1,210.4z M482,248.8c-1.9,0-3.3-1.5-3.3-3.3v-24.4c0-1.7,1.4-3.2,3.4-3.2c1.7,0,3.2,1.5,3.2,3.2v24.4
		C485.4,247.3,483.9,248.8,482,248.8z"/>
	<path class="st0" d="M504.2,249.1c-4.1,0-9.4-1.2-11.8-3.9c-0.4-0.4-0.6-1-0.6-1.6c0-1.6,1.4-2.8,2.9-2.8c0.5,0,1.1,0.1,1.5,0.4
		c2.3,1.6,5.4,2.7,8.3,2.7c3.9,0,5.9-1.7,5.9-4c0-5.9-18.2-1.6-18.2-13.2c0-4.9,4.3-9.2,12-9.2c4.1,0,8.6,1.2,10.7,3.6
		c0.4,0.4,0.6,0.9,0.6,1.5c0,1.4-1.2,2.6-2.7,2.6c-0.4,0-0.9-0.1-1.4-0.4c-1.9-1.3-4.5-2.1-7.2-2.1c-3.4,0-5.5,1.6-5.5,3.7
		c0,5.3,18.2,1.3,18.2,13.3C516.7,245,512.3,249.1,504.2,249.1z"/>
	<path class="st0" d="M532.4,249.1c-5.1,0-7.8-2.7-7.8-7.8v-17.2h-2.5c-1.6,0-2.9-1.3-2.9-3c0-1.6,1.3-2.9,2.9-2.9h2.5v-5.3
		c0-1.8,1.5-3.3,3.4-3.3c1.8,0,3.2,1.5,3.2,3.3v5.3h3.7c1.6,0,2.8,1.3,2.8,3c0,1.6-1.2,2.9-2.8,2.9h-3.7v15.6c0,2.3,1.3,3.6,2.9,3.6
		c0.4,0,1-0.2,1.4-0.2c1.8,0,2.9,1.3,2.9,2.9C538.5,247.9,536.6,249.1,532.4,249.1z"/>
	<path class="st0" d="M565.1,248.8h-0.4c-0.9,0-3-0.8-3-3.1v-0.6c-2.2,2.6-5.7,4-9.7,4c-4.9,0-10.6-3.3-10.6-10
		c0-6.9,5.6-9.8,10.6-9.8c4,0,7.6,1.3,9.7,3.9v-4.6c0-3.4-2.9-5.6-7-5.6c-2.6,0-5,0.7-7.2,2.3c-0.4,0.2-0.9,0.4-1.4,0.4
		c-1.2,0-2.6-1-2.6-2.6c0-0.5,0.2-1.1,0.5-1.4c2.4-3,7.9-4.2,11.7-4.2c6.7,0,12.6,2.8,12.6,10.9v17.1
		C568.4,247.3,566.9,248.8,565.1,248.8z M561.7,237c-1.5-2-4.2-3-7.1-3c-3.6,0-6.3,2-6.3,5.3c0,3.2,2.7,5.2,6.3,5.2
		c2.9,0,5.6-1,7.1-3.1V237z"/>
	<path class="st0" d="M587.2,249.1c-4.1,0-9.4-1.2-11.8-3.9c-0.4-0.4-0.6-1-0.6-1.6c0-1.6,1.4-2.8,2.9-2.8c0.5,0,1.1,0.1,1.5,0.4
		c2.3,1.6,5.4,2.7,8.3,2.7c3.9,0,5.9-1.7,5.9-4c0-5.9-18.2-1.6-18.2-13.2c0-4.9,4.3-9.2,12-9.2c4.1,0,8.6,1.2,10.7,3.6
		c0.4,0.4,0.6,0.9,0.6,1.5c0,1.4-1.2,2.6-2.7,2.6c-0.4,0-0.9-0.1-1.4-0.4c-1.9-1.3-4.5-2.1-7.2-2.1c-3.4,0-5.5,1.6-5.5,3.7
		c0,5.3,18.2,1.3,18.2,13.3C599.8,245,595.4,249.1,587.2,249.1z"/>
</g>
</svg>
