<?xml version="1.0" encoding="utf-8"?>
<!-- Generator: Adobe Illustrator 26.3.1, SVG Export Plug-In . SVG Version: 6.00 Build 0)  -->
<svg version="1.1" id="Layer_1" xmlns="http://www.w3.org/2000/svg" xmlns:xlink="http://www.w3.org/1999/xlink" x="0px" y="0px"
	 viewBox="0 0 1500 600" style="enable-background:new 0 0 1500 600;" xml:space="preserve">
<style type="text/css">
	.st0{fill:url(#SVGID_1_);}
	.st1{fill:url(#SVGID_00000053535018859399921200000009589373939217650873_);}
	.st2{fill:url(#SVGID_00000051385919267446324230000003881862878834754434_);}
	.st3{fill:url(#SVGID_00000024705486575761307840000004443082985720496285_);}
	.st4{fill:#001689;}
	.st5{fill:#00B2E3;}
</style>
<g>
	<linearGradient id="SVGID_1_" gradientUnits="userSpaceOnUse" x1="471.1838" y1="238.5907" x2="574.3179" y2="135.4567">
		<stop  offset="0" style="stop-color:#00B2E3"/>
		<stop  offset="3.939104e-02" style="stop-color:#009FD7"/>
		<stop  offset="0.1239" style="stop-color:#007AC3"/>
		<stop  offset="0.2161" style="stop-color:#005BB1"/>
		<stop  offset="0.3161" style="stop-color:#0042A2"/>
		<stop  offset="0.4269" style="stop-color:#002E97"/>
		<stop  offset="0.5543" style="stop-color:#00218F"/>
		<stop  offset="0.7131" style="stop-color:#00198A"/>
		<stop  offset="1" style="stop-color:#001689"/>
	</linearGradient>
	<path class="st0" d="M486.7,93.2c38,30.8,32.5,139.3,53.4,142c20.9,2.8,32.2,7.7,98.7-35.3c-50.6,54.8-101.5,91.9-131.2,74.4
		C477.9,256.7,507.6,137.8,486.7,93.2z"/>
	
		<linearGradient id="SVGID_00000098213150044224048400000005786637159779687297_" gradientUnits="userSpaceOnUse" x1="266.6514" y1="117.3933" x2="484.8661" y2="117.3933">
		<stop  offset="0" style="stop-color:#00B2E3"/>
		<stop  offset="2.246034e-02" style="stop-color:#00ACDF"/>
		<stop  offset="0.1886" style="stop-color:#007EC5"/>
		<stop  offset="0.3556" style="stop-color:#0059AF"/>
		<stop  offset="0.5212" style="stop-color:#003C9E"/>
		<stop  offset="0.6847" style="stop-color:#002792"/>
		<stop  offset="0.8454" style="stop-color:#001A8B"/>
		<stop  offset="1" style="stop-color:#001689"/>
	</linearGradient>
	<path style="fill:url(#SVGID_00000098213150044224048400000005786637159779687297_);" d="M482.4,183.8
		c-33-54.5-80.4-95.8-95.8-100.7c-15.4-4.9-91.9,38-120,80.9C299.1,87,364.6,38,400.4,54c35.8,15.9,72.7,36.3,77.6,40.7
		C482.4,121.6,488.2,133.7,482.4,183.8z"/>
	
		<linearGradient id="SVGID_00000046303981714620740720000016109176784820532132_" gradientUnits="userSpaceOnUse" x1="227.3228" y1="405.1071" x2="447.806" y2="220.0997">
		<stop  offset="0.3128" style="stop-color:#DAE343"/>
		<stop  offset="0.3739" style="stop-color:#A7D868"/>
		<stop  offset="0.5128" style="stop-color:#27BBC6"/>
		<stop  offset="0.5537" style="stop-color:#00B2E3"/>
	</linearGradient>
	<path style="fill:url(#SVGID_00000046303981714620740720000016109176784820532132_);" d="M310,144.8
		c9.6,40.9,142.2,100.7,196.1,145.9c53.9,45.2-55.5,132.4-192.9,216.8c100.9-93.9,208.7-162.6,80-213.9
		C264.5,242.2,225,193.9,310,144.8z"/>
	
		<linearGradient id="SVGID_00000029032439992858300730000015426401453574467253_" gradientUnits="userSpaceOnUse" x1="7.8558" y1="526.2572" x2="290.4597" y2="243.6533">
		<stop  offset="0.3705" style="stop-color:#DAE343"/>
		<stop  offset="0.7588" style="stop-color:#00B2E3"/>
	</linearGradient>
	<path style="fill:url(#SVGID_00000029032439992858300730000015426401453574467253_);" d="M252.4,214.2
		c-9.6,39.1-49.6,108.7-100,141.7C102,389,75.9,442.1,30.7,549.1c85.2-131.3,165.2-133.9,197.4-176.6
		c32.2-42.6,88.6-102.6,88.6-102.6C290.6,259.7,264.7,243.6,252.4,214.2z"/>
	<path class="st4" d="M513.9,99.2c0,21.2,17.2,38.3,38.3,38.3c21.2,0,38.3-17.2,38.3-38.3c0-21.2-17.2-38.3-38.3-38.3
		C531.1,60.9,513.9,78.1,513.9,99.2z"/>
	<g>
		<path class="st5" d="M589.5,415.4c-10.6-17.4-8.8-42.6,5.3-75.6c14.1-33,34-58.2,59.5-75.5c25.6-17.3,54.3-25.8,86.2-25.3
			c32.1,0.4,53.4,9.6,63.8,27.3c10.4,17.8,8.6,43-5.4,75.7l-4.5,10.4c-1.4,3.3-3.6,6-6.5,8.1c-2.9,2.1-6,3.1-9.1,3.1l-131.4-1.8
			c-4.7,13.7-4.8,23.7-0.5,30c4.4,6.3,13.8,9.6,28.4,9.8c16.4,0.2,29.5-3.6,39.3-11.5c7.7-6.3,15.8-9.4,24.2-9.4l26,0.4
			c3.1,0,5.2,1.2,6.3,3.4c1.1,2.3,0.9,5.1-0.6,8.5c-14.4,33.8-53.4,50.1-117,49.1C621.4,441.8,600,432.8,589.5,415.4z M664.4,321.2
			l81.1,1.1c10.9-28.2,3.4-42.4-22.3-42.8C697.4,279.2,677.8,293.1,664.4,321.2z"/>
		<path class="st5" d="M775.8,429.3l100.4-234.5c1.4-3.2,3.5-5.9,6.5-7.9c2.9-2.1,5.9-3.1,8.9-3l39.1,0.5c3.1,0,5.2,1.1,6.3,3.2
			c1.1,2.1,0.9,4.8-0.4,8l-30.7,71.7c27.4-17,51.5-25.4,72.2-25.1c24.5,0.3,40.9,7.7,49,22c8.1,14.3,6,36-6.5,65.1l-43.9,102.7
			c-1.4,3.2-3.5,5.8-6.4,7.8c-2.9,2-5.9,3-9.1,2.9l-38.9-0.5c-3.1,0-5.3-1.1-6.3-3.2c-1.1-2.1-1-4.7,0.4-7.8l43.9-102.7
			c12.3-28.6,7.2-43-15-43.2c-14.5-0.2-33.8,8.1-57.7,24.9l-51.3,119.9c-1.4,3.2-3.5,5.8-6.4,7.8c-2.9,2-5.9,3-8.9,2.9l-39.1-0.5
			c-3.1,0-5.3-1.1-6.4-3.1C774.3,435.2,774.4,432.6,775.8,429.3z"/>
		<path class="st5" d="M1014.7,430.7c-10.7-11.2-11.8-26.8-3.2-46.8c8.6-20,22.9-35.3,42.9-45.8c20-10.5,42.2-15.6,66.5-15.3
			l57.8,0.8c6-14,7.3-23.7,3.9-29.3c-3.4-5.6-11.2-8.4-23.6-8.6c-16.2-0.2-29.3,3.7-39.3,11.7c-7.7,6.3-15.7,9.3-24.1,9.2l-25.9-0.4
			c-3.1,0-5.3-1.1-6.4-3.2c-1.1-2.1-1-4.7,0.3-7.8c14.6-34.2,53.7-50.9,117-50c27.7,0.4,47.2,7,58.6,20
			c11.3,12.9,11.3,32.7-0.1,59.3l-47.4,110.7c-1.4,3.2-3.5,5.8-6.3,7.8c-2.8,2-5.8,3-9,2.9l-33.7-0.5c-3.1,0-5.3-1.1-6.3-3.2
			c-1.1-2.1-1-4.7,0.4-7.8l2.4-5.5c-24.1,13.2-48.1,19.6-71.7,19.2C1042.9,447.6,1025.4,441.9,1014.7,430.7z M1071.9,384.7
			c-2.8,6.6-2.7,12,0.4,16.2c3.1,4.2,9.2,6.4,18.1,6.5c18,0.3,37.6-4.9,58.8-15.4l11.9-27.9l-53.7-0.7c-8.2-0.1-15.5,1.8-21.9,5.8
			C1079.2,373.2,1074.6,378.3,1071.9,384.7z"/>
		<path class="st5" d="M1317,200.9c1.4-3.2,3.5-5.9,6.5-7.9c2.9-2.1,5.9-3.1,8.9-3l39.1,0.5c3.1,0,5.2,1.1,6.3,3.2
			c1.1,2.1,0.9,4.8-0.4,8l-23.5,54.9c21.4-5.8,39.6-8.6,54.3-8.4c28.1,0.4,46.7,9.4,55.8,27.1c9.1,17.7,6.6,43-7.5,75.9
			c-29,67.7-69.7,101-142.4,100c-16.9-0.2-43.6-2.4-60-6.6c-16.4-4.1-28.1-9.1-35-14.9L1317,200.9z M1336.2,298l-45.1,105.4
			c8.8,2.9,20.5,4.4,35.1,4.6c16.4,0.2,30-4.2,40.7-13.3c10.7-9.1,20.5-23.9,29.2-44.3c8.8-20.5,11.8-35.4,9-44.7
			c-2.7-9.3-12.1-14.1-28-14.3C1367,291.1,1353.3,293.3,1336.2,298z"/>
	</g>
	<g>
		<path class="st4" d="M636.3,517.1h-31c-1.6,3.5-2.4,6.5-2.2,9.1c0.1,2.6,1.1,4.6,2.8,6c1.7,1.3,3.9,2,6.8,2c1.9,0,3.7-0.2,5.5-0.6
			c1.8-0.4,3.6-1.1,5.5-2c1.9-0.9,3.7-1.9,5.5-2.9c1.7-1,4-2.5,6.9-4.2c1.1-0.7,2.5-1,4-1c1.6,0,2.7,0.4,3.3,1.3
			c0.6,0.9,0.5,2.1-0.2,3.6c-0.7,1.4-2,3-4,4.8c-2,1.8-4.5,3.6-7.6,5.3c-3.1,1.7-6.6,3.1-10.6,4.2c-4,1.1-8.2,1.7-12.6,1.7
			c-10.2,0-16.7-2.8-19.7-8.4c-3-5.6-2.1-13.1,2.5-22.7c2.2-4.5,4.9-8.7,8.1-12.5c3.2-3.9,6.9-7.1,10.8-9.9c4-2.8,8.3-4.9,12.9-6.3
			c4.6-1.5,9.3-2.2,14.1-2.2c6.2,0,10.9,1.3,14.1,3.8c3.2,2.5,5,5.8,5.3,9.7c0.3,4-0.6,8-2.5,12.1c-1.8,3.8-4.2,6.3-7,7.4
			C643.9,516.5,640.5,517.1,636.3,517.1z M609.5,508.5h28.7c2.1-5.2,2.5-9.1,1.2-11.7c-1.3-2.6-4-3.9-8.1-3.9
			c-3.9,0-7.8,1.3-11.6,3.9C615.9,499.5,612.5,503.3,609.5,508.5z"/>
		<path class="st4" d="M722.9,491.9l-3.8,34.6l31.2-36.1c2.5-2.9,4.5-5,6.2-6.2c1.6-1.2,3.5-1.8,5.6-1.8c2,0,3.4,0.6,4.2,1.9
			c0.8,1.3,0.8,2.8-0.1,4.5c-0.3,0.7-0.8,1.4-1.5,2.3c-0.7,0.9-1.4,1.7-2.1,2.5c-0.7,0.8-1.5,1.7-2.4,2.7l-32.6,36.2
			c-0.9,1-2.1,2.4-3.6,4c-1.4,1.6-2.9,3-4.2,4.1c-1.4,1.1-2.8,2-4.3,2.6c-1.5,0.6-3.2,0.9-4.9,0.9c-2.2,0-3.8-0.5-4.7-1.5
			c-0.9-1-1.3-2.1-1.4-3.2c-0.1-1.2,0-3.5,0.1-6.9l2.2-35.9c0.1-0.9,0.1-1.8,0.2-2.7c0.1-0.9,0.2-1.8,0.4-2.7
			c0.2-0.9,0.5-1.7,0.8-2.4c0.5-1,1.3-2.1,2.5-3.1c1.1-1,2.5-1.9,3.9-2.5c1.5-0.7,2.9-1,4.2-1c2.6,0,4.1,0.7,4.4,2.2
			C723.4,486.1,723.3,488.5,722.9,491.9z"/>
		<path class="st4" d="M859.8,513.4c-2.2,4.5-4.9,8.7-8.2,12.5c-3.3,3.8-7,7.1-11.1,9.9c-4.1,2.8-8.4,4.9-13,6.3
			c-4.6,1.5-9.3,2.2-14.1,2.2c-4.8,0-8.7-0.7-11.9-2.2c-3.1-1.5-5.4-3.6-6.9-6.4c-1.5-2.8-2-6-1.6-9.8c0.4-3.8,1.6-7.9,3.8-12.5
			c2.2-4.6,5-8.8,8.3-12.7c3.3-3.8,7-7.1,11-9.8c4-2.7,8.4-4.8,13-6.3c4.6-1.5,9.3-2.2,14-2.2c4.8,0,8.8,0.7,12,2.2
			c3.2,1.5,5.5,3.6,7,6.4c1.5,2.8,2,6,1.6,9.8C863.3,504.6,862,508.8,859.8,513.4z M843.9,513.4c3-6.2,3.9-11,2.7-14.5
			c-1.2-3.5-4.2-5.2-9-5.2c-3.1,0-6.2,0.8-9.3,2.3c-3.1,1.5-6,3.8-8.7,6.8c-2.7,3-5.1,6.5-7,10.5c-1.9,4-3,7.5-3.1,10.4
			c-0.2,3,0.5,5.3,2.1,6.8c1.6,1.6,4,2.4,7.1,2.4c4.8,0,9.5-1.7,14-5.2C837.2,524.3,840.9,519.5,843.9,513.4z"/>
		<path class="st4" d="M901.6,535.1l31.8-66c1.5-3,3.3-5.4,5.5-6.9c2.2-1.6,4.4-2.3,6.8-2.3s4,0.8,4.7,2.3c0.7,1.5,0.3,3.9-1.1,6.9
			l-31.8,66c-1.5,3.1-3.3,5.4-5.6,6.9c-2.2,1.5-4.5,2.3-6.9,2.3c-2.3,0-3.8-0.8-4.5-2.4C899.8,540.3,900.1,538,901.6,535.1z"/>
		<path class="st4" d="M1014.3,535.7l0.9-2c-3,2.3-5.9,4.2-8.8,5.8c-2.8,1.6-5.7,2.7-8.5,3.5c-2.8,0.8-5.8,1.1-9,1.1
			c-3.8,0-6.9-0.8-9.2-2.3c-2.3-1.5-3.6-3.6-4-6.3c-0.4-3.2,0.8-7.9,3.7-13.9l14.5-30.2c1.5-3,3.3-5.3,5.4-6.8
			c2.2-1.5,4.4-2.3,6.8-2.3c2.4,0,4,0.8,4.7,2.3c0.7,1.5,0.4,3.8-1.1,6.8l-11.7,24.4c-1.7,3.5-2.8,6.5-3.4,8.9
			c-0.5,2.4-0.3,4.3,0.6,5.6c0.9,1.4,2.8,2,5.5,2c2.7,0,5.5-0.8,8.6-2.3c3.1-1.5,5.8-3.5,8-6c1.9-2.2,4.6-6.9,8.2-14.2l8.9-18.5
			c1.4-3,3.3-5.3,5.5-6.8c2.2-1.5,4.5-2.3,6.8-2.3s3.9,0.8,4.6,2.3c0.7,1.5,0.3,3.8-1.2,6.8l-21.2,44.1c-1.4,2.9-3.1,5.1-5.2,6.5
			c-2.1,1.4-4.2,2.2-6.4,2.2c-2.2,0-3.6-0.8-4.3-2.3C1012.7,540.6,1013,538.4,1014.3,535.7z"/>
		<path class="st4" d="M1110.6,483.8h1.7l4.4-9.1c1.2-2.5,2.2-4.4,3-5.8c0.8-1.4,1.8-2.6,2.9-3.6c1.1-1,2.4-1.9,3.9-2.5
			c1.5-0.7,2.9-1,4.4-1c2,0,3.5,0.7,4.4,2.2c0.6,1,0.7,2.1,0.4,3.5c-0.4,1.4-1.2,3.4-2.4,5.9l-5,10.4h5.8c2.2,0,3.7,0.5,4.4,1.5
			c0.7,1,0.6,2.3-0.1,3.9c-1,2.1-2.5,3.5-4.6,4.3c-2.1,0.8-4.7,1.2-7.8,1.2h-3l-13.5,28c-1.1,2.4-1.9,4.2-2.4,5.5
			c-0.4,1.3-0.5,2.3-0.1,3.1c0.4,0.8,1.4,1.2,3.1,1.2c0.9,0,2.2-0.2,4-0.5c1.7-0.3,3.1-0.5,3.9-0.5c1.3,0,2.2,0.5,2.7,1.5
			c0.5,1,0.5,2.2-0.2,3.7c-1.2,2.5-3.5,4.3-6.9,5.6c-3.4,1.3-7.7,1.9-12.9,1.9c-5,0-8.3-0.8-10.1-2.4c-1.8-1.6-2.4-3.8-1.8-6.6
			c0.6-2.8,2-6.6,4.3-11.3l14.1-29.2h-2.1c-2.3,0-3.8-0.5-4.5-1.6c-0.7-1-0.7-2.4,0.1-4c0.8-1.6,2-2.9,3.8-3.9
			C1106.2,484.3,1108.2,483.8,1110.6,483.8z"/>
		<path class="st4" d="M1203.6,475.3c-2.2,0-3.8-0.6-4.7-2c-0.9-1.3-0.8-3.1,0.3-5.5c1-2.2,2.7-3.9,5-5.3c2.3-1.4,4.5-2.1,6.6-2.1
			c2,0,3.6,0.6,4.5,1.9s0.9,3.1-0.3,5.5c-1.1,2.3-2.8,4.2-5,5.5C1207.9,474.7,1205.8,475.3,1203.6,475.3z M1203.9,491.1l-21.2,44
			c-1.5,3-3.3,5.4-5.6,6.9c-2.3,1.6-4.5,2.3-6.9,2.3c-2.3,0-3.8-0.8-4.5-2.4c-0.7-1.6-0.3-3.9,1.1-6.9l21-43.5
			c1.4-3,3.3-5.3,5.4-6.8c2.2-1.5,4.4-2.3,6.7-2.3c2.3,0,3.9,0.8,4.6,2.3C1205.5,486.2,1205.2,488.4,1203.9,491.1z"/>
		<path class="st4" d="M1305.2,513.4c-2.2,4.5-4.9,8.7-8.3,12.5c-3.3,3.8-7,7.1-11.1,9.9c-4.1,2.8-8.5,4.9-13,6.3
			c-4.6,1.5-9.3,2.2-14.1,2.2c-4.8,0-8.7-0.7-11.9-2.2c-3.1-1.5-5.4-3.6-6.9-6.4c-1.5-2.8-2-6-1.6-9.8c0.4-3.8,1.6-7.9,3.8-12.5
			c2.2-4.6,5-8.8,8.3-12.7c3.3-3.8,7-7.1,11.1-9.8c4-2.7,8.4-4.8,13-6.3c4.6-1.5,9.3-2.2,14-2.2c4.8,0,8.8,0.7,12,2.2
			c3.2,1.5,5.5,3.6,7,6.4c1.5,2.8,2,6,1.6,9.8C1308.7,504.6,1307.4,508.8,1305.2,513.4z M1289.3,513.4c3-6.2,3.9-11,2.7-14.5
			c-1.2-3.5-4.2-5.2-9-5.2c-3.1,0-6.2,0.8-9.3,2.3c-3.1,1.5-6,3.8-8.7,6.8c-2.7,3-5.1,6.5-7,10.5c-1.9,4-3,7.5-3.1,10.4
			c-0.2,3,0.5,5.3,2.1,6.8c1.6,1.6,4,2.4,7.1,2.4c4.8,0,9.4-1.7,14-5.2C1282.6,524.3,1286.3,519.5,1289.3,513.4z"/>
		<path class="st4" d="M1386,490.9l-0.9,1.8c4.5-3.5,8.8-6.1,12.9-7.8c4.1-1.7,8.3-2.5,12.6-2.5c4.2,0,7.5,0.9,9.9,2.6
			c2.4,1.8,3.7,4.2,3.8,7.4c0.1,1.9-0.1,3.9-0.9,6c-0.7,2.2-1.9,4.9-3.5,8.2l-13.6,28.3c-1.5,3-3.3,5.4-5.5,6.9
			c-2.2,1.6-4.5,2.3-6.8,2.3c-2.4,0-3.9-0.8-4.6-2.4c-0.7-1.6-0.3-3.9,1.1-6.9l12.2-25.4c2.4-5,3.5-8.9,3.4-11.5
			c-0.2-2.7-2.4-4-6.7-4c-2.8,0-5.8,0.8-8.9,2.4c-3.1,1.6-5.9,3.8-8.3,6.7c-1.9,2.3-4.3,6.5-7.3,12.7l-9.2,19.1
			c-1.5,3.1-3.4,5.4-5.6,6.9c-2.2,1.5-4.5,2.3-6.9,2.3c-2.3,0-3.8-0.8-4.5-2.4c-0.7-1.6-0.3-3.9,1.1-6.9l21.2-44
			c1.4-2.9,3.1-5.1,5.1-6.5c2-1.4,4.1-2.1,6.4-2.1c1.4,0,2.5,0.3,3.3,0.9c0.8,0.6,1.2,1.6,1.3,2.8
			C1387.3,487.5,1386.9,489,1386,490.9z"/>
	</g>
</g>
</svg>
