<?xml version="1.0" encoding="utf-8"?>
<!-- Generator: Adobe Illustrator 26.4.1, SVG Export Plug-In . SVG Version: 6.00 Build 0)  -->
<svg version="1.1" id="Capa_1" xmlns="http://www.w3.org/2000/svg" xmlns:xlink="http://www.w3.org/1999/xlink" x="0px" y="0px"
	 viewBox="0 0 150 150" style="enable-background:new 0 0 150 150;" xml:space="preserve">
<style type="text/css">
	.st0{fill:#FFFFFF;}
</style>
<g>
	<path class="st0" d="M74.9,91.2c8.9,0,16.2-7.3,16.2-16.2c0-3.5-1.2-6.8-3.1-9.5c-2.9-4.1-7.7-6.8-13.1-6.8s-10.2,2.7-13.1,6.8
		c-1.9,2.7-3.1,6-3.1,9.5C58.7,83.9,66,91.2,74.9,91.2z"/>
	<path class="st0" d="M100.2,75c0,13.8-11.3,25.2-25.2,25.2S49.7,89,49.7,75c0-3.4,0.7-7,1.9-9.4H37.4v37.7c0,4.9,4.3,9.3,9.3,9.3
		h56.6c4.9,0,9.3-4.3,9.3-9.3V65.6H98.3C99.5,68,100.2,71.7,100.2,75z"/>
	<polygon class="st0" points="110.2,55.2 110.2,41.6 110.2,39.4 108.3,39.6 94.7,39.6 94.7,55.2 	"/>
	<path class="st0" d="M111.8,1.1H38.1C17.7,1.1,1,17.7,1,38.1V112c0,20.3,16.7,37,37.1,37h73.8c20.4,0,37.1-16.7,37.1-37.1V38.1
		C148.9,17.7,132.2,1.1,111.8,1.1z M120.7,65.5v37.8c0,9.9-7.6,17.5-17.5,17.5H46.7c-9.9,0-17.5-7.6-17.5-17.5V65.5V46.7
		c0-9.9,7.6-17.5,17.5-17.5h56.6c9.9,0,17.5,7.6,17.5,17.5L120.7,65.5L120.7,65.5z"/>
</g>
</svg>
