<?xml version="1.0" encoding="utf-8"?>
<!-- Generator: Adobe Illustrator 26.4.1, SVG Export Plug-In . SVG Version: 6.00 Build 0)  -->
<svg version="1.1" id="Capa_1" xmlns="http://www.w3.org/2000/svg" xmlns:xlink="http://www.w3.org/1999/xlink" x="0px" y="0px"
	 viewBox="0 0 150 150" style="enable-background:new 0 0 150 150;" xml:space="preserve">
<style type="text/css">
	.st0{fill:#FFFFFF;}
</style>
<g>
	<path class="st0" d="M133.4,2H16.6C8.6,2,2,8.6,2,16.6v116.8c0,8.1,6.6,14.6,14.6,14.6h116.8c8.1,0,14.6-6.6,14.6-14.6V16.6
		C148,8.6,141.4,2,133.4,2L133.4,2z M116.6,55.3c-0.7,33.6-21.9,56.9-54,58.4c-13.2,0.7-22.6-3.6-31.4-8.7
		c9.5,1.5,21.9-2.2,28.5-8.1c-9.5-0.7-15.3-5.8-18.3-13.9c2.9,0.7,5.8,0,8,0c-8.8-2.9-14.6-8-15.3-19.7c2.2,1.5,5.1,2.2,8,2.2
		c-6.6-3.7-10.9-17.5-5.8-26.3c9.5,10.2,21.1,19,40.1,20.5c-5-20.5,22.7-31.4,33.6-17.6c5.1-0.7,8.8-2.9,12.4-4.3
		c-1.5,5.1-4.4,8-8,10.9c3.6-0.7,7.3-1.5,10.2-2.9C123.9,49.4,120.3,52.4,116.6,55.3L116.6,55.3z"/>
</g>
</svg>
