<?xml version="1.0" encoding="utf-8"?>
<!-- Generator: Adobe Illustrator 26.4.1, SVG Export Plug-In . SVG Version: 6.00 Build 0)  -->
<svg version="1.1" id="Layer_1" xmlns="http://www.w3.org/2000/svg" xmlns:xlink="http://www.w3.org/1999/xlink" x="0px" y="0px"
	 viewBox="0 0 493.9 197.6" style="enable-background:new 0 0 493.9 197.6;" xml:space="preserve">
<style type="text/css">
	.st0{fill:#FFFFFF;}
</style>
<g>
	<path class="st0" d="M162.1,32.1c12.3,9.9,10.5,44.9,17.2,45.8c6.7,0.9,10.4,2.5,31.8-11.4c-16.3,17.7-32.7,29.6-42.3,24
		C159.2,84.8,168.8,46.5,162.1,32.1z"/>
	<path class="st0" d="M160.7,61.3c-10.6-17.6-25.9-30.9-30.9-32.5c-5-1.6-29.6,12.3-38.7,26.1c10.5-24.8,31.6-40.6,43.1-35.5
		c11.5,5.1,23.4,11.7,25,13.1C160.7,41.3,162.6,45.2,160.7,61.3z"/>
	<path class="st0" d="M105.1,48.8c3.1,13.2,45.8,32.5,63.2,47s-17.9,42.7-62.2,69.9c32.5-30.3,67.3-52.4,25.8-69
		C90.4,80.2,77.7,64.6,105.1,48.8z"/>
	<path class="st0" d="M86.5,71.1c-3.1,12.6-16,35-32.2,45.7c-16.3,10.7-24.7,27.8-39.2,62.3c27.5-42.3,53.3-43.2,63.6-56.9
		c10.4-13.7,28.6-33.1,28.6-33.1C98.9,85.8,90.5,80.6,86.5,71.1z"/>
	<path class="st0" d="M170.8,34.1c0,6.8,5.5,12.3,12.3,12.3c6.8,0,12.3-5.5,12.3-12.3c0-6.8-5.5-12.3-12.3-12.3
		C176.4,21.7,170.8,27.3,170.8,34.1z"/>
	<g>
		<path class="st0" d="M195.2,136c-3.4-5.6-2.8-13.7,1.7-24.4c4.5-10.6,11-18.8,19.2-24.3c8.3-5.6,17.5-8.3,27.8-8.2
			c10.3,0.1,17.2,3.1,20.6,8.8c3.4,5.7,2.8,13.9-1.7,24.4l-1.5,3.4c-0.5,1.1-1.2,1.9-2.1,2.6c-0.9,0.7-1.9,1-2.9,1l-42.4-0.6
			c-1.5,4.4-1.5,7.6-0.2,9.7c1.4,2,4.4,3.1,9.2,3.2c5.3,0.1,9.5-1.2,12.7-3.7c2.5-2,5.1-3,7.8-3l8.4,0.1c1,0,1.7,0.4,2,1.1
			c0.4,0.7,0.3,1.6-0.2,2.7c-4.6,10.9-17.2,16.2-37.7,15.8C205.5,144.5,198.6,141.6,195.2,136z M219.4,105.6l26.1,0.4
			c3.5-9.1,1.1-13.7-7.2-13.8C230,92.1,223.7,96.6,219.4,105.6z"/>
		<path class="st0" d="M255.3,140.5l32.4-75.6c0.5-1,1.1-1.9,2.1-2.5c0.9-0.7,1.9-1,2.9-1l12.6,0.2c1,0,1.7,0.4,2,1
			c0.4,0.7,0.3,1.5-0.1,2.6l-9.9,23.1c8.8-5.5,16.6-8.2,23.3-8.1c7.9,0.1,13.2,2.5,15.8,7.1c2.6,4.6,1.9,11.6-2.1,21l-14.2,33.1
			c-0.5,1-1.1,1.9-2.1,2.5s-1.9,1-2.9,0.9l-12.5-0.2c-1,0-1.7-0.4-2-1c-0.4-0.7-0.3-1.5,0.1-2.5l14.2-33.1c4-9.2,2.3-13.9-4.8-13.9
			c-4.7-0.1-10.9,2.6-18.6,8l-16.5,38.7c-0.5,1-1.1,1.9-2.1,2.5c-0.9,0.6-1.9,1-2.9,0.9l-12.6-0.2c-1,0-1.7-0.4-2.1-1
			C254.8,142.4,254.8,141.6,255.3,140.5z"/>
		<path class="st0" d="M332.3,140.9c-3.4-3.6-3.8-8.6-1-15.1c2.8-6.4,7.4-11.4,13.8-14.8s13.6-5,21.4-4.9l18.6,0.3
			c1.9-4.5,2.4-7.6,1.3-9.4c-1.1-1.8-3.6-2.7-7.6-2.8c-5.2-0.1-9.4,1.2-12.7,3.8c-2.5,2-5.1,3-7.8,3l-8.4-0.1c-1,0-1.7-0.4-2.1-1
			c-0.4-0.7-0.3-1.5,0.1-2.5c4.7-11,17.3-16.4,37.7-16.1c8.9,0.1,15.2,2.3,18.9,6.4c3.6,4.2,3.6,10.5,0,19.1l-15.3,35.7
			c-0.5,1-1.1,1.9-2,2.5c-0.9,0.6-1.9,1-2.9,0.9l-10.9-0.2c-1,0-1.7-0.4-2-1c-0.4-0.7-0.3-1.5,0.1-2.5l0.8-1.8
			c-7.8,4.3-15.5,6.3-23.1,6.2C341.4,146.4,335.8,144.6,332.3,140.9z M350.8,126.1c-0.9,2.1-0.9,3.9,0.1,5.2c1,1.4,3,2.1,5.8,2.1
			c5.8,0.1,12.1-1.6,19-5l3.8-9l-17.3-0.2c-2.6,0-5,0.6-7.1,1.9C353.1,122.4,351.6,124.1,350.8,126.1z"/>
		<path class="st0" d="M429.8,66.9c0.5-1,1.1-1.9,2.1-2.5c0.9-0.7,1.9-1,2.9-1l12.6,0.2c1,0,1.7,0.4,2,1c0.4,0.7,0.3,1.5-0.1,2.6
			l-7.6,17.7c6.9-1.9,12.8-2.8,17.5-2.7c9.1,0.1,15.1,3,18,8.7c2.9,5.7,2.1,13.9-2.4,24.5c-9.4,21.8-22.5,32.6-45.9,32.2
			c-5.4-0.1-14.1-0.8-19.3-2.1c-5.3-1.3-9.1-2.9-11.3-4.8L429.8,66.9z M436,98.2l-14.5,34c2.8,0.9,6.6,1.4,11.3,1.5
			c5.3,0.1,9.7-1.4,13.1-4.3c3.4-2.9,6.6-7.7,9.4-14.3c2.8-6.6,3.8-11.4,2.9-14.4c-0.9-3-3.9-4.5-9-4.6
			C445.9,95.9,441.5,96.6,436,98.2z"/>
	</g>
	<g>
		<path class="st0" d="M210.3,168.8h-10c-0.5,1.1-0.8,2.1-0.7,2.9c0,0.8,0.4,1.5,0.9,1.9c0.5,0.4,1.3,0.6,2.2,0.6
			c0.6,0,1.2-0.1,1.8-0.2c0.6-0.1,1.2-0.4,1.8-0.6s1.2-0.6,1.8-0.9c0.5-0.3,1.3-0.8,2.2-1.4c0.4-0.2,0.8-0.3,1.3-0.3
			c0.5,0,0.9,0.1,1.1,0.4s0.2,0.7-0.1,1.2c-0.2,0.5-0.6,1-1.3,1.5c-0.6,0.6-1.5,1.2-2.5,1.7c-1,0.5-2.1,1-3.4,1.4
			c-1.3,0.4-2.6,0.5-4.1,0.5c-3.3,0-5.4-0.9-6.4-2.7c-1-1.8-0.7-4.2,0.8-7.3c0.7-1.5,1.6-2.8,2.6-4c1-1.3,2.2-2.3,3.5-3.2
			c1.3-0.9,2.7-1.6,4.2-2c1.5-0.5,3-0.7,4.5-0.7c2,0,3.5,0.4,4.5,1.2c1,0.8,1.6,1.9,1.7,3.1c0.1,1.3-0.2,2.6-0.8,3.9
			c-0.6,1.2-1.4,2-2.3,2.4C212.8,168.6,211.7,168.8,210.3,168.8z M201.7,166h9.3c0.7-1.7,0.8-2.9,0.4-3.8s-1.3-1.3-2.6-1.3
			c-1.3,0-2.5,0.4-3.7,1.3C203.7,163.1,202.6,164.4,201.7,166z"/>
		<path class="st0" d="M238.2,160.7l-1.2,11.2l10.1-11.6c0.8-0.9,1.5-1.6,2-2c0.5-0.4,1.1-0.6,1.8-0.6c0.6,0,1.1,0.2,1.4,0.6
			c0.3,0.4,0.3,0.9,0,1.5c-0.1,0.2-0.3,0.5-0.5,0.7c-0.2,0.3-0.5,0.5-0.7,0.8c-0.2,0.3-0.5,0.5-0.8,0.9l-10.5,11.7
			c-0.3,0.3-0.7,0.8-1.2,1.3c-0.5,0.5-0.9,1-1.4,1.3c-0.5,0.4-0.9,0.6-1.4,0.8c-0.5,0.2-1,0.3-1.6,0.3c-0.7,0-1.2-0.2-1.5-0.5
			c-0.3-0.3-0.4-0.7-0.5-1c0-0.4,0-1.1,0-2.2l0.7-11.6c0-0.3,0-0.6,0.1-0.9c0-0.3,0.1-0.6,0.1-0.9c0.1-0.3,0.2-0.5,0.3-0.8
			c0.2-0.3,0.4-0.7,0.8-1c0.4-0.3,0.8-0.6,1.3-0.8c0.5-0.2,0.9-0.3,1.4-0.3c0.8,0,1.3,0.2,1.4,0.7
			C238.4,158.8,238.4,159.6,238.2,160.7z"/>
		<path class="st0" d="M282.4,167.6c-0.7,1.5-1.6,2.8-2.6,4c-1.1,1.2-2.3,2.3-3.6,3.2c-1.3,0.9-2.7,1.6-4.2,2
			c-1.5,0.5-3,0.7-4.5,0.7s-2.8-0.2-3.8-0.7c-1-0.5-1.7-1.2-2.2-2.1c-0.5-0.9-0.6-1.9-0.5-3.2c0.1-1.2,0.5-2.5,1.2-4
			c0.7-1.5,1.6-2.8,2.7-4.1c1.1-1.2,2.3-2.3,3.5-3.2c1.3-0.9,2.7-1.5,4.2-2c1.5-0.5,3-0.7,4.5-0.7c1.5,0,2.8,0.2,3.9,0.7
			c1,0.5,1.8,1.2,2.3,2.1c0.5,0.9,0.6,1.9,0.5,3.2S283.1,166.1,282.4,167.6z M277.2,167.6c1-2,1.3-3.5,0.9-4.7
			c-0.4-1.1-1.4-1.7-2.9-1.7c-1,0-2,0.3-3,0.7c-1,0.5-1.9,1.2-2.8,2.2s-1.6,2.1-2.3,3.4s-1,2.4-1,3.4c-0.1,1,0.2,1.7,0.7,2.2
			c0.5,0.5,1.3,0.8,2.3,0.8c1.5,0,3.1-0.5,4.5-1.7C275.1,171.1,276.3,169.6,277.2,167.6z"/>
		<path class="st0" d="M295.9,174.6l10.3-21.3c0.5-1,1.1-1.7,1.8-2.2c0.7-0.5,1.4-0.7,2.2-0.7s1.3,0.3,1.5,0.7
			c0.2,0.5,0.1,1.3-0.4,2.2L301,174.6c-0.5,1-1.1,1.7-1.8,2.2c-0.7,0.5-1.5,0.7-2.2,0.7c-0.7,0-1.2-0.3-1.5-0.8
			C295.3,176.3,295.4,175.5,295.9,174.6z"/>
		<path class="st0" d="M332.2,174.8l0.3-0.6c-1,0.7-1.9,1.4-2.8,1.9c-0.9,0.5-1.8,0.9-2.7,1.1c-0.9,0.3-1.9,0.4-2.9,0.4
			c-1.2,0-2.2-0.3-3-0.7c-0.7-0.5-1.2-1.2-1.3-2c-0.1-1,0.3-2.5,1.2-4.5l4.7-9.7c0.5-1,1.1-1.7,1.7-2.2c0.7-0.5,1.4-0.7,2.2-0.7
			c0.8,0,1.3,0.3,1.5,0.7c0.2,0.5,0.1,1.2-0.4,2.2l-3.8,7.9c-0.5,1.1-0.9,2.1-1.1,2.9c-0.2,0.8-0.1,1.4,0.2,1.8
			c0.3,0.5,0.9,0.6,1.8,0.6s1.8-0.3,2.8-0.7c1-0.5,1.9-1.1,2.6-1.9c0.6-0.7,1.5-2.2,2.6-4.6l2.9-6c0.5-1,1.1-1.7,1.8-2.2
			c0.7-0.5,1.5-0.7,2.2-0.7s1.3,0.3,1.5,0.7c0.2,0.5,0.1,1.2-0.4,2.2l-6.8,14.2c-0.5,0.9-1,1.6-1.7,2.1s-1.4,0.7-2.1,0.7
			c-0.7,0-1.2-0.3-1.4-0.7C331.7,176.4,331.8,175.7,332.2,174.8z"/>
		<path class="st0" d="M363.2,158.1h0.5l1.4-2.9c0.4-0.8,0.7-1.4,1-1.9c0.3-0.5,0.6-0.8,0.9-1.2c0.4-0.3,0.8-0.6,1.3-0.8
			c0.5-0.2,0.9-0.3,1.4-0.3c0.6,0,1.1,0.2,1.4,0.7c0.2,0.3,0.2,0.7,0.1,1.1c-0.1,0.5-0.4,1.1-0.8,1.9l-1.6,3.4h1.9
			c0.7,0,1.2,0.2,1.4,0.5s0.2,0.7,0,1.3c-0.3,0.7-0.8,1.1-1.5,1.4c-0.7,0.3-1.5,0.4-2.5,0.4h-1l-4.4,9c-0.4,0.8-0.6,1.4-0.8,1.8
			c-0.1,0.4-0.2,0.7,0,1s0.5,0.4,1,0.4c0.3,0,0.7-0.1,1.3-0.2c0.5-0.1,1-0.2,1.3-0.2c0.4,0,0.7,0.2,0.9,0.5c0.2,0.3,0.2,0.7-0.1,1.2
			c-0.4,0.8-1.1,1.4-2.2,1.8c-1.1,0.4-2.5,0.6-4.2,0.6c-1.6,0-2.7-0.3-3.3-0.8c-0.6-0.5-0.8-1.2-0.6-2.1c0.2-0.9,0.6-2.1,1.4-3.6
			l4.5-9.4h-0.7c-0.7,0-1.2-0.2-1.5-0.5c-0.2-0.3-0.2-0.8,0-1.3c0.3-0.5,0.6-0.9,1.2-1.3C361.8,158.2,362.5,158.1,363.2,158.1z"/>
		<path class="st0" d="M393.2,155.3c-0.7,0-1.2-0.2-1.5-0.6c-0.3-0.4-0.3-1,0.1-1.8c0.3-0.7,0.9-1.3,1.6-1.7
			c0.7-0.5,1.5-0.7,2.1-0.7c0.6,0,1.2,0.2,1.5,0.6c0.3,0.4,0.3,1-0.1,1.8c-0.4,0.7-0.9,1.4-1.6,1.8
			C394.6,155.1,393.9,155.3,393.2,155.3z M393.3,160.4l-6.8,14.2c-0.5,1-1.1,1.7-1.8,2.2c-0.7,0.5-1.5,0.7-2.2,0.7
			c-0.7,0-1.2-0.3-1.5-0.8c-0.2-0.5-0.1-1.3,0.4-2.2l6.8-14c0.5-1,1.1-1.7,1.7-2.2c0.7-0.5,1.4-0.7,2.2-0.7c0.7,0,1.3,0.3,1.5,0.7
			C393.8,158.8,393.7,159.6,393.3,160.4z"/>
		<path class="st0" d="M426,167.6c-0.7,1.5-1.6,2.8-2.7,4c-1.1,1.2-2.3,2.3-3.6,3.2c-1.3,0.9-2.7,1.6-4.2,2c-1.5,0.5-3,0.7-4.5,0.7
			c-1.5,0-2.8-0.2-3.8-0.7c-1-0.5-1.7-1.2-2.2-2.1c-0.5-0.9-0.6-1.9-0.5-3.2c0.1-1.2,0.5-2.5,1.2-4c0.7-1.5,1.6-2.8,2.7-4.1
			c1.1-1.2,2.3-2.3,3.6-3.2c1.3-0.9,2.7-1.5,4.2-2c1.5-0.5,3-0.7,4.5-0.7c1.5,0,2.8,0.2,3.9,0.7c1,0.5,1.8,1.2,2.3,2.1
			c0.5,0.9,0.6,1.9,0.5,3.2C427.1,164.8,426.7,166.1,426,167.6z M420.9,167.6c1-2,1.3-3.5,0.9-4.7c-0.4-1.1-1.4-1.7-2.9-1.7
			c-1,0-2,0.3-3,0.7c-1,0.5-1.9,1.2-2.8,2.2c-0.9,1-1.6,2.1-2.3,3.4s-1,2.4-1,3.4c-0.1,1,0.2,1.7,0.7,2.2c0.5,0.5,1.3,0.8,2.3,0.8
			c1.5,0,3-0.5,4.5-1.7C418.7,171.1,419.9,169.6,420.9,167.6z"/>
		<path class="st0" d="M452,160.4l-0.3,0.6c1.5-1.1,2.8-2,4.2-2.5c1.3-0.5,2.7-0.8,4.1-0.8c1.4,0,2.4,0.3,3.2,0.8
			c0.8,0.6,1.2,1.4,1.2,2.4c0,0.6,0,1.3-0.3,1.9c-0.2,0.7-0.6,1.6-1.1,2.6l-4.4,9.1c-0.5,1-1.1,1.7-1.8,2.2
			c-0.7,0.5-1.5,0.7-2.2,0.7c-0.8,0-1.3-0.3-1.5-0.8c-0.2-0.5-0.1-1.3,0.4-2.2l3.9-8.2c0.8-1.6,1.1-2.9,1.1-3.7
			c-0.1-0.9-0.8-1.3-2.2-1.3c-0.9,0-1.9,0.3-2.9,0.8c-1,0.5-1.9,1.2-2.7,2.2c-0.6,0.7-1.4,2.1-2.4,4.1l-3,6.2
			c-0.5,1-1.1,1.7-1.8,2.2c-0.7,0.5-1.5,0.7-2.2,0.7c-0.7,0-1.2-0.3-1.5-0.8c-0.2-0.5-0.1-1.3,0.4-2.2l6.8-14.2
			c0.5-0.9,1-1.6,1.6-2.1c0.6-0.5,1.3-0.7,2.1-0.7c0.5,0,0.8,0.1,1.1,0.3c0.3,0.2,0.4,0.5,0.4,0.9
			C452.5,159.3,452.3,159.7,452,160.4z"/>
	</g>
</g>
</svg>
