<?xml version="1.0" encoding="utf-8"?>
<!-- Generator: Adobe Illustrator 26.4.1, SVG Export Plug-In . SVG Version: 6.00 Build 0)  -->
<svg version="1.1" id="Layer_1" xmlns="http://www.w3.org/2000/svg" xmlns:xlink="http://www.w3.org/1999/xlink" x="0px" y="0px"
	 viewBox="0 0 50 50" style="enable-background:new 0 0 50 50;" xml:space="preserve">
<style type="text/css">
	.st0{fill:#474747;}
</style>
<g>
	<path class="st0" d="M16.3,48.2c-0.4,0-0.8-0.1-1.2-0.3l-9.3-4C3.6,43,2.5,40.7,3,38.4l2.9-11.5c0.3-1.4,1.3-2.5,2.5-3.1l2.3-1.1
		c0.4-0.2,0.8,0,0.9,0.3c0.2,0.4,0,0.8-0.3,0.9l-2.3,1.1c-0.9,0.4-1.5,1.2-1.8,2.1L4.4,38.7C4,40.4,4.8,42,6.3,42.6l9.3,4
		c0.8,0.4,1.8,0,2.2-0.8c0.2-0.4,0.3-0.9,0.1-1.4c-0.2-0.5-0.5-0.8-1-1l-7.7-3.2c-1-0.4-1.6-1.5-1.2-2.6l1.9-6.2
		c0.1-0.4,0.5-0.6,0.9-0.5c0.4,0.1,0.6,0.5,0.5,0.9l-1.9,6.2c-0.1,0.4,0.1,0.7,0.4,0.9l7.7,3.2c0.8,0.3,1.4,1,1.7,1.8
		c0.3,0.8,0.2,1.7-0.2,2.5C18.5,47.6,17.4,48.2,16.3,48.2z"/>
	<path class="st0" d="M21.2,42.6c-0.4,0-0.7-0.3-0.7-0.7V28.1c0-0.4,0.3-0.7,0.7-0.7h4.3c0.4,0,0.7,0.3,0.7,0.7s-0.3,0.7-0.7,0.7
		h-3.6v13C21.9,42.3,21.6,42.6,21.2,42.6z"/>
	<path class="st0" d="M41.3,28.8H34c-0.4,0-0.7-0.3-0.7-0.7s0.3-0.7,0.7-0.7h7.4c1,0,1.8-0.8,1.8-1.8c0-1-0.8-1.8-1.8-1.8H19.4
		c-0.4,0-0.7-0.3-0.7-0.7c0-0.4,0.3-0.7,0.7-0.7h21.9c1.8,0,3.2,1.4,3.2,3.2C44.6,27.4,43.1,28.8,41.3,28.8z"/>
	<path class="st0" d="M29.3,31.4h-1.9c-1.5,0-2.7-1.2-2.7-2.7c0-1.5,1.2-2.7,2.7-2.7h1.9c1.5,0,2.7,1.2,2.7,2.7
		C32,30.2,30.8,31.4,29.3,31.4z M27.4,27.4c-0.7,0-1.3,0.6-1.3,1.3c0,0.7,0.6,1.3,1.3,1.3h1.9c0.7,0,1.3-0.6,1.3-1.3
		c0-0.7-0.6-1.3-1.3-1.3H27.4z"/>
	<path class="st0" d="M30.8,12.9c-3.1,0-5.5-2.5-5.5-5.5s2.5-5.5,5.5-5.5s5.5,2.5,5.5,5.5S33.9,12.9,30.8,12.9z M30.8,3.2
		c-2.3,0-4.1,1.9-4.1,4.1c0,2.3,1.9,4.1,4.1,4.1s4.1-1.9,4.1-4.1C34.9,5.1,33.1,3.2,30.8,3.2z"/>
	<path class="st0" d="M15.2,25.2c-3.5,0-6.3-2.8-6.3-6.3c0-3.5,2.8-6.3,6.3-6.3c3.5,0,6.3,2.8,6.3,6.3
		C21.5,22.3,18.6,25.2,15.2,25.2z M15.2,14c-2.7,0-4.9,2.2-4.9,4.9s2.2,4.9,4.9,4.9s4.9-2.2,4.9-4.9S17.9,14,15.2,14z"/>
	<path class="st0" d="M44.1,27.3c-0.2,0-0.4,0-0.6-0.1c-0.4-0.1-0.6-0.4-0.5-0.8c0.1-0.4,0.4-0.6,0.8-0.5c0.5,0.1,0.9,0,1.3-0.3
		c0.4-0.3,0.6-0.7,0.6-1.2c0-0.7-0.4-1.3-1-1.5l-8.3-2.3c-0.3-0.1-0.5-0.4-0.5-0.7v-4.6c0-1.4-0.7-2.6-1.9-3.2
		c-0.3-0.2-0.5-0.6-0.3-0.9c0.2-0.3,0.6-0.5,0.9-0.3c1.7,0.9,2.7,2.5,2.7,4.5v4.1l7.8,2.2c0,0,0,0,0,0c1.2,0.4,2,1.6,2,2.8
		c0,0.9-0.4,1.7-1.1,2.3C45.5,27.1,44.8,27.3,44.1,27.3z"/>
	<path class="st0" d="M23.8,21.3c-0.4,0-0.7-0.3-0.7-0.7v-5.7c0-1.8,1-3.5,2.7-4.3l1.2-0.6c0.3-0.2,0.8,0,0.9,0.3
		c0.2,0.3,0,0.8-0.3,0.9l-1.2,0.6c-1.2,0.6-1.9,1.7-1.9,3v5.7C24.5,21,24.2,21.3,23.8,21.3z"/>
	<path class="st0" d="M27.5,21.3c-0.4,0-0.7-0.3-0.7-0.7v-3.8c0-0.4,0.3-0.7,0.7-0.7s0.7,0.3,0.7,0.7v3.8
		C28.2,21,27.9,21.3,27.5,21.3z"/>
</g>
</svg>
