<?xml version="1.0" encoding="utf-8"?>
<!-- Generator: Adobe Illustrator 26.4.1, SVG Export Plug-In . SVG Version: 6.00 Build 0)  -->
<svg version="1.1" id="Layer_1" xmlns="http://www.w3.org/2000/svg" xmlns:xlink="http://www.w3.org/1999/xlink" x="0px" y="0px"
	 viewBox="0 0 50 50" style="enable-background:new 0 0 50 50;" xml:space="preserve">
<style type="text/css">
	.st0{fill:#474747;}
</style>
<g>
	<path class="st0" d="M19.3,26.4c-0.2,0-0.4-0.1-0.5-0.3c-0.2-0.3-0.2-0.7,0.1-0.9l6.7-5.3c0.3-0.2,0.7-0.2,0.9,0.1
		c0.2,0.3,0.2,0.7-0.1,0.9l-6.7,5.3C19.6,26.3,19.5,26.4,19.3,26.4z"/>
	<path class="st0" d="M18.2,34.2c-0.1,0-0.3,0-0.4,0c-2.5-0.2-4.7-2-5.2-4.5l-3-13.6c-0.3-1.4-0.1-2.9,0.7-4.1l0.9-1.5
		c0.2-0.3,0.6-0.4,0.9-0.2c0.3,0.2,0.4,0.6,0.2,0.9l-0.9,1.5c-0.6,0.9-0.8,2.1-0.5,3.1l3,13.6c0.4,1.9,2.1,3.3,4,3.5
		c1.4,0.1,2.7-0.4,3.6-1.5l6.8-7.5c0.2-0.2,0.4-0.3,0.6-0.2l10,2.2c0.6,0.1,1.3-0.2,1.5-0.8c0.1-0.3,0.1-0.7-0.1-1
		c-0.2-0.3-0.4-0.5-0.8-0.6l-10.1-3c-0.4-0.1-0.6-0.5-0.5-0.8c0.1-0.4,0.5-0.6,0.8-0.5l10.1,3c0.7,0.2,1.2,0.7,1.6,1.3
		c0.3,0.6,0.4,1.4,0.2,2c-0.4,1.3-1.7,2-3,1.8L29,25l-6.5,7.2C21.4,33.5,19.9,34.2,18.2,34.2z"/>
	<path class="st0" d="M16.9,24.1c-1.2,0-2.3-0.7-2.9-1.7c-0.2-0.3-0.1-0.7,0.3-0.9c0.3-0.2,0.7-0.1,0.9,0.3c0.4,0.6,1,1,1.8,1
		c0.9,0,1.8-0.7,2-1.6l1-4.7c0.1-0.4,0.4-0.6,0.8-0.5c0.4,0.1,0.6,0.4,0.5,0.8l-1,4.7C19.8,23,18.4,24.1,16.9,24.1z"/>
	<path class="st0" d="M21.1,14.6c0,0-0.1,0-0.1,0c-0.4-0.1-0.6-0.4-0.5-0.8l0.1-0.3c0.1-0.5-0.2-0.9-0.6-1.1c-0.4-0.1-0.8,0-1,0.3
		c-0.2,0.3-0.7,0.3-0.9,0.1c-0.3-0.2-0.3-0.7-0.1-0.9c0.6-0.7,1.6-1,2.5-0.7c1.1,0.4,1.7,1.5,1.5,2.6l-0.1,0.3
		C21.7,14.4,21.4,14.6,21.1,14.6z"/>
	<path class="st0" d="M22.9,11.8c0,0-0.1,0-0.1,0c-0.4-0.1-0.6-0.4-0.5-0.8l0.1-0.3c0.1-0.5-0.2-0.9-0.6-1.1c-0.4-0.1-0.8,0-1,0.3
		c-0.2,0.3-0.7,0.3-0.9,0.1c-0.3-0.2-0.3-0.7-0.1-0.9c0.6-0.7,1.6-1,2.5-0.7c1.1,0.4,1.7,1.5,1.5,2.6l-0.1,0.3
		C23.5,11.6,23.2,11.8,22.9,11.8z"/>
	<path class="st0" d="M16.5,20.1C16.5,20.1,16.5,20.1,16.5,20.1c-0.3,0-0.6-0.2-0.7-0.5l-1.1-4.4c-0.1-0.4,0.1-0.7,0.5-0.8
		c0.4-0.1,0.7,0.1,0.8,0.5l0.4,1.7l0.5-2.2c0.1-0.4,0.5-0.6,0.8-0.5c0.4,0.1,0.6,0.5,0.5,0.8l-1.2,4.8
		C17.1,19.9,16.8,20.1,16.5,20.1z"/>
	<path class="st0" d="M31.2,47.1c0,0-0.1,0-0.1,0c-0.8,0-1.6-0.4-2.1-1.1c-0.5-0.6-0.7-1.5-0.5-2.3l1.6-7.6c0.1-0.3-0.1-0.6-0.4-0.7
		c0,0,0,0,0,0l-5.8-1.8c-0.4-0.1-0.6-0.5-0.4-0.8c0.1-0.4,0.5-0.6,0.8-0.4l5.8,1.8c1,0.3,1.6,1.3,1.3,2.2L29.8,44
		c-0.1,0.4,0,0.8,0.3,1.2c0.3,0.3,0.6,0.5,1.1,0.5c0.7,0,1.3-0.5,1.4-1.1l1.8-9c0,0,0,0,0,0c0.4-1.4-0.4-2.9-1.7-3.5l-5.2-2.2
		c-0.3-0.1-0.5-0.5-0.4-0.9c0.1-0.3,0.5-0.5,0.9-0.4l5.2,2.2c0,0,0,0,0,0c2,0.9,3,3,2.5,5.1l-1.8,9C33.7,46.2,32.5,47.1,31.2,47.1z"
		/>
	<path class="st0" d="M40.5,27.5c-0.1,0-0.3,0-0.4-0.1L16.9,12.3c-0.3-0.2-0.4-0.6-0.2-0.9c0.2-0.3,0.6-0.4,0.9-0.2l23.2,15.1
		c0.3,0.2,0.4,0.6,0.2,0.9C40.9,27.4,40.7,27.5,40.5,27.5z"/>
	<path class="st0" d="M36.7,22.3c-0.2,0-0.3-0.1-0.4-0.2L22.5,10.4c-0.3-0.2-0.3-0.7-0.1-1c0.2-0.3,0.7-0.3,1-0.1l13.7,11.8
		c0.3,0.2,0.3,0.7,0.1,1C37.1,22.3,36.9,22.3,36.7,22.3z"/>
	<path class="st0" d="M14.9,12.9c-2.8,0-5-2.2-5-5c0-2.8,2.2-5,5-5c2.8,0,5,2.2,5,5C19.9,10.7,17.7,12.9,14.9,12.9z M14.9,4.3
		c-2,0-3.6,1.6-3.6,3.6c0,2,1.6,3.6,3.6,3.6s3.6-1.6,3.6-3.6C18.6,5.9,17,4.3,14.9,4.3z"/>
	<path class="st0" d="M23.4,36.7H11c-1.6,0-2.8-1.3-2.8-2.8v-1.8c0-1.6,1.3-2.8,2.8-2.8c0.4,0,0.7,0.3,0.7,0.7
		c0,0.4-0.3,0.7-0.7,0.7c-0.8,0-1.5,0.7-1.5,1.5v1.8c0,0.8,0.7,1.5,1.5,1.5h12.3c0.8,0,1.5-0.7,1.5-1.5v-0.3c0-0.4,0.3-0.7,0.7-0.7
		s0.7,0.3,0.7,0.7v0.3C26.2,35.4,24.9,36.7,23.4,36.7z"/>
	<path class="st0" d="M10.4,47c-0.4,0-0.7-0.3-0.7-0.7V36.1c0-0.4,0.3-0.7,0.7-0.7c0.4,0,0.7,0.3,0.7,0.7v10.2
		C11.1,46.7,10.8,47,10.4,47z"/>
	<path class="st0" d="M23.4,47c-0.4,0-0.7-0.3-0.7-0.7V36.1c0-0.4,0.3-0.7,0.7-0.7c0.4,0,0.7,0.3,0.7,0.7v10.2
		C24,46.7,23.7,47,23.4,47z"/>
</g>
</svg>
