<?xml version="1.0" encoding="utf-8"?>
<!-- Generator: Adobe Illustrator 26.5.0, SVG Export Plug-In . SVG Version: 6.00 Build 0)  -->
<svg version="1.1" id="Footballer" xmlns="http://www.w3.org/2000/svg" xmlns:xlink="http://www.w3.org/1999/xlink" x="0px" y="0px"
	 viewBox="0 0 700 465.9" style="enable-background:new 0 0 700 465.9;" xml:space="preserve">
<style type="text/css">
	.st0{fill:#3A8E17;}
	.st1{fill:#60934C;}
	.st2{fill:#42B214;}
	.st3{fill:#79B75F;}
	.st4{fill:#13BEF2;}
	.st5{fill:#50C026;}
	.st6{fill:#183807;}
	.st7{fill:#97D87C;}
	.st8{fill:#30B77D;}
	.st9{fill:#75E846;}
	.st10{fill:#FF8F6B;}
	.st11{fill:#DA4018;}
	.st12{fill:#FFFFFF;}
	.st13{fill:#306818;}
	.st14{fill:#F65B2B;}
	.st15{fill:#D49C81;}
	.st16{fill:#C67A56;}
	.st17{fill:#FFBA55;}
</style>
<g>
	<g id="Grass">
		<path class="st0" d="M428.5,336.1c0.6-4.3,1.5-9,2.5-13.6c0.2-1,0.5-2,0.7-3c0.2-1,0.5-2,0.8-3c0.3-1,0.6-1.9,0.8-2.9
			c0.3-1,0.6-1.9,0.9-2.8c0.6-1.8,1.2-3.6,1.9-5.2c0.2-0.4,0.3-0.8,0.5-1.2c0.2-0.4,0.3-0.8,0.5-1.2c0.2-0.4,0.3-0.8,0.5-1.1
			c0.2-0.4,0.4-0.7,0.5-1.1c0.3-0.7,0.7-1.3,1.1-2c0.3-0.6,0.7-1.2,1-1.7c0.3-0.5,0.7-1,1-1.5c0.2-0.2,0.3-0.4,0.5-0.6
			c0.2-0.2,0.3-0.4,0.5-0.5c0.3-0.3,0.6-0.7,0.8-0.9c0.3-0.2,0.5-0.5,0.6-0.6c0.4-0.3,0.5-0.5,0.5-0.5s-0.2,0.2-0.6,0.5
			c-0.2,0.2-0.4,0.3-0.7,0.6c-0.3,0.2-0.5,0.5-0.9,0.9c-0.2,0.2-0.3,0.3-0.5,0.5c-0.2,0.2-0.3,0.4-0.5,0.6c-0.4,0.4-0.8,0.9-1.1,1.4
			c-0.4,0.5-0.8,1-1.2,1.7c-0.4,0.6-0.8,1.2-1.2,1.9c-0.2,0.3-0.4,0.7-0.6,1c-0.2,0.4-0.4,0.7-0.6,1.1c-0.2,0.4-0.4,0.8-0.6,1.1
			c-0.2,0.4-0.4,0.8-0.6,1.2c-0.8,1.6-1.6,3.4-2.4,5.2c-0.4,0.9-0.7,1.8-1.1,2.8c-0.4,0.9-0.7,1.9-1.1,2.9c-0.3,1-0.7,2-1,3
			c-0.3,1-0.7,2-1,3c-1.5,4.8-2.7,9.6-3.7,14C426,335.9,427.2,336,428.5,336.1z"/>
		<path class="st0" d="M320.8,333.2c0.6-3.5,1.3-7.1,2.1-10.7c0.2-1,0.5-2,0.7-3c0.2-1,0.5-2,0.8-3c0.3-1,0.6-1.9,0.8-2.9
			c0.3-1,0.6-1.9,0.9-2.8c0.6-1.8,1.2-3.6,1.9-5.2c0.2-0.4,0.3-0.8,0.5-1.2c0.2-0.4,0.3-0.8,0.5-1.2c0.2-0.4,0.3-0.8,0.5-1.1
			c0.2-0.4,0.4-0.7,0.5-1.1c0.3-0.7,0.7-1.3,1.1-2c0.3-0.6,0.7-1.2,1-1.7c0.3-0.5,0.7-1,1-1.5c0.2-0.2,0.3-0.4,0.5-0.6
			c0.2-0.2,0.3-0.4,0.5-0.5c0.3-0.3,0.6-0.7,0.8-0.9c0.3-0.2,0.5-0.5,0.6-0.6c0.4-0.3,0.5-0.5,0.5-0.5s-0.2,0.2-0.6,0.5
			c-0.2,0.2-0.4,0.3-0.7,0.6c-0.3,0.2-0.5,0.5-0.9,0.9c-0.2,0.2-0.3,0.3-0.5,0.5c-0.2,0.2-0.3,0.4-0.5,0.6c-0.4,0.4-0.8,0.9-1.1,1.4
			c-0.4,0.5-0.8,1-1.2,1.7c-0.4,0.6-0.8,1.2-1.2,1.9c-0.2,0.3-0.4,0.7-0.6,1c-0.2,0.4-0.4,0.7-0.6,1.1c-0.2,0.4-0.4,0.8-0.6,1.1
			c-0.2,0.4-0.4,0.8-0.6,1.2c-0.8,1.6-1.6,3.4-2.4,5.2c-0.4,0.9-0.7,1.8-1.1,2.8c-0.4,0.9-0.7,1.9-1.1,2.9c-0.3,1-0.7,2-1,3
			c-0.3,1-0.7,2-1,3c-1.2,3.8-2.2,7.7-3.1,11.4C318.4,333.2,319.6,333.2,320.8,333.2z"/>
		<path class="st1" d="M376.1,384.4c0,0,0.3,0,1-0.1c0.6-0.1,1.6-0.2,2.8-0.2c2.4-0.2,5.8-0.3,9.8-0.3c8.1,0,19,0.6,29.7,2.3
			c5.3,0.9,10.7,2,15.5,3.5c2.4,0.8,4.7,1.6,6.9,2.6c2.1,1,4.1,2,5.7,3.2c1.7,1.2,3.1,2.4,4.1,3.8c1,1.3,1.7,2.6,2,3.8
			c0.4,1.1,0.4,2.1,0.4,2.7c0,0.6,0,1,0,1s0-0.3,0-1c-0.1-0.6-0.1-1.6-0.5-2.7c-0.4-1.1-1-2.4-2.1-3.7c-1-1.3-2.4-2.5-4.1-3.6
			c-1.7-1.1-3.6-2.1-5.7-3.1c-2.1-0.9-4.4-1.7-6.9-2.4c-4.8-1.4-10.2-2.5-15.5-3.2c-10.7-1.5-21.5-1.9-29.6-1.7
			c-4,0.1-7.4,0.3-9.7,0.5c-1.2,0.1-2.1,0.2-2.7,0.3c-0.6,0.1-1,0.1-1,0.1c-0.5,0.1-0.9-0.3-0.9-0.7S375.7,384.5,376.1,384.4
			C376.1,384.4,376.1,384.4,376.1,384.4z"/>
		<path class="st2" d="M252.5,310.9c0.2,0.3,0.3,0.6,0.5,1c0.2,0.4,0.4,0.8,0.6,1.2c0.2,0.4,0.4,0.9,0.6,1.4
			c0.1,0.2,0.2,0.5,0.3,0.7c0.1,0.3,0.2,0.5,0.3,0.8c0.2,0.5,0.4,1.1,0.6,1.7c0.1,0.3,0.2,0.6,0.3,0.9c0.1,0.3,0.2,0.6,0.3,0.9
			c0.4,1.3,0.8,2.6,1.1,4c0.2,0.7,0.3,1.4,0.5,2.2c0.1,0.7,0.3,1.5,0.4,2.2c0.3,1.5,0.5,3,0.7,4.6c0.1,0.9,0.2,1.9,0.3,2.8
			c1-0.1,1.9-0.1,2.9-0.2c-0.2-1-0.4-2.1-0.7-3.1c-0.4-1.5-0.8-3.1-1.2-4.6c-0.2-0.8-0.5-1.5-0.7-2.2c-0.2-0.7-0.5-1.4-0.7-2.1
			c-0.5-1.4-1-2.7-1.6-4c-0.1-0.3-0.3-0.6-0.4-0.9c-0.1-0.3-0.3-0.6-0.4-0.9c-0.3-0.6-0.6-1.1-0.8-1.6c-0.1-0.3-0.3-0.5-0.4-0.8
			c-0.1-0.2-0.3-0.5-0.4-0.7c-0.3-0.5-0.5-0.9-0.8-1.3c-0.3-0.4-0.5-0.8-0.7-1.1c-0.2-0.3-0.5-0.7-0.7-0.9c-0.4-0.6-0.7-1-1-1.3
			c-0.2-0.3-0.3-0.4-0.3-0.4s0.1,0.2,0.3,0.5C251.9,309.9,252.2,310.3,252.5,310.9z"/>
		<path class="st2" d="M264,245.3c0.3,0.5,0.7,1.2,1.1,1.9c0.4,0.7,0.8,1.5,1.2,2.4c0.1,0.2,0.2,0.4,0.3,0.7
			c0.1,0.2,0.2,0.5,0.3,0.7c0.2,0.5,0.5,1,0.7,1.5c0.2,0.5,0.5,1,0.7,1.6c0.3,0.5,0.5,1.1,0.7,1.7c0.2,0.6,0.5,1.2,0.7,1.8
			c0.1,0.3,0.3,0.6,0.4,0.9c0.1,0.3,0.2,0.6,0.4,1c0.2,0.6,0.5,1.3,0.7,2c0.3,0.7,0.5,1.4,0.8,2.1c0.5,1.4,1,2.9,1.5,4.4
			c0.5,1.5,1,3.1,1.4,4.7c0.2,0.8,0.5,1.6,0.7,2.4c0.2,0.8,0.5,1.6,0.7,2.5c0.4,1.7,0.9,3.4,1.3,5.1c0.2,0.9,0.4,1.7,0.6,2.6
			c0.2,0.9,0.4,1.8,0.6,2.7c0.2,0.9,0.4,1.8,0.6,2.7c0.2,0.9,0.3,1.8,0.5,2.7c0.4,1.8,0.7,3.6,1,5.4c0.3,1.8,0.6,3.6,0.9,5.5
			c0.3,1.8,0.5,3.6,0.8,5.4c0.5,3.6,0.9,7.1,1.3,10.6c0.4,3.4,0.7,6.8,1,9.9c0.1,1.4,0.2,2.8,0.3,4.2c1.4-0.1,2.8-0.1,4.2-0.2
			c-0.2-1.4-0.4-2.9-0.6-4.4c-0.4-3.2-0.9-6.5-1.4-10c-0.5-3.4-1.1-7-1.8-10.6c-0.3-1.8-0.7-3.6-1-5.4c-0.4-1.8-0.7-3.6-1.1-5.5
			c-0.4-1.8-0.8-3.6-1.2-5.4c-0.2-0.9-0.4-1.8-0.6-2.7c-0.2-0.9-0.5-1.8-0.7-2.7c-0.2-0.9-0.4-1.8-0.7-2.6c-0.2-0.9-0.5-1.7-0.7-2.6
			c-0.5-1.7-1-3.4-1.5-5.1c-0.2-0.8-0.5-1.7-0.8-2.5c-0.3-0.8-0.5-1.6-0.8-2.4c-0.5-1.6-1.1-3.1-1.6-4.6c-0.5-1.5-1.1-2.9-1.7-4.3
			c-0.3-0.7-0.6-1.4-0.8-2c-0.3-0.7-0.6-1.3-0.8-2c-0.1-0.3-0.3-0.6-0.4-0.9c-0.1-0.3-0.3-0.6-0.4-0.9c-0.3-0.6-0.6-1.2-0.8-1.8
			c-0.3-0.6-0.5-1.1-0.8-1.7c-0.3-0.5-0.5-1.1-0.8-1.6c-0.3-0.5-0.5-1-0.8-1.5c-0.1-0.2-0.2-0.5-0.4-0.7c-0.1-0.2-0.3-0.4-0.4-0.6
			c-0.5-0.8-0.9-1.6-1.3-2.3c-0.4-0.7-0.8-1.3-1.1-1.8c-0.3-0.5-0.6-1-0.9-1.3c-0.5-0.7-0.7-1.1-0.7-1.1s0.2,0.4,0.7,1.2
			C263.4,244.3,263.7,244.8,264,245.3z"/>
		<path class="st2" d="M327.4,333.1c0-0.9-0.1-1.7-0.1-2.6c-0.1-3.1-0.2-6.3-0.2-9.6c0-1.7,0-3.4,0.1-5.1c0.1-1.7,0.1-3.4,0.2-5.2
			c0.2-3.5,0.5-7,1-10.5c0.1-0.9,0.3-1.8,0.4-2.6c0.1-0.9,0.3-1.8,0.4-2.6c0.2-0.9,0.3-1.7,0.5-2.6c0.2-0.9,0.4-1.7,0.6-2.6
			c0.8-3.4,1.7-6.7,2.8-9.9c1-3.2,2.2-6.2,3.3-9c0.6-1.4,1.2-2.8,1.8-4.1c0.6-1.3,1.2-2.6,1.8-3.8c0.6-1.2,1.2-2.3,1.8-3.4
			c0.6-1.1,1.2-2.1,1.7-3c0.5-1,1.1-1.8,1.5-2.6c0.5-0.8,0.9-1.6,1.3-2.2c1.7-2.6,2.7-4.2,2.7-4.2s-1,1.5-2.8,4
			c-0.4,0.7-0.9,1.4-1.4,2.2c-0.5,0.8-1.1,1.6-1.7,2.6c-0.6,0.9-1.2,1.9-1.8,3c-0.6,1.1-1.3,2.2-1.9,3.4c-0.6,1.2-1.3,2.4-2,3.7
			c-0.7,1.3-1.3,2.7-2,4c-1.3,2.8-2.6,5.8-3.8,9c-1.2,3.2-2.3,6.5-3.3,9.9c-0.2,0.9-0.5,1.7-0.7,2.6c-0.2,0.9-0.4,1.7-0.6,2.6
			c-0.2,0.9-0.4,1.8-0.6,2.6c-0.2,0.9-0.4,1.8-0.5,2.7c-0.7,3.6-1.2,7.1-1.5,10.7c-0.2,1.8-0.3,3.5-0.5,5.3
			c-0.1,1.7-0.2,3.5-0.3,5.2c-0.1,3.4-0.2,6.7-0.2,9.8c0,0.9,0,1.7,0,2.6C324.6,333.1,326,333.1,327.4,333.1z"/>
		<path class="st0" d="M339.5,333.1c0-0.2,0-0.4,0.1-0.6c0.2-1.5,0.4-3.1,0.7-4.6c0.1-0.8,0.3-1.5,0.4-2.2c0.2-0.7,0.3-1.4,0.5-2.2
			c0.4-1.4,0.7-2.8,1.1-4c0.1-0.3,0.2-0.6,0.3-0.9c0.1-0.3,0.2-0.6,0.3-0.9c0.2-0.6,0.4-1.2,0.6-1.7c0.1-0.3,0.2-0.5,0.3-0.8
			c0.1-0.3,0.2-0.5,0.3-0.7c0.2-0.5,0.4-0.9,0.6-1.4c0.2-0.4,0.4-0.8,0.6-1.2c0.2-0.4,0.4-0.7,0.5-1c0.3-0.6,0.6-1,0.8-1.4
			c0.2-0.3,0.3-0.5,0.3-0.5s-0.1,0.2-0.3,0.4c-0.2,0.3-0.6,0.7-1,1.3c-0.2,0.3-0.4,0.6-0.7,0.9c-0.2,0.3-0.5,0.7-0.7,1.1
			c-0.3,0.4-0.5,0.8-0.8,1.3c-0.1,0.2-0.3,0.5-0.4,0.7c-0.1,0.2-0.3,0.5-0.4,0.8c-0.3,0.5-0.6,1.1-0.8,1.6c-0.1,0.3-0.3,0.6-0.4,0.9
			c-0.1,0.3-0.3,0.6-0.4,0.9c-0.6,1.2-1.1,2.6-1.6,4c-0.3,0.7-0.5,1.4-0.7,2.1c-0.2,0.7-0.5,1.5-0.7,2.2c-0.4,1.5-0.8,3-1.2,4.6
			c-0.1,0.4-0.2,0.7-0.3,1.1C337.7,333.1,338.6,333.1,339.5,333.1z"/>
		<path class="st2" d="M317.4,203.8c0.2,0.3,0.5,0.7,0.8,1.1c0.3,0.4,0.5,0.9,0.8,1.3c0.6,0.9,1.2,2,1.9,3.1
			c0.7,1.1,1.3,2.4,2.1,3.7c0.8,1.3,1.4,2.8,2.2,4.3c0.4,0.8,0.8,1.5,1.2,2.4c0.4,0.8,0.7,1.7,1.1,2.5c0.4,0.9,0.8,1.7,1.2,2.6
			c0.4,0.9,0.7,1.8,1.1,2.8c0.4,0.9,0.8,1.9,1.1,2.9c0.4,1,0.7,2,1.1,3c0.2,0.5,0.4,1,0.5,1.5c0.1,0.3,0.2,0.5,0.3,0.8
			c0.1,0.3,0.2,0.5,0.3,0.8c0.3,1,0.7,2.1,1,3.2c0.2,0.5,0.4,1.1,0.5,1.6c0.2,0.5,0.3,1.1,0.5,1.6c0.3,1.1,0.7,2.2,1,3.3
			c0.3,1.1,0.6,2.3,0.9,3.4c0.3,1.1,0.6,2.3,0.9,3.5c0.3,1.2,0.6,2.3,0.9,3.5c0.3,1.2,0.6,2.4,0.8,3.6c0.3,1.2,0.5,2.4,0.8,3.6
			c0.1,0.6,0.3,1.2,0.4,1.8c0.1,0.6,0.2,1.2,0.4,1.8c0.2,1.2,0.5,2.4,0.7,3.7c0.2,1.2,0.4,2.5,0.7,3.7c0.9,4.9,1.7,9.8,2.4,14.7
			c0.7,4.9,1.3,9.7,1.8,14.3c0.5,4.6,0.9,9.2,1.3,13.4c0.3,4.3,0.6,8.3,0.8,12c0.1,1.3,0.1,2.5,0.2,3.7c2.2,0,4.3,0,6.5,0.1
			c-0.1-1.4-0.3-2.8-0.4-4.3c-0.4-3.8-0.9-7.8-1.4-12.1c-0.6-4.3-1.2-8.8-1.9-13.5c-0.7-4.7-1.6-9.5-2.5-14.4
			c-0.9-4.9-1.9-9.8-3.1-14.7c-0.3-1.2-0.6-2.5-0.9-3.7c-0.3-1.2-0.6-2.4-0.9-3.7c-0.2-0.6-0.3-1.2-0.5-1.8
			c-0.2-0.6-0.3-1.2-0.5-1.8c-0.3-1.2-0.7-2.4-1-3.6c-0.3-1.2-0.7-2.4-1-3.6c-0.3-1.2-0.7-2.4-1-3.5c-0.4-1.2-0.7-2.3-1.1-3.5
			c-0.4-1.1-0.7-2.3-1.1-3.4c-0.4-1.1-0.8-2.2-1.2-3.3c-0.2-0.5-0.4-1.1-0.6-1.6c-0.2-0.5-0.4-1.1-0.6-1.6c-0.4-1.1-0.8-2.1-1.2-3.2
			c-0.1-0.3-0.2-0.5-0.3-0.8c-0.1-0.3-0.2-0.5-0.3-0.8c-0.2-0.5-0.4-1-0.6-1.5c-0.4-1-0.8-2-1.2-3c-0.4-1-0.9-1.9-1.3-2.8
			c-0.4-0.9-0.8-1.8-1.2-2.7c-0.4-0.9-0.9-1.7-1.3-2.6c-0.4-0.8-0.8-1.7-1.2-2.5c-0.4-0.8-0.9-1.6-1.3-2.3c-0.8-1.5-1.6-2.9-2.4-4.2
			c-0.8-1.3-1.6-2.5-2.3-3.6c-0.8-1.1-1.5-2.1-2.1-3c-0.3-0.5-0.6-0.9-0.9-1.3c-0.3-0.4-0.6-0.7-0.8-1.1c-0.5-0.7-1-1.2-1.3-1.7
			c-0.7-0.9-1.1-1.4-1.1-1.4s0.4,0.5,1.1,1.5C316.4,202.5,316.9,203.1,317.4,203.8z"/>
		<path class="st0" d="M360.1,320c0.1,0.2,0.2,0.4,0.3,0.6c0.1,0.2,0.2,0.4,0.3,0.7c0.2,0.5,0.4,1.1,0.5,1.7
			c0.7,2.5,1.2,5.9,1.4,9.3c0,0.4,0,0.7,0.1,1.1c1,0,1.9,0,2.9,0.1c-0.1-0.5-0.3-1-0.4-1.5c-0.9-3.4-2-6.8-3.2-9.2
			c-0.3-0.6-0.6-1.1-0.9-1.6c-0.1-0.2-0.3-0.4-0.4-0.6c-0.1-0.2-0.2-0.4-0.4-0.5c-0.2-0.3-0.4-0.5-0.6-0.7c-0.1-0.2-0.2-0.2-0.2-0.2
			s0.1,0.1,0.2,0.3C359.8,319.4,359.9,319.7,360.1,320z"/>
		<path class="st2" d="M358.4,293.8c0.2,0.3,0.5,0.6,0.8,0.9c0.1,0.2,0.3,0.3,0.5,0.5c0.1,0.2,0.3,0.4,0.5,0.6
			c0.3,0.4,0.7,0.9,1,1.5c0.3,0.5,0.7,1.1,1,1.7c0.3,0.6,0.7,1.3,1.1,2c0.2,0.3,0.4,0.7,0.5,1.1c0.2,0.4,0.3,0.7,0.5,1.1
			c0.2,0.4,0.3,0.8,0.5,1.2c0.2,0.4,0.3,0.8,0.5,1.2c0.7,1.6,1.3,3.4,1.9,5.2c0.3,0.9,0.6,1.9,0.9,2.8c0.3,1,0.6,1.9,0.8,2.9
			c0.3,1,0.5,2,0.8,3c0.3,1,0.5,2,0.7,3c0.8,3.7,1.6,7.4,2.1,11c1.2,0,2.4,0.1,3.6,0.1c-0.9-3.8-2-7.8-3.2-11.7c-0.3-1-0.6-2-1-3
			c-0.3-1-0.7-2-1-3c-0.3-1-0.7-1.9-1.1-2.9c-0.4-0.9-0.7-1.9-1.1-2.8c-0.8-1.8-1.5-3.6-2.4-5.2c-0.2-0.4-0.4-0.8-0.6-1.2
			c-0.2-0.4-0.4-0.8-0.6-1.1c-0.2-0.4-0.4-0.7-0.6-1.1c-0.2-0.4-0.4-0.7-0.6-1c-0.4-0.7-0.8-1.3-1.2-1.9c-0.4-0.6-0.8-1.1-1.2-1.7
			c-0.4-0.5-0.8-1-1.1-1.4c-0.2-0.2-0.4-0.4-0.5-0.6c-0.2-0.2-0.3-0.4-0.5-0.5C359,294.2,358.8,293.9,358.4,293.8
			c-0.2-0.3-0.4-0.5-0.6-0.7c-0.4-0.3-0.6-0.5-0.6-0.5s0.2,0.2,0.5,0.5C357.9,293.3,358.2,293.5,358.4,293.8z"/>
		<path class="st3" d="M434.1,336.5c0.2-3.2,0.7-6.4,1.4-8.7c0.2-0.6,0.4-1.2,0.5-1.7c0.1-0.2,0.2-0.5,0.3-0.7
			c0.1-0.2,0.2-0.4,0.3-0.6c0.2-0.3,0.3-0.6,0.4-0.8c0.1-0.2,0.2-0.3,0.2-0.3s-0.1,0.1-0.2,0.2c-0.1,0.2-0.3,0.4-0.6,0.7
			c-0.1,0.2-0.2,0.3-0.4,0.5c-0.1,0.2-0.3,0.4-0.4,0.6c-0.3,0.5-0.6,1-0.9,1.6c-1.2,2.3-2.3,5.5-3.2,8.8
			C432.4,336.4,433.3,336.4,434.1,336.5z"/>
		<path class="st2" d="M427.4,258.1c0.7,6.1,1.5,12.2,2.4,18.2c0.9,6,1.8,11.9,2.8,17.6c2,11.4,4.1,21.9,6,31
			c0.9,4.5,1.8,8.5,2.6,12.2c2.4,0.2,4.8,0.4,7.1,0.6c-1-4.1-2.3-8.9-3.6-14.2c-2.2-8.9-4.7-19.3-7.1-30.5
			c-1.2-5.6-2.4-11.4-3.5-17.3c-1.1-5.9-2.1-11.9-3-18c-0.9-6-1.7-12.1-2.3-18.1c-0.6-6-1-11.9-1.2-17.6c-0.2-5.7-0.2-11.3,0-16.5
			c0.3-5.2,0.8-10.2,1.5-14.7c0.7-4.5,1.7-8.6,2.8-12.2c1.1-3.5,2.4-6.6,3.6-8.9c0.1-0.3,0.3-0.6,0.4-0.9c0.2-0.3,0.3-0.5,0.4-0.8
			c0.3-0.5,0.5-1,0.8-1.5c0.3-0.4,0.5-0.8,0.8-1.2c0.2-0.4,0.4-0.7,0.7-1c0.8-1.2,1.3-1.8,1.3-1.8s-0.5,0.6-1.4,1.7
			c-0.2,0.3-0.5,0.6-0.7,1c-0.3,0.4-0.5,0.8-0.8,1.2c-0.3,0.4-0.6,0.9-0.9,1.4c-0.2,0.3-0.3,0.5-0.5,0.8c-0.2,0.3-0.3,0.6-0.5,0.9
			c-1.3,2.4-2.7,5.3-3.9,8.9c-1.3,3.5-2.4,7.6-3.3,12.2c-0.9,4.5-1.6,9.5-2.1,14.8c-0.5,5.3-0.7,10.9-0.7,16.7
			c0,5.8,0.2,11.8,0.6,17.8C426.2,245.9,426.7,252,427.4,258.1z"/>
		<path class="st2" d="M440.6,277.4c0.2,0.4,0.5,0.8,0.8,1.3c0.3,0.5,0.6,1.1,0.9,1.7c0.3,0.6,0.7,1.3,1,2c0.2,0.4,0.4,0.7,0.5,1.1
			c0.2,0.4,0.4,0.8,0.5,1.2c0.2,0.4,0.4,0.8,0.6,1.3c0.2,0.4,0.4,0.9,0.5,1.3c0.2,0.5,0.4,0.9,0.6,1.4c0.2,0.5,0.4,1,0.5,1.5
			c0.2,0.5,0.4,1,0.5,1.5c0.2,0.5,0.3,1.1,0.5,1.6c0.2,0.5,0.4,1.1,0.5,1.6c0.2,0.6,0.3,1.1,0.5,1.7c0.3,1.1,0.6,2.3,0.9,3.5
			c0.3,1.2,0.6,2.4,0.8,3.6c0.2,1.2,0.5,2.5,0.7,3.8c0.1,0.6,0.2,1.3,0.3,1.9c0.1,0.6,0.2,1.3,0.3,1.9c0.2,1.3,0.4,2.6,0.6,3.9
			c0.3,2.6,0.6,5.2,0.8,7.8c0.2,2.6,0.4,5.1,0.5,7.6c0.1,2.6,0.2,5.2,0.3,7.6c2.3,0.2,4.7,0.4,7,0.7c-0.3-2.8-0.7-5.8-1.2-8.9
			c-0.4-2.5-0.8-5.1-1.3-7.7c-0.5-2.6-1.1-5.2-1.7-7.8c-0.3-1.3-0.6-2.6-1-3.9c-0.2-0.6-0.3-1.3-0.5-1.9c-0.2-0.6-0.4-1.3-0.6-1.9
			c-0.4-1.3-0.8-2.5-1.2-3.8c-0.4-1.2-0.8-2.4-1.2-3.6c-0.4-1.2-0.8-2.3-1.3-3.5c-0.2-0.6-0.4-1.1-0.7-1.7c-0.2-0.5-0.5-1.1-0.7-1.6
			c-0.2-0.5-0.5-1-0.7-1.6c-0.2-0.5-0.5-1-0.7-1.5c-0.2-0.5-0.5-1-0.7-1.4c-0.2-0.5-0.5-0.9-0.7-1.4c-0.2-0.4-0.5-0.9-0.7-1.3
			c-0.2-0.4-0.5-0.8-0.7-1.2c-0.2-0.4-0.4-0.8-0.7-1.2c-0.2-0.4-0.5-0.7-0.7-1.1c-0.4-0.7-0.8-1.3-1.2-1.9c-0.4-0.6-0.8-1.1-1.1-1.6
			c-0.3-0.5-0.6-0.9-0.9-1.2c-0.3-0.4-0.5-0.7-0.7-0.9c-0.4-0.5-0.6-0.8-0.6-0.8s0.2,0.3,0.5,0.8C440.2,276.7,440.4,277,440.6,277.4
			z"/>
		<path class="st2" d="M451.9,141.2c0.6,1,1.4,2.2,2.1,3.5c0.8,1.4,1.6,2.8,2.5,4.5c0.2,0.4,0.5,0.8,0.7,1.3
			c0.2,0.4,0.4,0.9,0.7,1.3c0.5,0.9,0.9,1.8,1.4,2.8c0.5,1,1,2,1.5,3c0.5,1,0.9,2.1,1.4,3.2c0.5,1.1,1,2.2,1.5,3.4
			c0.5,1.2,0.9,2.4,1.4,3.6c0.5,1.2,1,2.5,1.5,3.8c0.4,1.3,0.9,2.6,1.4,4c0.2,0.7,0.5,1.4,0.7,2c0.2,0.7,0.5,1.4,0.7,2.1
			c0.4,1.4,0.8,2.9,1.3,4.3c0.2,0.7,0.4,1.5,0.6,2.2c0.2,0.7,0.4,1.5,0.6,2.3c0.4,1.5,0.8,3,1.1,4.6c0.4,1.5,0.7,3.1,1,4.7
			c0.3,1.6,0.7,3.2,0.9,4.8c0.3,1.6,0.6,3.3,0.8,4.9c0.2,0.8,0.3,1.7,0.4,2.5c0.1,0.8,0.2,1.7,0.3,2.5c0.5,3.4,0.8,6.8,1.2,10.2
			c0.2,1.7,0.3,3.5,0.4,5.2c0.1,0.9,0.1,1.7,0.2,2.6c0,0.9,0.1,1.8,0.1,2.6c0.1,1.8,0.2,3.5,0.2,5.3c0,1.8,0.1,3.5,0.1,5.3
			c0.1,7.1,0.1,14.1-0.3,21c-0.3,6.9-0.7,13.8-1.2,20.4c-0.2,3.3-0.6,6.5-0.8,9.7c-0.3,3.2-0.6,6.3-0.9,9.3
			c-0.6,6.1-1.2,11.8-1.8,17.1c-0.6,5.3-1.1,10.2-1.5,14.5c-0.1,1.5-0.3,2.9-0.4,4.2c2.7,0.3,5.4,0.6,8.1,1c0.1-1.4,0.2-3,0.2-4.6
			c0.2-4.3,0.6-9.2,0.9-14.5c0.4-5.3,0.8-11.1,1.1-17.2c0.2-3,0.4-6.2,0.6-9.4c0.2-3.2,0.3-6.5,0.5-9.8c0.3-6.7,0.4-13.6,0.4-20.6
			c0-7-0.2-14.2-0.6-21.3c-0.1-1.8-0.2-3.6-0.3-5.3c-0.1-1.8-0.3-3.6-0.5-5.3c-0.1-0.9-0.2-1.8-0.2-2.7c-0.1-0.9-0.2-1.8-0.3-2.6
			c-0.2-1.8-0.4-3.5-0.6-5.3c-0.5-3.5-1-6.9-1.6-10.3c-0.2-0.8-0.3-1.7-0.5-2.5c-0.2-0.8-0.3-1.7-0.5-2.5c-0.4-1.7-0.7-3.3-1.1-5
			c-0.3-1.6-0.8-3.2-1.1-4.8c-0.4-1.6-0.8-3.2-1.2-4.7c-0.4-1.5-0.9-3.1-1.3-4.6c-0.2-0.8-0.4-1.5-0.7-2.3c-0.2-0.7-0.5-1.5-0.7-2.2
			c-0.5-1.5-1-2.9-1.4-4.3c-0.2-0.7-0.5-1.4-0.8-2.1c-0.3-0.7-0.5-1.4-0.8-2c-0.5-1.3-1-2.7-1.5-4c-0.6-1.3-1.1-2.5-1.6-3.8
			c-0.5-1.2-1-2.4-1.6-3.6c-0.6-1.1-1.1-2.3-1.6-3.4c-0.5-1.1-1.1-2.2-1.6-3.2c-0.5-1-1.1-2-1.6-2.9c-0.5-1-1-1.9-1.5-2.8
			c-0.2-0.4-0.5-0.9-0.7-1.3c-0.2-0.4-0.5-0.8-0.7-1.2c-1-1.6-1.9-3.1-2.7-4.4c-0.8-1.3-1.6-2.5-2.3-3.5c-0.7-1-1.3-1.8-1.7-2.5
			c-0.9-1.4-1.4-2.1-1.4-2.1s0.5,0.8,1.4,2.2C450.8,139.3,451.3,140.2,451.9,141.2z"/>
		<path class="st3" d="M465.7,234.6c0.3,0.2,0.6,0.5,1,0.7c0.3,0.3,0.7,0.5,1.1,0.9c0.4,0.3,0.8,0.7,1.2,1c1.7,1.4,3.8,3.3,5.9,5.6
			c2.1,2.3,4.4,5,6.6,8.2c2.2,3.2,4.4,6.7,6.4,10.7c2,3.9,3.9,8.2,5.6,12.7c1.7,4.5,3.2,9.2,4.6,14.1c1.3,4.9,2.5,9.9,3.5,14.9
			c1,5,1.8,10.1,2.4,15.1c0.7,5,1.2,10,1.5,14.7c0.3,4,0.6,7.9,0.7,11.6c2.3,0.4,4.5,0.7,6.8,1.1c-0.4-4.3-0.9-8.8-1.5-13.4
			c-0.6-4.9-1.4-9.9-2.4-14.9c-0.9-5.1-2-10.2-3.3-15.2c-1.3-5.1-2.7-10.1-4.3-15c-1.6-4.9-3.4-9.6-5.4-14.1
			c-2-4.5-4.1-8.7-6.4-12.6c-2.3-3.9-4.7-7.4-7.1-10.5c-2.4-3.1-4.8-5.7-7.1-7.9c-2.3-2.2-4.4-4-6.2-5.3c-0.5-0.3-0.9-0.7-1.3-1
			c-0.4-0.3-0.8-0.5-1.2-0.8c-0.4-0.2-0.7-0.5-1-0.7c-0.3-0.2-0.6-0.4-0.9-0.5c-1-0.6-1.6-1-1.6-1s0.5,0.4,1.5,1.1
			C465.1,234.2,465.4,234.4,465.7,234.6z"/>
		<path class="st2" d="M556.4,354.9c0.1-1.5,0.1-3.5,0.2-6.2c0.1-2.7,0.2-6,0.4-9.9c0.2-3.8,0.4-8.1,0.7-12.8
			c0.3-4.7,0.7-9.7,1.1-15.1c0.5-5.3,1-11,1.6-16.8c0.2-1.5,0.3-2.9,0.5-4.4c0.2-1.5,0.4-3,0.5-4.5c0.3-3,0.8-6,1.2-9.1
			c0.4-3,0.9-6.1,1.3-9.2c0.2-1.5,0.5-3.1,0.7-4.6c0.2-1.5,0.5-3.1,0.8-4.6c0.5-3.1,1.1-6.2,1.7-9.2c0.3-1.5,0.6-3.1,0.9-4.6
			c0.3-1.5,0.6-3,1-4.5c0.3-1.5,0.6-3,1-4.5c0.3-1.5,0.7-3,1-4.4c0.7-2.9,1.4-5.8,2.2-8.7c0.2-0.7,0.4-1.4,0.5-2.1
			c0.2-0.7,0.4-1.4,0.6-2.1c0.4-1.4,0.8-2.8,1.2-4.1c0.4-1.4,0.8-2.7,1.2-4c0.4-1.3,0.8-2.6,1.2-3.9c0.4-1.3,0.8-2.5,1.3-3.8
			c0.4-1.2,0.8-2.5,1.2-3.7c0.4-1.2,0.9-2.4,1.3-3.5c0.4-1.1,0.9-2.3,1.3-3.4c0.2-0.5,0.4-1.1,0.6-1.6c0.2-0.5,0.4-1.1,0.7-1.6
			c0.4-1,0.9-2.1,1.3-3c0.4-1,0.8-2,1.2-2.9c0.4-0.9,0.8-1.8,1.2-2.7c0.4-0.9,0.8-1.7,1.2-2.5c0.2-0.4,0.4-0.8,0.6-1.2
			c0.2-0.4,0.4-0.8,0.6-1.1c0.8-1.5,1.5-2.8,2.1-4c0.6-1.2,1.2-2.3,1.8-3.2c0.5-0.9,1-1.7,1.4-2.3c0.7-1.3,1.1-2,1.1-2
			s-0.4,0.7-1.2,1.9c-0.4,0.6-0.9,1.4-1.5,2.3c-0.6,0.9-1.3,1.9-1.9,3.1c-0.7,1.2-1.4,2.5-2.3,3.9c-0.2,0.4-0.4,0.7-0.6,1.1
			c-0.2,0.4-0.4,0.8-0.6,1.2c-0.4,0.8-0.8,1.6-1.3,2.5c-0.4,0.9-0.9,1.7-1.4,2.6c-0.5,0.9-0.9,1.9-1.4,2.8c-0.5,1-0.9,2-1.4,3
			c-0.2,0.5-0.5,1-0.7,1.6c-0.2,0.5-0.5,1.1-0.7,1.6c-0.5,1.1-0.9,2.2-1.4,3.3c-0.5,1.1-1,2.3-1.4,3.5c-0.5,1.2-0.9,2.4-1.4,3.6
			c-0.5,1.2-1,2.5-1.4,3.7c-0.5,1.3-0.9,2.6-1.4,3.9c-0.5,1.3-1,2.6-1.4,4c-0.4,1.4-0.9,2.7-1.3,4.1c-0.2,0.7-0.5,1.4-0.7,2.1
			c-0.2,0.7-0.4,1.4-0.6,2.1c-0.8,2.8-1.8,5.7-2.6,8.6c-0.4,1.5-0.8,2.9-1.2,4.4c-0.4,1.5-0.8,3-1.2,4.5c-0.4,1.5-0.8,3-1.2,4.5
			c-0.4,1.5-0.7,3-1.1,4.6c-0.8,3.1-1.4,6.1-2.1,9.2c-0.4,1.5-0.7,3.1-1,4.6c-0.3,1.5-0.6,3.1-1,4.6c-0.6,3.1-1.2,6.2-1.8,9.2
			c-0.5,3.1-1.1,6.1-1.6,9.1c-0.2,1.5-0.5,3-0.7,4.5c-0.2,1.5-0.5,3-0.7,4.4c-0.9,5.8-1.7,11.5-2.4,16.9c-0.7,5.4-1.3,10.5-1.8,15.2
			c-0.5,4.7-0.9,9-1.3,12.8c-0.4,3.8-0.6,7.2-0.9,9.9c-0.1,1.8-0.3,3.3-0.4,4.6C550.7,353.5,553.6,354.2,556.4,354.9z"/>
		<path class="st2" d="M569.3,358.3c0-1,0-2,0-3.1c0-3.9,0.1-8.5,0.3-13.4c0.1-2.5,0.3-5,0.5-7.6c0.2-2.6,0.5-5.2,0.8-7.8
			c0.2-1.3,0.3-2.6,0.6-3.9c0.1-0.6,0.2-1.3,0.3-1.9c0.1-0.6,0.2-1.3,0.3-1.9c0.2-1.3,0.5-2.5,0.7-3.8c0.3-1.2,0.5-2.5,0.8-3.6
			c0.3-1.2,0.6-2.4,0.9-3.5c0.2-0.6,0.3-1.1,0.5-1.7c0.2-0.6,0.3-1.1,0.5-1.6c0.2-0.5,0.3-1.1,0.5-1.6c0.2-0.5,0.4-1,0.5-1.5
			c0.2-0.5,0.3-1,0.5-1.5c0.2-0.5,0.4-0.9,0.6-1.4c0.2-0.5,0.4-0.9,0.5-1.3c0.2-0.4,0.4-0.9,0.6-1.3c0.2-0.4,0.4-0.8,0.5-1.2
			c0.2-0.4,0.4-0.8,0.5-1.1c0.4-0.7,0.7-1.4,1-2c0.3-0.6,0.6-1.2,0.9-1.7c0.3-0.5,0.5-1,0.8-1.3c0.2-0.4,0.4-0.7,0.6-1
			c0.3-0.5,0.5-0.8,0.5-0.8s-0.2,0.3-0.6,0.8c-0.2,0.2-0.4,0.5-0.7,0.9c-0.3,0.4-0.6,0.8-0.9,1.2c-0.3,0.5-0.7,1-1.1,1.6
			c-0.4,0.6-0.8,1.2-1.2,1.9c-0.2,0.3-0.4,0.7-0.7,1.1c-0.2,0.4-0.4,0.8-0.7,1.2c-0.2,0.4-0.5,0.8-0.7,1.2c-0.2,0.4-0.5,0.9-0.7,1.3
			c-0.2,0.4-0.5,0.9-0.7,1.4c-0.2,0.5-0.5,0.9-0.7,1.4c-0.2,0.5-0.5,1-0.7,1.5c-0.2,0.5-0.5,1-0.7,1.6c-0.2,0.5-0.5,1.1-0.7,1.6
			c-0.2,0.5-0.4,1.1-0.7,1.7c-0.5,1.1-0.9,2.3-1.3,3.5c-0.4,1.2-0.8,2.4-1.2,3.6c-0.4,1.2-0.8,2.5-1.2,3.8c-0.2,0.6-0.4,1.3-0.6,1.9
			c-0.2,0.6-0.3,1.3-0.5,1.9c-0.4,1.3-0.7,2.6-1,3.9c-0.6,2.6-1.2,5.2-1.7,7.8c-0.5,2.6-0.9,5.2-1.3,7.7c-0.8,5-1.3,9.6-1.8,13.6
			c-0.1,0.5-0.1,1-0.2,1.5C564.2,356.9,566.8,357.6,569.3,358.3z"/>
		<path class="st0" d="M598.5,354.2c0.1,0.2,0.1,0.4,0.2,0.6c0.1,0.2,0.1,0.5,0.2,0.7c0.1,0.5,0.3,1.1,0.4,1.7
			c0.4,2.5,0.6,6,0.4,9.4c0,0.6-0.1,1.2-0.1,1.8c1,0.4,2.1,0.8,3.1,1.2c-0.1-1.1-0.3-2.1-0.4-3.2c-0.5-3.5-1.3-7-2.3-9.5
			c-0.2-0.6-0.5-1.2-0.7-1.7c-0.1-0.2-0.2-0.5-0.3-0.7c-0.1-0.2-0.2-0.4-0.3-0.6c-0.2-0.3-0.4-0.6-0.5-0.8c-0.1-0.2-0.2-0.3-0.2-0.3
			s0,0.1,0.1,0.3C598.2,353.5,598.4,353.8,598.5,354.2z"/>
		<path class="st2" d="M606.2,328.7c0.2,0.3,0.4,0.6,0.6,0.9c0.1,0.2,0.2,0.4,0.4,0.6c0.1,0.2,0.2,0.4,0.3,0.6
			c0.2,0.5,0.5,0.9,0.7,1.5c0.2,0.5,0.5,1.1,0.7,1.7c0.2,0.6,0.5,1.3,0.6,2c0.1,0.3,0.2,0.7,0.3,1.1c0.1,0.4,0.2,0.7,0.2,1.1
			c0.1,0.4,0.2,0.8,0.2,1.2c0.1,0.4,0.1,0.8,0.2,1.2c0.2,0.8,0.2,1.7,0.3,2.5c0.1,0.9,0.2,1.8,0.2,2.7c0.1,1.8,0.1,3.7,0.1,5.6
			c0,1.9-0.1,3.8-0.3,5.7c-0.2,1.9-0.4,3.8-0.7,5.7c-0.3,1.9-0.6,3.7-0.9,5.5c-0.3,1.3-0.5,2.6-0.8,3.8c1.2,0.5,2.5,1.1,3.7,1.6
			c0.3-1.5,0.5-3.2,0.7-4.8c0.2-1.9,0.4-3.8,0.5-5.7c0.1-1.9,0.2-3.9,0.2-5.9c0-2-0.1-4-0.2-5.9c-0.1-1.9-0.3-3.8-0.6-5.7
			c-0.1-0.9-0.3-1.8-0.5-2.7c-0.2-0.9-0.3-1.7-0.6-2.6c-0.1-0.4-0.2-0.8-0.3-1.2c-0.1-0.4-0.2-0.8-0.3-1.2c-0.1-0.4-0.2-0.8-0.4-1.1
			c-0.1-0.4-0.3-0.7-0.4-1.1c-0.2-0.7-0.5-1.3-0.8-2c-0.3-0.6-0.6-1.2-0.9-1.7c-0.3-0.5-0.6-1-0.9-1.4c-0.1-0.2-0.3-0.4-0.4-0.6
			c-0.1-0.2-0.3-0.4-0.4-0.5C606.8,329.2,606.5,328.9,606.2,328.7c-0.1-0.3-0.3-0.5-0.5-0.7c-0.3-0.3-0.5-0.5-0.5-0.5
			s0.2,0.2,0.4,0.5C605.8,328.2,606,328.5,606.2,328.7z"/>
		<path class="st2" d="M625.3,380c-0.4-0.2-0.8-0.4-1.2-0.6c-0.4-0.2-0.9-0.4-1.3-0.7c-0.9-0.5-1.9-1-3-1.5
			c-0.5-0.3-1.1-0.6-1.7-0.9c-0.6-0.3-1.2-0.6-1.9-0.9c-1.3-0.6-2.6-1.2-4.1-1.9c-5.8-2.6-12.9-5.5-21.2-8.5c-8.3-3-17.8-6-28.3-8.8
			c-10.5-2.8-21.9-5.5-34.1-7.9c-12.2-2.4-25.1-4.6-38.6-6.5c-13.4-1.9-27.4-3.5-41.5-4.8c-14.2-1.3-28.6-2.3-43.1-3.1
			c-14.4-0.8-28.9-1.3-43.1-1.6c-14.2-0.3-28.3-0.3-41.8-0.2c-13.6,0.1-26.7,0.5-39.1,0.9c-12.4,0.5-24.2,1.1-35,1.8
			c-10.8,0.7-20.8,1.5-29.5,2.3c-8.8,0.8-16.4,1.7-22.7,2.5c-6.3,0.8-11.2,1.6-14.6,2.2c-0.8,0.2-1.6,0.3-2.2,0.4
			c-0.6,0.1-1.2,0.2-1.6,0.3c-0.9,0.2-1.3,0.3-1.3,0.3l0,0c-0.5,0.1-0.9,0.5-1.1,1c0,0.1-0.1,0.1-0.1,0.2c-0.1,0.2,0,0.5,0.1,0.7
			c0.2,0.7,0.9,1.1,1.7,1c0,0,0.2,0,0.5-0.1c5,1.2,9.9,2.3,14.9,3.4c5.5,1.2,11,2.3,16.5,3.4c11,2.2,22.1,4.1,33.2,5.9
			c5.6,0.9,11.1,1.7,16.7,2.4c5.6,0.7,11.2,1.4,16.8,2c5.6,0.6,11.2,1.1,16.8,1.5l2.1,0.1l2.1,0.1l4.2,0.2c2.8,0.1,5.6,0.3,8.4,0.3
			c1.4,0,2.8,0.1,4.2,0.1l4.2,0l1.1,0c0.3,0,0.7,0,1,0.1c0.6,0.1,1.3,0.3,1.3,0.7c0.1,0.2,0,0.5-0.1,0.8c-0.1,0.3-0.3,0.6-0.5,0.8
			c-0.4,0.5-0.8,1-1.3,1.5c-1,0.9-2.1,1.8-3.2,2.6c-1.1,0.8-2.3,1.5-3.5,2.3c-2.4,1.4-4.9,2.7-7.5,3.8c-5.1,2.3-10.4,4.2-15.8,5.8
			c-5.4,1.6-10.9,2.7-16.4,3.6c-11.1,1.7-22.4,2-33.6,0.6c-11.2-1.3-22.1-4.2-32.5-8.6c10.3,4.5,21.3,7.5,32.4,8.9
			c11.2,1.4,22.5,1.2,33.7-0.4c5.6-0.8,11.1-2,16.5-3.5c5.4-1.5,10.8-3.4,15.9-5.7c2.6-1.2,5.1-2.4,7.6-3.8c1.2-0.7,2.4-1.5,3.6-2.3
			c1.2-0.8,2.3-1.7,3.4-2.7c0.5-0.5,1-1,1.5-1.6c0.2-0.3,0.4-0.6,0.6-1c0.1-0.4,0.3-0.8,0.1-1.3c-0.1-0.2-0.2-0.5-0.4-0.6
			c-0.2-0.2-0.4-0.3-0.5-0.4c-0.4-0.2-0.8-0.3-1.1-0.3c-0.4-0.1-0.8-0.1-1.1-0.1l-1.1,0l-4.2-0.1c-1.4,0-2.8-0.1-4.2-0.1
			c-2.8-0.1-5.6-0.2-8.4-0.4l-4.2-0.3l-2.1-0.1l-2.1-0.2c-5.6-0.4-11.2-1-16.8-1.6c-5.6-0.6-11.2-1.3-16.7-2.1
			c-5.6-0.8-11.1-1.6-16.7-2.5c-11.1-1.8-22.1-3.8-33.1-6.1c-5.5-1.1-11-2.3-16.5-3.5c-3.4-0.8-6.8-1.5-10.2-2.4
			c4.3-0.2,8.5-0.5,12.8-0.7c6.4-0.3,12.8-0.6,19.2-0.9c12.8-0.5,25.6-0.9,38.4-1.1c12.8-0.2,25.6-0.2,38.3,0.1
			c6.4,0.2,12.8,0.5,19.1,0.9c3.2,0.2,6.3,0.5,9.5,0.9c1.6,0.2,3.1,0.4,4.7,0.6c0.8,0.1,1.6,0.3,2.3,0.4c0.8,0.1,1.6,0.3,2.3,0.5
			l0,0l0,0c0.8,0.2,1.6-0.4,1.8-1.2c0.2-0.8-0.4-1.6-1.2-1.8c-0.8-0.1-1.6-0.3-2.4-0.4c-0.8-0.1-1.6-0.3-2.4-0.4
			c-1.6-0.2-3.2-0.4-4.8-0.6c-3.2-0.4-6.4-0.6-9.6-0.8c-6.4-0.4-12.8-0.7-19.2-0.8c-12.8-0.3-25.6-0.1-38.5,0.2
			c-12.8,0.3-25.6,0.8-38.4,1.4c-4.4,0.2-8.7,0.4-13.1,0.7c5.2-0.7,11.1-1.3,17.7-2c8.8-0.9,18.6-1.7,29.5-2.5
			c10.8-0.8,22.5-1.4,34.9-2c12.4-0.5,25.5-0.9,39-1.2c13.5-0.2,27.5-0.3,41.8-0.1c14.2,0.2,28.7,0.6,43.1,1.3
			c14.4,0.7,28.9,1.6,43,2.8c14.2,1.2,28.1,2.7,41.5,4.5c13.4,1.8,26.4,3.9,38.6,6.2c12.2,2.3,23.7,4.9,34.1,7.7
			c10.5,2.8,20,5.7,28.3,8.6c8.3,2.9,15.4,5.8,21.2,8.3c1.4,0.7,2.8,1.3,4.1,1.9c0.6,0.3,1.3,0.6,1.9,0.9c0.6,0.3,1.2,0.6,1.7,0.8
			c1.1,0.5,2.1,1.1,3,1.5c0.5,0.2,0.9,0.5,1.3,0.7C624.5,379.7,624.9,379.9,625.3,380c3,1.6,4.6,2.5,4.6,2.5S628.3,381.7,625.3,380z
			"/>
		<path class="st1" d="M391,384.4c0-0.2,0.1-0.3,0.1-0.5c0.2-1,0.4-2.1,0.7-3.1c0.3-1.1,0.6-2.1,0.9-3.2c0.4-1,0.7-2.1,1.2-3.1
			c0.2-0.5,0.4-1,0.7-1.5c0.2-0.5,0.5-1,0.7-1.4c0.5-0.9,1-1.8,1.5-2.6c0.3-0.4,0.6-0.8,0.8-1.1c0.3-0.4,0.6-0.7,0.8-1
			c0.6-0.6,1.1-1.2,1.6-1.6c0.5-0.5,1-0.8,1.4-1.1c0.4-0.3,0.7-0.5,1-0.6c0.2-0.1,0.3-0.2,0.3-0.2s-0.1,0.1-0.4,0.2
			c-0.2,0.1-0.6,0.2-1.1,0.5c-0.4,0.2-1,0.5-1.6,0.9c-0.6,0.4-1.2,0.8-1.9,1.4c-0.3,0.3-0.7,0.6-1,0.9c-0.3,0.3-0.7,0.7-1,1
			c-0.7,0.7-1.4,1.5-2.1,2.4c-0.3,0.4-0.7,0.9-1,1.4c-0.3,0.5-0.6,0.9-0.9,1.4c-0.6,1-1.2,2-1.8,3c-0.5,1-1.1,2.1-1.5,3.2
			c-0.5,1.1-0.9,2.1-1.3,3.1c-0.2,0.6-0.4,1.1-0.6,1.7C388,384.5,389.5,384.4,391,384.4z"/>
		<path class="st1" d="M396.3,359c0.3,0.5,0.6,1,1,1.7c0.2,0.3,0.4,0.7,0.5,1.1c0.2,0.4,0.4,0.8,0.6,1.2c0.2,0.4,0.4,0.9,0.6,1.3
			c0.1,0.2,0.2,0.5,0.3,0.7c0.1,0.2,0.2,0.5,0.3,0.7c0.4,1,0.7,2,1,3.1c0.3,1.1,0.6,2.2,0.9,3.4c0.3,1.2,0.5,2.4,0.7,3.6
			c0.5,3.1,0.9,6.2,1.1,9c1.5,0.1,3,0.2,4.5,0.3c-0.7-3.1-1.6-6.6-2.7-10c-0.4-1.2-0.8-2.4-1.3-3.6c-0.4-1.2-0.9-2.3-1.4-3.4
			c-0.5-1.1-1-2.1-1.5-3.1c-0.1-0.2-0.3-0.5-0.4-0.7c-0.1-0.2-0.3-0.5-0.4-0.7c-0.3-0.4-0.5-0.9-0.8-1.3c-0.2-0.4-0.5-0.8-0.8-1.1
			c-0.2-0.4-0.5-0.7-0.7-1c-0.5-0.6-0.9-1.1-1.2-1.5c-0.3-0.4-0.7-0.7-0.8-0.9c-0.2-0.2-0.3-0.3-0.3-0.3s0.1,0.1,0.3,0.4
			C395.8,358.2,396.1,358.5,396.3,359z"/>
		<path class="st1" d="M386.2,281.3c0.4,0.7,0.9,1.5,1.5,2.4c0.5,0.9,1.1,1.8,1.7,2.8c0.6,1,1.2,2.1,1.8,3.3
			c0.6,1.2,1.2,2.4,1.9,3.7c0.2,0.3,0.3,0.6,0.5,1c0.2,0.3,0.3,0.7,0.5,1c0.3,0.7,0.6,1.4,1,2.1c0.7,1.4,1.3,2.9,1.9,4.4
			c0.3,0.8,0.7,1.5,0.9,2.3c0.3,0.8,0.6,1.6,0.9,2.4c0.3,0.8,0.6,1.6,0.9,2.5c0.3,0.8,0.6,1.7,0.9,2.5c1.2,3.4,2.2,7,3.3,10.6
			c0.5,1.8,1,3.7,1.4,5.5c0.4,1.9,0.9,3.7,1.3,5.6c0.4,1.9,0.8,3.8,1.2,5.6c0.2,0.9,0.4,1.9,0.5,2.8c0.2,0.9,0.3,1.9,0.5,2.8
			c0.7,3.7,1.2,7.4,1.7,11c0.4,3.6,0.9,7,1.1,10.3c0.3,3.3,0.5,6.4,0.7,9.3c0.2,2.9,0.3,5.5,0.4,7.8c0,0.8,0.1,1.6,0.1,2.4
			c1.9,0.2,3.7,0.4,5.5,0.7c-0.1-1-0.2-2.2-0.3-3.4c-0.2-2.4-0.5-5-0.8-7.9c-0.3-2.9-0.7-6.1-1.2-9.4c-0.5-3.3-1-6.8-1.7-10.4
			c-0.7-3.6-1.4-7.3-2.2-11c-0.2-0.9-0.4-1.9-0.6-2.8c-0.2-0.9-0.5-1.9-0.7-2.8c-0.4-1.9-1-3.8-1.4-5.7c-0.5-1.9-1.1-3.7-1.6-5.6
			c-0.6-1.9-1.1-3.7-1.7-5.5c-1.2-3.6-2.5-7.2-3.8-10.6c-0.3-0.8-0.7-1.7-1-2.5c-0.3-0.8-0.7-1.6-1-2.4c-0.3-0.8-0.7-1.6-1-2.4
			c-0.3-0.8-0.7-1.5-1.1-2.3c-0.7-1.5-1.4-3-2.1-4.4c-0.4-0.7-0.7-1.4-1.1-2.1c-0.2-0.3-0.3-0.7-0.5-1c-0.2-0.3-0.4-0.6-0.5-1
			c-0.7-1.3-1.4-2.5-2.1-3.6c-0.7-1.1-1.4-2.2-2-3.2c-0.6-1-1.2-1.9-1.8-2.8c-0.6-0.8-1.1-1.6-1.6-2.3c-1-1.4-1.8-2.4-2.4-3.1
			c-0.5-0.7-0.8-1.1-0.8-1.1s0.3,0.4,0.8,1.1C384.5,278.8,385.3,279.9,386.2,281.3z"/>
		<path class="st1" d="M424.6,387.3c0-0.9,0-1.9,0-3c0.1-4.9,0.5-11.4,1.4-17.9c0.2-1.6,0.5-3.2,0.8-4.8c0.1-0.8,0.3-1.6,0.5-2.3
			c0.2-0.8,0.3-1.5,0.5-2.3c0.4-1.5,0.7-2.9,1.2-4.3c0.1-0.3,0.2-0.7,0.3-1c0.1-0.3,0.2-0.6,0.3-0.9c0.1-0.3,0.2-0.6,0.3-0.9
			c0.1-0.3,0.2-0.6,0.4-0.9c0.2-0.6,0.5-1.1,0.7-1.6c0.2-0.5,0.5-1,0.7-1.4c0.2-0.4,0.5-0.8,0.7-1.2c0.1-0.2,0.2-0.4,0.3-0.5
			c0.1-0.2,0.2-0.3,0.3-0.5c0.2-0.3,0.4-0.6,0.6-0.8c0.2-0.2,0.3-0.4,0.5-0.5c0.3-0.3,0.4-0.4,0.4-0.4s-0.2,0.1-0.4,0.4
			c-0.1,0.1-0.3,0.3-0.5,0.5c-0.2,0.2-0.4,0.4-0.7,0.7c-0.1,0.1-0.3,0.3-0.4,0.4c-0.1,0.2-0.3,0.3-0.4,0.5c-0.3,0.3-0.6,0.7-0.8,1.1
			c-0.3,0.4-0.6,0.9-0.9,1.4c-0.3,0.5-0.6,1-0.9,1.6c-0.1,0.3-0.3,0.6-0.5,0.8c-0.2,0.3-0.3,0.6-0.4,0.9c-0.1,0.3-0.3,0.6-0.5,0.9
			c-0.1,0.3-0.3,0.6-0.4,1c-0.6,1.3-1.1,2.7-1.7,4.2c-0.3,0.7-0.5,1.5-0.8,2.3c-0.2,0.8-0.5,1.5-0.7,2.3c-0.5,1.6-0.9,3.2-1.4,4.8
			c-1.7,6.5-2.9,13.1-3.5,18.1c-0.1,0.9-0.2,1.7-0.3,2.5C421.1,386.7,422.8,387,424.6,387.3z"/>
	</g>
	<g id="Footballer_1_">
		<path class="st4" d="M382,427.3c-3.4-2.9-1.6-10,25.1-11.2c115-5,179.9,6.8,179.7,9.5c-0.2,2.7-50.3-1.6-83.6,3.1
			C429.7,438.9,387.6,432,382,427.3z"/>
		<path class="st4" d="M510.5,438.7c16.9-8.7,80.3-9.7,87.1-5.5C610.6,441.4,529.5,435.3,510.5,438.7z"/>
		<path class="st5" d="M474.2,110.9c0,0,1.9,6.8-2.8,6C466.7,116,470,105,470,105L474.2,110.9z"/>
		<path class="st6" d="M324.4,125.3c0,0-0.4,2.3,3.4,6.7c3.8,4.4,12-11.2,12-11.2l-12.4,0.2C327.4,120.9,324.5,122.5,324.4,125.3z"
			/>
		<path class="st7" d="M393.8,129.3c0,0-5.1,2.6-12.7,6.4c-3.8,1.9-8.3,4.2-13,6.6c-1.2,0.6-2.4,1.2-3.6,1.8
			c-1.2,0.6-2.5,1.2-3.8,1.8c-2.6,1.2-5.2,2.5-7.8,3.8c-5.2,2.5-10.4,5-15.3,7.4c-4.9,2.3-9.4,4.4-13.3,6.2c-2,0.9-3.7,1.7-5.3,2.5
			c-1.6,0.7-3,1.4-4.1,1.9c-2.3,1-3.6,1.6-3.6,1.6c-6.8,3.1-14.8,0.1-17.9-6.7c-2.8-6.2-0.6-13.4,5.1-17l0.2-0.1
			c0,0,1.2-0.7,3.3-2.1c1-0.7,2.3-1.5,3.7-2.4c1.4-0.9,3.1-2,4.9-3.1c3.6-2.3,7.7-5,12.2-7.8c4.4-2.9,9.1-6,13.7-9.1
			c2.3-1.5,4.7-3.1,7-4.6c1.1-0.8,2.3-1.5,3.4-2.3c1.1-0.8,2.2-1.5,3.3-2.3c4.4-3,8.5-5.9,12-8.3c7-4.8,11.7-8.1,11.7-8.1l0,0
			c9-6.2,21.3-3.9,27.4,5c6.2,9,3.9,21.3-5,27.4C395.4,128.4,394.5,128.9,393.8,129.3z"/>
		<path class="st8" d="M333.4,122.8c0,0,15,6.8,15,20.6c0,13.8,19.3-2.5,19.3-2.9s-24.3-22.6-24.3-22.6L333.4,122.8z"/>
		<path class="st9" d="M346.8,107.2c-6.2-4.5-8.4,8.2-8.4,8.2s-6.3-4.1-7.3,3.4c-2.1-2.1-7.3,2.2-6.8,6.6c2-9.3,30.8,3.3,32,19.6
			l18.6-8L346.8,107.2z"/>
		<path class="st5" d="M197.5,233.9c-0.2,0-0.4-0.1-0.5-0.3c-6.4-9.7-9.8-18.3-10.2-25.6c-0.3-6.1,1.5-11.2,5.3-14.3
			c5.3-4.4,13.4-4.1,18.4,0.7c3.5,3.4,5.1,8.5,4.5,14.5c-0.8,7.2-4.6,15.4-11.4,24.3c-0.2,0.3-0.6,0.3-0.9,0.1
			c-0.3-0.2-0.3-0.6-0.1-0.9c6.7-8.8,10.4-16.7,11.2-23.7c0.6-5.6-0.8-10.3-4.1-13.4c-4.6-4.4-12-4.7-16.8-0.7
			c-3.4,2.9-5.1,7.6-4.8,13.2c0.4,7.1,3.8,15.5,10,25c0.2,0.3,0.1,0.7-0.2,0.9C197.7,233.9,197.6,233.9,197.5,233.9z"/>
		<path class="st5" d="M192.4,236.8c-7.2,0-16.2-3.1-19-9.5c-1.6-3.4-1.6-6.9-0.2-9.9c1.4-2.9,4.1-5,7.4-5.8
			c0.3-0.1,0.7,0.1,0.8,0.5c0.1,0.3-0.1,0.7-0.5,0.8c-3,0.7-5.4,2.6-6.6,5.2c-1.3,2.6-1.2,5.8,0.2,8.8c3.5,7.7,17.2,10.3,23.7,7.8
			c0.3-0.1,0.7,0,0.8,0.4c0.1,0.3,0,0.7-0.4,0.8C196.9,236.5,194.8,236.8,192.4,236.8z"/>
		<path class="st10" d="M438.1,71.4c0,0,2.9,0.3,8,0.7c1.3,0.1,2.8,0.3,4.4,0.4c0.8,0.1,1.6,0.2,2.5,0.2c0.8,0.1,1.7,0.2,2.6,0.3
			c3.6,0.4,7.6,0.8,12,1.3c4.4,0.5,9.1,1.1,14.1,1.7c5,0.6,10.2,1.3,15.7,2c5.4,0.7,11,1.5,16.7,2.3c2.8,0.4,5.7,0.8,8.6,1.2
			l2.2,0.3l1.1,0.2l0.1,0c0.3,0-0.5-0.1,0.6,0.1l0.1,0l0.3,0.1l0.6,0.1c1.5,0.3,3,0.6,4.4,0.9c5.8,1.3,11.6,2.7,17.3,4.2
			c5.7,1.5,11.2,3,16.5,4.7c5.3,1.6,10.5,3.3,15.3,5.1c4.8,1.8,9.4,3.6,13.6,5.4c2.1,0.9,4.1,1.9,6,2.8c1.9,0.9,3.7,1.8,5.4,2.7
			c3.3,1.8,6.2,3.6,8.6,5.2c2.3,1.6,4.2,3,5.4,4c0.6,0.5,1.1,0.9,1.4,1.2c0.3,0.3,0.5,0.4,0.5,0.4c3.4,3,3.8,8.2,0.8,11.7
			c-2.9,3.3-7.7,3.7-11.1,1.2l-0.4-0.3c0,0-0.1-0.1-0.3-0.3c-0.2-0.2-0.6-0.4-1-0.7c-0.9-0.6-2.3-1.6-4.3-2.7
			c-1.9-1.1-4.4-2.3-7.4-3.6c-3-1.3-6.4-2.6-10.3-3.8c-3.9-1.3-8.2-2.5-12.8-3.6c-4.6-1.1-9.5-2.2-14.7-3.2
			c-5.1-1-10.5-1.8-15.9-2.6c-5.5-0.7-11-1.4-16.6-1.9c-1.4-0.1-2.8-0.2-4.1-0.3l-0.5,0l-0.2,0l-0.1,0c1.1,0.1,0.3,0,0.5,0.1l-0.1,0
			l-1,0l-2.1,0c-2.8,0-5.7-0.1-8.5-0.1c-5.6-0.1-11.2-0.1-16.5-0.1c-2.7,0-5.3,0-7.9,0c-2.6,0-5.1,0.1-7.5,0.1
			c-2.4,0.1-4.8,0.1-7.1,0.2c-2.3,0.1-4.5,0.1-6.6,0.2c-2.1,0.1-4.2,0.2-6.1,0.2c-1.9,0.1-3.8,0.2-5.5,0.3c-0.9,0-1.7,0.1-2.5,0.1
			c-0.8,0.1-1.5,0.1-2.3,0.2c-1.4,0.1-2.8,0.2-4,0.3c-0.6,0-1.2,0.1-1.7,0.1c-0.6,0-1.1,0.1-1.6,0.1c-1,0.1-1.8,0.2-2.5,0.2
			c-1.4,0.1-2.1,0.2-2.1,0.2c-10.9,0.9-20.4-7.1-21.4-18c-0.9-10.9,7.1-20.4,18-21.4c1.1-0.1,2.2-0.1,3.3,0L438.1,71.4z"/>
		<path class="st7" d="M592.6,122c2-6.1,7.1-11.9,10.7-15.5c-0.8-0.4-1.6-0.8-2.4-1.2c-1.9-0.9-3.9-1.8-6-2.8
			c-4.2-1.8-8.8-3.6-13.6-5.4c-4.9-1.8-10-3.5-15.3-5.1c-5.3-1.6-10.9-3.2-16.5-4.7c-5.7-1.5-11.4-2.9-17.3-4.2
			c-1.5-0.3-2.9-0.6-4.4-0.9l-0.6-0.1l-0.3-0.1l-0.1,0c-1.1-0.1-0.4,0-0.6-0.1l-0.1,0l-1.1-0.2l-2.2-0.3c-2.9-0.4-5.7-0.8-8.6-1.2
			c-5.7-0.8-11.3-1.5-16.7-2.3c-4.1-0.5-8.1-1-11.9-1.5l14,32c4.1,0,8.2,0,12.4,0.1c2.8,0,5.6,0.1,8.5,0.1l2.1,0l1,0l0.1,0
			c-0.2,0,0.6,0.1-0.5-0.1l0.1,0l0.2,0l0.5,0c1.3,0.1,2.7,0.2,4.1,0.3c5.5,0.5,11.1,1.2,16.6,1.9c5.5,0.8,10.8,1.6,15.9,2.6
			c5.1,1,10.1,2,14.7,3.2c4.6,1.1,8.9,2.4,12.8,3.6C589.6,120.9,591.1,121.4,592.6,122z"/>
		<path class="st8" d="M511,79.8l-5.4,27.7c0,0,0.3,0.4,0.8,0.9c1.8,0,3.6,0,5.5,0.1c2.8,0,5.6,0.1,8.5,0.1l1.5,0l0,0
			C522.6,91.2,511,79.8,511,79.8L511,79.8z"/>
		<path class="st10" d="M657.1,134.1l-19.6-8.5c0.2-0.4,0.4-0.8,0.6-1.2c0.3,0,0.7,0,1,0c0.8,0,1.7-0.1,2.5-0.1
			c1.7-0.1,3.4-0.2,4.9-0.3c1.6-0.1,3-0.3,4.3-0.4c1.3-0.1,2.3-0.2,3-0.3c0.7-0.1,1.2-0.1,1.2-0.1c1.4-0.2,2.5-1.4,2.4-2.8
			c-0.1-1.5-1.3-2.7-2.8-2.6l0,0c0,0-0.4,0-1.1,0c-0.7,0-1.7,0.1-2.9,0.1c-1.2,0-2.6,0-4.2,0c-1.5,0-3.1,0-4.8-0.1
			c-0.8,0-1.6-0.1-2.4-0.1c-0.8,0-1.6-0.1-2.3-0.1c-0.5,0-0.9-0.1-1.3-0.1c-6.8-1.6-14.2-6.3-21.8-5.8c-4.2,0.3-8.1,2.8-9.4,8.9
			c-0.8,3.7-1.8,11.1,0.5,15.9c0,0.3,0,0.6,0,0.9c0,0.7,0,1.4,0,2.1c0,0.7,0,1.4-0.1,2.2c0,0.7-0.1,1.4-0.2,2.2
			c-0.1,0.7-0.1,1.4-0.2,2.1c-0.1,0.7-0.2,1.3-0.3,1.9c-0.1,0.6-0.2,1.2-0.3,1.7c-0.1,0.2-0.1,0.5-0.2,0.7c-0.1,0.2-0.1,0.4-0.2,0.6
			c-0.1,0.4-0.2,0.5-0.2,0.7c0,0,0,0.1,0,0.1c0,0.1-0.1,0.1-0.1,0.2c-0.1,0.1-0.1,0.2-0.2,0.3c-0.1,0.2-0.1,0.2-0.1,0.2l0,0.1
			c-0.7,1.2-0.3,2.7,0.8,3.5c1.2,0.9,2.9,0.6,3.8-0.6c0,0,0.1-0.1,0.2-0.2c0.1-0.1,0.1-0.2,0.2-0.3c0-0.1,0.1-0.1,0.1-0.2
			c0.1-0.1,0.1-0.2,0.2-0.3c0.2-0.4,0.6-1,0.8-1.5c0.1-0.2,0.2-0.5,0.4-0.8c0.1-0.3,0.2-0.6,0.3-0.9c0.2-0.6,0.4-1.2,0.7-1.9
			c0.2-0.7,0.4-1.4,0.6-2.1c0.2-0.7,0.4-1.5,0.6-2.3c0.2-0.8,0.3-1.6,0.5-2.4c0.2-0.8,0.3-1.6,0.4-2.4c0,0,0,0,0,0
			c2.6-0.7,6.2-1.9,12.2-1.4l16.3,19.2c0.9,1.1,2.5,1.3,3.7,0.5c1.2-0.9,1.5-2.6,0.6-3.8l-8.9-12.5l14.2,10.5
			c1.1,0.8,2.7,0.7,3.7-0.4c1-1.1,0.9-2.9-0.3-3.9L636.4,133l18.8,6.2c1.3,0.4,2.8-0.2,3.4-1.5C659.1,136.3,658.5,134.7,657.1,134.1
			z"/>
		<path class="st6" d="M524.2,180.3c1.5,2.9,1.5,9.9-7.6,9.9c-10.7,0-8.8,14-20.3,12.3c-7.6-1.2-16.1-37.3-16.1-37.3l30.4,1.9
			L524.2,180.3z"/>
		<path class="st10" d="M506.3,202.6c0,0-5.8-35.5-19.3-48.7c-13.5-13.3-22.9,33.4-22.9,33.4L506.3,202.6z"/>
		<path class="st11" d="M466.3,178c8.3,0.2,22.7,1.2,35.5,5.4c-1.8-5.9-4.1-12.4-6.9-18.1l-27.7,10
			C466.8,176.2,466.6,177.1,466.3,178z"/>
		<path class="st9" d="M345.6,111.1c2.5-18.5,60.4-38.6,77.1-38.6c41.4,0,48.9,38.9,48.9,38.9c-3.4,29.4,35.9,29.3,52.7,68.9
			c-24.5-23.2-110.9,16-123.7,18.1C402.9,173.9,343.1,129.6,345.6,111.1z"/>
		<path class="st5" d="M524.2,180.3c-16.8-39.6-56-39.6-52.7-68.9c0,0,0,0,0,0c0,0-26.5-10.6-58.2-37.7c0,0-18.2,6.3-36.9,15
			c-10.9,10.9-18.1,27.5-21,35c3.7,5.4,7.6,13.3,11.8,22.3c16,18.3,34.7,38.6,33.3,52.5C413.3,196.2,499.7,157.1,524.2,180.3z"/>
		<path class="st12" d="M331.2,118.9c-2.1-2.1-7.3,2.2-6.8,6.6c2-9.3,30.8,3.3,32,19.6l10.4-4.5c-5-20.4-28.2-25.2-28.2-25.2
			S332.2,111.3,331.2,118.9z"/>
		<path class="st12" d="M385.3,118.2c31.3-2.8,31-33.6,28-44.6c-15.1,3-39.1,11.6-54.1,21.6C359,105.3,364.2,120.1,385.3,118.2z"/>
		<path class="st13" d="M473.4,176.1c-0.1,0-37.7-11.4-85.4-5.5c7.8,10.3,13.3,20,12.5,27.8C408.1,197.1,442.1,182.6,473.4,176.1z"
			/>
		<path class="st14" d="M381.8,111.8c27-2.5,26.1-29.2,23.1-36.1c-1.5,0.6-7.7-1.8-7.7-1.8c-11.8,4.5-24.9,11-35,18
			C361.4,100,362.8,113.5,381.8,111.8z"/>
		<path class="st6" d="M414.9,296.5c-1.5,5,1.9,16.4,13.3,30.2C439.5,340.6,453,280,453,280S418.5,284.5,414.9,296.5z"/>
		<path class="st6" d="M417,260.7c-6.2,0.5-15.3-12.4-13.9-24.9c1.5-12.4,41.8,0,41.8,0S436.8,259,417,260.7z"/>
		<path class="st6" d="M392.7,175.8c-1.8,0.4-4.3,4-4.3,6.2c0,2.2,16.7-3.1,16.7-3.1S397.5,174.6,392.7,175.8z"/>
		<path class="st10" d="M428.1,284.9c0,0-20.4,99,2.5,113.1c26.8,16.6,129.8-12.4,150.8-4.1l-6.9-27.9c-7,3.3-76.2-15.7-110.3-3.6
			c0,0,15.3-19.9,21.5-56.8L428.1,284.9z"/>
		<path class="st5" d="M600.9,372.3c-3.1-5.7-25.9-6.5-25.9-6.5c-7,3.3-76.7-15.6-110.8-3.5c0,0-21.5,18.9-12.9,40.6
			c5.4,0.3,11.3,0.3,17.6,0c0.3,0.5,1.2,2.2,2.7,2.5c1.7,0.3,54.8-2.5,56.1-2.9c1.3-0.4,8.5-6.4,9.7-7.4c19.2-2.5,35.3-3.9,42.3-1.3
			C579.7,393.9,604,378,600.9,372.3z"/>
		<path class="st11" d="M475.5,341.3c1.8-4.2,3.6-9.1,5.2-14.6c-0.1-10.8-2.4-23.8-2.4-23.8l-0.1,0l-50.2-18.1c0,0-2.5,10.7-3.7,21
			C442.2,310.9,459.3,335.8,475.5,341.3z"/>
		<path class="st5" d="M414.9,296.5c0,0,7-32.3,30-63.8c5.8-7.9,72.3-10.8,72.3-10.8c20.6,34.4-21.9,99.3-31.6,113.3
			c-1.3,1.8-3.8,2.1-5.5,0.7c-9.6-8.4-32.2-39.9-50.3-44.3C424.2,290.3,417.9,289.3,414.9,296.5z"/>
		<path class="st10" d="M467.1,252.3c-22.1,6.3-121.4-29.1-123.5-28.5c-2.1,0.7-22.4,11.8-36,14.7c-15.3,3.2-40.2,0-76.9,7.9
			l-18.9-17.1l106.3-37c0,0,18.5-12.2,27.6-10c9.1,2.2,8.8,4.2,11.6,4c2.8-0.1,53.6-15.7,71.5-10.5
			C446.9,180.9,467.1,252.3,467.1,252.3z"/>
		<path class="st11" d="M467.1,252.3c0,0-1.2-4.4-3.4-11L412,177.1h-14.3c17.1,8.4,28.9,46.1,23.4,69.3
			C441,251.4,459.1,254.6,467.1,252.3z"/>
		<path class="st13" d="M515.6,240.8l-72.9-7.8c-13.3,18.5-19.6,37.7-23.8,49.9C488.2,281.1,508.1,266.3,515.6,240.8z"/>
		<path class="st5" d="M392.7,175.8c23.2,1.8,61.9,72.5,24.2,84.9c35.6-3.6,78.3,17.5,96-13.7C529.5,217.6,505.2,152.8,392.7,175.8z
			"/>
		<path class="st5" d="M331.3,185.2L331.3,185.2c-6.9,3-13,7.1-13,7.1l-113.8,39.5l6.8,22.7l19.5-8.1c36.7-7.9,61.5-4.8,76.9-7.9
			c13.6-2.8,34-14,36-14.7C360.5,194.3,331.3,185.2,331.3,185.2z"/>
		<path class="st12" d="M345.8,182.3c-9.1-2.2-27.6,10-27.6,10l0,0c0,0,13.4,16.6,18.4,34.9c3.7-1.8,6.4-3.2,7-3.4
			c0.3-0.1,2.1,0.4,5.2,1.4c13.3-20.2,8.6-38.8,8.6-38.8C354.7,186.5,354.9,184.5,345.8,182.3z"/>
		<path class="st13" d="M220.5,234.7c-0.1,1.4-3.4,7.1-8.6,10.8c-5.2,3.7-5.2-4-5.2-4L220.5,234.7z"/>
		<path class="st7" d="M233.4,252.4c0,5.3-0.3,11.1-1.5,13c-5.8,9.2-26.8-0.5-33-2.9c-4.1-1.6-17.1-0.9-30.7-8
			c-6.9-3.6-25.8-13.7-29.3-12.3c4-5.9,30.6-1.1,34.9-2.3c4.3-1.2,28.3-7.5,32.2-8.7c2.3,4.6,9.7-1.2,12.4,0.3
			c7.5,4.1-7.7,11.4-7.7,11.4s4.3,7.2,10,6.5C225.2,248.8,233.4,247.4,233.4,252.4z"/>
		<path class="st12" d="M206,258.5c16.5-4.6,26-6,27.4-6.1c0-5,2.6-7.1,2.6-7.1c-3.6-5.4-10.8,3.5-15.3,4.1c-5.7,0.7-10-6.5-10-6.5
			s-2.8-5.5-5.9-7.1c-3.1-1.6-32.3,4.3-32.3,4.3l-4.3,14.4C178.9,259.6,189.5,263.1,206,258.5z"/>
		<path class="st5" d="M252.7,215c0,0,6.8-9,8.1-9.7c1.2-0.7,52.4-15,54.2-15.1c1.7-0.1,3.3,2,3.3,2L252.7,215z"/>
		<path class="st12" d="M440.4,296.7c17.4,10.5,29.6,39.3,34.4,39.3c4.1,0,4.1-3.2,4.1-3.2S454.4,288.7,440.4,296.7z"/>
		<path class="st12" d="M468.8,403c-6.5-11.4-7.8-33.4,0.1-42c-1.7,0.4-3.2,0.9-4.8,1.4c0,0,1.1-1.5,2.9-4.4c0,0-31.5-9.4-47.1,9.4
			v0c0.8,14.5,3.8,26.4,10.6,30.6C438.3,402.8,452.3,403.8,468.8,403z"/>
		<path class="st5" d="M361.5,185.5c0,0,0,0,0,0.1c0,0,0,0.1,0,0.1c0,0.1,0,0.2,0,0.3c0,0.1,0,0.2,0,0.4c0,0.1,0,0.2,0,0.3
			c0,0.2,0,0.5,0.1,0.8c0.1,1.2,0.1,2.9,0,4.9c0,1-0.1,2.1-0.2,3.3c-0.1,1.2-0.2,2.4-0.4,3.6c-0.2,1.2-0.3,2.5-0.6,3.8
			c-0.2,1.3-0.5,2.6-0.8,3.9c-0.3,1.3-0.7,2.6-1.1,3.9c-0.1,0.3-0.2,0.6-0.3,0.9c-0.1,0.3-0.2,0.6-0.3,0.9c-0.2,0.6-0.5,1.2-0.7,1.8
			c-0.2,0.6-0.5,1.2-0.8,1.7c-0.3,0.6-0.5,1.1-0.8,1.6c-0.3,0.5-0.6,1-0.8,1.5c-0.3,0.5-0.6,0.9-0.9,1.3c-0.6,0.8-1.1,1.6-1.7,2.2
			c-0.5,0.7-1,1.2-1.4,1.6c-0.4,0.4-0.8,0.7-1,1c-0.2,0.2-0.4,0.3-0.4,0.3c-0.4,0.4-1.1,0.4-1.5-0.1c-0.4-0.4-0.4-1,0-1.4l0.1-0.1
			c0,0,0.1-0.1,0.3-0.3c0.2-0.2,0.5-0.5,0.9-0.9c0.3-0.4,0.8-0.9,1.2-1.5c0.5-0.6,0.9-1.3,1.4-2.1c0.2-0.4,0.5-0.8,0.7-1.3
			c0.2-0.5,0.5-0.9,0.7-1.4c0.2-0.5,0.5-1,0.7-1.5c0.2-0.5,0.4-1.1,0.6-1.6c0.2-0.6,0.4-1.1,0.6-1.7c0.1-0.3,0.2-0.6,0.3-0.9
			c0.1-0.3,0.2-0.6,0.2-0.9c0.3-1.2,0.6-2.5,0.9-3.7c0.2-1.3,0.4-2.5,0.6-3.8c0.2-1.2,0.3-2.5,0.4-3.7c0.1-1.2,0.1-2.4,0.2-3.5
			c0-1.1,0-2.1,0-3.1c0-1.9-0.1-3.5-0.3-4.6c0-0.3-0.1-0.5-0.1-0.7c0-0.1,0-0.2,0-0.3c0-0.1,0-0.1,0-0.2c0-0.1,0-0.1,0-0.1
			c0-0.1,0-0.1,0-0.1c0-0.1,0-0.1,0-0.1l0,0c-0.3-1.1,0.4-2.2,1.6-2.5c1.1-0.3,2.2,0.4,2.5,1.6C361.5,185.4,361.5,185.5,361.5,185.5
			z"/>
		<path class="st5" d="M418.6,365.9c0,0,0.1-0.1,0.4-0.4c0.3-0.3,0.7-0.6,1.2-1.1c1.1-1,2.7-2.3,4.7-3.7c1-0.7,2.2-1.4,3.5-2
			c1.3-0.6,2.6-1.3,4.1-1.8c1.5-0.5,3-1,4.6-1.4c0.4-0.1,0.8-0.2,1.2-0.3c0.4-0.1,0.8-0.2,1.2-0.2c0.8-0.1,1.6-0.3,2.4-0.4l1.2-0.1
			c0.4,0,0.8-0.1,1.2-0.1c0.8-0.1,1.6-0.1,2.4-0.1c0.8,0,1.6,0,2.4,0c0.8,0,1.5,0.1,2.3,0.1c1.5,0.1,3,0.2,4.3,0.4
			c0.7,0.1,1.4,0.2,2,0.3c0.6,0.1,1.3,0.2,1.9,0.3c1.2,0.2,2.3,0.4,3.2,0.6c1,0.2,1.8,0.4,2.5,0.6c1.4,0.3,2.1,0.5,2.1,0.5
			c0.6,0.1,0.9,0.7,0.7,1.3c-0.1,0.5-0.7,0.9-1.2,0.8l0,0c0,0-0.8-0.2-2.1-0.4c-0.7-0.2-1.5-0.3-2.4-0.5c-0.9-0.2-2-0.3-3.1-0.5
			c-0.6-0.1-1.2-0.1-1.8-0.2c-0.6-0.1-1.3-0.1-1.9-0.2c-1.3-0.1-2.7-0.2-4.2-0.2c-0.7,0-1.5,0-2.2,0c-0.7,0-1.5,0-2.2,0.1
			c-0.8,0.1-1.5,0.1-2.3,0.2c-0.4,0-0.8,0.1-1.1,0.1l-1.1,0.2c-0.8,0.1-1.5,0.3-2.2,0.4c-0.4,0.1-0.7,0.2-1.1,0.3
			c-0.4,0.1-0.7,0.2-1.1,0.3c-1.4,0.4-2.8,0.9-4.1,1.4c-1.3,0.5-2.5,1.1-3.6,1.8c-1.1,0.6-2.1,1.3-3,1.9c-1.8,1.3-3.2,2.6-4.1,3.5
			c-0.5,0.5-0.8,0.8-1.1,1.1c-0.3,0.3-0.4,0.4-0.4,0.4c-0.8,0.8-2.1,0.9-2.9,0.1C417.7,368.1,417.7,366.8,418.6,365.9
			C418.5,366,418.5,366,418.6,365.9L418.6,365.9z"/>
		<path class="st9" d="M424.5,73.3c0.8-4.2,14.9-10.2,23.9-10.2c6.4,0,31.9,5.8,57.9,4.5c0,0,17.9,39,3,44.8
			c-16.4-5.2-37.8-1.1-37.8-1.1L424.5,73.3z"/>
		<path class="st9" d="M413.3,73.6c0,0,6.2-8.5,19.4-4.4C441.7,78.2,413.3,73.6,413.3,73.6z"/>
		<path class="st13" d="M581.6,392.6l-2.8-6.8l-6.4-2.1c0.3,1.5,6.4,7.5,5.8,9.7c0.6,0.2,1.2,0.3,1.5,0.5
			C579.7,393.9,580.4,393.4,581.6,392.6z"/>
		<path class="st12" d="M326.6,231.8c-3.5-16.2-15.1-34.5-18.6-39.7c0,0,2.2-0.7,4.2-1.1c4.2,6.5,14.5,23.3,18.2,39.1
			C328.9,230.9,326.6,231.8,326.6,231.8z"/>
		<path class="st12" d="M317.7,235.4c-3.7-17.4-16.8-37.2-19.2-40.8c0,0,2.8-0.8,4.2-1.2c3.8,5.7,15.1,23.7,18.9,40.4
			C320.2,234.8,317.7,235.4,317.7,235.4z"/>
		<polygon class="st13" points="252.7,215 297.9,199.3 254.7,212.5 		"/>
		<path class="st12" d="M408.8,173c-5.1,0.7-10.5,1.6-16,2.8c23.2,1.8,61.9,72.5,24.2,84.9c4.8-0.5,9.6-0.5,14.6-0.3
			C463.9,245.8,432.7,184,408.8,173z"/>
		<path class="st12" d="M434.2,279c-4.9-1.2-10.3-2.1-14.2,0.9c-3.7,10-5.1,16.6-5.1,16.6c3-7.2,9.3-6.3,14.9-4.9
			c18.2,4.4,40.8,35.9,50.3,44.3c1.7,1.5,4.2,1.1,5.5-0.7c1.2-1.7,2.8-4.1,4.8-7.2C477.4,314.5,453.6,283.8,434.2,279z"/>
		<path class="st9" d="M441.2,281.7c-2.4-1.2-4.7-2.1-7-2.7c-4.9-1.2-10.3-2.1-14.2,0.9c-0.4,1-0.7,1.9-1,2.9
			C427,282.6,434.4,282.3,441.2,281.7z"/>
		<path class="st6" d="M615.7,392.6c5.6,19.3-6,43.1,2.1,42.7C625.9,434.9,622.3,403.1,615.7,392.6z"/>
		<path class="st6" d="M597.2,352.5c1.6,0.5,10.7,0.5,10.7,0.5l1.8,4.8c0,0-4.1,7.1-4.3,9.2C602.8,368,597.2,352.5,597.2,352.5z"/>
		<path class="st6" d="M610.4,382.3c1.6,0.4,9,1.6,9,1.6l1.7,5.9c0,0-3.4,3.6-4.2,5.5C613.1,393.7,610.4,382.3,610.4,382.3z"/>
		<path class="st6" d="M621.1,414.8c1.1-1.2,6.5-6.4,6.5-6.4l-1.9-5.8c0,0-4.8-1-6.6-2.2C616.8,403.9,621.1,414.8,621.1,414.8z"/>
		<path class="st6" d="M621.5,426.7c0.7-0.7,5.3-2.6,5.3-2.6l0.3-5.5c0,0-3.8-1.2-5.2-2.7C620.3,417.9,621.5,426.7,621.5,426.7z"/>
		<path class="st6" d="M619.5,433.6c0.6-0.4,3.9-0.7,3.9-0.7l1.2-3.6c0,0-2.3-1.5-2.9-2.7C620.2,427.6,619.5,433.6,619.5,433.6z"/>
		<path class="st7" d="M572.8,362.9c0,0,14.4-12,18.7-12.3c10.8-0.8,15.5,21.9,17.2,28.3c1.2,4.2,9.4,14.3,11.7,29.5
			c1.2,7.7-5.9,25-2.8,26.9c-7.1,0.3-8.8-20-12.3-22.8c-3.5-2.8-24.9-16.6-25.7-18.6c2.3-4.6-7.2-6.9-7.5-10.8
			c-0.8-10.3,13.8-2.1,13.8-2.1s3.2-7.7-0.7-11.9C582.2,365.8,572.4,367.8,572.8,362.9z"/>
		<path class="st12" d="M601.4,375.6c-13.5-10.6-20.3-17.4-21.1-18.5c-4,2.9-7.4,5.7-7.4,5.7c-0.5,4.9,9.4,3,12.5,6.3
			c3.9,4.2,0.7,11.9,0.7,11.9s-2.8,5.5-2.3,8.9s28.2,26.3,28.2,26.3l8.6-7.9C618.3,396.8,614.9,386.2,601.4,375.6z"/>
		<path class="st12" d="M606,413L606,413c3.2,4.2,5,22.5,11.8,22.3c-1.9-2.1,5-15,2.8-26.9C612.6,406.3,606,413,606,413z"/>
		<path class="st5" d="M606,410.7c-0.1,0-0.1,0-0.2,0l-7.9-2.7c-0.2-0.1-0.4-0.3-0.4-0.5l-1.2-7.1l-5.7,2.3c-0.2,0.1-0.4,0.1-0.6,0
			s-0.3-0.3-0.3-0.5l-0.8-7.1l-7.7,1c-0.3,0-0.7-0.2-0.7-0.5c0-0.3,0.2-0.7,0.5-0.7l8.4-1c0.2,0,0.3,0,0.5,0.1
			c0.1,0.1,0.2,0.3,0.2,0.4l0.8,6.9l5.7-2.3c0.2-0.1,0.4-0.1,0.5,0c0.2,0.1,0.3,0.3,0.3,0.4l1.2,7.5l7.6,2.6
			c0.3,0.1,0.5,0.5,0.4,0.8C606.5,410.5,606.2,410.7,606,410.7z"/>
		<path class="st5" d="M559.3,427.7c-1.1,0-2.1-0.1-3.2-0.4c-6.7-1.6-11.2-8.4-10.3-15.3c0.6-4.8,3.8-9.2,9-12.2
			c6.3-3.6,15.1-5.4,26.4-5.2c0.3,0,0.6,0.3,0.6,0.6c0,0.3-0.3,0.6-0.6,0.6c0,0,0,0,0,0c-11-0.2-19.7,1.5-25.7,5
			c-4.8,2.8-7.8,6.8-8.4,11.3c-0.8,6.3,3.3,12.4,9.4,13.9c4.3,1.1,9.1-0.3,13.5-4c5.5-4.5,10.3-12.2,14.2-22.9
			c0.1-0.3,0.5-0.5,0.8-0.4c0.3,0.1,0.5,0.5,0.4,0.8c-4,10.9-8.9,18.7-14.6,23.4C567,426.2,563.1,427.7,559.3,427.7z"/>
		<path class="st5" d="M576.4,425.8c-0.6,0-1.2,0-1.7-0.1c-3.2-0.5-6-2.5-7.7-5.5c-0.2-0.3-0.1-0.7,0.2-0.8c0.3-0.2,0.7-0.1,0.8,0.2
			c1.5,2.6,4,4.4,6.8,4.9c2.9,0.5,5.9-0.4,8.4-2.6c6.4-5.5,5.1-19.4,0.9-24.9c-0.2-0.3-0.2-0.7,0.1-0.9c0.3-0.2,0.7-0.2,0.9,0.1
			c4.5,6,5.9,20.6-1.1,26.6C581.7,424.8,579.1,425.8,576.4,425.8z"/>
		<path class="st7" d="M591.8,121.7c0,0,0-0.1,0.1-0.2c0-0.2,0.1-0.4,0.2-0.6c0.1-0.3,0.2-0.6,0.3-0.9c0.1-0.4,0.3-0.8,0.4-1.2
			c0.2-0.4,0.4-0.9,0.6-1.4c0.2-0.5,0.4-1,0.7-1.5c0.1-0.3,0.3-0.5,0.4-0.8c0.1-0.3,0.3-0.5,0.4-0.8c0.3-0.5,0.6-1,1-1.6
			c0.3-0.5,0.7-1,1-1.5c0.4-0.5,0.7-1,1.1-1.4c0.4-0.5,0.7-0.9,1.1-1.3c0.3-0.4,0.7-0.8,1-1.1c0.3-0.3,0.6-0.7,0.9-0.9
			c0.3-0.3,0.5-0.5,0.7-0.7c0.4-0.4,0.6-0.6,0.6-0.6c0.7-0.6,1.7-0.6,2.3,0c0.6,0.7,0.6,1.7,0,2.3c0,0-0.1,0.1-0.1,0.1l-0.1,0.1
			c0,0-0.2,0.2-0.6,0.5c-0.2,0.2-0.4,0.3-0.7,0.6c-0.3,0.2-0.6,0.5-0.9,0.8c-0.3,0.3-0.7,0.6-1,0.9c-0.3,0.4-0.7,0.7-1.1,1.1
			c-0.4,0.4-0.7,0.8-1.1,1.2c-0.4,0.4-0.7,0.9-1.1,1.3c-0.3,0.5-0.7,0.9-1,1.4c-0.2,0.2-0.3,0.5-0.5,0.7c-0.1,0.2-0.3,0.5-0.4,0.7
			c-0.3,0.5-0.5,0.9-0.8,1.3c-0.2,0.4-0.5,0.9-0.6,1.2c-0.2,0.4-0.4,0.7-0.5,1.1c-0.1,0.3-0.3,0.6-0.3,0.8c-0.1,0.2-0.2,0.4-0.2,0.5
			c0,0.1-0.1,0.2-0.1,0.2l0,0c-0.1,0.4-0.6,0.7-1,0.5C591.9,122.6,591.7,122.2,591.8,121.7z"/>
		<path class="st7" d="M600.5,105.5c0,0,0,0.1-0.1,0.2c-0.1,0.1-0.2,0.2-0.4,0.4c-0.3,0.4-0.8,0.9-1.3,1.6c-0.3,0.3-0.5,0.7-0.8,1.1
			c-0.3,0.4-0.6,0.8-0.9,1.3c-0.3,0.5-0.6,0.9-0.9,1.4c-0.3,0.5-0.6,1-0.9,1.5c-0.3,0.5-0.6,1-0.8,1.5c-0.3,0.5-0.5,1-0.7,1.5
			c-0.1,0.2-0.2,0.5-0.3,0.7c-0.1,0.2-0.2,0.5-0.3,0.7c-0.2,0.5-0.3,0.9-0.5,1.3c-0.1,0.4-0.2,0.8-0.3,1.1c-0.1,0.3-0.2,0.6-0.2,0.9
			c-0.1,0.5-0.2,0.8-0.2,0.8l0,0.1c-0.1,0.4-0.6,0.7-1,0.6c-0.4-0.1-0.7-0.5-0.6-0.9c0,0,0-0.3,0.1-0.8c0-0.3,0.1-0.6,0.1-1
			c0.1-0.4,0.2-0.8,0.3-1.2c0.1-0.5,0.2-0.9,0.4-1.4c0.1-0.3,0.1-0.5,0.2-0.8c0.1-0.3,0.2-0.5,0.3-0.8c0.2-0.5,0.4-1.1,0.6-1.7
			c0.2-0.6,0.5-1.1,0.7-1.7c0.2-0.6,0.5-1.1,0.8-1.7c0.3-0.5,0.5-1.1,0.8-1.6c0.3-0.5,0.5-1,0.8-1.4c0.3-0.5,0.5-0.9,0.8-1.3
			c0.5-0.8,0.9-1.4,1.2-1.9c0.2-0.2,0.3-0.4,0.4-0.5c0.1-0.1,0.1-0.2,0.1-0.2c0.5-0.7,1.6-0.9,2.3-0.4c0.7,0.5,0.9,1.6,0.4,2.3
			C600.5,105.4,600.5,105.5,600.5,105.5L600.5,105.5z"/>
		<path class="st7" d="M526.5,80.9c0,0,0,0.1,0.1,0.3c0.1,0.2,0.2,0.5,0.3,0.9c0.3,0.8,0.6,1.8,1,3.1c0.2,0.7,0.4,1.4,0.6,2.1
			c0.2,0.7,0.4,1.5,0.6,2.4c0.2,0.8,0.4,1.7,0.6,2.5c0.2,0.9,0.4,1.8,0.5,2.6c0.2,0.9,0.3,1.8,0.4,2.7c0.1,0.4,0.1,0.9,0.2,1.3
			c0.1,0.4,0.1,0.9,0.2,1.3c0,0.4,0.1,0.8,0.1,1.2c0,0.4,0.1,0.8,0.1,1.2c0.1,0.8,0.1,1.5,0.1,2.2c0,0.7,0.1,1.3,0.1,1.9
			c0,0.6,0,1,0,1.4c0,0.8,0,1.2,0,1.2c0,0.5-0.4,0.8-0.8,0.8c-0.4,0-0.8-0.3-0.8-0.8l0,0c0,0,0-0.4-0.1-1.2c0-0.4,0-0.8-0.1-1.4
			c-0.1-0.5-0.1-1.1-0.2-1.8c-0.1-0.7-0.2-1.4-0.3-2.1c-0.1-0.4-0.1-0.8-0.2-1.1c-0.1-0.4-0.1-0.8-0.2-1.2c-0.1-0.4-0.1-0.8-0.2-1.2
			c-0.1-0.4-0.2-0.8-0.3-1.3c-0.2-0.8-0.4-1.7-0.6-2.6c-0.2-0.9-0.4-1.7-0.7-2.5c-0.2-0.8-0.5-1.6-0.7-2.4c-0.3-0.8-0.5-1.5-0.7-2.3
			c-0.2-0.7-0.5-1.4-0.7-2c-0.4-1.2-0.8-2.3-1.1-3c-0.1-0.3-0.3-0.6-0.3-0.8c-0.1-0.2-0.1-0.3-0.1-0.3l0,0c-0.4-0.8,0-1.8,0.9-2.2
			C525.1,79.6,526.1,80,526.5,80.9C526.4,80.9,526.5,80.9,526.5,80.9z"/>
		<path class="st7" d="M530.7,82.3c0,0,0.1,0.4,0.2,1.2c0.1,0.7,0.3,1.8,0.4,3.1c0.1,0.6,0.2,1.3,0.2,2c0.1,0.7,0.2,1.5,0.3,2.3
			c0.1,0.8,0.1,1.6,0.2,2.4c0,0.4,0.1,0.8,0.1,1.3c0,0.4,0.1,0.8,0.1,1.3c0.1,0.8,0.1,1.7,0.2,2.5c0.1,0.8,0.1,1.7,0.1,2.5
			c0,0.8,0,1.6,0.1,2.3c0,0.4,0,0.7,0,1.1c0,0.3,0,0.7,0,1c0,2.5,0,4.2,0,4.2c0,0.5-0.4,0.8-0.8,0.8c-0.4,0-0.8-0.3-0.8-0.8l0,0
			c0,0-0.1-1.7-0.2-4.2c0-0.3,0-0.6-0.1-1c0-0.3-0.1-0.7-0.1-1c-0.1-0.7-0.1-1.5-0.2-2.3c-0.1-0.8-0.1-1.6-0.2-2.4
			c-0.1-0.8-0.2-1.6-0.3-2.5c-0.1-0.4-0.1-0.8-0.2-1.2c-0.1-0.4-0.1-0.8-0.2-1.2c-0.1-0.8-0.2-1.6-0.4-2.4c-0.1-0.8-0.3-1.5-0.4-2.2
			c-0.1-0.7-0.2-1.4-0.4-2c-0.2-1.2-0.4-2.2-0.6-2.9c-0.1-0.4-0.1-0.6-0.2-0.8c0-0.2-0.1-0.3-0.1-0.3l0,0c-0.2-0.9,0.4-1.8,1.3-2
			c0.9-0.2,1.8,0.4,2,1.3C530.7,82.3,530.7,82.3,530.7,82.3z"/>
		<path class="st7" d="M536.6,83.9c0,0,0,0.4-0.1,1.1c-0.1,0.7-0.2,1.7-0.3,2.9c-0.1,0.6-0.1,1.3-0.2,1.9c-0.1,0.7-0.1,1.4-0.2,2.2
			c-0.1,1.5-0.2,3.1-0.4,4.7c-0.1,0.8-0.1,1.6-0.2,2.4c-0.1,0.8-0.1,1.6-0.1,2.3c-0.1,1.5-0.1,2.9-0.2,4.1c-0.1,2.4-0.2,4-0.2,4l0,0
			c0,0.5-0.4,0.8-0.9,0.8c-0.4,0-0.8-0.4-0.8-0.8c0,0,0-1.6-0.1-4.1c0-1.2,0-2.6-0.1-4.2c0-0.8,0-1.6,0-2.4c0-0.8,0-1.6,0-2.4
			c0-1.6,0-3.3,0.1-4.8c0-0.8,0-1.5,0.1-2.2c0-0.7,0-1.4,0.1-2c0-1.2,0.1-2.2,0.1-3c0-0.7,0.1-1.1,0.1-1.1c0-0.9,0.8-1.6,1.7-1.6
			c0.9,0,1.6,0.8,1.6,1.7C536.7,83.8,536.7,83.8,536.6,83.9L536.6,83.9z"/>
		<path class="st12" d="M506.3,67.6c-3.9,0.2-7.8,0.2-11.7,0.1c3.3,7.7,12.9,32.7,6.6,42.9c2.8,0.4,5.5,1,8.1,1.8
			C524.2,106.6,506.3,67.6,506.3,67.6z"/>
		<path class="st15" d="M609.6,437c0,0-0.5,1.1-1.4,2.7c-0.4,0.8-0.9,1.7-1.5,2.7c-0.3,0.5-0.6,1-0.9,1.5c-0.3,0.5-0.7,1-1,1.5
			c-0.3,0.5-0.7,1-1,1.5c-0.4,0.5-0.7,1-1.1,1.4c-0.4,0.5-0.7,0.9-1.1,1.3c-0.4,0.4-0.7,0.8-1,1.1c-0.3,0.3-0.6,0.7-0.9,0.9
			c-0.3,0.3-0.5,0.5-0.7,0.7c-0.4,0.4-0.6,0.6-0.6,0.6c-0.7,0.7-1.9,0.7-2.7,0c-0.7-0.7-0.7-1.9,0-2.7c0.1-0.1,0.2-0.2,0.3-0.2
			l0.1-0.1c0,0,0.2-0.2,0.7-0.4c0.2-0.1,0.5-0.3,0.8-0.5c0.3-0.2,0.6-0.4,1-0.7c0.4-0.2,0.7-0.6,1.1-0.9c0.4-0.3,0.8-0.7,1.2-1
			c0.4-0.4,0.8-0.7,1.3-1.1c0.4-0.4,0.8-0.8,1.3-1.2c0.4-0.4,0.8-0.9,1.2-1.3c0.4-0.4,0.8-0.9,1.2-1.3c0.7-0.8,1.4-1.6,2-2.3
			C608.9,437.9,609.6,437,609.6,437z"/>
		<path class="st15" d="M624.8,445.1c0,0,0.1-0.1,0.2-0.3c0.1-0.1,0.1-0.2,0.2-0.3c0.1-0.1,0.2-0.3,0.3-0.4c0.2-0.3,0.5-0.8,0.9-1.2
			c0.3-0.5,0.7-1.1,1.1-1.7c0.4-0.6,0.8-1.3,1.2-2.1c0.2-0.4,0.4-0.8,0.6-1.2c0.2-0.4,0.4-0.8,0.6-1.2c0.4-0.9,0.8-1.7,1.1-2.7
			c0.2-0.5,0.4-0.9,0.5-1.4c0.2-0.5,0.3-1,0.5-1.4l0.2-0.7l0.1-0.4l0.1-0.4c0.1-0.5,0.2-1,0.4-1.5c0.1-0.2,0.1-0.5,0.2-0.7
			c0.1-0.2,0.1-0.5,0.1-0.7c0.1-0.5,0.2-1,0.3-1.4c0-0.2,0.1-0.5,0.1-0.7c0-0.2,0.1-0.5,0.1-0.7c0.1-0.5,0.1-0.9,0.2-1.4
			c0-0.4,0.1-0.9,0.1-1.3c0-0.4,0-0.8,0-1.2c0-0.4,0-0.8,0-1.1c0-0.4,0-0.7,0-1c0-0.6,0-1.2-0.1-1.6c0-0.9-0.1-1.4-0.1-1.4
			s0.1,0.5,0.3,1.4c0.1,0.5,0.2,1,0.4,1.6c0.1,0.3,0.1,0.7,0.2,1c0.1,0.4,0.1,0.7,0.2,1.1c0.1,0.4,0.1,0.8,0.2,1.2
			c0.1,0.4,0.1,0.9,0.1,1.3c0,0.5,0.1,0.9,0.1,1.4c0,0.2,0,0.5,0.1,0.7c0,0.2,0,0.5,0,0.7c0,0.5,0,1,0,1.5c0,0.3,0,0.5,0,0.8
			c0,0.3,0,0.5,0,0.8c0,0.5-0.1,1.1-0.1,1.6l0,0.4l0,0.4l-0.1,0.8c-0.1,0.5-0.1,1.1-0.2,1.6c-0.1,0.5-0.2,1.1-0.3,1.6
			c-0.2,1.1-0.4,2.1-0.6,3.1c-0.1,0.5-0.3,1-0.4,1.5c-0.1,0.5-0.2,1-0.4,1.4c-0.3,0.9-0.6,1.8-0.9,2.5c-0.3,0.8-0.6,1.5-0.8,2.1
			c-0.3,0.6-0.5,1.2-0.7,1.6c-0.1,0.2-0.2,0.4-0.3,0.6c-0.1,0.2-0.2,0.4-0.3,0.5c-0.1,0.2-0.2,0.4-0.2,0.4c-0.9,1.6-2.9,2.2-4.5,1.3
			c-1.6-0.9-2.2-2.9-1.3-4.5C624.5,445.5,624.7,445.3,624.8,445.1L624.8,445.1z"/>
		<path class="st15" d="M648,418.8c0,0,0,0,0.1-0.1c0-0.1,0.1-0.2,0.2-0.4c0.1-0.2,0.2-0.4,0.2-0.7c0.1-0.3,0.2-0.6,0.3-0.9
			c0.1-0.3,0.2-0.7,0.2-1.1c0-0.2,0-0.4,0.1-0.6c0-0.2,0.1-0.4,0.1-0.6c0-0.2,0-0.4,0-0.7c0-0.2,0-0.4,0-0.7c0-0.5-0.1-0.9-0.1-1.4
			c0-0.2-0.1-0.5-0.1-0.7c-0.1-0.2-0.1-0.5-0.2-0.7c-0.1-0.4-0.3-0.9-0.4-1.3c-0.2-0.4-0.4-0.8-0.5-1.2c0-0.1-0.1-0.2-0.1-0.3
			c-0.1-0.1-0.1-0.2-0.2-0.3c-0.1-0.2-0.2-0.3-0.3-0.5c-0.2-0.3-0.3-0.6-0.5-0.8c-0.2-0.2-0.3-0.4-0.5-0.6c-0.3-0.3-0.4-0.5-0.4-0.5
			s0.2,0.2,0.5,0.5c0.2,0.2,0.3,0.3,0.5,0.6c0.2,0.2,0.4,0.5,0.7,0.8c0.1,0.1,0.2,0.3,0.4,0.5c0.1,0.1,0.1,0.2,0.2,0.2
			c0.1,0.1,0.1,0.2,0.2,0.3c0.2,0.4,0.5,0.7,0.7,1.1c0.2,0.4,0.4,0.9,0.6,1.3c0.1,0.2,0.2,0.5,0.3,0.7c0.1,0.2,0.2,0.5,0.2,0.7
			c0.1,0.5,0.3,1,0.4,1.5c0,0.2,0.1,0.5,0.1,0.7c0,0.2,0.1,0.5,0.1,0.7c0,0.2,0,0.5,0,0.7c0,0.2,0,0.5,0,0.7c0,0.4,0,0.9-0.1,1.3
			c0,0.4-0.1,0.7-0.2,1.1c-0.1,0.3-0.1,0.6-0.2,0.8c-0.1,0.2-0.1,0.4-0.2,0.6c0,0.1-0.1,0.2-0.1,0.2c-0.2,0.6-0.8,0.9-1.4,0.7
			c-0.6-0.2-0.9-0.8-0.7-1.4C648,418.9,648,418.8,648,418.8L648,418.8z"/>
		<path class="st5" d="M474,116c0,0,2.8-0.7,3.8,1.8c1,2.5-1.3,12.7-1.3,12.7s2-2.2,3.7-1.1c1.6,1.1,1.6,7.1,1.6,7.1l-13,1.7
			c0,0-6.1-13.3-6.1-13.7c0-0.4,2.3-12.1,2.3-12.1L474,116z"/>
		<path class="st6" d="M229.6,267.9c-1.2,1.1-5.8,9-5.8,9l-5.1-0.9c0,0-4-7.1-5.8-8.3C213.3,264.9,229.6,267.9,229.6,267.9z"/>
		<path class="st6" d="M192.9,260.6c-1.1,1.2-5.6,7.2-5.6,7.2l-6-1.2c0,0-1.9-3.9-3-6.3C181.5,257.8,192.9,260.6,192.9,260.6z"/>
		<path class="st6" d="M159.1,255.1c0.6,1.5,2.7,8.7,2.7,8.7l6.1,1c0,0,3.2-3.4,5.2-4.9C170.9,256.3,159.1,255.1,159.1,255.1z"/>
		<path class="st6" d="M144.9,253c0.5,0.9,0.7,5.8,0.7,5.8l5.1,2.1c0,0,2.4-3.2,4.3-4C153.6,254.8,144.9,253,144.9,253z"/>
		<path class="st12" d="M172.5,240.1L172.5,240.1c-6.8,0.4-29.9-3.4-33.6,2.1c3.5-1.4,22.4,8.7,29.3,12.3c0.6,0.3,1.2,0.6,1.8,0.9
			L172.5,240.1z"/>
		<path class="st6" d="M146.2,241.9c3.7,0.8,32.8,10.7,42.4,11.2c15.6,0.7,34.1,6.7,38.5,10.4c4.4,3.7,5.6,13.2-16.4,6.5
			c-15.4-4.7-23.6-9.9-44.6-10.4C140.6,259,128.2,238.1,146.2,241.9z"/>
		<path class="st10" d="M376,133.3c4.5-0.7,7.1-0.3,7.8,4.2c0.6,4.2-7.3,11.8-11.3,13l-59.7,19.8c-14.4,4.5-21.3-4.6-22.4-12
			c-1.1-7.3,4.7-18.6,18.4-20C337.1,135.4,376,133.3,376,133.3z"/>
		<path class="st7" d="M308.8,138.3c-13.7,1.4-19.5,12.7-18.4,20c1.1,7.4,8,16.4,22.4,12l47.1-15.6l0,0c-6.4-6.7-2.3-20.3-2.3-20.3
			C343.8,135.3,324.6,136.7,308.8,138.3z"/>
		<path class="st7" d="M306.2,138c0,0,3.6-4.9,8.2-2.5C319.1,140.2,306.2,138,306.2,138z"/>
		<circle class="st7" cx="306.2" cy="140.4" r="3.4"/>
		<path class="st7" d="M359.1,155.1c0,0-0.1-0.1-0.2-0.2c-0.1-0.1-0.2-0.3-0.4-0.6c-0.3-0.5-0.8-1.2-1.3-2.2c-0.2-0.5-0.5-1-0.7-1.5
			c-0.2-0.5-0.5-1.1-0.7-1.7c-0.2-0.6-0.4-1.3-0.6-1.9c-0.2-0.7-0.3-1.4-0.4-2c-0.1-0.3-0.1-0.7-0.2-1c0-0.3-0.1-0.7-0.1-1
			c0-0.7-0.1-1.4,0-2c0-0.7,0.1-1.3,0.1-1.9c0-0.3,0.1-0.6,0.1-0.9c0.1-0.3,0.1-0.6,0.2-0.8c0.1-0.5,0.2-1,0.3-1.4
			c0.1-0.4,0.2-0.8,0.3-1.1c0.2-0.6,0.3-0.9,0.3-0.9c0.3-0.9,1.3-1.3,2.1-1c0.9,0.3,1.3,1.3,1,2.1c0,0,0,0.1,0,0.1l0,0.1
			c0,0-0.1,0.3-0.3,0.8c-0.1,0.2-0.2,0.5-0.4,0.9c-0.1,0.3-0.3,0.7-0.4,1.2c-0.1,0.2-0.1,0.5-0.2,0.7c-0.1,0.2-0.1,0.5-0.2,0.7
			c-0.1,0.5-0.2,1.1-0.2,1.6c-0.1,0.6-0.1,1.2-0.1,1.8c0,0.3,0,0.6,0,0.9c0,0.3,0,0.6,0.1,0.9c0.1,0.6,0.1,1.2,0.3,1.9
			c0.1,0.6,0.2,1.2,0.4,1.8c0.2,0.6,0.3,1.1,0.5,1.6c0.2,0.5,0.4,1,0.6,1.4c0.4,0.9,0.7,1.6,1,2.1c0.1,0.2,0.2,0.4,0.3,0.6
			c0.1,0.1,0.1,0.2,0.1,0.2l0,0c0.2,0.4,0.1,0.9-0.3,1.1C359.9,155.6,359.4,155.5,359.1,155.1z"/>
		<path class="st7" d="M353.7,134.8c0,0,0,0.1,0,0.2c0,0.1,0,0.4,0,0.6c0,0.6,0.1,1.4,0.2,2.4c0,0.5,0.1,1,0.2,1.6
			c0.1,0.6,0.1,1.1,0.2,1.8c0.1,0.6,0.2,1.2,0.3,1.9c0.1,0.6,0.2,1.3,0.4,1.9c0.1,0.6,0.3,1.3,0.5,1.9c0.2,0.6,0.3,1.2,0.5,1.8
			c0.2,0.6,0.4,1.1,0.6,1.7c0.2,0.5,0.4,1,0.6,1.5c0.2,0.4,0.4,0.8,0.6,1.2c0.2,0.4,0.4,0.6,0.5,0.9c0.3,0.5,0.4,0.8,0.4,0.8l0,0.1
			c0.2,0.4,0.1,0.9-0.3,1.1c-0.4,0.2-0.9,0.1-1.1-0.2c0,0-0.2-0.3-0.5-0.8c-0.2-0.3-0.4-0.6-0.6-0.9c-0.2-0.4-0.5-0.8-0.7-1.2
			c-0.2-0.5-0.5-1-0.7-1.5c-0.3-0.5-0.5-1.1-0.7-1.7c-0.3-0.6-0.5-1.2-0.7-1.9c-0.2-0.6-0.4-1.3-0.6-2c-0.2-0.7-0.4-1.3-0.5-2
			c-0.2-0.7-0.3-1.3-0.5-1.9c-0.1-0.6-0.3-1.2-0.4-1.8c-0.1-0.6-0.2-1.1-0.3-1.6c-0.2-1-0.3-1.9-0.4-2.5c0-0.3-0.1-0.5-0.1-0.7
			c0-0.2,0-0.2,0-0.2c-0.1-0.9,0.6-1.7,1.5-1.8c0.9-0.1,1.7,0.6,1.8,1.5C353.7,134.7,353.7,134.8,353.7,134.8L353.7,134.8z"/>
		<circle class="st16" cx="665.8" cy="382.5" r="3.7"/>
		<circle class="st16" cx="686.1" cy="340.4" r="6"/>
		<circle class="st16" cx="641.4" cy="344.1" r="2.5"/>
		<circle class="st16" cx="118.1" cy="280.4" r="4.6"/>
		
			<ellipse transform="matrix(0.9246 -0.3809 0.3809 0.9246 -52.7241 82.2967)" class="st16" cx="181.5" cy="174.3" rx="2.8" ry="2.8"/>
		<circle class="st16" cx="10.7" cy="242.8" r="2.8"/>
		<path class="st4" d="M156.5,277.3c0,0,1.2,0.3,3.5,0.9c2.3,0.6,5.6,1.5,9.9,2.5c1.1,0.3,2.2,0.5,3.3,0.8c0.6,0.1,1.2,0.3,1.8,0.4
			c0.6,0.1,1.3,0.3,1.9,0.4c2.6,0.5,5.4,1.1,8.4,1.7c3,0.6,6.2,1.1,9.6,1.8c3.4,0.5,6.9,1.1,10.7,1.7c7.4,1.1,15.5,2.1,24.1,3
			c8.6,0.9,17.7,1.5,27.1,2.1c4.7,0.2,9.5,0.5,14.3,0.6c1.2,0,2.4,0.1,3.6,0.1c0.6,0,1.2,0,1.8,0.1c0.6,0,1.2,0,1.8,0
			c2.5,0,4.9,0.1,7.4,0.1c2.5,0,5,0,7.5,0c1.2,0,2.5,0,3.7,0c1.2,0,2.5,0,3.8-0.1c2.5,0,5-0.1,7.5-0.1c2.5-0.1,5-0.2,7.5-0.2
			c10.1-0.4,20.1-0.9,30-1.6c1.2-0.1,2.5-0.2,3.7-0.3c1.2-0.1,2.5-0.2,3.7-0.3c2.4-0.2,4.9-0.4,7.3-0.6c4.8-0.5,9.6-0.9,14.3-1.4
			c9.4-1,18.4-2.2,27-3.3c4.3-0.6,8.5-1.2,12.5-1.8c2-0.3,4-0.6,5.9-0.9c1.9-0.3,3.8-0.6,5.7-1c3.7-0.6,7.3-1.3,10.7-1.9
			c3.4-0.6,6.6-1.2,9.6-1.8c3-0.6,5.8-1.2,8.4-1.7c1.3-0.3,2.6-0.5,3.7-0.8c1.2-0.3,2.3-0.5,3.4-0.7c2.2-0.5,4.1-0.9,5.8-1.3
			c1.7-0.4,3.1-0.7,4.2-1c2.3-0.5,3.5-0.8,3.5-0.8s-1.2,0.3-3.5,0.9c-1.1,0.3-2.6,0.6-4.2,1.1c-1.7,0.4-3.6,0.9-5.7,1.4
			c-1.1,0.3-2.2,0.5-3.4,0.8c-1.2,0.3-2.4,0.6-3.7,0.8c-2.6,0.6-5.4,1.2-8.4,1.9c-3,0.6-6.2,1.3-9.6,2c-3.4,0.7-6.9,1.4-10.7,2.1
			c-1.9,0.4-3.8,0.7-5.7,1.1c-1.9,0.3-3.9,0.7-5.9,1c-4,0.7-8.2,1.4-12.5,2.1c-8.6,1.3-17.6,2.7-27,3.9c-4.7,0.6-9.5,1.1-14.3,1.7
			c-2.4,0.3-4.9,0.5-7.3,0.8c-1.2,0.1-2.5,0.3-3.7,0.4c-1.2,0.1-2.5,0.2-3.7,0.3c-9.9,0.9-20,1.6-30.1,2.2c-2.5,0.1-5,0.3-7.6,0.4
			c-2.5,0.1-5,0.2-7.6,0.3c-1.3,0-2.5,0.1-3.8,0.1c-1.3,0-2.5,0.1-3.8,0.1c-2.5,0-5,0.1-7.5,0.1c-2.5,0-5,0-7.4,0
			c-0.6,0-1.2,0-1.8,0c-0.6,0-1.2,0-1.8,0c-1.2,0-2.5,0-3.7,0c-4.9,0-9.7-0.2-14.4-0.3c-9.5-0.3-18.6-0.8-27.3-1.5
			c-8.7-0.7-16.9-1.6-24.4-2.5c-3.8-0.5-7.4-1-10.8-1.5c-3.4-0.6-6.7-1.1-9.7-1.6c-3-0.6-5.9-1.1-8.5-1.6c-0.7-0.1-1.3-0.2-1.9-0.4
			c-0.6-0.1-1.2-0.3-1.9-0.4c-1.2-0.3-2.4-0.5-3.4-0.7c-4.4-0.9-7.7-1.8-10-2.3c-2.3-0.6-3.5-0.9-3.5-0.9c-1.7-0.4-2.8-2.2-2.4-3.9
			C153,277.9,154.7,276.8,156.5,277.3C156.5,277.2,156.5,277.3,156.5,277.3z"/>
		<path class="st11" d="M397.8,105.6c7.6-13,5.7-24.2,3-30.4c-4.6-3.5-26.5,28.2-25.4,30.1C375.5,105.2,387.9,108.6,397.8,105.6z"/>
		<path class="st6" d="M327.1,59.4c0,0,0,0,0.1,0.1c0.1,0,0.2,0.1,0.4,0.2c0.3,0.1,0.8,0.3,1.4,0.4c0.6,0.2,1.3,0.3,2,0.4
			c0.7,0.1,1.5,0.2,2.3,0.2c0.4,0,0.8,0,1.1,0c0.4,0,0.7,0,1.1-0.1c0.3,0,0.7-0.1,1-0.1c0.3-0.1,0.6-0.1,0.9-0.2
			c0.3-0.1,0.5-0.1,0.7-0.2c0.2-0.1,0.4-0.1,0.5-0.2c0.3-0.1,0.4-0.2,0.4-0.2l0.1,0c0.8-0.3,1.7,0.1,2,0.9c0.3,0.8-0.1,1.7-0.9,2
			c-0.1,0-0.2,0.1-0.4,0.1c0,0-0.2,0-0.6,0.1c-0.2,0-0.4,0.1-0.7,0.1c-0.3,0-0.6,0-0.9,0c-0.3,0-0.7,0-1.1,0c-0.4,0-0.8-0.1-1.2-0.1
			c-0.4-0.1-0.8-0.1-1.2-0.2c-0.4-0.1-0.8-0.2-1.2-0.3c-0.8-0.2-1.6-0.5-2.3-0.8c-0.7-0.3-1.4-0.6-1.9-0.9c-0.5-0.3-1-0.6-1.3-0.8
			c-0.1-0.1-0.3-0.2-0.3-0.2C327.2,59.5,327.1,59.4,327.1,59.4z"/>
		<path class="st6" d="M408,31.1c0,0-0.1,0-0.2,0c-0.1,0-0.3,0.1-0.5,0.1c-0.4,0.1-1,0.4-1.7,0.7c-0.3,0.1-0.7,0.3-1.1,0.5
			c-0.4,0.2-0.8,0.4-1.2,0.6c-0.4,0.2-0.8,0.5-1.2,0.7c-0.4,0.3-0.8,0.5-1.2,0.8c-0.4,0.3-0.8,0.6-1.2,0.9c-0.4,0.3-0.7,0.6-1,0.9
			c-0.3,0.3-0.6,0.6-0.9,0.9c-0.3,0.3-0.5,0.6-0.7,0.9c-0.2,0.3-0.4,0.5-0.5,0.8c-0.2,0.2-0.3,0.4-0.4,0.6c-0.2,0.3-0.3,0.5-0.3,0.5
			l-0.1,0.1c-0.6,1-1.8,1.3-2.7,0.7c-1-0.6-1.3-1.8-0.7-2.7c0.1-0.1,0.2-0.3,0.3-0.4c0,0,0.2-0.2,0.6-0.6c0.2-0.2,0.4-0.4,0.7-0.6
			c0.3-0.2,0.6-0.5,0.9-0.7c0.3-0.3,0.7-0.5,1.1-0.8c0.4-0.3,0.8-0.5,1.3-0.8c0.4-0.2,0.9-0.5,1.4-0.7c0.5-0.2,1-0.4,1.5-0.6
			c0.5-0.2,1-0.4,1.5-0.5c0.5-0.2,1-0.3,1.5-0.4c0.5-0.1,0.9-0.2,1.4-0.3c0.4-0.1,0.9-0.2,1.2-0.2c0.8-0.1,1.4-0.2,1.9-0.2
			c0.2,0,0.4,0,0.5,0C407.9,31.1,408,31.1,408,31.1z"/>
		<path class="st6" d="M399.1,88.6c-3.4-8.7,11.4-21,7.6-35.6c-2.4-9.3-11.3-14.7-11.3-14.7s-0.2-16.5-14.9-19.5
			c-17-3.4-39.1,18.3-49.5,0.2c-7.6,8,1.3,15.9,4.1,16.8c-8.4,4-10,13.8-10,13.8s9-4.2,10.5-2.3c-5.4,5.4-14.1,5.1-14.1,5.1
			c6.7,11.4,21.3,7.8,21.3,7.8s38.4,15.4,50.6,25.1C396,87.4,398.5,88.3,399.1,88.6z"/>
		<path class="st10" d="M353.7,107.2c3.9,3.4,15.4,3.3,23.5-2.2c8.2-5.5,14.7-15.5,14.3-17.8s-1.4-23.3-1.4-23.3l-4.8-26.6
			l-42.3,4.7c0,0-6.4,13.7-4,24.1c1.6,6.7,5.5,7.8,5.6,10.4C344.8,78.9,348.9,103.1,353.7,107.2z"/>
		
			<ellipse transform="matrix(0.9736 -0.2283 0.2283 0.9736 -10.3724 87.9301)" class="st14" cx="374.9" cy="88.8" rx="10.5" ry="7.3"/>
		<path class="st6" d="M387.8,63.5l-7.4,6c0,0,2.5-7.3-0.2-11.5c0,0-6.1,1.2-8.7,0.7c-8.3-23.3-24.4-9.8-24.4-9.8s-4.6-2.9-8.9,3.9
			l2.5-17.2l39.4-8.1l10.4,7.3l6.7,22.3L387.8,63.5z"/>
		<path class="st10" d="M386.3,70.1c0,0,0.3-9.8,6.6-11.1c12.1-2.5,12,17.7,2.5,21.8c-4.5,1.9-8.1-2.6-8.1-2.6L386.3,70.1z"/>
		<path class="st11" d="M399.2,66c0,0,0-0.1-0.1-0.1c0-0.1-0.1-0.2-0.2-0.4c-0.1-0.2-0.2-0.3-0.4-0.6c-0.2-0.2-0.4-0.4-0.6-0.6
			c-0.2-0.2-0.5-0.4-0.8-0.6c-0.3-0.2-0.7-0.3-1-0.4c-0.7-0.2-1.5-0.1-2.2,0.3c-0.7,0.3-1.2,0.9-1.6,1.6c-0.2,0.3-0.3,0.7-0.5,1
			c-0.1,0.3-0.2,0.6-0.3,0.9c-0.1,0.3-0.1,0.6-0.1,0.8c0,0.3-0.1,0.5-0.1,0.7c0,0.4,0,0.6,0,0.6l0,0c0,0.6-0.5,1-1.1,1
			c-0.6,0-1-0.5-1-1.1c0,0,0-0.1,0-0.1c0,0,0-0.2,0.1-0.7c0-0.2,0.1-0.5,0.2-0.8c0.1-0.3,0.2-0.6,0.3-1c0.1-0.4,0.3-0.7,0.5-1.1
			c0.2-0.4,0.4-0.8,0.7-1.2c0.6-0.8,1.4-1.5,2.4-1.9c0.5-0.2,1-0.3,1.5-0.3c0.5,0,1,0.1,1.5,0.2c0.5,0.1,0.9,0.4,1.2,0.6
			c0.3,0.2,0.7,0.5,0.9,0.8c0.2,0.3,0.4,0.5,0.6,0.8c0.1,0.3,0.3,0.5,0.4,0.7c0.1,0.2,0.1,0.3,0.2,0.4c0,0.1,0.1,0.2,0.1,0.2
			c0,0.1,0,0.3-0.2,0.3C399.3,66.2,399.2,66.2,399.2,66z"/>
		<path class="st11" d="M389,71.1c0,0,0.1-5.2,3.5-5.9c6.5-1.3,6.4,9.5,1.3,11.7c-2.4,1-4.4-1.4-4.4-1.4L389,71.1z"/>
		<path class="st17" d="M395,80.6c0-1.4-1.2-2.4-2.6-2.4c-1.4,0-2.4,1.2-2.4,2.6s1.2,2.4,2.6,2.4C394,83.1,395.1,82,395,80.6z"/>
		<path class="st14" d="M350.5,63.1c0,0,0,0.1,0,0.3c0,0.1,0,0.2,0.1,0.3c0,0.1,0.1,0.3,0.1,0.4c0,0.2,0.1,0.3,0.1,0.5
			c0.1,0.2,0.1,0.4,0.2,0.5c0.1,0.2,0.2,0.4,0.3,0.6c0.1,0.2,0.2,0.4,0.3,0.6c0.1,0.2,0.2,0.4,0.3,0.5c0.1,0.2,0.3,0.3,0.4,0.5
			c0.1,0.2,0.2,0.3,0.4,0.4c0.1,0.1,0.2,0.2,0.4,0.4c0.1,0.1,0.2,0.2,0.3,0.3c0.1,0.1,0.2,0.1,0.3,0.2c0.1,0.1,0.2,0.2,0.2,0.2l0,0
			c0.2,0.1,0.2,0.4,0.1,0.6c-0.1,0.2-0.4,0.2-0.6,0.1c0,0,0,0,0,0c0,0-0.1-0.1-0.2-0.2c-0.1-0.1-0.2-0.2-0.3-0.3
			c-0.1-0.1-0.2-0.2-0.3-0.3c-0.1-0.1-0.2-0.3-0.3-0.4c-0.1-0.1-0.2-0.3-0.3-0.5c-0.1-0.2-0.2-0.4-0.3-0.6c-0.1-0.2-0.2-0.4-0.3-0.6
			c-0.1-0.2-0.2-0.4-0.3-0.6c-0.1-0.2-0.2-0.4-0.2-0.6c-0.1-0.2-0.1-0.4-0.2-0.6c0-0.2-0.1-0.4-0.1-0.5c0-0.2-0.1-0.3-0.1-0.4
			c0-0.1,0-0.3,0-0.3C350.5,63.2,350.5,63.1,350.5,63.1z"/>
		<path class="st14" d="M345.7,62.7c0,0-0.1,0.1-0.2,0.3c-0.1,0.1-0.1,0.2-0.2,0.3c-0.1,0.1-0.1,0.3-0.2,0.4c0,0.2-0.1,0.3-0.1,0.5
			c0,0.2-0.1,0.4-0.1,0.6c0,0.2,0,0.4,0,0.7c0,0.2,0,0.4,0,0.7c0.1,0.9,0.3,1.8,0.6,2.4c0.1,0.2,0.1,0.3,0.2,0.4
			c0.1,0.1,0.1,0.2,0.2,0.3c0.1,0.2,0.2,0.2,0.2,0.2l0,0c0.1,0.2,0.1,0.4-0.1,0.5c-0.2,0.1-0.4,0.1-0.5-0.1c0,0,0,0,0,0
			c0,0-0.1-0.1-0.2-0.3c-0.1-0.1-0.1-0.2-0.2-0.4c-0.1-0.1-0.1-0.3-0.2-0.5c-0.2-0.7-0.4-1.6-0.4-2.6c0-0.2,0-0.5,0-0.7
			c0-0.2,0.1-0.5,0.1-0.7c0-0.2,0.1-0.4,0.2-0.6c0.1-0.2,0.1-0.4,0.2-0.5c0.1-0.2,0.1-0.3,0.2-0.4c0.1-0.1,0.1-0.2,0.2-0.3
			C345.6,62.8,345.7,62.7,345.7,62.7z"/>
		<path class="st6" d="M373,65.2l-19.5,4.6c0,0-1.7-4.2,3.9-5.7C363.1,62.4,373,65.2,373,65.2z"/>
		<path class="st6" d="M336.9,65.2l1.4,4.1l8,0.9c0,0-0.5-1.5-1.6-2.4C343.7,66.9,336.9,65.2,336.9,65.2z"/>
		<path class="st11" d="M346.6,87.2c0.4,2.1,1,4.4,1.5,6.6c0,0,7.4,0.3,11-3.5C361.6,87.6,352.1,87.2,346.6,87.2z"/>
		<path class="st10" d="M349.7,76l-4.9,14.4c0,0,7.1,5,14.3,0c2.6-1.8,0.7-3.8,0.7-3.8L349.7,76z"/>
		<path class="st6" d="M336.9,20.3c0,0,0.2,0.1,0.4,0.2c0.3,0.1,0.7,0.4,1.2,0.6c0.1,0.1,0.3,0.1,0.4,0.2c0.1,0.1,0.3,0.1,0.5,0.2
			c0.3,0.1,0.7,0.2,1.1,0.3c0.2,0,0.4,0.1,0.6,0.1c0.2,0,0.4,0.1,0.6,0.1c0.4,0.1,0.9,0.1,1.4,0.1c1,0,2,0,3.2-0.1
			c1.1-0.1,2.3-0.3,3.5-0.5c2.4-0.5,5-1.2,7.6-1.8c2.6-0.6,5.3-1.2,8-1.5c1.3-0.2,2.6-0.3,3.8-0.3c0.6,0,1.2,0,1.8,0
			c0.6,0,1.1,0,1.7,0c0.5,0,1.1,0.1,1.5,0.1c0.5,0,1,0.1,1.4,0.2c0.4,0,0.8,0.1,1.2,0.2c0.4,0.1,0.7,0.1,1,0.2c1.2,0.3,2,0.4,2,0.4
			c1.7,0.4,2.7,2,2.4,3.7c-0.4,1.7-2,2.7-3.7,2.4c-0.1,0-0.3-0.1-0.4-0.1l-0.1,0c0,0-0.6-0.2-1.6-0.6c-0.3-0.1-0.5-0.2-0.9-0.3
			c-0.3-0.1-0.6-0.2-1-0.3c-0.4-0.1-0.8-0.2-1.2-0.3c-0.4-0.1-0.9-0.2-1.3-0.3c-0.5-0.1-0.9-0.2-1.4-0.3c-0.5-0.1-1-0.1-1.6-0.2
			c-1.1-0.1-2.2-0.2-3.4-0.2c-2.4-0.1-5,0.1-7.7,0.3c-2.6,0.2-5.3,0.6-7.9,0.7c-1.3,0.1-2.5,0.1-3.7,0c-1.2,0-2.3-0.2-3.3-0.4
			c-0.5-0.1-1-0.2-1.4-0.4c-0.2-0.1-0.4-0.1-0.7-0.2c-0.2-0.1-0.4-0.2-0.6-0.2c-0.4-0.1-0.7-0.3-1.1-0.5c-0.2-0.1-0.3-0.1-0.5-0.2
			c-0.1-0.1-0.3-0.2-0.4-0.2c-0.5-0.3-0.9-0.6-1.2-0.7C337.1,20.4,336.9,20.3,336.9,20.3z"/>
		<path class="st6" d="M350.6,54.3c0,0,0.2,0.1,0.5,0.2c0.2,0.1,0.3,0.1,0.6,0.2c0.2,0.1,0.5,0.1,0.8,0.2c0.1,0,0.3,0.1,0.5,0.1
			c0.2,0,0.3,0.1,0.5,0.1c0.2,0,0.4,0.1,0.6,0.1c0.2,0,0.4,0,0.6,0.1c0.8,0.1,1.8,0.1,2.8,0c1-0.1,2.1-0.3,3.2-0.6
			c1.1-0.3,2.3-0.6,3.5-1.1c2.4-0.9,5-1.9,7.6-2.9c1.3-0.5,2.6-1,4-1.5c1.3-0.5,2.7-0.9,4-1.2c0.3-0.1,0.7-0.2,1-0.3
			c0.3-0.1,0.7-0.1,1-0.2c0.6-0.2,1.3-0.3,1.9-0.4c0.6-0.1,1.2-0.2,1.8-0.3c0.6-0.1,1.2-0.1,1.7-0.2c1.1-0.1,2.2-0.1,3.1-0.1
			c0.2,0,0.5,0,0.7,0c0.2,0,0.4,0,0.6,0c0.4,0,0.8,0,1.1,0.1c0.7,0,1.2,0.1,1.5,0.1c0.4,0,0.5,0.1,0.5,0.1c1.7,0.2,3,1.7,2.8,3.4
			c-0.2,1.7-1.7,3-3.4,2.8c-0.1,0-0.3,0-0.4-0.1l-0.1,0c0,0-0.2,0-0.4-0.1c-0.3-0.1-0.7-0.2-1.3-0.3c-0.3-0.1-0.6-0.1-0.9-0.2
			c-0.2,0-0.3-0.1-0.5-0.1c-0.2,0-0.4-0.1-0.6-0.1c-0.8-0.1-1.7-0.2-2.6-0.3c-0.5,0-1-0.1-1.5-0.1c-0.5,0-1.1,0-1.6,0
			c-0.6,0-1.1,0-1.7,0.1c-0.3,0-0.6,0-0.9,0.1c-0.3,0-0.6,0.1-0.9,0.1c-1.2,0.1-2.5,0.4-3.9,0.6c-1.3,0.2-2.7,0.6-4,0.9
			c-2.7,0.6-5.4,1.4-8,1.9c-1.3,0.3-2.6,0.5-3.8,0.6c-1.2,0.1-2.4,0.1-3.5,0.1c-1.1-0.1-2.1-0.2-2.9-0.4c-0.2-0.1-0.4-0.1-0.6-0.1
			c-0.2-0.1-0.4-0.1-0.6-0.2c-0.2-0.1-0.3-0.1-0.5-0.2c-0.2-0.1-0.3-0.1-0.5-0.2c-0.3-0.1-0.5-0.2-0.8-0.3c-0.2-0.1-0.4-0.2-0.5-0.3
			C350.7,54.4,350.6,54.3,350.6,54.3z"/>
		<path class="st6" d="M353,19.7c0,0,0-0.1,0-0.4c0-0.2,0.1-0.6,0.4-1.1c0.2-0.4,0.6-0.9,1.1-1.4c0.5-0.5,1.1-0.9,1.8-1.3
			c0.7-0.4,1.6-0.8,2.5-1.1c0.9-0.3,1.9-0.5,3-0.7c0.5-0.1,1.1-0.1,1.6-0.2c0.5,0,1.1-0.1,1.6,0c1.1,0,2.2,0.1,3.4,0.2
			c1.1,0.2,2.2,0.3,3.3,0.6c0.5,0.1,1.1,0.3,1.6,0.4c0.5,0.1,1,0.3,1.5,0.5c0.5,0.2,1,0.3,1.5,0.5c0.5,0.2,0.9,0.4,1.4,0.5
			c0.9,0.4,1.7,0.8,2.5,1.1c0.8,0.4,1.5,0.7,2.1,1.1c0.6,0.3,1.1,0.6,1.6,0.9c0.8,0.5,1.3,0.8,1.3,0.8c1.5,0.9,2,2.8,1.1,4.3
			c-0.9,1.5-2.8,2-4.3,1.1c-0.2-0.1-0.3-0.2-0.4-0.3l-0.1-0.1c0,0-0.4-0.3-1-0.9c-0.3-0.3-0.7-0.6-1.2-1c-0.5-0.4-1-0.8-1.6-1.3
			c-0.6-0.4-1.3-0.9-2-1.4c-0.4-0.2-0.7-0.5-1.1-0.7c-0.4-0.2-0.8-0.5-1.2-0.7c-0.4-0.2-0.8-0.5-1.3-0.7c-0.4-0.2-0.9-0.4-1.3-0.6
			c-0.9-0.4-1.9-0.8-2.8-1.1c-1-0.3-1.9-0.6-2.9-0.7c-0.5-0.1-1-0.2-1.5-0.2c-0.5,0-1-0.1-1.4-0.1c-1,0-1.9,0-2.7,0.1
			c-0.9,0.1-1.7,0.3-2.4,0.5c-0.7,0.3-1.4,0.6-1.9,0.9c-0.5,0.4-0.9,0.7-1.2,1.1c-0.3,0.4-0.4,0.7-0.5,0.9
			C353.1,19.6,353,19.7,353,19.7z"/>
		<path class="st6" d="M365.6,15.1c0,0,0.1-0.1,0.4-0.3c0.2-0.2,0.6-0.4,1.1-0.7c0.3-0.1,0.5-0.3,0.9-0.4c0.3-0.1,0.7-0.3,1.1-0.4
			c0.2-0.1,0.4-0.1,0.6-0.2c0.2-0.1,0.4-0.1,0.6-0.2c0.4-0.1,0.9-0.2,1.4-0.3c1-0.1,2.1-0.2,3.2-0.2c1.2,0,2.4,0.1,3.6,0.4
			c1.2,0.2,2.5,0.6,3.8,1.1c1.3,0.5,2.5,1.1,3.7,1.8l0.4,0.3l0.4,0.3c0.3,0.2,0.6,0.4,0.8,0.6c0.5,0.4,1.1,0.9,1.6,1.4
			c0.5,0.5,1,1,1.4,1.5c0.2,0.3,0.4,0.5,0.6,0.8c0.2,0.3,0.4,0.5,0.6,0.8c0.4,0.6,0.7,1.1,1,1.7c0.2,0.3,0.3,0.6,0.4,0.8
			c0.1,0.3,0.3,0.6,0.4,0.9c0.1,0.3,0.2,0.6,0.4,0.8c0.1,0.3,0.2,0.6,0.3,0.8c0.1,0.3,0.2,0.5,0.3,0.8c0.1,0.3,0.1,0.5,0.2,0.8
			c0.3,1,0.4,2,0.6,2.9c0.1,0.9,0.2,1.6,0.2,2.2c0.1,1.2,0.1,1.9,0.1,1.9c0.1,1.4-1,2.5-2.4,2.6c-1.4,0.1-2.5-1-2.6-2.4
			c0-0.1,0-0.2,0-0.3l0-0.1c0,0,0-0.6,0.1-1.7c0-0.5,0-1.2,0-1.9c-0.1-0.7-0.1-1.6-0.2-2.4c0-0.2-0.1-0.4-0.1-0.7
			c0-0.2-0.1-0.5-0.1-0.7c-0.1-0.2-0.1-0.5-0.2-0.7c-0.1-0.2-0.1-0.5-0.2-0.7c-0.1-0.2-0.1-0.5-0.2-0.7c-0.1-0.2-0.2-0.5-0.3-0.7
			c-0.2-0.5-0.4-1-0.7-1.5c-0.1-0.3-0.3-0.5-0.4-0.7c-0.1-0.2-0.3-0.5-0.4-0.7c-0.3-0.5-0.6-1-1-1.4c-0.4-0.5-0.8-0.9-1.2-1.3
			c-0.2-0.2-0.4-0.4-0.7-0.6l-0.3-0.3l-0.4-0.3c-0.9-0.8-2-1.5-3.1-2c-1.1-0.6-2.2-1-3.3-1.4c-1.1-0.4-2.3-0.6-3.3-0.8
			c-1.1-0.2-2.1-0.2-3.1-0.2c-0.5,0-0.9,0-1.4,0.1c-0.2,0-0.4,0-0.6,0.1c-0.2,0-0.4,0.1-0.6,0.1c-0.4,0.1-0.7,0.2-1.1,0.3
			c-0.3,0.1-0.6,0.2-0.9,0.3c-0.5,0.2-0.9,0.4-1.2,0.6C365.7,15,365.6,15.1,365.6,15.1z"/>
		<path class="st6" d="M321.6,47.2c0,0,0-0.1,0-0.2c0-0.1,0-0.4,0-0.7c0.1-0.6,0.3-1.3,0.8-2.2c0.4-0.9,1.1-1.8,1.8-2.8
			c0.8-1,1.7-1.9,2.7-2.8c0.5-0.4,1-0.8,1.5-1.2c0.5-0.4,1.1-0.7,1.6-1.1c0.5-0.3,1.1-0.6,1.6-0.9c0.5-0.3,1-0.5,1.5-0.7
			c0.5-0.2,0.9-0.4,1.3-0.5c0.4-0.1,0.7-0.3,1-0.4c0.6-0.2,0.9-0.3,0.9-0.3c0.8-0.3,1.7,0.2,2,1c0.3,0.8-0.2,1.7-1,2
			c-0.1,0-0.1,0-0.2,0.1l0,0c0,0-0.3,0.1-0.8,0.1c-0.3,0.1-0.6,0.1-0.9,0.2c-0.4,0.1-0.8,0.2-1.2,0.3c-0.4,0.1-0.9,0.3-1.4,0.4
			c-0.5,0.2-1,0.4-1.5,0.6c-0.5,0.2-1.1,0.5-1.6,0.8c-0.5,0.3-1.1,0.6-1.6,0.9c-1,0.7-2,1.4-2.9,2.2c-0.9,0.8-1.6,1.6-2.1,2.4
			c-0.6,0.8-0.9,1.5-1.1,2c-0.1,0.3-0.1,0.5-0.1,0.6C321.6,47.1,321.6,47.2,321.6,47.2z"/>
		<path class="st10" d="M373.4,150.1c2.3-0.6,9.6-3.2,10.4-3.7c1.8-1.1,9-5.6,9.5-10.5c0.5-4.9,1-5.8,1.4-6.2
			c0.5-0.5,4.7-8.2,5.8-10.5c1.7-3.8-3-6.3-5.3-3.3s-7.3,11.3-11.5,12C383.7,127.9,369.2,145.9,373.4,150.1z"/>
		<path class="st10" d="M384.5,127.7c0.7-6.4-1.1-11.4-1.1-11.4l3.3-10.4c0,0,8.5-11.5,8.8-15.1c0.2-2.9-3-3-3-3s-11.1,13.9-11.2,15
			c-0.1,1.1-6.2,17.4-6.2,17.4l0.4,17.8C375.6,137.9,384.5,136.3,384.5,127.7z"/>
		<polygon class="st14" points="381.8,105.8 389.3,102.3 386.4,106.7 		"/>
		<path class="st10" d="M374,108.4c0,0,3.8-6.9,4.7-7.2c0.9-0.2,14.8-4.5,14.8-4.5s2.5,2.4,0.2,4.6c-1.7,1.6-9.7,4.1-11.9,4.8
			c-0.4,0.1-5.2,15.4-5.2,15.4L374,108.4z"/>
		<polygon class="st14" points="376.4,113.1 376.4,119 377.6,118.8 377.6,113.7 380.6,111.3 384.5,112.9 385.6,109.7 379.5,108.5 		
			"/>
		<path class="st10" d="M366.3,136.4c0,0,3.1-26,4.1-28c0.7-1.5,8.2-4.9,9-5c0.8-0.1,11.2,3.7,11.2,3.7s1.3,3.1-2.1,3.8
			c-3,0.6-8.3-1.1-8.3-1.1l-3.8,3.2l3.4,21.3L366.3,136.4z"/>
		<path class="st14" d="M374.5,127.8c-2.3-0.1-2.4-4.2-2.4-4.2l-2.2-0.4v-5l5.4,2.2L374.5,127.8z"/>
		<path class="st10" d="M360,137.1c0,0,5-24.7,8.6-24.5c3.6,0.2,10.1,3.8,10.6,5.8c0.6,2.2-2.5,9.4-2.5,9.4s-3.4,1-3.4-2
			c0-3,0.1-4.6,0.1-4.6l-2.7-1.2l1.3,17.2H360z"/>
		<circle class="st12" cx="437.3" cy="119" r="7.7"/>
		<polygon class="st13" points="491,400.4 537.6,395 534.5,397.5 		"/>
		<path class="st4" d="M385.3,302.9c-0.3,0-0.6-0.2-0.6-0.5c0-0.3,0.2-0.7,0.5-0.7c0.3,0,27.3-3.4,58.5-10.2
			c41.2-9,70.8-20,85.6-31.7c0.3-0.2,0.7-0.2,0.9,0.1c0.2,0.3,0.2,0.7-0.1,0.9c-18.9,14.9-57.2,25.6-86.1,32
			C412.7,299.5,385.6,302.8,385.3,302.9C385.3,302.9,385.3,302.9,385.3,302.9z"/>
		<path class="st4" d="M571.8,182.5c0,0,5.5-2.6,13.4-7.3c2-1.2,4.1-2.5,6.3-3.8c2.2-1.4,4.5-2.9,6.9-4.5c1.2-0.8,2.4-1.6,3.6-2.5
			c1.2-0.8,2.4-1.7,3.6-2.6c2.4-1.8,4.9-3.6,7.2-5.5l1.8-1.4c0.6-0.5,1.2-1,1.8-1.4c1.2-1,2.3-1.9,3.5-2.9c2.3-2,4.5-3.9,6.5-5.9
			c1-1,2-2,3-2.9c1-1,1.9-1.9,2.8-2.9c0.2-0.2,0.5-0.5,0.7-0.7c0.2-0.2,0.4-0.5,0.7-0.7c0.4-0.5,0.9-0.9,1.3-1.4
			c0.8-0.9,1.6-1.8,2.4-2.6c1.5-1.7,2.8-3.3,4-4.8c1.1-1.5,2.1-2.7,2.9-3.8c1.6-2.2,2.4-3.4,2.4-3.4l0,0c0.2-0.3,0.6-0.3,0.9-0.1
			c0.3,0.2,0.3,0.6,0.1,0.9c0,0,0,0,0,0c0,0-0.9,1.2-2.5,3.4c-0.8,1.1-1.8,2.3-3,3.8c-1.2,1.4-2.5,3.1-4.1,4.7
			c-0.8,0.9-1.6,1.7-2.4,2.6c-0.4,0.4-0.9,0.9-1.3,1.4c-0.2,0.2-0.4,0.5-0.7,0.7c-0.2,0.2-0.5,0.5-0.7,0.7c-0.9,0.9-1.9,1.9-2.9,2.8
			c-1,0.9-2,1.9-3.1,2.9c-2.1,1.9-4.3,3.9-6.6,5.8c-1.2,1-2.3,1.9-3.5,2.9c-0.6,0.5-1.2,1-1.8,1.4l-1.8,1.4
			c-2.4,1.9-4.9,3.7-7.3,5.4c-1.2,0.9-2.5,1.7-3.7,2.6c-1.2,0.8-2.4,1.6-3.6,2.4c-2.4,1.6-4.7,3-7,4.4c-2.2,1.4-4.4,2.6-6.4,3.8
			C577.3,179.9,571.8,182.5,571.8,182.5z"/>
		<path class="st12" d="M479.7,378.6c-1.6-9.1-0.8-16.2,0.8-19.7c-1.6,0.2-3.1,0.4-4.6,0.6c-1.5,4.9-1.6,12.1-0.2,19.8
			c1.7,9.4,5.3,18.3,10.4,25.6c1.6-0.1,3.3-0.2,5-0.2C485.4,397.6,481.4,388.4,479.7,378.6z"/>
		<path class="st12" d="M481.2,405.2c-6.9-8.8-8.9-19.1-9.3-26.3c-0.4-8.2,1-15.2,2.7-19.1c-1.6,0.3-3.2,0.6-4.8,1
			c-1.5,4.6-2.5,11.1-2.1,18.4c0.4,7.2,2.2,17.2,8.4,26.3C477.6,405.4,479.3,405.3,481.2,405.2z"/>
		<path class="st12" d="M513.7,210.1l0.2-0.1c-3-7.3-8-14.3-15.2-20.4c-21.6-11.8-56.6-15.7-87.3-12.6l0.4,4.1
			C454.4,176.8,504.2,186.4,513.7,210.1z"/>
		<path class="st12" d="M514.5,211.4c-1.3-3.3-2.9-6.6-5-9.7c-20.9-14.3-59.1-19.1-92.4-15.7l0.4,4.1
			C455.2,186.2,498.4,193.3,514.5,211.4z"/>
	</g>
	<g id="Ball">
		<path class="st4" d="M156.8,174c0,0,0,0.1,0.1,0.4c0,0.1,0.1,0.3,0.1,0.5c0.1,0.2,0.1,0.4,0.2,0.6c0.1,0.4,0.4,1,0.6,1.7
			c0.2,0.7,0.5,1.4,0.8,2.3c0.3,0.8,0.5,1.7,0.8,2.7c0.1,0.5,0.3,1,0.4,1.5c0.1,0.3,0.1,0.5,0.2,0.8c0.1,0.3,0.1,0.5,0.2,0.8
			c0.1,0.5,0.2,1.1,0.4,1.6c0.1,0.6,0.2,1.1,0.3,1.7c0.1,0.6,0.2,1.1,0.3,1.7c0.1,0.6,0.2,1.2,0.2,1.7c0,0.6,0.1,1.2,0.1,1.7
			c0,0.3,0,0.6,0.1,0.9c0,0.3,0,0.6,0,0.9c0,0.6,0,1.1,0,1.7c0,0.6,0,1.1,0,1.7c0,0.5,0,1.1-0.1,1.6c0,0.5-0.1,1-0.1,1.5
			c0,0.5-0.1,1-0.1,1.4c0,0.5-0.1,0.9-0.2,1.3c-0.1,0.9-0.3,1.6-0.4,2.3c-0.2,0.7-0.3,1.3-0.4,1.8c-0.2,1-0.4,1.5-0.4,1.5
			s0.1-0.6,0.3-1.6c0.1-0.5,0.2-1.1,0.3-1.8c0.1-0.7,0.1-1.5,0.2-2.3c0-0.4,0.1-0.9,0.1-1.3c0-0.5,0-0.9,0-1.4c0-0.5,0-1,0-1.5
			c0-0.5,0-1-0.1-1.6c0-0.5,0-1.1-0.1-1.6c0-0.5-0.1-1.1-0.2-1.7c0-0.3-0.1-0.6-0.1-0.8c0-0.3-0.1-0.6-0.1-0.8
			c-0.1-0.6-0.2-1.1-0.2-1.7c-0.1-0.6-0.2-1.1-0.3-1.7c-0.1-0.6-0.2-1.1-0.4-1.6c-0.1-0.5-0.3-1.1-0.4-1.6c-0.2-0.5-0.3-1-0.5-1.6
			c-0.1-0.3-0.2-0.5-0.2-0.8c-0.1-0.2-0.2-0.5-0.2-0.7c-0.2-0.5-0.3-1-0.5-1.4c-0.3-0.9-0.7-1.8-1-2.6c-0.3-0.8-0.6-1.5-0.9-2.2
			c-0.3-0.7-0.5-1.2-0.7-1.7c-0.1-0.2-0.2-0.5-0.3-0.7c-0.1-0.2-0.1-0.3-0.2-0.5c-0.1-0.3-0.1-0.4-0.1-0.4c-0.2-0.7,0.1-1.4,0.7-1.6
			C155.8,172.9,156.5,173.2,156.8,174C156.8,173.9,156.8,173.9,156.8,174L156.8,174z"/>
		<path class="st4" d="M43.5,234.1c0,0,0.1,0,0.3,0c0.2,0,0.5,0,0.9,0c0.8,0,1.8,0,3.1,0c0.6,0,1.3,0,2.1,0.1c0.7,0,1.5,0.1,2.3,0.2
			c0.8,0.1,1.6,0.2,2.4,0.3c0.8,0.1,1.7,0.2,2.5,0.4c0.8,0.2,1.7,0.3,2.5,0.5c0.8,0.2,1.6,0.4,2.4,0.6c0.8,0.2,1.5,0.4,2.2,0.7
			c0.3,0.1,0.7,0.2,1,0.4c0.2,0.1,0.3,0.1,0.5,0.2c0.2,0.1,0.3,0.1,0.4,0.2c0.6,0.2,1.1,0.5,1.6,0.7c0.5,0.2,0.9,0.4,1.2,0.6
			c0.6,0.3,1,0.5,1,0.5s-0.4-0.1-1.1-0.4c-0.3-0.1-0.8-0.3-1.2-0.5c-0.5-0.1-1-0.3-1.6-0.5c-0.1,0-0.3-0.1-0.5-0.1
			c-0.2,0-0.3-0.1-0.5-0.1c-0.3-0.1-0.7-0.1-1-0.2c-0.7-0.2-1.4-0.3-2.2-0.4c-0.8-0.1-1.6-0.2-2.4-0.3c-0.8-0.1-1.6-0.1-2.5-0.2
			c-0.8,0-1.6-0.1-2.5-0.1c-0.8,0-1.6,0-2.4,0c-0.8,0-1.5,0.1-2.2,0.1c-0.7,0-1.4,0.1-2,0.2c-1.2,0.1-2.2,0.3-2.9,0.4
			c-0.4,0.1-0.6,0.1-0.8,0.1c-0.2,0-0.3,0.1-0.3,0.1l0,0c-0.9,0.2-1.8-0.4-1.9-1.3c-0.2-0.9,0.4-1.8,1.3-1.9
			C43.3,234.1,43.4,234.1,43.5,234.1z"/>
		<path class="st4" d="M68.5,263.9c0,0,0.4-0.2,1-0.6c0.1-0.1,0.2-0.1,0.3-0.2c0.1-0.1,0.2-0.1,0.4-0.2c0.2-0.1,0.5-0.3,0.8-0.4
			c0.1-0.1,0.3-0.1,0.4-0.2c0.1-0.1,0.3-0.1,0.4-0.2c0.3-0.1,0.6-0.3,1-0.4c0.3-0.1,0.7-0.2,1.1-0.4c0.4-0.1,0.7-0.3,1.1-0.4
			c0.4-0.1,0.8-0.2,1.2-0.3c0.4-0.1,0.8-0.2,1.3-0.3c0.9-0.2,1.7-0.3,2.6-0.4c0.9-0.1,1.8-0.1,2.7-0.1c0.9,0,1.8,0,2.7,0.1
			c0.4,0,0.9,0.1,1.3,0.1c0.4,0,0.9,0.1,1.3,0.2c0.4,0.1,0.8,0.1,1.2,0.2c0.4,0.1,0.8,0.2,1.2,0.3c0.8,0.2,1.4,0.4,2.1,0.6
			c0.6,0.2,1.2,0.4,1.7,0.6c0.3,0.1,0.5,0.2,0.7,0.3c0.2,0.1,0.4,0.2,0.6,0.3c0.7,0.3,1.1,0.5,1.1,0.5s-0.4-0.1-1.2-0.3
			c-0.2,0-0.4-0.1-0.6-0.2c-0.2,0-0.5-0.1-0.7-0.1c-0.5-0.1-1.1-0.2-1.8-0.3c-0.6-0.1-1.3-0.2-2.1-0.2c-0.4,0-0.7,0-1.1,0
			c-0.4,0-0.8,0-1.2,0c-0.4,0-0.8,0-1.2,0.1c-0.4,0-0.8,0-1.2,0.1c-0.8,0.1-1.7,0.2-2.5,0.4c-0.8,0.1-1.6,0.4-2.4,0.6
			c-0.8,0.3-1.6,0.5-2.3,0.8c-0.4,0.1-0.7,0.3-1.1,0.4c-0.3,0.2-0.7,0.3-1,0.5c-0.3,0.1-0.6,0.3-0.9,0.5c-0.3,0.2-0.6,0.3-0.8,0.5
			c-0.2,0.2-0.5,0.3-0.7,0.5c-0.1,0.1-0.2,0.1-0.3,0.2c-0.1,0.1-0.2,0.1-0.3,0.2c-0.2,0.1-0.3,0.3-0.5,0.4c-0.1,0.1-0.1,0.1-0.2,0.2
			c-0.1,0.1-0.2,0.1-0.2,0.2c-0.6,0.5-0.9,0.8-0.9,0.8l0,0c-1,0.9-2.6,0.8-3.6-0.2c-0.9-1-0.8-2.6,0.2-3.6
			C68.2,264,68.4,263.9,68.5,263.9z"/>
		<path class="st4" d="M62.9,220.4c0,0,0.7,0.5,2.1,1.4c0.7,0.4,1.5,0.8,2.5,1.4c1,0.5,2.2,1.1,3.6,1.8c1.4,0.6,2.8,1.4,4.5,2.1
			c0.8,0.4,1.7,0.7,2.6,1.1c0.9,0.4,1.9,0.7,2.8,1.1c1.9,0.8,4,1.6,6.2,2.4c1.1,0.4,2.2,0.8,3.4,1.2c1.2,0.4,2.4,0.9,3.6,1.3
			c1.2,0.4,2.5,0.8,3.8,1.3c1.3,0.4,2.6,0.8,3.9,1.3c2.7,0.9,5.4,1.7,8.3,2.6c5.7,1.7,11.7,3.4,18,5c6.3,1.7,12.8,3.2,19.5,4.7
			c1.7,0.4,3.3,0.7,5,1.1c0.8,0.2,1.7,0.4,2.5,0.5c0.8,0.2,1.7,0.3,2.5,0.5c1.7,0.3,3.4,0.7,5.1,1c1.7,0.3,3.4,0.6,5.1,0.9
			c3.4,0.6,6.8,1.1,10.2,1.7c0.9,0.1,1.7,0.3,2.6,0.4c0.9,0.1,1.7,0.2,2.6,0.4c1.7,0.2,3.4,0.5,5.1,0.7c6.8,0.8,13.4,1.6,19.9,2
			c1.6,0.1,3.2,0.2,4.8,0.4c1.6,0.1,3.2,0.2,4.7,0.2c0.8,0,1.6,0.1,2.3,0.1c0.8,0,1.5,0.1,2.3,0.1c1.5,0,3,0.1,4.5,0.1
			c3,0.1,5.9,0.1,8.7,0.1c2.8,0,5.5-0.1,8.1-0.2c2.6,0,5.1-0.2,7.5-0.4c1.2-0.1,2.3-0.1,3.5-0.2c1.1-0.1,2.2-0.2,3.3-0.3
			c1.1-0.1,2.1-0.2,3.1-0.3c0.5,0,1-0.1,1.4-0.1c0.5,0,0.9-0.1,1.4-0.2c1.8-0.2,3.5-0.5,5-0.7c0.8-0.1,1.5-0.2,2.1-0.3
			c0.7-0.1,1.3-0.2,1.9-0.3c1.2-0.2,2.1-0.4,2.9-0.5c1.6-0.3,2.5-0.4,2.5-0.4s-0.9,0.2-2.4,0.5c-0.8,0.2-1.8,0.4-2.9,0.6
			c-0.6,0.1-1.2,0.2-1.9,0.4c-0.7,0.1-1.4,0.2-2.1,0.3c-1.5,0.2-3.2,0.5-5,0.8c-0.5,0.1-0.9,0.1-1.4,0.2c-0.5,0.1-1,0.1-1.4,0.2
			c-1,0.1-2,0.2-3.1,0.4c-1.1,0.1-2.1,0.2-3.3,0.4c-1.1,0.1-2.3,0.2-3.5,0.3c-2.4,0.2-4.9,0.4-7.5,0.5c-2.6,0.1-5.3,0.3-8.1,0.3
			c-2.8,0-5.7,0.1-8.7,0.1c-1.5,0-3,0-4.5,0c-0.8,0-1.5,0-2.3-0.1c-0.8,0-1.6-0.1-2.3-0.1c-1.6-0.1-3.2-0.1-4.8-0.2
			c-1.6-0.1-3.2-0.2-4.8-0.3c-6.5-0.4-13.2-1-20-1.7c-1.7-0.2-3.4-0.4-5.1-0.6c-0.9-0.1-1.7-0.2-2.6-0.3c-0.9-0.1-1.7-0.2-2.6-0.3
			c-3.4-0.5-6.9-0.9-10.3-1.5c-1.7-0.3-3.4-0.5-5.1-0.8c-1.7-0.3-3.4-0.6-5.1-0.9c-0.9-0.2-1.7-0.3-2.6-0.5
			c-0.8-0.2-1.7-0.3-2.5-0.5c-1.7-0.3-3.4-0.7-5.1-1c-6.7-1.4-13.3-2.8-19.6-4.4c-6.3-1.5-12.4-3.1-18.2-4.8
			c-2.9-0.8-5.7-1.6-8.4-2.5c-1.3-0.4-2.7-0.8-4-1.2c-1.3-0.4-2.6-0.8-3.8-1.2c-1.2-0.4-2.5-0.8-3.6-1.2c-1.2-0.4-2.3-0.8-3.5-1.2
			c-2.2-0.8-4.4-1.6-6.4-2.3c-1-0.4-2-0.8-2.9-1.1c-0.9-0.4-1.8-0.7-2.7-1.1c-1.7-0.7-3.3-1.4-4.7-2c-1.4-0.6-2.6-1.3-3.7-1.8
			c-1.1-0.6-2-1.1-2.8-1.5c-1.4-0.9-2.1-1.3-2.1-1.3c-0.9-0.5-1.1-1.7-0.6-2.6C60.9,220.1,62,219.8,62.9,220.4
			C62.9,220.4,62.9,220.4,62.9,220.4L62.9,220.4z"/>
		<path class="st4" d="M146.6,203.4c0,0,0.4-0.6,1.1-1.8c0.3-0.6,0.8-1.3,1.2-2.2c0.2-0.4,0.5-0.9,0.7-1.4c0.1-0.3,0.2-0.5,0.4-0.8
			c0.1-0.3,0.2-0.6,0.4-0.9c1-2.4,1.9-5.3,2.4-8.8c0-0.4,0.1-0.9,0.1-1.3c0-0.2,0.1-0.5,0.1-0.7c0-0.2,0-0.5,0-0.7
			c0-0.5,0.1-0.9,0.1-1.4c0-0.5,0-1,0-1.5c-0.1-2-0.2-4-0.6-6.2c-0.4-2.1-1-4.3-1.8-6.5c-0.8-2.2-1.8-4.3-3.1-6.5
			c-1.2-2.1-2.7-4.2-4.3-6.2c-1.7-2-3.5-3.9-5.5-5.6c-2-1.8-4.2-3.4-6.5-4.9c-0.6-0.4-1.2-0.7-1.8-1.1l-0.9-0.5l-0.9-0.5l-0.9-0.5
			l-0.5-0.3l-0.5-0.2c-0.6-0.3-1.2-0.6-1.9-0.9c-5.1-2.3-10.7-3.9-16.4-4.7c-5.7-0.8-11.5-0.8-17,0.1c-0.7,0.1-1.4,0.2-2.1,0.4
			c-0.7,0.1-1.4,0.3-2.1,0.4c-0.7,0.2-1.4,0.3-2,0.5c-0.7,0.2-1.3,0.4-2,0.6c-2.6,0.8-5.2,1.9-7.5,3.1c-2.4,1.2-4.6,2.6-6.7,4.2
			c-2.1,1.6-3.9,3.3-5.6,5.1c-0.2,0.2-0.4,0.5-0.6,0.7c-0.2,0.2-0.4,0.5-0.6,0.7c-0.2,0.2-0.4,0.5-0.6,0.7l-0.3,0.4l0,0
			c0,0,0,0.1,0,0l-0.1,0.1l-0.1,0.2c-0.4,0.5-0.7,1-1.1,1.5l-0.3,0.4l-0.2,0.4c-0.2,0.2-0.3,0.5-0.5,0.7c-0.2,0.2-0.3,0.5-0.4,0.7
			l-0.2,0.4l-0.2,0.4c-0.3,0.5-0.5,1-0.8,1.5c-0.1,0.2-0.2,0.5-0.4,0.8c-0.1,0.3-0.2,0.5-0.3,0.8c-0.2,0.5-0.5,1-0.6,1.5
			c-0.2,0.5-0.4,1-0.5,1.5l-0.1,0.4l-0.1,0.4c-0.1,0.3-0.1,0.5-0.2,0.7c-0.1,0.5-0.3,1-0.4,1.5c-0.1,0.5-0.2,1-0.3,1.5
			c0,0.2-0.1,0.5-0.1,0.7c0,0.2-0.1,0.5-0.1,0.7c-0.1,0.5-0.1,0.9-0.2,1.4c-0.1,0.9-0.2,1.8-0.2,2.7c0,0.9,0,1.7,0,2.6
			c0.1,0.8,0.1,1.6,0.2,2.4c0.1,0.8,0.2,1.5,0.3,2.2c0.1,0.7,0.3,1.4,0.4,2c0,0.2,0.1,0.3,0.1,0.5c0,0.2,0.1,0.3,0.1,0.4
			c0.1,0.3,0.1,0.6,0.2,0.9c0.1,0.6,0.2,1.1,0.4,1.5c0.1,0.5,0.3,0.9,0.4,1.3c0.1,0.4,0.2,0.8,0.4,1.1c0.5,1.3,0.8,2,0.8,2
			s-0.3-0.7-0.9-1.9c-0.2-0.3-0.3-0.7-0.5-1.1c-0.2-0.4-0.3-0.8-0.5-1.3c-0.2-0.5-0.3-1-0.5-1.5c-0.1-0.3-0.2-0.6-0.3-0.8
			c0-0.1-0.1-0.3-0.1-0.4c0-0.2-0.1-0.3-0.1-0.5c-0.7-2.5-1.3-5.6-1.4-9.3c-0.1-3.6,0.4-7.8,1.9-12.1c0.2-0.5,0.4-1.1,0.6-1.6
			c0.1-0.3,0.2-0.5,0.3-0.8c0.1-0.3,0.2-0.5,0.3-0.8c0.3-0.5,0.5-1.1,0.8-1.6l0.2-0.4l0.2-0.4c0.2-0.3,0.3-0.5,0.5-0.8
			c0.2-0.3,0.3-0.5,0.5-0.8c0.1-0.1,0.2-0.3,0.2-0.4l0.3-0.4c0.3-0.5,0.7-1,1-1.5l0.1-0.2l0.1-0.1l0.1-0.1l0.3-0.4
			c0.2-0.3,0.4-0.5,0.6-0.8c0.2-0.3,0.4-0.5,0.6-0.8c0.2-0.2,0.4-0.5,0.6-0.7c1.7-2,3.6-3.9,5.7-5.6c2.1-1.7,4.5-3.2,7-4.6
			c2.5-1.3,5.1-2.5,7.9-3.4c0.7-0.2,1.4-0.4,2.1-0.7c0.7-0.2,1.4-0.4,2.1-0.6c0.7-0.2,1.4-0.3,2.2-0.5c0.7-0.2,1.5-0.3,2.2-0.4
			c5.9-1,11.9-1,17.9-0.2c6,0.9,11.8,2.6,17.2,5c0.7,0.3,1.3,0.7,2,1l0.5,0.2l0.5,0.3l0.9,0.5l1,0.5l0.9,0.6
			c0.6,0.4,1.3,0.7,1.8,1.2c2.4,1.6,4.7,3.4,6.8,5.3c2.1,1.9,4,3.9,5.7,6.1c1.7,2.1,3.1,4.4,4.4,6.7c1.2,2.3,2.3,4.6,3,6.9
			c0.8,2.3,1.3,4.6,1.6,6.8c0.1,0.6,0.1,1.1,0.2,1.7c0,0.5,0.1,1.1,0.1,1.6c0.1,0.5,0,1.1,0.1,1.6c0,0.5,0,1,0,1.6
			c0,0.5,0,1-0.1,1.5c0,0.5-0.1,1-0.1,1.5c0,0.2-0.1,0.5-0.1,0.7c0,0.2-0.1,0.5-0.1,0.7c-0.1,0.5-0.2,0.9-0.2,1.4
			c-0.7,3.6-1.8,6.6-3,8.9c-0.1,0.3-0.3,0.6-0.4,0.8c-0.1,0.3-0.3,0.5-0.4,0.8c-0.3,0.5-0.6,1-0.8,1.4c-0.5,0.8-1,1.6-1.4,2.1
			C147.1,202.8,146.6,203.4,146.6,203.4z"/>
		
			<ellipse transform="matrix(0.2112 -0.9774 0.9774 0.2112 -94.9576 250.9872)" class="st12" cx="108" cy="184.3" rx="42.8" ry="51.1"/>
		<path class="st4" d="M150.9,164c2.4,5.6,3.5,11.7,3,17.9c-1.8,23.6-26,40.1-54,36.8c-16.8-2-31.2-10.7-39.6-22.4
			c6.7,15.9,23.7,28.4,44.3,30.9c28,3.3,52.2-13.2,54-36.8C159.4,180.9,156.5,171.8,150.9,164z"/>
		<path class="st6" d="M115.1,223.6C115.1,223.6,115.1,223.6,115.1,223.6c-2.2,0-4.4-0.1-6.5-0.4c-25.6-3-45.1-23.2-43.4-44.9
			c0.7-9.6,5.6-18.3,13.6-24.6c7.9-6.2,18.4-9.7,29.5-9.7c2.2,0,4.4,0.1,6.5,0.4c25.6,3,45.1,23.2,43.4,44.9
			c-0.7,9.6-5.6,18.3-13.6,24.6C136.7,220.2,126.2,223.6,115.1,223.6z M108.2,145c-22.5,0-40.6,14.4-42.1,33.4
			c-1.7,21.2,17.5,40.9,42.6,43.8c2.1,0.3,4.3,0.4,6.4,0.4c22.5,0,40.6-14.4,42.1-33.4c1.7-21.2-17.5-40.9-42.6-43.8
			C112.5,145.1,110.4,145,108.2,145z"/>
		<path class="st6" d="M118.1,182.5C118,182.5,118,182.5,118.1,182.5L66.2,174c-0.3,0-0.4-0.3-0.4-0.5c0-0.3,0.3-0.4,0.5-0.4l51,8.4
			l-11.1-35.9c-0.1-0.3,0.1-0.5,0.3-0.6c0.3-0.1,0.5,0.1,0.6,0.3l11.3,36.7c0,0.2,0,0.3-0.1,0.5
			C118.3,182.4,118.2,182.5,118.1,182.5z"/>
		<path class="st6" d="M91.5,219c-0.1,0-0.2,0-0.3-0.1c-0.2-0.2-0.3-0.5-0.1-0.7l26.5-36.5c0.1-0.1,0.2-0.2,0.4-0.2
			c0.1,0,0.3,0,0.4,0.2l28.1,31c0.2,0.2,0.2,0.5,0,0.7c-0.2,0.2-0.5,0.2-0.7,0l-27.7-30.5l-26.2,36C91.8,218.9,91.7,219,91.5,219z"
			/>
		<path class="st6" d="M118.1,182.5c-0.2,0-0.4-0.1-0.4-0.3c-0.1-0.2,0-0.5,0.3-0.6l35.1-12.4c0.2-0.1,0.5,0,0.6,0.3
			c0.1,0.2,0,0.5-0.3,0.6l-35.1,12.4C118.2,182.5,118.1,182.5,118.1,182.5z"/>
		<polygon class="st6" points="107.8,196.2 130.1,195.3 132.4,176.9 113.8,168 97.9,178.7 		"/>
		<path class="st6" d="M113.7,141.9c-0.9-0.1-1.7-0.3-2.6-0.4c-6.8-0.8-13.4-0.4-19.4,1c-0.5,0.7-1.6,2.7-1.8,5.5
			c0,0,11.9-0.1,18.5,2.4c1.3-0.3,8.2-4.3,12.9-4.3C118.4,143.4,114.6,142.2,113.7,141.9z"/>
		<path class="st6" d="M152.7,207.6c0.2-1.5,0.4-3.2,0.4-3.9c0,0-5.6,3.4-11.2,4.6c-3.7,7.1-10.9,12.4-10.9,12.4
			c1,0.9,3.3,1.4,4.5,1.7C142.6,218.8,148.6,213.8,152.7,207.6z"/>
		<path class="st6" d="M146.5,158.6c0,0-1.4-1-3-1.2c0,0,5,8.9,4.6,13.9c3.4,2.4,9.4,10.9,9.4,10.9l0.8-0.8
			C157,173.1,152.8,165.2,146.5,158.6z"/>
		<path class="st6" d="M77.5,208.1c1.4,0.8,11.7,3.4,19,3.6c0.7,1,5.1,8,9.8,10.8c-3.8,2.1-10.7,2.9-11.1,2.8
			c-11.5-2.6-16.7-8.5-17.7-9.7C76.4,214.3,77.5,208.1,77.5,208.1z"/>
		<path class="st6" d="M72.5,160.6c0.1,1.6,1.4,8.4,3.9,14.6c-2.5,2.6-8.6,11.3-10.1,12.9c-2.9-1.4-7.2-5-7.4-6
			c-0.7-3,0.9-14,3.4-17.4C62.9,163.9,66.1,161,72.5,160.6z"/>
		<path class="st5" d="M90.9,156.6c0.7,0.7,0.1,2-1.3,2.9c-1.4,0.9-3.1,1-3.7,0.3c-0.7-0.7-0.1-2,1.3-2.9
			C88.6,156,90.2,155.8,90.9,156.6z"/>
		<path class="st4" d="M90.6,129.3c0,0-0.7,0.2-2,0.4c-0.6,0.1-1.4,0.3-2.3,0.5c-0.9,0.2-1.8,0.4-2.9,0.7c-0.3,0.1-0.5,0.1-0.8,0.2
			c-0.3,0.1-0.5,0.2-0.8,0.3c-0.6,0.2-1.1,0.3-1.7,0.6c-0.6,0.2-1.2,0.4-1.8,0.6c-0.3,0.1-0.6,0.2-0.9,0.3c-0.3,0.1-0.6,0.3-0.9,0.4
			c-1.3,0.5-2.5,1.1-3.8,1.7c-1.3,0.6-2.5,1.3-3.8,2.1c-1.2,0.7-2.4,1.5-3.6,2.4c-1.2,0.8-2.3,1.7-3.3,2.5c-1,0.9-2,1.7-2.9,2.6
			c-0.9,0.9-1.7,1.7-2.5,2.5c-0.7,0.8-1.4,1.6-1.9,2.3c-0.5,0.7-1,1.3-1.4,1.9c-0.4,0.5-0.6,1-0.8,1.3c-0.2,0.3-0.3,0.5-0.3,0.5
			s0.1-0.2,0.2-0.5c0.1-0.3,0.3-0.8,0.6-1.4c0.5-1.2,1.5-2.8,2.8-4.6c0.7-0.9,1.4-1.9,2.3-2.8c0.9-1,1.8-1.9,2.8-2.9
			c0.5-0.5,1.1-0.9,1.6-1.4c0.3-0.2,0.6-0.5,0.8-0.7c0.3-0.2,0.6-0.4,0.9-0.7c1.2-0.9,2.4-1.7,3.7-2.5c1.3-0.8,2.6-1.5,4-2.1
			c0.7-0.3,1.3-0.6,2-0.9c0.7-0.3,1.3-0.5,2-0.8c0.3-0.1,0.7-0.2,1-0.3c0.3-0.1,0.7-0.2,1-0.3c0.6-0.2,1.3-0.4,1.9-0.5
			c0.6-0.2,1.2-0.3,1.8-0.4c0.3-0.1,0.6-0.1,0.9-0.2c0.3,0,0.6-0.1,0.8-0.1c1.1-0.2,2.1-0.3,3-0.4c0.9-0.1,1.7-0.1,2.3-0.2
			C89.9,129.3,90.6,129.3,90.6,129.3z"/>
		<path class="st6" d="M92.7,214.9c0,0,0.3,0.1,0.8,0.4c0.5,0.3,1.3,0.6,2.3,1.1c1,0.4,2.3,1,3.7,1.6c1.4,0.6,3.1,1.2,4.9,1.9
			c0.9,0.3,1.9,0.7,2.8,1c1,0.4,2,0.7,3,1.1c1.1,0.4,2.1,0.7,3.2,1.1c1.1,0.4,2.2,0.7,3.4,1.1c2.3,0.7,4.7,1.4,7.2,2.1
			c1.2,0.4,2.5,0.7,3.7,1c1.2,0.3,2.5,0.6,3.8,0.9c2.5,0.6,5,1.1,7.5,1.7c2.5,0.5,5,1,7.3,1.4c2.4,0.4,4.7,0.8,6.9,1.1
			c0.5,0.1,1.1,0.2,1.6,0.3c0.5,0.1,1.1,0.1,1.6,0.2c1,0.1,2,0.3,3,0.4c1.9,0.3,3.7,0.5,5.3,0.7c1.6,0.2,2.9,0.3,4.1,0.4
			c2.3,0.2,3.5,0.4,3.5,0.4s-1.3-0.1-3.6-0.2c-1.1-0.1-2.5-0.2-4.1-0.3c-1.6-0.1-3.3-0.3-5.3-0.5c-1-0.1-2-0.2-3-0.3
			c-0.5-0.1-1.1-0.1-1.6-0.2c-0.5-0.1-1.1-0.1-1.6-0.2c-2.2-0.3-4.5-0.6-7-0.9c-2.4-0.4-4.9-0.8-7.4-1.2c-2.5-0.5-5.1-1-7.6-1.4
			c-1.3-0.3-2.5-0.5-3.8-0.8c-1.3-0.3-2.5-0.5-3.8-0.8c-2.5-0.6-4.9-1.2-7.3-1.8c-1.2-0.3-2.3-0.6-3.5-0.9c-1.1-0.3-2.2-0.7-3.3-1
			c-1.1-0.3-2.1-0.6-3.1-1c-1-0.3-2-0.6-2.9-0.9c-1.8-0.6-3.5-1.2-5-1.8c-1.5-0.5-2.8-1.1-3.9-1.5c-1.1-0.4-1.9-0.8-2.5-1
			c-0.6-0.3-0.9-0.4-0.9-0.4c-0.7-0.3-1.1-1.2-0.7-1.9C91.1,214.9,91.9,214.5,92.7,214.9C92.7,214.9,92.7,214.9,92.7,214.9
			L92.7,214.9z"/>
		<path class="st6" d="M115.2,170.2c0,0,0.4,0.2,1,0.5c0.7,0.3,1.7,0.8,3,1.4c1.3,0.6,2.9,1.3,4.7,2c1.8,0.8,3.9,1.6,6.2,2.5
			c2.3,0.9,4.8,1.8,7.4,2.7c2.6,0.9,5.4,1.9,8.4,2.8c1.5,0.5,2.9,0.9,4.4,1.4c1.5,0.4,3,0.9,4.6,1.3c1.5,0.4,3.1,0.9,4.7,1.3
			c0.8,0.2,1.6,0.4,2.4,0.6l2.4,0.6c3.2,0.8,6.4,1.5,9.5,2.1c1.6,0.3,3.1,0.6,4.7,0.9c1.6,0.3,3.1,0.5,4.6,0.8
			c1.5,0.2,3,0.5,4.5,0.7c1.5,0.2,2.9,0.4,4.3,0.6c2.8,0.3,5.4,0.6,7.9,0.8c2.4,0.2,4.7,0.3,6.7,0.4c2,0.1,3.7,0.1,5.2,0.1
			c2.9,0,4.5,0,4.5,0s-1.6,0.1-4.5,0.1c-1.4,0-3.2,0-5.2,0c-2-0.1-4.2-0.1-6.7-0.2c-2.5-0.1-5.1-0.3-7.9-0.6
			c-1.4-0.1-2.8-0.3-4.3-0.4c-1.5-0.2-3-0.4-4.5-0.6c-1.5-0.2-3.1-0.4-4.6-0.7c-1.6-0.3-3.1-0.5-4.7-0.8c-3.2-0.6-6.4-1.2-9.6-1.9
			l-2.4-0.5c-0.8-0.2-1.6-0.4-2.4-0.6c-1.6-0.4-3.2-0.8-4.7-1.2c-1.6-0.4-3.1-0.8-4.6-1.2c-1.5-0.4-3-0.8-4.5-1.3
			c-3-0.9-5.8-1.7-8.5-2.6c-2.7-0.9-5.2-1.7-7.5-2.5c-2.3-0.8-4.4-1.6-6.3-2.3c-1.9-0.7-3.5-1.4-4.8-1.9c-1.3-0.5-2.4-1-3.1-1.3
			c-0.7-0.3-1.1-0.5-1.1-0.5c-0.7-0.3-1.1-1.2-0.7-1.9C113.5,170.1,114.4,169.8,115.2,170.2C115.1,170.1,115.2,170.1,115.2,170.2
			L115.2,170.2z"/>
		<path class="st15" d="M47.6,276.1c0,0-1.4,0.7-3.4,1.8c-1,0.6-2.2,1.3-3.4,2c-0.6,0.4-1.2,0.8-1.9,1.2c-0.6,0.4-1.3,0.9-1.9,1.3
			c-0.6,0.5-1.3,0.9-1.8,1.4c-0.6,0.5-1.2,0.9-1.7,1.4c-0.5,0.5-1.1,0.9-1.6,1.3c-0.5,0.4-1,0.8-1.3,1.2c-0.4,0.4-0.8,0.7-1.1,1.1
			c-0.3,0.3-0.6,0.6-0.8,0.9c-0.4,0.5-0.7,0.7-0.7,0.7l-0.1,0.1c-0.9,1-2.5,1-3.4,0.1c-1-0.9-1-2.5-0.1-3.4c0.1-0.1,0.2-0.2,0.3-0.3
			c0,0,0.3-0.2,0.9-0.7c0.3-0.2,0.6-0.5,1.1-0.8c0.4-0.3,0.9-0.6,1.4-0.9c0.5-0.3,1.1-0.7,1.7-1c0.6-0.4,1.2-0.7,1.9-1.1
			c0.7-0.4,1.4-0.7,2.1-1.1c0.7-0.4,1.4-0.7,2.1-1c0.7-0.3,1.5-0.6,2.2-0.9c0.7-0.3,1.4-0.6,2.1-0.8c1.4-0.5,2.7-1,3.8-1.4
			C46.1,276.5,47.6,276.1,47.6,276.1z"/>
		<path class="st15" d="M48.1,204.9c0,0,0.1,0,0.2,0.1c0.1,0,0.3,0.1,0.5,0.2c0.4,0.2,0.9,0.4,1.6,0.8c0.7,0.3,1.4,0.7,2.2,1.2
			c0.8,0.5,1.6,1,2.4,1.5c0.4,0.3,0.8,0.5,1.2,0.8c0.4,0.3,0.8,0.5,1.1,0.8c0.4,0.3,0.7,0.5,1,0.8c0.3,0.3,0.6,0.5,0.9,0.8
			c0.3,0.2,0.5,0.5,0.7,0.7c0.2,0.2,0.4,0.4,0.5,0.5c0.3,0.3,0.5,0.5,0.5,0.5s-0.2-0.1-0.5-0.4c-0.2-0.1-0.4-0.3-0.6-0.4
			c-0.2-0.2-0.5-0.3-0.8-0.5c-0.3-0.2-0.6-0.4-1-0.6c-0.4-0.2-0.7-0.4-1.1-0.6c-0.4-0.2-0.8-0.4-1.2-0.6c-0.4-0.2-0.9-0.4-1.3-0.6
			c-0.9-0.4-1.7-0.7-2.6-1c-0.8-0.3-1.6-0.5-2.3-0.7c-0.7-0.2-1.2-0.3-1.6-0.4c-0.2,0-0.3-0.1-0.4-0.1c-0.1,0-0.2,0-0.2,0l0,0
			c-0.8-0.2-1.3-1-1.1-1.7c0.2-0.8,1-1.3,1.7-1.1C47.9,204.8,48,204.9,48.1,204.9z"/>
		<path class="st15" d="M79.7,205.2C79.7,205.2,79.7,205.2,79.7,205.2c0.1,0,0.2,0,0.3,0c0.2,0,0.4-0.1,0.7-0.1
			c0.6-0.1,1.5-0.1,2.5,0c1,0.1,2.2,0.2,3.4,0.5c0.6,0.2,1.2,0.4,1.8,0.6c0.6,0.2,1.2,0.5,1.8,0.8c0.6,0.3,1.2,0.6,1.7,1
			c0.5,0.4,1.1,0.7,1.5,1.1c0.5,0.4,0.9,0.8,1.3,1.2c0.2,0.2,0.4,0.4,0.6,0.6c0.2,0.2,0.4,0.4,0.5,0.6c0.3,0.4,0.6,0.7,0.8,1
			c0.2,0.3,0.4,0.6,0.6,0.8c0.3,0.5,0.5,0.7,0.5,0.7s-0.2-0.2-0.6-0.6c-0.2-0.2-0.4-0.4-0.7-0.7c-0.3-0.3-0.6-0.6-1-0.9
			c-0.2-0.2-0.4-0.3-0.6-0.5c-0.2-0.2-0.4-0.3-0.6-0.5c-0.4-0.3-0.9-0.6-1.4-0.9c-0.5-0.3-1-0.6-1.6-0.8c-0.5-0.3-1.1-0.5-1.7-0.7
			c-0.6-0.2-1.2-0.3-1.7-0.5c-0.6-0.1-1.2-0.2-1.7-0.3c-1.1-0.1-2.2-0.1-3,0c-0.9,0.1-1.6,0.2-2.1,0.3c-0.2,0.1-0.4,0.1-0.5,0.1
			c-0.1,0-0.1,0-0.1,0c0,0,0,0,0,0c-0.8,0.3-1.6-0.2-1.8-0.9c-0.3-0.8,0.2-1.6,0.9-1.8C79.5,205.2,79.6,205.2,79.7,205.2L79.7,205.2
			z"/>
		<path class="st4" d="M61.1,220.2c0,0-6.2,3-1.5,7.7c3.2,3.2,25.4,13,25.4,13s-18.7,4.3-16.3,8.1c1.8,2.8,16.3-0.3,16.3-0.3
			s-5,4.5-1.3,5.7c3.7,1.2,25.5-8.8,49.6-7.5C82.3,235.4,61.1,220.2,61.1,220.2z"/>
	</g>
</g>
</svg>
