<?xml version="1.0" encoding="utf-8"?>
<!-- Generator: Adobe Illustrator 26.5.0, SVG Export Plug-In . SVG Version: 6.00 Build 0)  -->
<svg version="1.1" id="Capa_1" xmlns="http://www.w3.org/2000/svg" xmlns:xlink="http://www.w3.org/1999/xlink" x="0px" y="0px"
	 viewBox="0 0 150 150" style="enable-background:new 0 0 150 150;" xml:space="preserve">
<style type="text/css">
	.st0{fill:#FFFFFF;}
</style>
<path class="st0" d="M133.4,2H16.6C8.6,2,2,8.6,2,16.6v116.8c0,8.1,6.6,14.6,14.6,14.6h116.8c8.1,0,14.6-6.6,14.6-14.6V16.6
	C148,8.6,141.4,2,133.4,2z M128.2,64c0,0-7.4-0.3-12.9-1.8c-7.7-2-12.6-5.2-12.6-5.2s-3.4-2.3-3.7-2.4v43.2c0,2.4-0.6,8.4-2.5,13.4
	c-1.7,4.3-4.1,8.3-7.1,11.7c0,0-4.7,5.8-13,9.7c-7.4,3.5-14,3.5-16,3.5c0,0-11.3,0.5-21.5-6.5l-0.1-0.1v0.1
	c-3.4-2.4-6.5-5.3-9.1-8.6c-3.2-4.1-5.2-9-5.7-10.4v-0.1c-0.8-2.4-2.5-8.3-2.3-14c0.4-10,3.8-16.2,4.7-17.7c2.3-4.2,5.4-8,9-11.1
	c8.4-7,19.3-10.2,30.2-8.8l0,21.5c-1.8-0.6-3.6-0.9-5.5-0.9c-9.8,0-17.8,8-17.8,17.9c0,9.9,8,17.9,17.8,17.9c3.1,0,6.1-0.8,8.7-2.3
	c5.2-2.9,8.6-8.3,9-14.2c0,0,0,0,0,0c0-0.1,0-0.1,0-0.2c0-0.1,0-0.3,0-0.4c0-1.1,0-2.1,0-3.2V13.7h21.1c0,0-0.3,2,0.3,5.1h0
	c0.6,3.8,2.4,9.1,7,14.4c1.8,2,3.9,3.8,6.2,5.3c0.8,0.5,1.6,1,2.4,1.4c5.4,2.7,10.6,3.5,13.2,3.2V64z"/>
</svg>
