<?xml version="1.0" encoding="utf-8"?>
<!-- Generator: Adobe Illustrator 26.5.0, SVG Export Plug-In . SVG Version: 6.00 Build 0)  -->
<svg version="1.1" id="Layer_1" xmlns="http://www.w3.org/2000/svg" xmlns:xlink="http://www.w3.org/1999/xlink" x="0px" y="0px"
	 viewBox="0 0 400 400" style="enable-background:new 0 0 400 400;" xml:space="preserve">
<style type="text/css">
	.st0{fill:#00ABE1;}
</style>
<path class="st0" d="M191.4,307.1c5.2,3.7,12.1,3.6,17.1-0.3c27-21.1,110-92.6,110-175.2c0-69.6-60.2-125.2-131.3-117.7
	C124.2,20.6,76.7,81.2,82.2,144.2C89.4,226.8,165.3,288.3,191.4,307.1z M200,84.7c25.9,0,47,21,47,47c0,25.9-21,47-47,47
	s-47-21-47-47C153.1,105.7,174.1,84.7,200,84.7z M344.9,360l-19.4-87.9c-2.2-10.1-11.1-17.2-21.5-17.2h-6.2
	c-17.4,23.2-40.8,47.9-72.9,72.9c-7.2,5.6-16.1,8.7-25.2,8.7c-8.6,0-16.9-2.7-24-7.8c-18.1-13.1-49.5-38.6-75.7-73.8h-4.5
	c-10.4,0-19.3,7.2-21.5,17.4l-18.8,87.9c-2.9,13.7,7.5,26.6,21.5,26.6h246.8C337.4,386.7,347.9,373.8,344.9,360z"/>
</svg>
