<?xml version="1.0" encoding="utf-8"?>
<!-- Generator: Adobe Illustrator 26.5.0, SVG Export Plug-In . SVG Version: 6.00 Build 0)  -->
<svg version="1.1" id="Layer_1" xmlns="http://www.w3.org/2000/svg" xmlns:xlink="http://www.w3.org/1999/xlink" x="0px" y="0px"
	 viewBox="0 0 400 400" style="enable-background:new 0 0 400 400;" xml:space="preserve">
<style type="text/css">
	.st0{fill:#A6A8AB;}
</style>
<g>
	<g>
		<path class="st0" d="M294.3,150.7c-3.1,0.7-6.3,0.2-9.4,0.3c-1,0-2.1,0.6-2.9-0.5c3.4,0.3,6.9,0.1,10.3,0.2
			C292.9,150.6,293.6,150.6,294.3,150.7z"/>
		<path class="st0" d="M117.7,150.6c-0.5,0.6-1.2,0.4-1.8,0.4c-3.4-0.2-6.9,0.4-10.3-0.3C109.7,150.7,113.7,150.6,117.7,150.6z"/>
		<path class="st0" d="M119.6,155.1l-0.1,0.1c0,0-0.2,0-0.2,0c-3.9,0-7.8,0-11.7,0c0-0.2,0-0.3,0-0.5
			C111.6,155,115.6,154.3,119.6,155.1z"/>
		<path class="st0" d="M280.7,155.2l-0.2,0c0,0-0.1-0.1-0.1-0.1c1-0.7,2.2-0.3,3.3-0.3c2.8-0.1,5.6,0,8.4,0.4
			C288.2,155.2,284.4,155.2,280.7,155.2z"/>
		<path class="st0" d="M341.9,194.8c-2.2-1.2-4.4-2.3-6.6-3.6c-16.3-9.6-30.4-21.4-39-38.7c-0.4-0.9-0.9-1.6-2-1.7
			c-4,0.2-8,0.1-12,0.1c-0.3,0-0.3-0.2-0.4-0.3c-2.1-2.5-2-2.4,0.1-4.8c6.1-6.8,10.8-14.5,14-23.1c3.9-10.4,5-21,2.3-31.8
			c-2.7-10.9-7.3-21.1-12.6-30.9c-1.2-2.2-2.6-4.3-3.2-6.7c-1.3-5.4-1.2-11-1-16.5c0.2-8.2,0.7-16.3,5.9-23.2c0.8-1,0.7-2.2-0.2-3.1
			c-0.9-0.9-2.1-0.7-3.2-0.3c-0.4,0.2-0.7,0.5-1.1,0.7c-3.9,2.6-7.6,5.8-12.2,7.3c-9.6,3.1-19.3,2.9-29.1,0.9
			c-8.5-1.7-16.7-4.6-25-6.9c-8.5-2.3-17-2.8-25.6-1.6c-5.6,0.7-11.1,2.4-16.5,4.1c-11.9,3.6-23.8,7.1-36.6,5.4
			c-5-0.6-9.8-1.6-14.1-4.4c-2.5-1.6-5-3.3-7.5-5c-1.3-0.9-2.6-1.2-3.8-0.2c-1.3,1.1-0.7,2.5,0.1,3.7c1.7,2.8,3.5,5.6,4.2,8.9
			c1.6,7.4,1.7,14.8,1.4,22.3c-0.2,4.2-0.4,8.4-2.8,12.1c-4.5,7.2-7.7,15.1-10.8,23c-3.7,9.5-5.9,19.3-4.3,29.5
			c2.2,13.6,8.1,25.5,17.4,35.7c2.4,2.6,2.4,2.6-0.2,5c-4,0.4-8,0.2-12,0.1c-1.3,0.1-1.7,1.1-2.2,2.1c-2.4,4.4-4.8,8.8-7.9,12.7
			c-8,9.8-17.6,17.8-28.5,24.3c-2.9,1.7-5.9,3.3-8.9,4.9c-1.3,0.7-2,1.8-1.8,3.4c0.5,4.5,0.9,9.1,1.4,13.6
			c0.7,6.9,1.6,13.8,3.2,20.5c4.3,17.9,11.3,34.7,20.4,50.7c10.7,18.7,24.3,35.1,39.7,50.1c11.6,11.3,24.4,21.2,37.4,30.9
			c12.6,9.5,25.5,18.5,39.5,25.9c1.4,0.8,2.6,0.8,4,0c4-2.4,8.1-4.5,12-6.9c11.8-7.1,22.8-15.4,33.7-23.8
			c17.5-13.4,34.1-27.7,48.4-44.7c15.8-18.9,28.3-39.6,36.9-62.7c4.9-13.1,7.8-26.6,9.1-40.5c0.4-4.4,0.9-8.7,1.4-13
			C343.7,196.5,343.2,195.5,341.9,194.8z M338.4,201.7c-2.5,38.5-16.7,72.3-40.2,102.5c-15.9,20.5-35.1,37.3-55.7,52.8
			c-13.1,9.8-26.3,19.5-40.7,27.4c-1.3,0.7-2.1,0.7-3.4,0c-17.5-9.6-33.3-21.6-49-33.8c-13-10.1-25.6-20.8-36.5-33.3
			c-9.9-11.4-19.5-23.1-26.9-36.4c-9.2-16.5-16.7-33.7-20.6-52.3c-2-9.6-2.9-19.3-3.8-29.1c-0.1-1.3,0.7-1.6,1.5-2
			c12.6-6.3,23.4-15.1,33.1-25.2c4.3-4.4,7.3-9.7,10.3-15c0.8-1.4,1.6-2,3.3-2c3.2,0.1,6.4,0.3,9.5-0.2c0.1-0.2,0.2-0.2,0.3-0.1
			c0.9,0,1.3-0.7,1.8-1.2c1.3-1.5,2.5-3.2,4-4.5c1.5-1.3,1-2-0.2-3.2c-10-9.5-16.5-21-19.5-34.5c-1.7-7.7-0.8-15.2,1.3-22.7
			c2.5-8.8,6-17.4,10.6-25.2c3.9-6.6,5.6-13.4,5.6-20.9c0-6.8,0-13.7-1.4-20.4c-0.2-0.8-0.4-1.5-0.7-2.3c0.5-0.4,0.9-0.1,1.3,0.2
			c6.1,3.6,13,4.4,19.9,4.8c10.9,0.6,21.2-2.2,31.5-5.4c5.6-1.7,11.3-3.5,17.1-4.4c9.1-1.4,18.1-0.5,26.9,2
			c7.8,2.2,15.4,4.9,23.3,6.4c10.5,2,21,2.1,31.4-1.3c2.1-0.7,4-1.8,6.1-2.9c-2,8.1-2.1,16.3-2,24.4c0.1,6.8,1.8,12.9,5.1,19
			c5.7,10.3,10.6,21,12.6,32.8c1.5,8.8,0,17.1-3,25.3c-3.5,9.7-9.2,17.9-16.6,25c-1.3,1.3-1.8,2-0.2,3.4c1.5,1.3,2.6,2.9,3.9,4.4
			c0.5,0.5,0.9,1.2,1.8,1.2c0.1-0.1,0.2-0.1,0.3,0.1c3.4,0.5,6.9,0.1,10.3,0.2c1,0,1.6,0.3,2.1,1.2c9.6,18.2,24.9,30.5,42.6,40.2
			C337.9,198,338.5,199.2,338.4,201.7z"/>
		<path class="st0" d="M164.8,28.9c7.3-3.4,15-5.2,22.9-6.2c10.3-1.3,20.6-1,30.9,1c11.3,2.2,21.7,6.3,30.9,13.4
			c0.4,0.3,0.8,0.6,1.1,1c0.1,0.1,0.2,0.3,0.3,0.6c-4.9,1.2-9.8,2.2-14.6,3.6c-12.5,3.5-23.6,9.8-33.2,18.5c-1.1,1-2.1,2.2-3.2,3.3
			c-1-1.1-2-2.3-3.1-3.3c-5.5-5.1-11.7-9.1-18.2-12.6c-0.5-0.3-1-0.5-1.5-0.8c-3.1-1.9-6.5-3-9.9-4.2c-5-1.8-10.2-2.7-15.4-4
			c-0.6-0.2-1.6,0-1.8-0.8c-0.2-0.6,0.6-1,1.1-1.4c0.1-0.1,0.3-0.3,0.3-0.4l0,0C155.8,33.6,160.2,31.1,164.8,28.9z"/>
		<path class="st0" d="M121,162.4c2.9-0.2,5.9-1.7,7.9-4.9c0.9-1.5,1.9-1.7,3.5-1.3c21.9,5.2,43.8,10.3,65.7,15.5
			c1.3,0.3,2.5,0.3,3.9,0c22-5.2,44.1-10.4,66.1-15.6c1.5-0.4,2.2,0,3,1.2c2.3,3.4,5.4,5.4,9.7,4.9c1.7-0.2,2,1.2,2.4,2.2
			c0.3,0.9-0.8,0.7-1.3,0.8c-6.7,1.6-13.4,3.2-20.1,4.7c-20,4.6-40.1,9.2-60.1,13.9c-1,0.2-1.9,0.2-3,0c-26.3-6.1-52.7-12.2-79-18.3
			c-0.9-0.2-2.4,0.2-2.6-1.2C116.8,163.3,118.5,162.4,121,162.4z"/>
		<path class="st0" d="M151.6,36.4c-0.1,0.8-0.9,1-1.2,1.8c1.1,0.9,2.7,0.9,3.9,1.2c5.1,1,10.1,2.3,15,4c2.5,0.9,5,2,7.4,3.1
			c0.2,0.1,0.4,0.5,0.5,0.7c-8.6-4-17.7-6.2-26.9-8.2c-0.4-0.1-0.8-0.2-1.4-0.4C149.7,37.5,150.5,36.9,151.6,36.4z"/>
		<path class="st0" d="M164.8,28.9c-0.5,1.3-1.9,1.2-2.9,1.8c-3.2,1.7-6.4,3.5-9.4,5.6c-0.2,0.2-0.6,0.1-0.9,0.2
			C155.5,33.1,160,30.7,164.8,28.9z"/>
		<path class="st0" d="M219.8,161.6c1.6-1.1,3.5-1.1,5.2-1.6c2.8-0.7,5.6-1.3,8.4-1.9c0.5-0.1,1.1-0.3,1.4-0.8
			c0.9,1.3-0.4,1-0.9,1.1c-3.8,0.9-7.6,1.8-11.4,2.6C221.6,161.3,220.7,161.4,219.8,161.6z"/>
		<path class="st0" d="M266.5,65.1c-0.4,0.4-0.7,0.3-0.7-0.2c0-1.8-0.8-3.5-0.3-5.5c0.6,1-0.1,2.1,0.5,3
			C266.1,63.3,266.3,64.2,266.5,65.1z"/>
		<path class="st0" d="M326,203.6c-3.3-1.4-6.6-2.7-9.7-4.6c-11.1-6.8-21.1-14.7-28.1-25.9c-0.7-1.1-1.3-1.5-2.7-1.2
			c-4.4,1.1-8.8,1.9-13.2,2.9c-23.6,5.6-47.2,11.2-70.8,16.9c-1,0.2-2,0.2-3,0c-4.6-1.1-9.1-2.2-13.7-3.3
			c-23.4-5.4-46.7-11.4-70.2-16.4c-1.3-0.3-2,0-2.7,1.1c-2.3,3.5-4.6,7-7.6,10c-8.7,8.6-18.4,15.9-29.9,20.5c-1.2,0.5-1.8,1-1.6,2.5
			c0.8,7.7,2,15.4,4,22.9c2.4,9.2,4.7,18.5,9.1,27c12,23.6,26.8,45.3,45.6,64.1c0.6,0.4,1,1,1.6,1.4c1.2,1.2,2.3,2.5,3.7,3.5
			c0.5,0.4,1,0.8,1.4,1.2c18.5,17.4,38.6,32.6,60.9,44.9c0.8,0.4,1.4,0.5,2.2,0c15-8.8,29.8-18.1,43.2-29.4
			c19.9-16.7,38.7-34.5,52.9-56.6c6.6-10.2,13.3-20.3,18.1-31.4c6.6-15.3,10.5-31.3,12.1-47.9C327.5,204.6,327.1,204,326,203.6z
			 M261.5,225.5c0,2.2-0.1,2.3-2.4,2.3c-1.9,0-3.8,0-5.6,0c-2.5,0-2.5,0-2.5,2.6c0,11,0,21.9,0,32.9c0,9.2-0.2,18.3,0.1,27.4
			c0.1,3.9-1.6,6.1-4.6,7.8c-8.1,7.8-16.2,15.5-24.3,23.3c-0.9,0.9-1.7,1.2-3,1.2c-12.9,0-25.7,0-38.6,0c-1.1,0-2-0.3-2.8-1.1
			c-8.9-8.6-17.8-17.3-26.8-25.8c-1.1-1.1-1.6-2.1-1.6-3.7c0.1-20.9,0-41.9,0.1-62.8c0-1.8-0.4-2.4-2.3-2.3c-2.4,0.2-4.8,0-7.1,0
			c-0.7,0-1.4,0.1-1.4-1c0.1-7.4,0.1-14.8,0.1-22.2c0.4-0.6,0.9-0.3,1.4-0.3c16.5,0,32.9,0,49.4,0c0.5,0,1-0.2,1.4,0.2
			c0.6,0.5,0.4,1.1,0.4,1.7c0,6.6,0,13.2,0,19.8c0,1.4-0.4,1.9-1.8,1.8c-1.9-0.1-3.8,0-5.6,0c-0.9,0-1.3,0.3-1.2,1.2
			c0,0.2,0,0.4,0,0.6c0,19.5,0,39,0,58.5c0,0.4,0.1,0.7,0.1,1.1c0.2,0.2,0.3,0.5,0.3,0.8c2.3,2.5,4.9,4.8,7.5,7.1
			c0.8,0.3,1.5,0.5,2.4,0.5c4.6,0,9.1,0,13.7,0c0.8,0,1.6-0.2,2.4-0.5c1-0.7,1.9-1.6,2.7-2.6c0.6-1.7,2.3-2.4,3.5-3.6
			c1-1,1.5-2,1.5-3.4c0-19,0-38,0-57c0-2.3,0-2.3-2.3-2.3c-1.6,0-3.1,0-4.7,0c-1.1,0-1.7-0.5-1.7-1.5c0-7.1-0.1-14.3,0-21.4
			c0-0.3,0.1-0.6,0.4-0.9c0.4-0.1,0.7-0.1,1.1-0.1c16.8,0,33.6,0,50.4,0c0.4,0,0.8,0,1.1,0.1c0.5,0.6,0.4,1.3,0.4,2
			C261.5,212.4,261.5,219,261.5,225.5z"/>
		<path class="st0" d="M208.5,204.2c0,7.1,0.1,14.3,0,21.4c0,1.4,0.3,1.9,1.8,1.8c1.7-0.1,3.5,0.1,5.3-0.1c1.4-0.1,1.7,0.5,1.7,1.7
			c0,8.9,0,17.8,0,26.7c0,10.6,0,21.2,0,31.8c0,1.1-0.2,1.8-1.1,2.5c-1.5,1.2-2.5,2.9-4.2,4c-0.5-0.4-0.4-0.9,0-1.3
			c0.4-0.4,0.9-0.7,1.3-1c2.1-1.3,3.3-2.8,3.2-5.6c-0.1-18.6-0.1-37.3,0-55.9c0-1.7-0.4-2.4-2.2-2.2c-1.3,0.1-2.6,0-3.9,0
			c-2.3,0-2.6-0.2-2.6-2.6c0-4.8,0-9.5,0-14.3c0-1.9,0-3.9,0-5.8c0-0.7,0-1.4,0.8-1.8C208.7,203.9,208.7,204,208.5,204.2z"/>
		<path class="st0" d="M246.5,298.6c0.2-0.3,0.4-0.7,0.7-0.8c3.1-1.8,3.4-4.5,3.4-7.8c-0.1-20.1,0-40.2-0.1-60.3
			c0-1.9,0.5-2.3,2.3-2.2c2.4,0.2,4.8,0,7.1,0c0.7,0,1.3,0,1.3-1c-0.1-7.4-0.1-14.8-0.1-22.2c-0.2-0.2-0.1-0.4,0.1-0.5
			c0.4,0.1,0.6,0.4,0.8,0.8c-0.3,0.4-0.2,0.8-0.2,1.3c0,6.8,0,13.6,0,20.4c0,0.4-0.1,0.9,0.2,1.3c-0.4,0.9-1.2,0.8-1.9,0.8
			c-2.3,0-4.5,0.1-6.8,0c-1.8-0.1-1.9,0.8-1.9,2.1c0,20.6,0,41.2,0.1,61.8c0,3.5-2.3,5-4.5,6.8C246.9,298.9,246.6,298.7,246.5,298.6
			z"/>
		<path class="st0" d="M183.3,289.5c-0.3-0.2-0.5-0.4-0.3-0.8c0.5-0.7,0.3-1.5,0.3-2.2c0-18.9,0-37.7,0-56.6c0-1.7,0.4-2.4,2.2-2.2
			c1.9,0.2,3.8,0,5.7,0.4c-1.7,0-3.4,0-5,0c-2.5,0-2.5,0-2.5,2.4c0,18.9,0,37.9,0,56.8C183.6,288.1,183.9,288.9,183.3,289.5z"/>
		<path class="st0" d="M261.2,203.7c0,0.2,0,0.3-0.1,0.5c-17.5,0-35.1,0-52.6,0c0-0.2,0-0.4-0.1-0.5
			C226,203.7,243.6,203.7,261.2,203.7z"/>
		<path class="st0" d="M191,204.1c-3,0-6,0.1-9,0.1c-14.4,0-28.8,0-43.2,0c0.3-0.7,0.9-0.5,1.5-0.5c16.6,0,33.3,0,49.9,0
			c0.3,0,0.6,0.1,0.9,0.1c0,0,0,0.1,0,0.2C191.1,204,191.1,204.1,191,204.1z"/>
		<path class="st0" d="M220.8,323.8c-13.7,0-27.4,0-41.2,0c0-0.1,0-0.1,0-0.2c13.7,0,27.5,0,41.2,0
			C220.8,323.6,220.8,323.7,220.8,323.8z"/>
		<path class="st0" d="M209.2,296.6c-0.4,0.8-1.2,0.7-2,0.7c-4.8,0-9.6,0-14.5,0c-0.8,0-1.5,0.1-2-0.7
			C196.9,296.6,203.1,296.6,209.2,296.6z"/>
		<path class="st0" d="M138.2,226.9c0-7.5,0-15,0-22.4c0.1,0,0.1,0,0.2,0c0,7.5,0,15,0,22.5C138.3,227,138.2,226.9,138.2,226.9z"/>
		<path class="st0" d="M261.9,227.4c-0.5-0.4-0.4-1-0.4-1.6c0-6.6,0-13.2,0-19.8c0-0.5-0.2-1.1,0.4-1.6
			C261.9,212.1,261.9,219.8,261.9,227.4z"/>
		<path class="st0" d="M139.3,227.9c3.1,0,6.2,0,9.3,0c0,0.1,0,0.1,0,0.2c-3.1,0-6.2,0-9.3,0C139.3,228,139.3,228,139.3,227.9z"/>
		<path class="st0" d="M274.7,77.3c-3.1-3.8-6.6-7.4-8.3-12.2c-0.6-1-0.8-2.1-0.9-3.1c0.1,0.2,0.2,0.4,0.4,0.5
			c-0.2-3.9,0.9-7.6,2.3-11.1c0.4-1.1,0.8-2.1,1.2-3.2c0.6-1.7,0.4-1.9-1.4-1.6c-5.3,0.8-10.5,1.5-15.8,2.5
			c-21.2,3.8-38.8,13.5-51.6,31.3c-0.4,0.7-0.8,0.5-1.3,0.1c-3.5-4.9-7.5-9.4-12-13.4c-8.6-7.5-18.6-12.2-29.4-15.6
			c-8.6-2.7-17.5-3.6-26.4-4.9c-1.3-0.2-1.3,0.5-1,1.5c0.9,2.6,1.9,5.2,2.7,7.8c1.5,4.7,1,9.1-1.6,13.4c-1.9,3-4.3,5.6-6.4,8.3
			c-4.3,5.5-7.5,11.4-8.3,18.4c-0.8,7.5-0.4,15,3.4,21.8c4.7,8.3,11.6,14,20.9,16.7c12.1,3.5,23,0.4,33.5-5.4c2.5-1.4,4.7-3.2,7.3-5
			c0,4.3,0.4,8.3-0.8,12.3c-1.5,5.2-4.6,9.5-8.1,13.5c-2.1,2.4-4.6,4.4-6.9,6.7c-0.5,0.5-1.4,0.8-1.2,1.5c0.2,0.9,1.3,0.6,1.9,0.9
			c0.1,0,0.1,0,0.2,0c10,2.3,20.1,4.5,30.1,6.8c1.1,0.3,2.3,0.8,3.5,0.5c6.4-1.5,12.8-2.9,19.2-4.4c4.1-1.2,8.3-1.9,12.5-2.9
			c0.9-0.2,2.2,0,2.6-1.3c-1.3-1.3-2.5-2.5-3.8-3.8c-3.7-3.5-7.3-7.2-9.8-11.8c-3.1-5.6-3.6-11.6-3-18c1,0.7,1.8,1.3,2.6,1.9
			c0.8,0.6,1.6,1.2,2.4,1.8c12.6,7.8,25.7,11.3,40.2,5.2c8.5-3.6,14.7-9.7,17.8-18.1C286,101.1,283.9,88.5,274.7,77.3z M179.5,101.2
			c-2.4,10.1-12.4,17.2-22.8,16.2c-10.8-1.1-19.2-10.1-19.4-20.8c-0.2-10.7,7.6-19.8,18.2-21.4c5.2-0.8,9.9,0.4,14.5,2.8
			c2.2,1.1,4.1,2.5,5.4,4.6C179.4,88.2,181.1,94.3,179.5,101.2z M241.4,117.4c-11.9,0-21.5-9.5-21.5-21.3c0-11.6,9.6-21.2,21.2-21.2
			c11.9,0,21.6,9.4,21.6,21.2C262.7,107.8,253.1,117.4,241.4,117.4z M265.5,61c0-0.3,0-0.6,0-0.9C265.6,60.3,265.5,60.6,265.5,61z"
			/>
		<path class="st0" d="M175.3,82.6c-1.7-1.7-3.5-3.2-5.4-4.6C171.7,78.2,174.8,80.8,175.3,82.6z"/>
	</g>
</g>
</svg>
